<?xml version="1.0" standalone="no"?>
<!DOCTYPE svg PUBLIC "-//W3C//DTD SVG 20000303 Stylable//EN"
"http://www.w3.org/TR/2000/03/WD-SVG-20000303/DTD/svg-20000303-stylable.dtd">
<!-- Title: sendPage-001.lqxo -->
<!-- Creator: lqn2svg Version 5.25 -->
<!-- Mon Apr 11 21:38:02 2022 -->
<!-- For: Haomi -->
<!-- Invoked as: lqn2svg sendPage-001.lqxo -->
<svg xmlns="http://www.w3.org/2000/svg" width="2.625in" height="10.8889in" viewBox="0 0 4725 19600">
<desc>0x1739bb0</desc>
<!-- Task Userr  user -1 UserP -->
<polygon  fill="#ffffff" stroke="black" stroke-width="25" points="1575,450 3262.5,450 3150,1575 1462.5,1575 "/>
<text x="2363" y="1538" font-family="Times" font-style="Roman" font-size="225" fill="black" text-anchor="middle">&#0955;=0.0951,&#0961;=1</text>
<text x="2363" y="1313" font-family="Times" font-style="Roman" font-size="225" fill="black" text-anchor="middle">User</text>
<!-- Entry user s [0] -->
<polyline  stroke="black" stroke-width="25" fill="none" points="1890,450 1822.5,1125 2880,1125 2947.5,450 "/>
<text x="2385" y="1069" font-family="Times" font-style="Roman" font-size="225" fill="black" text-anchor="middle">10.5</text>
<text x="2385" y="844" font-family="Times" font-style="Roman" font-size="225" fill="black" text-anchor="middle">[0]</text>
<text x="2385" y="619" font-family="Times" font-style="Roman" font-size="225" fill="black" text-anchor="middle">user</text>
<!-- Call user protocol y (1) -->
<line x1="2385" y1="1125" x2="2385" y2="2925" stroke="Red" stroke-width="25"/>
<polygon fill="Red" stroke="Red" stroke-width="25" points="2385,2925 2435,2775 2385,2800 2335,2775 "/>
<text x="2385" y="2663" font-family="Times" font-style="Roman" font-size="225" fill="black" text-anchor="middle">0</text>
<text x="2385" y="2438" font-family="Times" font-style="Roman" font-size="225" fill="black" text-anchor="middle">(1)</text>
<!-- Task Protocoln  protocol -1 WSP -->
<polygon  fill="#ffe5e5" stroke="Red" stroke-width="25" points="1575,2925 3262.5,2925 3150,4050 1462.5,4050 "/>
<text x="2363" y="4013" font-family="Times" font-style="Roman" font-size="225" fill="black" text-anchor="middle">&#0955;=0.0951,&#0961;=1</text>
<text x="2363" y="3788" font-family="Times" font-style="Roman" font-size="225" fill="black" text-anchor="middle">Protocol</text>
<!-- Entry protocol s [0.25] -->
<polyline  stroke="Red" stroke-width="25" fill="none" points="1890,2925 1822.5,3600 2880,3600 2947.5,2925 "/>
<text x="2385" y="3544" font-family="Times" font-style="Roman" font-size="225" fill="black" text-anchor="middle">10.5</text>
<text x="2385" y="3319" font-family="Times" font-style="Roman" font-size="225" fill="black" text-anchor="middle">[0.25]</text>
<text x="2385" y="3094" font-family="Times" font-style="Roman" font-size="225" fill="black" text-anchor="middle">protocol</text>
<!-- Call protocol webServer y (1) -->
<line x1="2385" y1="3600" x2="2645" y2="5400" stroke="Red" stroke-width="25"/>
<polygon fill="Red" stroke="Red" stroke-width="25" points="2645,5400 2673.04,5244.39 2627.13,5276.28 2574.07,5258.69 "/>
<text x="2580" y="5138" font-family="Times" font-style="Roman" font-size="225" fill="black" text-anchor="middle">0</text>
<text x="2580" y="4913" font-family="Times" font-style="Roman" font-size="225" fill="black" text-anchor="middle">(1)</text>
<!-- Call Protocol WSP -->
<line x1="2362.5" y1="4050" x2="2362.5" y2="18025" stroke="Red" stroke-width="25"/>
<polygon fill="Red" stroke="Red" stroke-width="25" points="2362.5,18025 2412.5,17875 2362.5,17900 2312.5,17875 "/>
<!-- Task WebServern  webServer -1 WSP -->
<polygon  fill="#ffe5e5" stroke="Red" stroke-width="25" points="1218.75,5400 4138.75,5400 3506.25,11725 586.25,11725 "/>
<text x="2363" y="6513" font-family="Times" font-style="Roman" font-size="225" fill="black" text-anchor="middle">&#0955;=0.0951,&#0961;=0.976</text>
<text x="2363" y="6288" font-family="Times" font-style="Roman" font-size="225" fill="black" text-anchor="middle">WebServer</text>
<!-- Entry webServer A analyze -->
<polyline  stroke="Red" stroke-width="25" fill="none" points="2150,5400 2082.5,6075 3140,6075 3207.5,5400 "/>
<text x="2645" y="5925" font-family="Times" font-style="Roman" font-size="225" fill="black" text-anchor="middle">10.3</text>
<text x="2645" y="5700" font-family="Times" font-style="Roman" font-size="225" fill="black" text-anchor="middle">webServer</text>
<line x1="2645" y1="6075" x2="2381.25" y2="6525" stroke="Red" stroke-width="25"/>
<polygon fill="Red" stroke="Red" stroke-width="25" points="2381.25,6525 2500.24,6420.87 2444.46,6417.16 2413.96,6370.31 "/>
<!-- Call webServerEnd webServer -->
<line x1="2643.75" y1="10800" x2="2926.25" y2="6075" stroke-dasharray="75" stroke="Red" stroke-width="25"/>
<polygon fill="Red" stroke="Red" stroke-width="25" points="2926.25,6075 2867.39,6221.75 2918.79,6199.78 2967.21,6227.72 "/>
<!-- Activity analyze s [1] level=1 -->
<polygon  fill="#ffe5e5" stroke="Red" stroke-width="25" points="1856.25,7200 1856.25,6525 2906.25,6525 2906.25,7200 1856.25,7200 "/>
<text x="2381" y="7144" font-family="Times" font-style="Roman" font-size="225" fill="black" text-anchor="middle">1</text>
<text x="2381" y="6919" font-family="Times" font-style="Roman" font-size="225" fill="black" text-anchor="middle">[1]</text>
<text x="2381" y="6694" font-family="Times" font-style="Roman" font-size="225" fill="black" text-anchor="middle">analyze</text>
<!-- Activity cache s [1] level=2 -->
<polygon  fill="#ffe5e5" stroke="Red" stroke-width="25" points="1256.25,8625 1256.25,7950 2306.25,7950 2306.25,8625 1256.25,8625 "/>
<text x="1781" y="8569" font-family="Times" font-style="Roman" font-size="225" fill="black" text-anchor="middle">1</text>
<text x="1781" y="8344" font-family="Times" font-style="Roman" font-size="225" fill="black" text-anchor="middle">[1]</text>
<text x="1781" y="8119" font-family="Times" font-style="Roman" font-size="225" fill="black" text-anchor="middle">cache</text>
<!-- Activity cacheEnd s [0] level=3 -->
<polygon  fill="#ffe5e5" stroke="Red" stroke-width="25" points="1256.25,10050 1256.25,9375 2306.25,9375 2306.25,10050 1256.25,10050 "/>
<!-- Call cacheEnd sendStatic y (1) -->
<line x1="2043.75" y1="10050" x2="2913.75" y2="13075" stroke="Yellow" stroke-width="25"/>
<polygon fill="Yellow" stroke="Yellow" stroke-width="25" points="2913.75,13075 2920.34,12917 2879.2,12954.9 2824.24,12944.7 "/>
<text x="2784" y="12813" font-family="Times" font-style="Roman" font-size="225" fill="black" text-anchor="middle">0</text>
<text x="2784" y="12588" font-family="Times" font-style="Roman" font-size="225" fill="black" text-anchor="middle">(1)</text>
<text x="1781" y="9994" font-family="Times" font-style="Roman" font-size="225" fill="black" text-anchor="middle">4.8</text>
<text x="1781" y="9769" font-family="Times" font-style="Roman" font-size="225" fill="black" text-anchor="middle">[0]</text>
<text x="1781" y="9544" font-family="Times" font-style="Roman" font-size="225" fill="black" text-anchor="middle">cacheEnd</text>
<!-- Activity cgiDrive s [0] level=2 -->
<polygon  fill="#ffe5e5" stroke="Red" stroke-width="25" points="2456.25,8625 2456.25,7950 3506.25,7950 3506.25,8625 2456.25,8625 "/>
<text x="2981" y="8569" font-family="Times" font-style="Roman" font-size="225" fill="black" text-anchor="middle">0</text>
<text x="2981" y="8344" font-family="Times" font-style="Roman" font-size="225" fill="black" text-anchor="middle">[0]</text>
<text x="2981" y="8119" font-family="Times" font-style="Roman" font-size="225" fill="black" text-anchor="middle">cgiDrive</text>
<!-- Activity diskFetch s [1] level=3 -->
<polygon  fill="#ffe5e5" stroke="Red" stroke-width="25" points="2456.25,10050 2456.25,9375 3506.25,9375 3506.25,10050 2456.25,10050 "/>
<!-- Call diskFetch sendDynamic y (1) -->
<line x1="2718.75" y1="10050" x2="1856.25" y2="13075" stroke="Yellow" stroke-width="25"/>
<polygon fill="Yellow" stroke="Yellow" stroke-width="25" points="1856.25,13075 1945.46,12944.5 1890.52,12954.8 1849.3,12917 "/>
<text x="1985" y="12813" font-family="Times" font-style="Roman" font-size="225" fill="black" text-anchor="middle">0</text>
<text x="1985" y="12588" font-family="Times" font-style="Roman" font-size="225" fill="black" text-anchor="middle">(1)</text>
<text x="2981" y="9994" font-family="Times" font-style="Roman" font-size="225" fill="black" text-anchor="middle">19.8</text>
<text x="2981" y="9769" font-family="Times" font-style="Roman" font-size="225" fill="black" text-anchor="middle">[1]</text>
<text x="2981" y="9544" font-family="Times" font-style="Roman" font-size="225" fill="black" text-anchor="middle">diskFetch</text>
<!-- Activity webServerEnd s [0] level=4 -->
<polygon  fill="#ffe5e5" stroke="Red" stroke-width="25" points="1856.25,11475 1856.25,10800 2906.25,10800 2906.25,11475 1856.25,11475 "/>
<text x="2381" y="11419" font-family="Times" font-style="Roman" font-size="225" fill="black" text-anchor="middle">0</text>
<text x="2381" y="11194" font-family="Times" font-style="Roman" font-size="225" fill="black" text-anchor="middle">[0]</text>
<text x="2381" y="10969" font-family="Times" font-style="Roman" font-size="225" fill="black" text-anchor="middle">webServerEnd</text>
<line x1="2381.25" y1="7200" x2="2381.25" y2="7450" stroke="Red" stroke-width="25"/>
<polygon fill="Red" stroke="Red" stroke-width="25" points="2381.25,7450 2431.25,7300 2381.25,7325 2331.25,7300 "/>
<line x1="1781.25" y1="8625" x2="2381.25" y2="8875" stroke="Red" stroke-width="25"/>
<polygon fill="Red" stroke="Red" stroke-width="25" points="2381.25,8875 2262.02,8771.15 2265.87,8826.92 2223.56,8863.46 "/>
<circle cx="2381" cy="7600" r="150"  fill="#ffe5e5" stroke="Red" stroke-width="25"/>
<text x="2381" y="7675" font-family="Times" font-style="Roman" font-size="225" fill="Red" text-anchor="middle">+</text>
<line x1="2251.68" y1="7675.58" x2="1781.25" y2="7950" stroke="Red" stroke-width="25"/>
<polygon fill="Red" stroke="Red" stroke-width="25" points="1781.25,7950 1936.01,7917.61 1889.22,7887.02 1885.62,7831.23 "/>
<line x1="2510.82" y1="7675.58" x2="2981.25" y2="7950" stroke="Red" stroke-width="25"/>
<polygon fill="Red" stroke="Red" stroke-width="25" points="2981.25,7950 2876.88,7831.23 2873.28,7887.02 2826.49,7917.61 "/>
<line x1="2251.68" y1="7675.58" x2="1781.25" y2="7950" stroke="Red" stroke-width="25"/>
<polygon fill="Red" stroke="Red" stroke-width="25" points="1781.25,7950 1936.01,7917.61 1889.22,7887.02 1885.62,7831.23 "/>
<line x1="2510.82" y1="7675.58" x2="2981.25" y2="7950" stroke="Red" stroke-width="25"/>
<polygon fill="Red" stroke="Red" stroke-width="25" points="2981.25,7950 2876.88,7831.23 2873.28,7887.02 2826.49,7917.61 "/>
<text x="1824" y="7877" font-family="Times" font-style="Roman" font-size="225" fill="black" text-anchor="middle">0.9</text>
<text x="2938" y="7877" font-family="Times" font-style="Roman" font-size="225" fill="black" text-anchor="middle">0.1</text>
<circle cx="2381" cy="10400" r="150"  fill="#ffe5e5" stroke="Red" stroke-width="25"/>
<text x="2381" y="10475" font-family="Times" font-style="Roman" font-size="225" fill="Red" text-anchor="middle">+</text>
<line x1="1781.25" y1="10050" x2="2251.68" y2="10324.4" stroke="Red" stroke-width="25"/>
<polygon fill="Red" stroke="Red" stroke-width="25" points="2251.68,10324.4 2147.31,10205.6 2143.71,10261.4 2096.92,10292 "/>
<line x1="2981.25" y1="8625" x2="2429.28" y2="10257.9" stroke="Red" stroke-width="25"/>
<polygon fill="Red" stroke="Red" stroke-width="25" points="2429.28,10257.9 2524.69,10131.8 2469.31,10139.5 2429.95,10099.8 "/>
<line x1="2981.25" y1="10050" x2="2510.82" y2="10324.4" stroke="Red" stroke-width="25"/>
<polygon fill="Red" stroke="Red" stroke-width="25" points="2510.82,10324.4 2665.58,10292 2618.79,10261.4 2615.19,10205.6 "/>
<circle cx="2381" cy="9025" r="150"  fill="#ffe5e5" stroke="Red" stroke-width="25"/>
<text x="2381" y="9100" font-family="Times" font-style="Roman" font-size="225" fill="Red" text-anchor="middle">+</text>
<line x1="2251.68" y1="9100.58" x2="1781.25" y2="9375" stroke="Red" stroke-width="25"/>
<polygon fill="Red" stroke="Red" stroke-width="25" points="1781.25,9375 1936.01,9342.61 1889.22,9312.02 1885.62,9256.23 "/>
<line x1="2510.82" y1="9100.58" x2="2981.25" y2="9375" stroke="Red" stroke-width="25"/>
<polygon fill="Red" stroke="Red" stroke-width="25" points="2981.25,9375 2876.88,9256.23 2873.28,9312.02 2826.49,9342.61 "/>
<line x1="2251.68" y1="9100.58" x2="1781.25" y2="9375" stroke="Red" stroke-width="25"/>
<polygon fill="Red" stroke="Red" stroke-width="25" points="1781.25,9375 1936.01,9342.61 1889.22,9312.02 1885.62,9256.23 "/>
<line x1="2510.82" y1="9100.58" x2="2981.25" y2="9375" stroke="Red" stroke-width="25"/>
<polygon fill="Red" stroke="Red" stroke-width="25" points="2981.25,9375 2876.88,9256.23 2873.28,9312.02 2826.49,9342.61 "/>
<text x="1824" y="9302" font-family="Times" font-style="Roman" font-size="225" fill="black" text-anchor="middle">0.7</text>
<text x="2938" y="9302" font-family="Times" font-style="Roman" font-size="225" fill="black" text-anchor="middle">0.3</text>
<line x1="2381.25" y1="10550" x2="2381.25" y2="10800" stroke="Red" stroke-width="25"/>
<polygon fill="Red" stroke="Red" stroke-width="25" points="2381.25,10800 2431.25,10650 2381.25,10675 2331.25,10650 "/>
<!-- Call WebServer WSP -->
<line x1="2362.5" y1="11725" x2="2362.5" y2="18025" stroke="Red" stroke-width="25"/>
<polygon fill="Red" stroke="Red" stroke-width="25" points="2362.5,18025 2412.5,17875 2362.5,17900 2312.5,17875 "/>
<!-- Task WebReplyn  sendStatic sendDynamic -1 WSP -->
<polygon  fill="#ffffe5" stroke="Yellow" stroke-width="25" points="1361.25,13075 3476.25,13075 3363.75,14200 1248.75,14200 "/>
<text x="2363" y="14163" font-family="Times" font-style="Roman" font-size="225" fill="black" text-anchor="middle">&#0955;=0.0856,&#0961;=0.77</text>
<text x="2363" y="13938" font-family="Times" font-style="Roman" font-size="225" fill="black" text-anchor="middle">WebReply</text>
<!-- Entry sendDynamic s [0.8] -->
<polyline  stroke="Yellow" stroke-width="25" fill="none" points="1293.75,13750 2351.25,13750 2418.75,13075 "/>
<text x="1856" y="13694" font-family="Times" font-style="Roman" font-size="225" fill="black" text-anchor="middle">18.8</text>
<text x="1856" y="13469" font-family="Times" font-style="Roman" font-size="225" fill="black" text-anchor="middle">[0.8]</text>
<text x="1856" y="13244" font-family="Times" font-style="Roman" font-size="225" fill="black" text-anchor="middle">sendDynamic</text>
<!-- Call sendDynamic getObjects y (8) -->
<line x1="1668.75" y1="13750" x2="1372.5" y2="15550" stroke="Indigo" stroke-width="25"/>
<polygon fill="Indigo" stroke="Indigo" stroke-width="25" points="1372.5,15550 1446.2,15410.1 1392.8,15426.7 1347.52,15393.9 "/>
<text x="1447" y="15288" font-family="Times" font-style="Roman" font-size="225" fill="black" text-anchor="middle">0</text>
<text x="1447" y="15063" font-family="Times" font-style="Roman" font-size="225" fill="black" text-anchor="middle">(8)</text>
<!-- Call sendDynamic packet y (40) -->
<line x1="2043.75" y1="13750" x2="3210" y2="15550" stroke="Turquoise" stroke-width="25"/>
<polygon fill="Turquoise" stroke="Turquoise" stroke-width="25" points="3210,15550 3170.4,15396.9 3142.03,15445.1 3086.47,15451.3 "/>
<text x="2918" y="15288" font-family="Times" font-style="Roman" font-size="225" fill="black" text-anchor="middle">0</text>
<text x="2918" y="15063" font-family="Times" font-style="Roman" font-size="225" fill="black" text-anchor="middle">(40)</text>
<!-- Entry sendStatic s [0.8] -->
<line x1="2351.25" y1="13750" x2="3408.75" y2="13750" stroke="Yellow" stroke-width="25"/>
<text x="2914" y="13694" font-family="Times" font-style="Roman" font-size="225" fill="black" text-anchor="middle">4.8</text>
<text x="2914" y="13469" font-family="Times" font-style="Roman" font-size="225" fill="black" text-anchor="middle">[0.8]</text>
<text x="2914" y="13244" font-family="Times" font-style="Roman" font-size="225" fill="black" text-anchor="middle">sendStatic</text>
<!-- Call sendStatic packet y (16) -->
<line x1="2913.75" y1="13750" x2="3585" y2="15550" stroke="Turquoise" stroke-width="25"/>
<polygon fill="Turquoise" stroke="Turquoise" stroke-width="25" points="3585,15550 3579.44,15392 3541.32,15432.9 3485.74,15426.9 "/>
<text x="3249" y="14838" font-family="Times" font-style="Roman" font-size="225" fill="black" text-anchor="middle">0</text>
<text x="3249" y="14613" font-family="Times" font-style="Roman" font-size="225" fill="black" text-anchor="middle">(16)</text>
<!-- Call WebReply WSP -->
<line x1="2362.5" y1="14200" x2="2362.5" y2="18025" stroke="Red" stroke-width="25"/>
<polygon fill="Red" stroke="Red" stroke-width="25" points="2362.5,18025 2412.5,17875 2362.5,17900 2312.5,17875 "/>
<!-- Task GetObjectsn  getObjects -1 WSP -->
<polygon  fill="#e5f0ff" stroke="Indigo" stroke-width="25" points="562.5,15550 2250,15550 2137.5,16675 450,16675 "/>
<text x="1350" y="16638" font-family="Times" font-style="Roman" font-size="225" fill="black" text-anchor="middle">&#0955;=0.205,&#0961;=0.205</text>
<text x="1350" y="16413" font-family="Times" font-style="Roman" font-size="225" fill="black" text-anchor="middle">GetObjects</text>
<!-- Entry getObjects s [1] -->
<polyline  stroke="Indigo" stroke-width="25" fill="none" points="877.5,15550 810,16225 1867.5,16225 1935,15550 "/>
<text x="1373" y="16169" font-family="Times" font-style="Roman" font-size="225" fill="black" text-anchor="middle">1</text>
<text x="1373" y="15944" font-family="Times" font-style="Roman" font-size="225" fill="black" text-anchor="middle">[1]</text>
<text x="1373" y="15719" font-family="Times" font-style="Roman" font-size="225" fill="black" text-anchor="middle">getObjects</text>
<!-- Call GetObjects WSP -->
<line x1="1800" y1="16675" x2="2203.78" y2="18047.9" stroke="Red" stroke-width="25"/>
<polygon fill="Red" stroke="Red" stroke-width="25" points="2203.78,18047.9 2209.42,17889.8 2168.51,17927.9 2113.49,17918.1 "/>
<!-- Task ProtocolReplyn  packet -1 WSP -->
<polygon  fill="#e5fff2" stroke="Turquoise" stroke-width="25" points="2587.5,15550 4275,15550 4162.5,16675 2475,16675 "/>
<text x="3375" y="16638" font-family="Times" font-style="Roman" font-size="225" fill="black" text-anchor="middle">&#0955;=1.98,&#0961;=0.496</text>
<text x="3375" y="16413" font-family="Times" font-style="Roman" font-size="225" fill="black" text-anchor="middle">ProtocolReply</text>
<!-- Entry packet s [0.25] -->
<polyline  stroke="Turquoise" stroke-width="25" fill="none" points="2902.5,15550 2835,16225 3892.5,16225 3960,15550 "/>
<text x="3398" y="16169" font-family="Times" font-style="Roman" font-size="225" fill="black" text-anchor="middle">0.25</text>
<text x="3398" y="15944" font-family="Times" font-style="Roman" font-size="225" fill="black" text-anchor="middle">[0.25]</text>
<text x="3398" y="15719" font-family="Times" font-style="Roman" font-size="225" fill="black" text-anchor="middle">packet</text>
<!-- Call ProtocolReply WSP -->
<line x1="2925" y1="16675" x2="2521.22" y2="18047.9" stroke="Red" stroke-width="25"/>
<polygon fill="Red" stroke="Red" stroke-width="25" points="2521.22,18047.9 2611.51,17918.1 2556.49,17927.9 2515.58,17889.8 "/>
<!-- Processor WSP FCFS -->
<circle cx="2363" cy="18588" r="563"  fill="#ffe5e5" stroke="Red" stroke-width="25"/>
<text x="2363" y="18775" font-family="Times" font-style="Roman" font-size="225" fill="black" text-anchor="middle">&#0961;=0.997</text>
<text x="2363" y="18550" font-family="Times" font-style="Roman" font-size="225" fill="black" text-anchor="middle">WSP</text>
</svg>
