<?xml version="1.0" standalone="no"?>
<!DOCTYPE svg PUBLIC "-//W3C//DTD SVG 20000303 Stylable//EN"
"http://www.w3.org/TR/2000/03/WD-SVG-20000303/DTD/svg-20000303-stylable.dtd">
<!-- Title: projectCode/3FurtherImprovements/3Distributor/Distributor.d/Distributor-012.lqxo -->
<!-- Creator: lqn2svg Version 5.26 -->
<!-- Thu Apr 14 00:45:50 2022 -->
<!-- For: Haomi -->
<!-- Invoked as: lqn2svg projectCode/3FurtherImprovements/3Distributor/Distributor.d/Distributor-012.lqxo -->
<svg xmlns="http://www.w3.org/2000/svg" width="5.00556in" height="14.9444in" viewBox="0 0 9010 26900">
<desc>0x17ea6f0</desc>
<!-- Task Userr  user -1 UP -->
<polygon  fill="#ffffff" stroke="black" stroke-width="25" points="3767.5,500 5455,500 5342.5,1625 3655,1625 "/>
<polygon  fill="#ffffff" stroke="black" stroke-width="25" points="3717.5,450 5405,450 5292.5,1575 3605,1575 "/>
<text x="4505" y="1538" font-family="Times" font-style="Roman" font-size="225" fill="black" text-anchor="middle">&#0955;=0.742,&#0961;=12</text>
<text x="4505" y="1313" font-family="Times" font-style="Roman" font-size="225" fill="black" text-anchor="middle">User {12}</text>
<!-- Entry user s [0] -->
<polyline  stroke="black" stroke-width="25" fill="none" points="4032.5,450 3965,1125 5022.5,1125 5090,450 "/>
<text x="4528" y="1069" font-family="Times" font-style="Roman" font-size="225" fill="black" text-anchor="middle">16.2</text>
<text x="4528" y="844" font-family="Times" font-style="Roman" font-size="225" fill="black" text-anchor="middle">[0]</text>
<text x="4528" y="619" font-family="Times" font-style="Roman" font-size="225" fill="black" text-anchor="middle">user</text>
<!-- Call user distributor y (1) -->
<line x1="4527.5" y1="1125" x2="4716.25" y2="2925" stroke="Blue" stroke-width="25"/>
<polygon fill="Blue" stroke="Blue" stroke-width="25" points="4716.25,2925 4750.33,2770.6 4703.21,2800.68 4650.88,2781.03 "/>
<text x="4669" y="2663" font-family="Times" font-style="Roman" font-size="225" fill="black" text-anchor="middle">0</text>
<text x="4669" y="2438" font-family="Times" font-style="Roman" font-size="225" fill="black" text-anchor="middle">(1)</text>
<!-- Task Distributorn  distributor -1 ProtocolP1 -->
<polygon  fill="#e5e5ff" stroke="Blue" stroke-width="25" points="3411.25,2975 6188.75,2975 5698.75,7875 2921.25,7875 "/>
<polygon  fill="#e5e5ff" stroke="Blue" stroke-width="25" points="3361.25,2925 6138.75,2925 5648.75,7825 2871.25,7825 "/>
<text x="4505" y="4038" font-family="Times" font-style="Roman" font-size="225" fill="black" text-anchor="middle">&#0955;=0.742,&#0961;=12</text>
<text x="4505" y="3813" font-family="Times" font-style="Roman" font-size="225" fill="black" text-anchor="middle">Distributor {100}</text>
<!-- Entry distributor A analyze -->
<polyline  stroke="Blue" stroke-width="25" fill="none" points="4221.25,2925 4153.75,3600 5211.25,3600 5278.75,2925 "/>
<text x="4716" y="3450" font-family="Times" font-style="Roman" font-size="225" fill="black" text-anchor="middle">16.2</text>
<text x="4716" y="3225" font-family="Times" font-style="Roman" font-size="225" fill="black" text-anchor="middle">distributor</text>
<line x1="4716.25" y1="3600" x2="4523.75" y2="4050" stroke="Blue" stroke-width="25"/>
<polygon fill="Blue" stroke="Blue" stroke-width="25" points="4523.75,4050 4628.72,3931.75 4572.91,3935.07 4536.77,3892.42 "/>
<!-- Call distributeEnd distributor -->
<line x1="4786.25" y1="6900" x2="4997.5" y2="3600" stroke-dasharray="75" stroke="Blue" stroke-width="25"/>
<polygon fill="Blue" stroke="Blue" stroke-width="25" points="4997.5,3600 4938.02,3746.5 4989.51,3724.74 5037.82,3752.89 "/>
<!-- Activity analyze s [1] level=1 -->
<polygon  fill="#e5e5ff" stroke="Blue" stroke-width="25" points="3998.75,4725 3998.75,4050 5048.75,4050 5048.75,4725 3998.75,4725 "/>
<text x="4524" y="4669" font-family="Times" font-style="Roman" font-size="225" fill="black" text-anchor="middle">1</text>
<text x="4524" y="4444" font-family="Times" font-style="Roman" font-size="225" fill="black" text-anchor="middle">[1]</text>
<text x="4524" y="4219" font-family="Times" font-style="Roman" font-size="225" fill="black" text-anchor="middle">analyze</text>
<!-- Activity cgiDrive s [0] level=2 -->
<polygon  fill="#e5e5ff" stroke="Blue" stroke-width="25" points="3398.75,6150 3398.75,5475 4448.75,5475 4448.75,6150 3398.75,6150 "/>
<!-- Call cgiDrive protocol2 y (1) -->
<line x1="4186.25" y1="6150" x2="5540" y2="9175" stroke="Cyan" stroke-width="25"/>
<polygon fill="Cyan" stroke="Cyan" stroke-width="25" points="5540,9175 5524.37,9017.66 5488.94,9060.9 5433.09,9058.51 "/>
<text x="5339" y="8913" font-family="Times" font-style="Roman" font-size="225" fill="black" text-anchor="middle">0</text>
<text x="5339" y="8688" font-family="Times" font-style="Roman" font-size="225" fill="black" text-anchor="middle">(1)</text>
<text x="3924" y="6094" font-family="Times" font-style="Roman" font-size="225" fill="black" text-anchor="middle">89.9</text>
<text x="3924" y="5869" font-family="Times" font-style="Roman" font-size="225" fill="black" text-anchor="middle">[0]</text>
<text x="3924" y="5644" font-family="Times" font-style="Roman" font-size="225" fill="black" text-anchor="middle">cgiDrive</text>
<!-- Activity distributeEnd s [0] level=3 -->
<polygon  fill="#e5e5ff" stroke="Blue" stroke-width="25" points="3998.75,7575 3998.75,6900 5048.75,6900 5048.75,7575 3998.75,7575 "/>
<text x="4524" y="7519" font-family="Times" font-style="Roman" font-size="225" fill="black" text-anchor="middle">0</text>
<text x="4524" y="7294" font-family="Times" font-style="Roman" font-size="225" fill="black" text-anchor="middle">[0]</text>
<text x="4524" y="7069" font-family="Times" font-style="Roman" font-size="225" fill="black" text-anchor="middle">distributeEnd</text>
<!-- Activity staticPage s [0] level=2 -->
<polygon  fill="#e5e5ff" stroke="Blue" stroke-width="25" points="4598.75,6150 4598.75,5475 5648.75,5475 5648.75,6150 4598.75,6150 "/>
<!-- Call staticPage protocol1 y (1) -->
<line x1="4861.25" y1="6150" x2="3515" y2="9175" stroke="Blue" stroke-width="25"/>
<polygon fill="Blue" stroke="Blue" stroke-width="25" points="3515,9175 3621.67,9058.29 3565.82,9060.8 3530.31,9017.63 "/>
<text x="3715" y="8913" font-family="Times" font-style="Roman" font-size="225" fill="black" text-anchor="middle">0</text>
<text x="3715" y="8688" font-family="Times" font-style="Roman" font-size="225" fill="black" text-anchor="middle">(1)</text>
<text x="5124" y="6094" font-family="Times" font-style="Roman" font-size="225" fill="black" text-anchor="middle">6.88</text>
<text x="5124" y="5869" font-family="Times" font-style="Roman" font-size="225" fill="black" text-anchor="middle">[0]</text>
<text x="5124" y="5644" font-family="Times" font-style="Roman" font-size="225" fill="black" text-anchor="middle">staticPage</text>
<line x1="4523.75" y1="4725" x2="4523.75" y2="4975" stroke="Blue" stroke-width="25"/>
<polygon fill="Blue" stroke="Blue" stroke-width="25" points="4523.75,4975 4573.75,4825 4523.75,4850 4473.75,4825 "/>
<circle cx="4524" cy="6500" r="150"  fill="#e5e5ff" stroke="Blue" stroke-width="25"/>
<text x="4524" y="6575" font-family="Times" font-style="Roman" font-size="225" fill="Blue" text-anchor="middle">+</text>
<line x1="3923.75" y1="6150" x2="4394.18" y2="6424.42" stroke="Blue" stroke-width="25"/>
<polygon fill="Blue" stroke="Blue" stroke-width="25" points="4394.18,6424.42 4289.81,6305.65 4286.21,6361.44 4239.42,6392.03 "/>
<line x1="5123.75" y1="6150" x2="4653.32" y2="6424.42" stroke="Blue" stroke-width="25"/>
<polygon fill="Blue" stroke="Blue" stroke-width="25" points="4653.32,6424.42 4808.08,6392.03 4761.29,6361.44 4757.69,6305.65 "/>
<circle cx="4524" cy="5125" r="150"  fill="#e5e5ff" stroke="Blue" stroke-width="25"/>
<text x="4524" y="5200" font-family="Times" font-style="Roman" font-size="225" fill="Blue" text-anchor="middle">+</text>
<line x1="4394.18" y1="5200.58" x2="3923.75" y2="5475" stroke="Blue" stroke-width="25"/>
<polygon fill="Blue" stroke="Blue" stroke-width="25" points="3923.75,5475 4078.51,5442.61 4031.72,5412.02 4028.12,5356.23 "/>
<line x1="4653.32" y1="5200.58" x2="5123.75" y2="5475" stroke="Blue" stroke-width="25"/>
<polygon fill="Blue" stroke="Blue" stroke-width="25" points="5123.75,5475 5019.38,5356.23 5015.78,5412.02 4968.99,5442.61 "/>
<line x1="4394.18" y1="5200.58" x2="3923.75" y2="5475" stroke="Blue" stroke-width="25"/>
<polygon fill="Blue" stroke="Blue" stroke-width="25" points="3923.75,5475 4078.51,5442.61 4031.72,5412.02 4028.12,5356.23 "/>
<line x1="4653.32" y1="5200.58" x2="5123.75" y2="5475" stroke="Blue" stroke-width="25"/>
<polygon fill="Blue" stroke="Blue" stroke-width="25" points="5123.75,5475 5019.38,5356.23 5015.78,5412.02 4968.99,5442.61 "/>
<text x="3967" y="5402" font-family="Times" font-style="Roman" font-size="225" fill="black" text-anchor="middle">0.1</text>
<text x="5081" y="5402" font-family="Times" font-style="Roman" font-size="225" fill="black" text-anchor="middle">0.9</text>
<line x1="4523.75" y1="6650" x2="4523.75" y2="6900" stroke="Blue" stroke-width="25"/>
<polygon fill="Blue" stroke="Blue" stroke-width="25" points="4523.75,6900 4573.75,6750 4523.75,6775 4473.75,6750 "/>
<!-- Call Distributor ProtocolP1 -->
<line x1="4505" y1="7825" x2="4505" y2="11650" stroke="Violet" stroke-width="25"/>
<polygon fill="Violet" stroke="Violet" stroke-width="25" points="4505,11650 4555,11500 4505,11525 4455,11500 "/>
<!-- Task Protocol1n  protocol1 -1 ProtocolP1 -->
<polygon  fill="#e5e5ff" stroke="Blue" stroke-width="25" points="2755,9225 4442.5,9225 4330,10350 2642.5,10350 "/>
<polygon  fill="#e5e5ff" stroke="Blue" stroke-width="25" points="2705,9175 4392.5,9175 4280,10300 2592.5,10300 "/>
<text x="3492" y="10263" font-family="Times" font-style="Roman" font-size="225" fill="black" text-anchor="middle">&#0955;=0.668,&#0961;=4.59</text>
<text x="3492" y="10038" font-family="Times" font-style="Roman" font-size="225" fill="black" text-anchor="middle">Protocol1 {30}</text>
<!-- Entry protocol1 s [0.25] -->
<polyline  stroke="Blue" stroke-width="25" fill="none" points="3020,9175 2952.5,9850 4010,9850 4077.5,9175 "/>
<text x="3515" y="9794" font-family="Times" font-style="Roman" font-size="225" fill="black" text-anchor="middle">6.88</text>
<text x="3515" y="9569" font-family="Times" font-style="Roman" font-size="225" fill="black" text-anchor="middle">[0.25]</text>
<text x="3515" y="9344" font-family="Times" font-style="Roman" font-size="225" fill="black" text-anchor="middle">protocol1</text>
<!-- Call protocol1 webServer y (1) -->
<line x1="3515" y1="9850" x2="7137.5" y2="11650" stroke="Violet" stroke-width="25"/>
<polygon fill="Violet" stroke="Violet" stroke-width="25" points="7137.5,11650 7025.42,11538.5 7025.56,11594.4 6980.92,11628 "/>
<text x="6232" y="11388" font-family="Times" font-style="Roman" font-size="225" fill="black" text-anchor="middle">0</text>
<text x="6232" y="11163" font-family="Times" font-style="Roman" font-size="225" fill="black" text-anchor="middle">(1)</text>
<!-- Call Protocol1 ProtocolP1 -->
<line x1="3942.5" y1="10300" x2="4346.28" y2="11672.9" stroke="Violet" stroke-width="25"/>
<polygon fill="Violet" stroke="Violet" stroke-width="25" points="4346.28,11672.9 4351.92,11514.8 4311.01,11552.9 4255.99,11543.1 "/>
<!-- Task Protocol2n  protocol2 -1 ProtocolP1 -->
<polygon  fill="#e5ffff" stroke="Cyan" stroke-width="25" points="4780,9225 6467.5,9225 6355,10350 4667.5,10350 "/>
<polygon  fill="#e5ffff" stroke="Cyan" stroke-width="25" points="4730,9175 6417.5,9175 6305,10300 4617.5,10300 "/>
<text x="5518" y="10263" font-family="Times" font-style="Roman" font-size="225" fill="black" text-anchor="middle">&#0955;=0.0742,&#0961;=6.67</text>
<text x="5518" y="10038" font-family="Times" font-style="Roman" font-size="225" fill="black" text-anchor="middle">Protocol2 {20}</text>
<!-- Entry protocol2 s [0.25] -->
<polyline  stroke="Cyan" stroke-width="25" fill="none" points="5045,9175 4977.5,9850 6035,9850 6102.5,9175 "/>
<text x="5540" y="9794" font-family="Times" font-style="Roman" font-size="225" fill="black" text-anchor="middle">89.9</text>
<text x="5540" y="9569" font-family="Times" font-style="Roman" font-size="225" fill="black" text-anchor="middle">[0.25]</text>
<text x="5540" y="9344" font-family="Times" font-style="Roman" font-size="225" fill="black" text-anchor="middle">protocol2</text>
<!-- Call protocol2 cgiApp y (1) -->
<line x1="5540" y1="9850" x2="2295" y2="11650" stroke="Blue" stroke-width="25"/>
<polygon fill="Blue" stroke="Blue" stroke-width="25" points="2295,11650 2450.42,11621 2404.31,11589.4 2401.92,11533.5 "/>
<text x="3106" y="11388" font-family="Times" font-style="Roman" font-size="225" fill="black" text-anchor="middle">0</text>
<text x="3106" y="11163" font-family="Times" font-style="Roman" font-size="225" fill="black" text-anchor="middle">(1)</text>
<!-- Call Protocol2 ProtocolP1 -->
<line x1="5067.5" y1="10300" x2="4663.72" y2="11672.9" stroke="Violet" stroke-width="25"/>
<polygon fill="Violet" stroke="Violet" stroke-width="25" points="4663.72,11672.9 4754.01,11543.1 4698.99,11552.9 4658.08,11514.8 "/>
<!-- Task CGIAppn  cgiApp -1 WSP -->
<polygon  fill="#e5e5ff" stroke="Blue" stroke-width="25" points="990,11700 3767.5,11700 3277.5,16600 500,16600 "/>
<polygon  fill="#e5e5ff" stroke="Blue" stroke-width="25" points="940,11650 3717.5,11650 3227.5,16550 450,16550 "/>
<text x="2084" y="12763" font-family="Times" font-style="Roman" font-size="225" fill="black" text-anchor="middle">&#0955;=0.0742,&#0961;=6.65</text>
<text x="2084" y="12538" font-family="Times" font-style="Roman" font-size="225" fill="black" text-anchor="middle">CGIApp {50}</text>
<!-- Entry cgiApp A cgiStart -->
<polyline  stroke="Blue" stroke-width="25" fill="none" points="1800,11650 1732.5,12325 2790,12325 2857.5,11650 "/>
<text x="2295" y="12175" font-family="Times" font-style="Roman" font-size="225" fill="black" text-anchor="middle">89.6</text>
<text x="2295" y="11950" font-family="Times" font-style="Roman" font-size="225" fill="black" text-anchor="middle">cgiApp</text>
<line x1="2295" y1="12325" x2="2102.5" y2="12775" stroke="Blue" stroke-width="25"/>
<polygon fill="Blue" stroke="Blue" stroke-width="25" points="2102.5,12775 2207.47,12656.8 2151.66,12660.1 2115.52,12617.4 "/>
<!-- Call cgiAppEnd cgiApp -->
<line x1="2365" y1="15625" x2="2576.25" y2="12325" stroke-dasharray="75" stroke="Blue" stroke-width="25"/>
<polygon fill="Blue" stroke="Blue" stroke-width="25" points="2576.25,12325 2516.77,12471.5 2568.26,12449.7 2616.57,12477.9 "/>
<!-- Activity cdPage s [5] level=2 -->
<polygon  fill="#e5e5ff" stroke="Blue" stroke-width="25" points="977.5,14875 977.5,14200 2027.5,14200 2027.5,14875 977.5,14875 "/>
<!-- Call cdPage dbRead y (4.3) -->
<line x1="1677.5" y1="14875" x2="1577.5" y2="17900" stroke="Violet" stroke-width="25"/>
<polygon fill="Violet" stroke="Violet" stroke-width="25" points="1577.5,17900 1632.43,17751.7 1581.63,17775.1 1532.48,17748.4 "/>
<text x="1527" y="17638" font-family="Times" font-style="Roman" font-size="225" fill="black" text-anchor="middle">0</text>
<text x="1527" y="17413" font-family="Times" font-style="Roman" font-size="225" fill="black" text-anchor="middle">(4.3)</text>
<!-- Call cdPage sendDynamic y (1) -->
<line x1="1852.5" y1="14875" x2="5225" y2="17900" stroke="Violet" stroke-width="25"/>
<polygon fill="Violet" stroke="Violet" stroke-width="25" points="5225,17900 5146.72,17762.6 5131.95,17816.5 5079.95,17837.1 "/>
<text x="4723" y="17638" font-family="Times" font-style="Roman" font-size="225" fill="black" text-anchor="middle">0</text>
<text x="4723" y="17413" font-family="Times" font-style="Roman" font-size="225" fill="black" text-anchor="middle">(1)</text>
<text x="1503" y="14819" font-family="Times" font-style="Roman" font-size="225" fill="black" text-anchor="middle">115</text>
<text x="1503" y="14594" font-family="Times" font-style="Roman" font-size="225" fill="black" text-anchor="middle">[5]</text>
<text x="1503" y="14369" font-family="Times" font-style="Roman" font-size="225" fill="black" text-anchor="middle">cdPage</text>
<!-- Activity cgiAppEnd s [0] level=3 -->
<polygon  fill="#e5e5ff" stroke="Blue" stroke-width="25" points="1577.5,16300 1577.5,15625 2627.5,15625 2627.5,16300 1577.5,16300 "/>
<text x="2103" y="16244" font-family="Times" font-style="Roman" font-size="225" fill="black" text-anchor="middle">0</text>
<text x="2103" y="16019" font-family="Times" font-style="Roman" font-size="225" fill="black" text-anchor="middle">[0]</text>
<text x="2103" y="15794" font-family="Times" font-style="Roman" font-size="225" fill="black" text-anchor="middle">cgiAppEnd</text>
<!-- Activity cgiStart s [0] level=1 -->
<polygon  fill="#e5e5ff" stroke="Blue" stroke-width="25" points="1577.5,13450 1577.5,12775 2627.5,12775 2627.5,13450 1577.5,13450 "/>
<text x="2103" y="13394" font-family="Times" font-style="Roman" font-size="225" fill="black" text-anchor="middle">0</text>
<text x="2103" y="13169" font-family="Times" font-style="Roman" font-size="225" fill="black" text-anchor="middle">[0]</text>
<text x="2103" y="12944" font-family="Times" font-style="Roman" font-size="225" fill="black" text-anchor="middle">cgiStart</text>
<!-- Activity procData s [15] level=2 -->
<polygon  fill="#e5e5ff" stroke="Blue" stroke-width="25" points="2177.5,14875 2177.5,14200 3227.5,14200 3227.5,14875 2177.5,14875 "/>
<!-- Call procData dbUpdate y (1.7) -->
<line x1="2440" y1="14875" x2="2635" y2="17900" stroke="Violet" stroke-width="25"/>
<polygon fill="Violet" stroke="Violet" stroke-width="25" points="2635,17900 2675.25,17747.1 2626.96,17775.3 2575.45,17753.5 "/>
<text x="2606" y="17638" font-family="Times" font-style="Roman" font-size="225" fill="black" text-anchor="middle">0</text>
<text x="2606" y="17413" font-family="Times" font-style="Roman" font-size="225" fill="black" text-anchor="middle">(1.7)</text>
<!-- Call procData sendStatic y (1) -->
<line x1="2965" y1="14875" x2="6001.25" y2="17900" stroke="Violet" stroke-width="25"/>
<polygon fill="Violet" stroke="Violet" stroke-width="25" points="6001.25,17900 5930.28,17758.7 5912.7,17811.8 5859.7,17829.6 "/>
<text x="5550" y="17638" font-family="Times" font-style="Roman" font-size="225" fill="black" text-anchor="middle">0</text>
<text x="5550" y="17413" font-family="Times" font-style="Roman" font-size="225" fill="black" text-anchor="middle">(1)</text>
<text x="2703" y="14819" font-family="Times" font-style="Roman" font-size="225" fill="black" text-anchor="middle">72.4</text>
<text x="2703" y="14594" font-family="Times" font-style="Roman" font-size="225" fill="black" text-anchor="middle">[15]</text>
<text x="2703" y="14369" font-family="Times" font-style="Roman" font-size="225" fill="black" text-anchor="middle">procData</text>
<circle cx="2103" cy="15225" r="150"  fill="#e5e5ff" stroke="Blue" stroke-width="25"/>
<text x="2103" y="15300" font-family="Times" font-style="Roman" font-size="225" fill="Blue" text-anchor="middle">+</text>
<line x1="2702.5" y1="14875" x2="2232.07" y2="15149.4" stroke="Blue" stroke-width="25"/>
<polygon fill="Blue" stroke="Blue" stroke-width="25" points="2232.07,15149.4 2386.83,15117 2340.04,15086.4 2336.44,15030.6 "/>
<line x1="1502.5" y1="14875" x2="1972.93" y2="15149.4" stroke="Blue" stroke-width="25"/>
<polygon fill="Blue" stroke="Blue" stroke-width="25" points="1972.93,15149.4 1868.56,15030.6 1864.96,15086.4 1818.17,15117 "/>
<circle cx="2103" cy="13850" r="150"  fill="#e5e5ff" stroke="Blue" stroke-width="25"/>
<text x="2103" y="13925" font-family="Times" font-style="Roman" font-size="225" fill="Blue" text-anchor="middle">+</text>
<line x1="2232.07" y1="13925.6" x2="2702.5" y2="14200" stroke="Blue" stroke-width="25"/>
<polygon fill="Blue" stroke="Blue" stroke-width="25" points="2702.5,14200 2598.13,14081.2 2594.53,14137 2547.74,14167.6 "/>
<line x1="1972.93" y1="13925.6" x2="1502.5" y2="14200" stroke="Blue" stroke-width="25"/>
<polygon fill="Blue" stroke="Blue" stroke-width="25" points="1502.5,14200 1657.26,14167.6 1610.47,14137 1606.87,14081.2 "/>
<line x1="2232.07" y1="13925.6" x2="2702.5" y2="14200" stroke="Blue" stroke-width="25"/>
<polygon fill="Blue" stroke="Blue" stroke-width="25" points="2702.5,14200 2598.13,14081.2 2594.53,14137 2547.74,14167.6 "/>
<line x1="1972.93" y1="13925.6" x2="1502.5" y2="14200" stroke="Blue" stroke-width="25"/>
<polygon fill="Blue" stroke="Blue" stroke-width="25" points="1502.5,14200 1657.26,14167.6 1610.47,14137 1606.87,14081.2 "/>
<text x="2659" y="14127" font-family="Times" font-style="Roman" font-size="225" fill="black" text-anchor="middle">0.6</text>
<text x="1546" y="14127" font-family="Times" font-style="Roman" font-size="225" fill="black" text-anchor="middle">0.4</text>
<line x1="2102.5" y1="15375" x2="2102.5" y2="15625" stroke="Blue" stroke-width="25"/>
<polygon fill="Blue" stroke="Blue" stroke-width="25" points="2102.5,15625 2152.5,15475 2102.5,15500 2052.5,15475 "/>
<line x1="2102.5" y1="13450" x2="2102.5" y2="13700" stroke="Blue" stroke-width="25"/>
<polygon fill="Blue" stroke="Blue" stroke-width="25" points="2102.5,13700 2152.5,13550 2102.5,13575 2052.5,13550 "/>
<!-- Call CGIApp WSP -->
<line x1="2083.75" y1="16550" x2="2137.68" y2="22850" stroke="Green" stroke-width="25"/>
<polygon fill="Green" stroke="Green" stroke-width="25" points="2137.68,22850 2186.4,22699.6 2136.61,22725 2086.4,22700.5 "/>
<text x="2057" y="17188" font-family="Times" font-style="Roman" font-size="225" fill="black" text-anchor="middle">W[procData]=0.0676</text>
<text x="2057" y="16963" font-family="Times" font-style="Roman" font-size="225" fill="black" text-anchor="middle">W[cdPage]=0.115</text>
<!-- Processor ProtocolP1 FCFS -->
<circle cx="4555" cy="12263" r="563"  fill="#f2e5ff" stroke="Violet" stroke-width="25"/>
<circle cx="4505" cy="12213" r="563"  fill="#f2e5ff" stroke="Violet" stroke-width="25"/>
<text x="4505" y="12494" font-family="Times" font-style="Roman" font-size="225" fill="black" text-anchor="middle">&#0961;=0.927</text>
<text x="4505" y="12269" font-family="Times" font-style="Roman" font-size="225" fill="black" text-anchor="middle">{10}</text>
<text x="4505" y="12044" font-family="Times" font-style="Roman" font-size="225" fill="black" text-anchor="middle">ProtocolP1</text>
<!-- Task WebServern  webServer -1 WSP -->
<polygon  fill="#f2e5ff" stroke="Violet" stroke-width="25" points="5832.5,11700 8610,11700 8120,16600 5342.5,16600 "/>
<polygon  fill="#f2e5ff" stroke="Violet" stroke-width="25" points="5782.5,11650 8560,11650 8070,16550 5292.5,16550 "/>
<text x="6926" y="12763" font-family="Times" font-style="Roman" font-size="225" fill="black" text-anchor="middle">&#0955;=0.668,&#0961;=4.42</text>
<text x="6926" y="12538" font-family="Times" font-style="Roman" font-size="225" fill="black" text-anchor="middle">WebServer {50}</text>
<!-- Entry webServer A cache -->
<polyline  stroke="Violet" stroke-width="25" fill="none" points="6642.5,11650 6575,12325 7632.5,12325 7700,11650 "/>
<text x="7138" y="12175" font-family="Times" font-style="Roman" font-size="225" fill="black" text-anchor="middle">6.63</text>
<text x="7138" y="11950" font-family="Times" font-style="Roman" font-size="225" fill="black" text-anchor="middle">webServer</text>
<line x1="7137.5" y1="12325" x2="6945" y2="12775" stroke="Violet" stroke-width="25"/>
<polygon fill="Violet" stroke="Violet" stroke-width="25" points="6945,12775 7049.97,12656.8 6994.16,12660.1 6958.02,12617.4 "/>
<!-- Call webServerEnd webServer -->
<line x1="7207.5" y1="15625" x2="7418.75" y2="12325" stroke-dasharray="75" stroke="Violet" stroke-width="25"/>
<polygon fill="Violet" stroke="Violet" stroke-width="25" points="7418.75,12325 7359.27,12471.5 7410.76,12449.7 7459.07,12477.9 "/>
<!-- Activity cache s [1] level=1 -->
<polygon  fill="#f2e5ff" stroke="Violet" stroke-width="25" points="6420,13450 6420,12775 7470,12775 7470,13450 6420,13450 "/>
<text x="6945" y="13394" font-family="Times" font-style="Roman" font-size="225" fill="black" text-anchor="middle">1.02</text>
<text x="6945" y="13169" font-family="Times" font-style="Roman" font-size="225" fill="black" text-anchor="middle">[1]</text>
<text x="6945" y="12944" font-family="Times" font-style="Roman" font-size="225" fill="black" text-anchor="middle">cache</text>
<!-- Activity cacheEnd s [0] level=2 -->
<polygon  fill="#f2e5ff" stroke="Violet" stroke-width="25" points="5820,14875 5820,14200 6870,14200 6870,14875 5820,14875 "/>
<!-- Call cacheEnd sendStatic y (1) -->
<line x1="6082.5" y1="14875" x2="6282.5" y2="17900" stroke="Violet" stroke-width="25"/>
<polygon fill="Violet" stroke="Violet" stroke-width="25" points="6282.5,17900 6322.5,17747 6274.25,17775.3 6222.71,17753.6 "/>
<text x="6223" y="17188" font-family="Times" font-style="Roman" font-size="225" fill="black" text-anchor="middle">0</text>
<text x="6223" y="16963" font-family="Times" font-style="Roman" font-size="225" fill="black" text-anchor="middle">(1)</text>
<text x="6345" y="14819" font-family="Times" font-style="Roman" font-size="225" fill="black" text-anchor="middle">5.18</text>
<text x="6345" y="14594" font-family="Times" font-style="Roman" font-size="225" fill="black" text-anchor="middle">[0]</text>
<text x="6345" y="14369" font-family="Times" font-style="Roman" font-size="225" fill="black" text-anchor="middle">cacheEnd</text>
<!-- Activity diskFetch s [1] level=2 -->
<polygon  fill="#f2e5ff" stroke="Violet" stroke-width="25" points="7020,14875 7020,14200 8070,14200 8070,14875 7020,14875 "/>
<!-- Call diskFetch webRorW y (3) -->
<line x1="7195" y1="14875" x2="6740" y2="22850" stroke="Violet" stroke-width="25"/>
<polygon fill="Violet" stroke="Violet" stroke-width="25" points="6740,22850 6798.46,22703.1 6747.12,22725.2 6698.63,22697.4 "/>
<text x="6791" y="22138" font-family="Times" font-style="Roman" font-size="225" fill="black" text-anchor="middle">0.00578</text>
<text x="6791" y="21913" font-family="Times" font-style="Roman" font-size="225" fill="black" text-anchor="middle">(3)</text>
<!-- Call diskFetch sendStatic y (1) -->
<line x1="7370" y1="14875" x2="6563.75" y2="17900" stroke="Violet" stroke-width="25"/>
<polygon fill="Violet" stroke="Violet" stroke-width="25" points="6563.75,17900 6650.69,17767.9 6595.94,17779.2 6554.07,17742.2 "/>
<text x="6684" y="17638" font-family="Times" font-style="Roman" font-size="225" fill="black" text-anchor="middle">0</text>
<text x="6684" y="17413" font-family="Times" font-style="Roman" font-size="225" fill="black" text-anchor="middle">(1)</text>
<text x="7545" y="14819" font-family="Times" font-style="Roman" font-size="225" fill="black" text-anchor="middle">6.6</text>
<text x="7545" y="14594" font-family="Times" font-style="Roman" font-size="225" fill="black" text-anchor="middle">[1]</text>
<text x="7545" y="14369" font-family="Times" font-style="Roman" font-size="225" fill="black" text-anchor="middle">diskFetch</text>
<!-- Activity webServerEnd s [0] level=3 -->
<polygon  fill="#f2e5ff" stroke="Violet" stroke-width="25" points="6420,16300 6420,15625 7470,15625 7470,16300 6420,16300 "/>
<text x="6945" y="16244" font-family="Times" font-style="Roman" font-size="225" fill="black" text-anchor="middle">0</text>
<text x="6945" y="16019" font-family="Times" font-style="Roman" font-size="225" fill="black" text-anchor="middle">[0]</text>
<text x="6945" y="15794" font-family="Times" font-style="Roman" font-size="225" fill="black" text-anchor="middle">webServerEnd</text>
<line x1="6945" y1="13450" x2="6945" y2="13700" stroke="Violet" stroke-width="25"/>
<polygon fill="Violet" stroke="Violet" stroke-width="25" points="6945,13700 6995,13550 6945,13575 6895,13550 "/>
<circle cx="6945" cy="15225" r="150"  fill="#f2e5ff" stroke="Violet" stroke-width="25"/>
<text x="6945" y="15300" font-family="Times" font-style="Roman" font-size="225" fill="Violet" text-anchor="middle">+</text>
<line x1="6345" y1="14875" x2="6815.43" y2="15149.4" stroke="Violet" stroke-width="25"/>
<polygon fill="Violet" stroke="Violet" stroke-width="25" points="6815.43,15149.4 6711.06,15030.6 6707.46,15086.4 6660.67,15117 "/>
<line x1="7545" y1="14875" x2="7074.57" y2="15149.4" stroke="Violet" stroke-width="25"/>
<polygon fill="Violet" stroke="Violet" stroke-width="25" points="7074.57,15149.4 7229.33,15117 7182.54,15086.4 7178.94,15030.6 "/>
<circle cx="6945" cy="13850" r="150"  fill="#f2e5ff" stroke="Violet" stroke-width="25"/>
<text x="6945" y="13925" font-family="Times" font-style="Roman" font-size="225" fill="Violet" text-anchor="middle">+</text>
<line x1="6815.43" y1="13925.6" x2="6345" y2="14200" stroke="Violet" stroke-width="25"/>
<polygon fill="Violet" stroke="Violet" stroke-width="25" points="6345,14200 6499.76,14167.6 6452.97,14137 6449.37,14081.2 "/>
<line x1="7074.57" y1="13925.6" x2="7545" y2="14200" stroke="Violet" stroke-width="25"/>
<polygon fill="Violet" stroke="Violet" stroke-width="25" points="7545,14200 7440.63,14081.2 7437.03,14137 7390.24,14167.6 "/>
<line x1="6815.43" y1="13925.6" x2="6345" y2="14200" stroke="Violet" stroke-width="25"/>
<polygon fill="Violet" stroke="Violet" stroke-width="25" points="6345,14200 6499.76,14167.6 6452.97,14137 6449.37,14081.2 "/>
<line x1="7074.57" y1="13925.6" x2="7545" y2="14200" stroke="Violet" stroke-width="25"/>
<polygon fill="Violet" stroke="Violet" stroke-width="25" points="7545,14200 7440.63,14081.2 7437.03,14137 7390.24,14167.6 "/>
<text x="6388" y="14127" font-family="Times" font-style="Roman" font-size="225" fill="black" text-anchor="middle">0.7</text>
<text x="7502" y="14127" font-family="Times" font-style="Roman" font-size="225" fill="black" text-anchor="middle">0.3</text>
<line x1="6945" y1="15375" x2="6945" y2="15625" stroke="Violet" stroke-width="25"/>
<polygon fill="Violet" stroke="Violet" stroke-width="25" points="6945,15625 6995,15475 6945,15500 6895,15475 "/>
<!-- Call WebServer WSP -->
<line x1="6109.37" y1="16550" x2="2424.01" y2="22925.5" stroke="Green" stroke-width="25"/>
<polygon fill="Green" stroke="Green" stroke-width="25" points="2424.01,22925.5 2542.36,22820.7 2486.56,22817.3 2455.79,22770.6 "/>
<text x="5564" y="17638" font-family="Times" font-style="Roman" font-size="225" fill="black" text-anchor="middle">W[diskFetch]=0.0964</text>
<text x="5564" y="17413" font-family="Times" font-style="Roman" font-size="225" fill="black" text-anchor="middle">W[cache]=0.0193</text>
<!-- Task DBProcessn  dbUpdate dbRead -1 DBP -->
<polygon  fill="#f2e5ff" stroke="Violet" stroke-width="25" points="1132.5,17950 3247.5,17950 3135,19075 1020,19075 "/>
<polygon  fill="#f2e5ff" stroke="Violet" stroke-width="25" points="1082.5,17900 3197.5,17900 3085,19025 970,19025 "/>
<text x="2084" y="18988" font-family="Times" font-style="Roman" font-size="225" fill="black" text-anchor="middle">&#0955;=0.203,&#0961;=4.93</text>
<text x="2084" y="18763" font-family="Times" font-style="Roman" font-size="225" fill="black" text-anchor="middle">DBProcess {50}</text>
<!-- Entry dbRead s [20] -->
<polyline  stroke="Violet" stroke-width="25" fill="none" points="1015,18575 2072.5,18575 2140,17900 "/>
<text x="1577" y="18519" font-family="Times" font-style="Roman" font-size="225" fill="black" text-anchor="middle">20.4</text>
<text x="1577" y="18294" font-family="Times" font-style="Roman" font-size="225" fill="black" text-anchor="middle">[20]</text>
<text x="1577" y="18069" font-family="Times" font-style="Roman" font-size="225" fill="black" text-anchor="middle">dbRead</text>
<!-- Call dbRead read y (4) -->
<line x1="1577.5" y1="18575" x2="1111.25" y2="20375" stroke="Violet" stroke-width="25"/>
<polygon fill="Violet" stroke="Violet" stroke-width="25" points="1111.25,20375 1197.27,20242.3 1142.59,20254 1100.46,20217.3 "/>
<text x="1228" y="20113" font-family="Times" font-style="Roman" font-size="225" fill="black" text-anchor="middle">0.00961</text>
<text x="1228" y="19888" font-family="Times" font-style="Roman" font-size="225" fill="black" text-anchor="middle">(4)</text>
<!-- Entry dbUpdate s [30] -->
<line x1="2072.5" y1="18575" x2="3130" y2="18575" stroke="Violet" stroke-width="25"/>
<text x="2635" y="18519" font-family="Times" font-style="Roman" font-size="225" fill="black" text-anchor="middle">30.7</text>
<text x="2635" y="18294" font-family="Times" font-style="Roman" font-size="225" fill="black" text-anchor="middle">[30]</text>
<text x="2635" y="18069" font-family="Times" font-style="Roman" font-size="225" fill="black" text-anchor="middle">dbUpdate</text>
<!-- Call dbUpdate read y (2) -->
<line x1="2447.5" y1="18575" x2="1486.25" y2="20375" stroke="Violet" stroke-width="25"/>
<polygon fill="Violet" stroke="Violet" stroke-width="25" points="1486.25,20375 1601.01,20266.2 1545.13,20264.7 1512.8,20219.1 "/>
<text x="1967" y="19663" font-family="Times" font-style="Roman" font-size="225" fill="black" text-anchor="middle">0.00961</text>
<text x="1967" y="19438" font-family="Times" font-style="Roman" font-size="225" fill="black" text-anchor="middle">(2)</text>
<!-- Call dbUpdate write y (4) -->
<line x1="2822.5" y1="18575" x2="2356.25" y2="20375" stroke="Violet" stroke-width="25"/>
<polygon fill="Violet" stroke="Violet" stroke-width="25" points="2356.25,20375 2442.27,20242.3 2387.59,20254 2345.46,20217.3 "/>
<text x="2473" y="20113" font-family="Times" font-style="Roman" font-size="225" fill="black" text-anchor="middle">0.00961</text>
<text x="2473" y="19888" font-family="Times" font-style="Roman" font-size="225" fill="black" text-anchor="middle">(4)</text>
<!-- Call DBProcess DBP -->
<line x1="2640.62" y1="19025" x2="3432.46" y2="20446.1" stroke="Indigo" stroke-width="25"/>
<polygon fill="Indigo" stroke="Indigo" stroke-width="25" points="3432.46,20446.1 3403.13,20290.8 3371.62,20336.9 3315.78,20339.4 "/>
<!-- Task WebReplyn  sendStatic sendDynamic -1 WSP -->
<polygon  fill="#f2e5ff" stroke="Violet" stroke-width="25" points="4780,17950 6895,17950 6782.5,19075 4667.5,19075 "/>
<polygon  fill="#f2e5ff" stroke="Violet" stroke-width="25" points="4730,17900 6845,17900 6732.5,19025 4617.5,19025 "/>
<text x="5731" y="18988" font-family="Times" font-style="Roman" font-size="225" fill="black" text-anchor="middle">&#0955;=0.742,&#0961;=4.36</text>
<text x="5731" y="18763" font-family="Times" font-style="Roman" font-size="225" fill="black" text-anchor="middle">WebReply {50}</text>
<!-- Entry sendDynamic s [0.8] -->
<polyline  stroke="Violet" stroke-width="25" fill="none" points="4662.5,18575 5720,18575 5787.5,17900 "/>
<text x="5225" y="18519" font-family="Times" font-style="Roman" font-size="225" fill="black" text-anchor="middle">22.5</text>
<text x="5225" y="18294" font-family="Times" font-style="Roman" font-size="225" fill="black" text-anchor="middle">[0.8]</text>
<text x="5225" y="18069" font-family="Times" font-style="Roman" font-size="225" fill="black" text-anchor="middle">sendDynamic</text>
<!-- Call sendDynamic getObjects y (8) -->
<line x1="5037.5" y1="18575" x2="5416.25" y2="20375" stroke="Indigo" stroke-width="25"/>
<polygon fill="Indigo" stroke="Indigo" stroke-width="25" points="5416.25,20375 5434.29,20217.9 5390.51,20252.7 5336.44,20238.5 "/>
<text x="5322" y="20113" font-family="Times" font-style="Roman" font-size="225" fill="black" text-anchor="middle">0.289</text>
<text x="5322" y="19888" font-family="Times" font-style="Roman" font-size="225" fill="black" text-anchor="middle">(8)</text>
<!-- Call sendDynamic packet y (40) -->
<line x1="5412.5" y1="18575" x2="7253.75" y2="20375" stroke="Violet" stroke-width="25"/>
<polygon fill="Violet" stroke="Violet" stroke-width="25" points="7253.75,20375 7181.44,20234.4 7164.37,20287.6 7111.54,20305.9 "/>
<text x="6793" y="20113" font-family="Times" font-style="Roman" font-size="225" fill="black" text-anchor="middle">0</text>
<text x="6793" y="19888" font-family="Times" font-style="Roman" font-size="225" fill="black" text-anchor="middle">(40)</text>
<!-- Entry sendStatic s [0.8] -->
<line x1="5720" y1="18575" x2="6777.5" y2="18575" stroke="Violet" stroke-width="25"/>
<text x="6283" y="18519" font-family="Times" font-style="Roman" font-size="225" fill="black" text-anchor="middle">5.18</text>
<text x="6283" y="18294" font-family="Times" font-style="Roman" font-size="225" fill="black" text-anchor="middle">[0.8]</text>
<text x="6283" y="18069" font-family="Times" font-style="Roman" font-size="225" fill="black" text-anchor="middle">sendStatic</text>
<!-- Call sendStatic packet y (16) -->
<line x1="6282.5" y1="18575" x2="7628.75" y2="20375" stroke="Violet" stroke-width="25"/>
<polygon fill="Violet" stroke="Violet" stroke-width="25" points="7628.75,20375 7578.95,20224.9 7553.88,20274.9 7498.87,20284.8 "/>
<text x="6956" y="19663" font-family="Times" font-style="Roman" font-size="225" fill="black" text-anchor="middle">0</text>
<text x="6956" y="19438" font-family="Times" font-style="Roman" font-size="225" fill="black" text-anchor="middle">(16)</text>
<!-- Call WebReply WSP -->
<line x1="5174.38" y1="19025" x2="2462.28" y2="22949.7" stroke="Green" stroke-width="25"/>
<polygon fill="Green" stroke="Green" stroke-width="25" points="2462.28,22949.7 2588.69,22854.8 2533.34,22846.9 2506.42,22797.9 "/>
<text x="4849" y="19663" font-family="Times" font-style="Roman" font-size="225" fill="black" text-anchor="middle">W[sendStatic]=0.359</text>
<text x="4849" y="19438" font-family="Times" font-style="Roman" font-size="225" fill="black" text-anchor="middle">W[sendDynamic]=1.04</text>
<!-- Task DBOperationn  write read -1 DBDisk -->
<polygon  fill="#f2e5ff" stroke="Violet" stroke-width="25" points="803.75,20375 2918.75,20375 2806.25,21500 691.25,21500 "/>
<text x="1805" y="21463" font-family="Times" font-style="Roman" font-size="225" fill="black" text-anchor="middle">&#0955;=0.964,&#0961;=0.0964</text>
<text x="1805" y="21238" font-family="Times" font-style="Roman" font-size="225" fill="black" text-anchor="middle">DBOperation</text>
<!-- Entry read s [0.1] -->
<polyline  stroke="Violet" stroke-width="25" fill="none" points="736.25,21050 1793.75,21050 1861.25,20375 "/>
<text x="1299" y="20994" font-family="Times" font-style="Roman" font-size="225" fill="black" text-anchor="middle">0.1</text>
<text x="1299" y="20769" font-family="Times" font-style="Roman" font-size="225" fill="black" text-anchor="middle">[0.1]</text>
<text x="1299" y="20544" font-family="Times" font-style="Roman" font-size="225" fill="black" text-anchor="middle">read</text>
<!-- Entry write s [0.1] -->
<line x1="1793.75" y1="21050" x2="2851.25" y2="21050" stroke="Violet" stroke-width="25"/>
<text x="2356" y="20994" font-family="Times" font-style="Roman" font-size="225" fill="black" text-anchor="middle">0.1</text>
<text x="2356" y="20769" font-family="Times" font-style="Roman" font-size="225" fill="black" text-anchor="middle">[0.1]</text>
<text x="2356" y="20544" font-family="Times" font-style="Roman" font-size="225" fill="black" text-anchor="middle">write</text>
<!-- Call DBOperation DBDisk -->
<line x1="2361.87" y1="21500" x2="3206.24" y2="22928.3" stroke="Violet" stroke-width="25"/>
<polygon fill="Violet" stroke="Violet" stroke-width="25" points="3206.24,22928.3 3172.95,22773.7 3142.63,22820.7 3086.87,22824.6 "/>
<!-- Processor DBP FCFS -->
<circle cx="3756" cy="20988" r="563"  fill="#e5f0ff" stroke="Indigo" stroke-width="25"/>
<circle cx="3706" cy="20938" r="563"  fill="#e5f0ff" stroke="Indigo" stroke-width="25"/>
<text x="3706" y="21219" font-family="Times" font-style="Roman" font-size="225" fill="black" text-anchor="middle">&#0961;=4.82</text>
<text x="3706" y="20994" font-family="Times" font-style="Roman" font-size="225" fill="black" text-anchor="middle">{20}</text>
<text x="3706" y="20769" font-family="Times" font-style="Roman" font-size="225" fill="black" text-anchor="middle">DBP</text>
<!-- Task GetObjectsn  getObjects -1 WSP -->
<polygon  fill="#e5f0ff" stroke="Indigo" stroke-width="25" points="4606.25,20375 6293.75,20375 6181.25,21500 4493.75,21500 "/>
<text x="5394" y="21463" font-family="Times" font-style="Roman" font-size="225" fill="black" text-anchor="middle">&#0955;=0.237,&#0961;=0.246</text>
<text x="5394" y="21238" font-family="Times" font-style="Roman" font-size="225" fill="black" text-anchor="middle">GetObjects</text>
<!-- Entry getObjects s [1] -->
<polyline  stroke="Indigo" stroke-width="25" fill="none" points="4921.25,20375 4853.75,21050 5911.25,21050 5978.75,20375 "/>
<text x="5416" y="20994" font-family="Times" font-style="Roman" font-size="225" fill="black" text-anchor="middle">1.03</text>
<text x="5416" y="20769" font-family="Times" font-style="Roman" font-size="225" fill="black" text-anchor="middle">[1]</text>
<text x="5416" y="20544" font-family="Times" font-style="Roman" font-size="225" fill="black" text-anchor="middle">getObjects</text>
<!-- Call getObjects webRorW y (0.2) -->
<line x1="5416.25" y1="21050" x2="6365" y2="22850" stroke="Violet" stroke-width="25"/>
<polygon fill="Violet" stroke="Violet" stroke-width="25" points="6365,22850 6339.29,22694 6306.72,22739.4 6250.83,22740.6 "/>
<text x="6128" y="22588" font-family="Times" font-style="Roman" font-size="225" fill="black" text-anchor="middle">0.00581</text>
<text x="6128" y="22363" font-family="Times" font-style="Roman" font-size="225" fill="black" text-anchor="middle">(0.2)</text>
<!-- Call GetObjects WSP -->
<line x1="4943.75" y1="21500" x2="2607.06" y2="23095.3" stroke="Green" stroke-width="25"/>
<polygon fill="Green" stroke="Green" stroke-width="25" points="2607.06,23095.3 2759.13,23052 2710.29,23024.9 2702.74,22969.5 "/>
<text x="3718" y="22494" font-family="Times" font-style="Roman" font-size="225" fill="black" text-anchor="middle">W[getObjects]=0.0136</text>
<!-- Task ProtocolReplyn  packet -1 ProtocolP2 -->
<polygon  fill="#f2e5ff" stroke="Violet" stroke-width="25" points="6681.25,20425 8368.75,20425 8256.25,21550 6568.75,21550 "/>
<polygon  fill="#f2e5ff" stroke="Violet" stroke-width="25" points="6631.25,20375 8318.75,20375 8206.25,21500 6518.75,21500 "/>
<text x="7419" y="21463" font-family="Times" font-style="Roman" font-size="225" fill="black" text-anchor="middle">&#0955;=12.6,&#0961;=3.16</text>
<text x="7419" y="21238" font-family="Times" font-style="Roman" font-size="225" fill="black" text-anchor="middle">ProtocolReply {50}</text>
<!-- Entry packet s [0.25] -->
<polyline  stroke="Violet" stroke-width="25" fill="none" points="6946.25,20375 6878.75,21050 7936.25,21050 8003.75,20375 "/>
<text x="7441" y="20994" font-family="Times" font-style="Roman" font-size="225" fill="black" text-anchor="middle">0.251</text>
<text x="7441" y="20769" font-family="Times" font-style="Roman" font-size="225" fill="black" text-anchor="middle">[0.25]</text>
<text x="7441" y="20544" font-family="Times" font-style="Roman" font-size="225" fill="black" text-anchor="middle">packet</text>
<!-- Call ProtocolReply ProtocolP2 -->
<line x1="6968.75" y1="21500" x2="5260.71" y2="23036.3" stroke="Green" stroke-width="25"/>
<polygon fill="Green" stroke="Green" stroke-width="25" points="5260.71,23036.3 5405.67,22973.2 5353.65,22952.7 5338.8,22898.8 "/>
<text x="6480" y="22044" font-family="Times" font-style="Roman" font-size="225" fill="black" text-anchor="middle">W[packet]=0.00147</text>
<!-- Processor WSP FCFS -->
<circle cx="2193" cy="23463" r="563"  fill="#e5ffe5" stroke="Green" stroke-width="25"/>
<circle cx="2143" cy="23413" r="563"  fill="#e5ffe5" stroke="Green" stroke-width="25"/>
<text x="2142" y="23694" font-family="Times" font-style="Roman" font-size="225" fill="black" text-anchor="middle">&#0961;=2.52</text>
<text x="2142" y="23469" font-family="Times" font-style="Roman" font-size="225" fill="black" text-anchor="middle">{5}</text>
<text x="2142" y="23244" font-family="Times" font-style="Roman" font-size="225" fill="black" text-anchor="middle">WSP</text>
<!-- Processor DBDisk FCFS -->
<circle cx="3492" cy="23413" r="563"  fill="#f2e5ff" stroke="Violet" stroke-width="25"/>
<text x="3492" y="23600" font-family="Times" font-style="Roman" font-size="225" fill="black" text-anchor="middle">&#0961;=0.0964</text>
<text x="3492" y="23375" font-family="Times" font-style="Roman" font-size="225" fill="black" text-anchor="middle">DBDisk</text>
<!-- Processor ProtocolP2 FCFS -->
<circle cx="4893" cy="23463" r="563"  fill="#e5ffe5" stroke="Green" stroke-width="25"/>
<circle cx="4843" cy="23413" r="563"  fill="#e5ffe5" stroke="Green" stroke-width="25"/>
<text x="4843" y="23694" font-family="Times" font-style="Roman" font-size="225" fill="black" text-anchor="middle">&#0961;=3.15</text>
<text x="4843" y="23469" font-family="Times" font-style="Roman" font-size="225" fill="black" text-anchor="middle">{6}</text>
<text x="4843" y="23244" font-family="Times" font-style="Roman" font-size="225" fill="black" text-anchor="middle">ProtocolP2</text>
<!-- Task WebDiskn  webRorW -1 WSDisk -->
<polygon  fill="#f2e5ff" stroke="Violet" stroke-width="25" points="5742.5,22850 7430,22850 7317.5,23975 5630,23975 "/>
<text x="6530" y="23938" font-family="Times" font-style="Roman" font-size="225" fill="black" text-anchor="middle">&#0955;=0.648,&#0961;=0.0648</text>
<text x="6530" y="23713" font-family="Times" font-style="Roman" font-size="225" fill="black" text-anchor="middle">WebDisk</text>
<!-- Entry webRorW s [0.1] -->
<polyline  stroke="Violet" stroke-width="25" fill="none" points="6057.5,22850 5990,23525 7047.5,23525 7115,22850 "/>
<text x="6553" y="23469" font-family="Times" font-style="Roman" font-size="225" fill="black" text-anchor="middle">0.1</text>
<text x="6553" y="23244" font-family="Times" font-style="Roman" font-size="225" fill="black" text-anchor="middle">[0.1]</text>
<text x="6553" y="23019" font-family="Times" font-style="Roman" font-size="225" fill="black" text-anchor="middle">webRorW</text>
<!-- Call WebDisk WSDisk -->
<line x1="6530" y1="23975" x2="6530" y2="25325" stroke="Violet" stroke-width="25"/>
<polygon fill="Violet" stroke="Violet" stroke-width="25" points="6530,25325 6580,25175 6530,25200 6480,25175 "/>
<!-- Processor WSDisk FCFS -->
<circle cx="6530" cy="25888" r="563"  fill="#f2e5ff" stroke="Violet" stroke-width="25"/>
<text x="6530" y="26075" font-family="Times" font-style="Roman" font-size="225" fill="black" text-anchor="middle">&#0961;=0.0648</text>
<text x="6530" y="25850" font-family="Times" font-style="Roman" font-size="225" fill="black" text-anchor="middle">WSDisk</text>
</svg>
