<?xml version="1.0" standalone="no"?>
<!DOCTYPE svg PUBLIC "-//W3C//DTD SVG 20000303 Stylable//EN"
"http://www.w3.org/TR/2000/03/WD-SVG-20000303/DTD/svg-20000303-stylable.dtd">
<!-- Title: ProtocolP1_6_WSP5-039.lqxo -->
<!-- Creator: lqn2svg Version 5.26 -->
<!-- Wed Apr 13 23:01:29 2022 -->
<!-- For: Haomi -->
<!-- Invoked as: lqn2svg -Lprocessor ProtocolP1_6_WSP5-039.lqxo -->
<svg xmlns="http://www.w3.org/2000/svg" width="10.5694in" height="14.6986in" viewBox="0 0 19025 26458">
<desc>0xd39c58</desc>
<polygon  stroke-dasharray="100,75" fill="#e5e5ff" stroke="Blue" stroke-width="25" points="337.5,23532.5 337.5,21687.5 2790,21687.5 2790,23532.5 337.5,23532.5 "/>
<text x="1564" y="23405" font-family="Times" font-style="Roman" font-size="225" fill="black" text-anchor="middle">&#0956;=0.131</text>
<text x="1564" y="23180" font-family="Times" font-style="Roman" font-size="225" fill="black" text-anchor="middle">DBDisk</text>
<polygon  stroke-dasharray="100,75" fill="#e5ffff" stroke="Cyan" stroke-width="25" points="3012.5,21057.5 3012.5,19212.5 5465,19212.5 5465,21057.5 3012.5,21057.5 "/>
<text x="4239" y="20930" font-family="Times" font-style="Roman" font-size="225" fill="black" text-anchor="middle">&#0956;=6.55</text>
<text x="4239" y="20705" font-family="Times" font-style="Roman" font-size="225" fill="black" text-anchor="middle">DBP {20}</text>
<polygon  stroke-dasharray="100,75" fill="#e5f0ff" stroke="Indigo" stroke-width="25" points="5687.5,4657.5 5687.5,2812.5 7712.5,2812.5 7712.5,4657.5 5687.5,4657.5 "/>
<text x="6700" y="4530" font-family="Times" font-style="Roman" font-size="225" fill="black" text-anchor="middle">&#0956;=0.252</text>
<text x="6700" y="4305" font-family="Times" font-style="Roman" font-size="225" fill="black" text-anchor="middle">ProtocolP1</text>
<polygon  stroke-dasharray="100,75" fill="#ffffe5" stroke="Yellow" stroke-width="25" points="7937.5,23532.5 7937.5,21687.5 9962.5,21687.5 9962.5,23532.5 7937.5,23532.5 "/>
<text x="8950" y="23405" font-family="Times" font-style="Roman" font-size="225" fill="black" text-anchor="middle">&#0956;=4.28</text>
<text x="8950" y="23180" font-family="Times" font-style="Roman" font-size="225" fill="black" text-anchor="middle">ProtocolP2 {6}</text>
<polygon  stroke-dasharray="100,75" fill="#ffffff" stroke="black" stroke-width="25" points="10187.5,2182.5 10187.5,337.5 12212.5,337.5 12212.5,2182.5 10187.5,2182.5 "/>
<text x="11200" y="2055" font-family="Times" font-style="Roman" font-size="225" fill="black" text-anchor="middle">&#0956;=0</text>
<text x="11200" y="1830" font-family="Times" font-style="Roman" font-size="225" fill="black" text-anchor="middle">UP {&#8734;}</text>
<polygon  stroke-dasharray="100,75" fill="#f2e5ff" stroke="Violet" stroke-width="25" points="12437.5,26007.5 12437.5,24162.5 14462.5,24162.5 14462.5,26007.5 12437.5,26007.5 "/>
<text x="13450" y="25880" font-family="Times" font-style="Roman" font-size="225" fill="black" text-anchor="middle">&#0956;=0.0881</text>
<text x="13450" y="25655" font-family="Times" font-style="Roman" font-size="225" fill="black" text-anchor="middle">WSDisk</text>
<polygon  stroke-dasharray="100,75" fill="#fff2e5" stroke="Orange" stroke-width="25" points="14687.5,23532.5 14687.5,5287.5 18465,5287.5 18465,23532.5 14687.5,23532.5 "/>
<text x="16576" y="23405" font-family="Times" font-style="Roman" font-size="225" fill="black" text-anchor="middle">&#0956;=4.4</text>
<text x="16576" y="23180" font-family="Times" font-style="Roman" font-size="225" fill="black" text-anchor="middle">WSP {5}</text>
<!-- Task Userr  user -1 UP -->
<polygon  fill="#ffffff" stroke="black" stroke-width="25" points="10462.5,500 12150,500 12037.5,1625 10350,1625 "/>
<polygon  fill="#ffffff" stroke="black" stroke-width="25" points="10412.5,450 12100,450 11987.5,1575 10300,1575 "/>
<text x="11200" y="1538" font-family="Times" font-style="Roman" font-size="225" fill="black" text-anchor="middle">&#0955;=1.01,&#0961;=39</text>
<text x="11200" y="1313" font-family="Times" font-style="Roman" font-size="225" fill="black" text-anchor="middle">User {39}</text>
<!-- Entry user s [0] -->
<polyline  stroke="black" stroke-width="25" fill="none" points="10727.5,450 10660,1125 11717.5,1125 11785,450 "/>
<text x="11223" y="1069" font-family="Times" font-style="Roman" font-size="225" fill="black" text-anchor="middle">38.7</text>
<text x="11223" y="844" font-family="Times" font-style="Roman" font-size="225" fill="black" text-anchor="middle">[0]</text>
<text x="11223" y="619" font-family="Times" font-style="Roman" font-size="225" fill="black" text-anchor="middle">user</text>
<!-- Call user protocol y (1) -->
<line x1="11222.5" y1="1125" x2="6722.5" y2="2925" stroke="Yellow" stroke-width="25"/>
<polygon fill="Yellow" stroke="Yellow" stroke-width="25" points="6722.5,2925 6880.34,2915.72 6838.56,2878.58 6843.2,2822.87 "/>
<text x="7847" y="2663" font-family="Times" font-style="Roman" font-size="225" fill="black" text-anchor="middle">0</text>
<text x="7847" y="2438" font-family="Times" font-style="Roman" font-size="225" fill="black" text-anchor="middle">(1)</text>
<!-- Task Protocoln  protocol -1 ProtocolP1 -->
<polygon  fill="#ffffe5" stroke="Yellow" stroke-width="25" points="5962.5,2975 7650,2975 7537.5,4100 5850,4100 "/>
<polygon  fill="#ffffe5" stroke="Yellow" stroke-width="25" points="5912.5,2925 7600,2925 7487.5,4050 5800,4050 "/>
<text x="6700" y="4013" font-family="Times" font-style="Roman" font-size="225" fill="black" text-anchor="middle">&#0955;=1.01,&#0961;=39</text>
<text x="6700" y="3788" font-family="Times" font-style="Roman" font-size="225" fill="black" text-anchor="middle">Protocol {50}</text>
<!-- Entry protocol s [0.25] -->
<polyline  stroke="Yellow" stroke-width="25" fill="none" points="6227.5,2925 6160,3600 7217.5,3600 7285,2925 "/>
<text x="6722" y="3544" font-family="Times" font-style="Roman" font-size="225" fill="black" text-anchor="middle">38.7</text>
<text x="6722" y="3319" font-family="Times" font-style="Roman" font-size="225" fill="black" text-anchor="middle">[0.25]</text>
<text x="6722" y="3094" font-family="Times" font-style="Roman" font-size="225" fill="black" text-anchor="middle">protocol</text>
<!-- Call protocol webServer y (1) -->
<line x1="6722.5" y1="3600" x2="16858.8" y2="5400" stroke="Yellow" stroke-width="25"/>
<polygon fill="Yellow" stroke="Yellow" stroke-width="25" points="16858.8,5400 16719.8,5324.54 16735.7,5378.14 16702.3,5423 "/>
<text x="14325" y="5138" font-family="Times" font-style="Roman" font-size="225" fill="black" text-anchor="middle">0</text>
<text x="14325" y="4913" font-family="Times" font-style="Roman" font-size="225" fill="black" text-anchor="middle">(1)</text>
<!-- Task WebServern  webServer -1 WSP -->
<polygon  fill="#ffffe5" stroke="Yellow" stroke-width="25" points="15482.5,5450 18402.5,5450 17770,11775 14850,11775 "/>
<polygon  fill="#ffffe5" stroke="Yellow" stroke-width="25" points="15432.5,5400 18352.5,5400 17720,11725 14800,11725 "/>
<text x="16576" y="6513" font-family="Times" font-style="Roman" font-size="225" fill="black" text-anchor="middle">&#0955;=1.01,&#0961;=38.7</text>
<text x="16576" y="6288" font-family="Times" font-style="Roman" font-size="225" fill="black" text-anchor="middle">WebServer {50}</text>
<!-- Entry webServer A analyze -->
<polyline  stroke="Yellow" stroke-width="25" fill="none" points="16363.8,5400 16296.2,6075 17353.8,6075 17421.2,5400 "/>
<text x="16859" y="5925" font-family="Times" font-style="Roman" font-size="225" fill="black" text-anchor="middle">38.3</text>
<text x="16859" y="5700" font-family="Times" font-style="Roman" font-size="225" fill="black" text-anchor="middle">webServer</text>
<line x1="16858.8" y1="6075" x2="16595" y2="6525" stroke="Yellow" stroke-width="25"/>
<polygon fill="Yellow" stroke="Yellow" stroke-width="25" points="16595,6525 16714,6420.87 16658.2,6417.16 16627.7,6370.31 "/>
<!-- Call webServerEnd webServer -->
<line x1="16857.5" y1="10800" x2="17140" y2="6075" stroke-dasharray="75" stroke="Yellow" stroke-width="25"/>
<polygon fill="Yellow" stroke="Yellow" stroke-width="25" points="17140,6075 17081.1,6221.75 17132.5,6199.78 17181,6227.72 "/>
<!-- Activity analyze s [1] level=1 -->
<polygon  fill="#ffffe5" stroke="Yellow" stroke-width="25" points="16070,7200 16070,6525 17120,6525 17120,7200 16070,7200 "/>
<text x="16595" y="7144" font-family="Times" font-style="Roman" font-size="225" fill="black" text-anchor="middle">1.91</text>
<text x="16595" y="6919" font-family="Times" font-style="Roman" font-size="225" fill="black" text-anchor="middle">[1]</text>
<text x="16595" y="6694" font-family="Times" font-style="Roman" font-size="225" fill="black" text-anchor="middle">analyze</text>
<!-- Activity cache s [1] level=2 -->
<polygon  fill="#ffffe5" stroke="Yellow" stroke-width="25" points="15470,8625 15470,7950 16520,7950 16520,8625 15470,8625 "/>
<text x="15995" y="8569" font-family="Times" font-style="Roman" font-size="225" fill="black" text-anchor="middle">1.91</text>
<text x="15995" y="8344" font-family="Times" font-style="Roman" font-size="225" fill="black" text-anchor="middle">[1]</text>
<text x="15995" y="8119" font-family="Times" font-style="Roman" font-size="225" fill="black" text-anchor="middle">cache</text>
<!-- Activity cacheEnd s [0] level=3 -->
<polygon  fill="#ffffe5" stroke="Yellow" stroke-width="25" points="15470,10050 15470,9375 16520,9375 16520,10050 15470,10050 "/>
<!-- Call cacheEnd sendStatic y (1) -->
<line x1="16257.5" y1="10050" x2="16846.2" y2="19325" stroke="Green" stroke-width="25"/>
<polygon fill="Green" stroke="Green" stroke-width="25" points="16846.2,19325 16886.6,19172.1 16838.3,19200.3 16786.8,19178.5 "/>
<text x="16818" y="19063" font-family="Times" font-style="Roman" font-size="225" fill="black" text-anchor="middle">0</text>
<text x="16818" y="18838" font-family="Times" font-style="Roman" font-size="225" fill="black" text-anchor="middle">(1)</text>
<text x="15995" y="9994" font-family="Times" font-style="Roman" font-size="225" fill="black" text-anchor="middle">22.6</text>
<text x="15995" y="9769" font-family="Times" font-style="Roman" font-size="225" fill="black" text-anchor="middle">[0]</text>
<text x="15995" y="9544" font-family="Times" font-style="Roman" font-size="225" fill="black" text-anchor="middle">cacheEnd</text>
<!-- Activity cgiDrive s [0] level=2 -->
<polygon  fill="#ffffe5" stroke="Yellow" stroke-width="25" points="16670,8625 16670,7950 17720,7950 17720,8625 16670,8625 "/>
<!-- Call cgiDrive cgiApp y (1) -->
<line x1="16932.5" y1="8625" x2="16787.5" y2="13075" stroke="Indigo" stroke-width="25"/>
<polygon fill="Indigo" stroke="Indigo" stroke-width="25" points="16787.5,13075 16842.4,12926.7 16791.6,12950.1 16742.4,12923.5 "/>
<text x="16802" y="12813" font-family="Times" font-style="Roman" font-size="225" fill="black" text-anchor="middle">0</text>
<text x="16802" y="12588" font-family="Times" font-style="Roman" font-size="225" fill="black" text-anchor="middle">(1)</text>
<text x="17195" y="8569" font-family="Times" font-style="Roman" font-size="225" fill="black" text-anchor="middle">128</text>
<text x="17195" y="8344" font-family="Times" font-style="Roman" font-size="225" fill="black" text-anchor="middle">[0]</text>
<text x="17195" y="8119" font-family="Times" font-style="Roman" font-size="225" fill="black" text-anchor="middle">cgiDrive</text>
<!-- Activity diskFetch s [1] level=3 -->
<polygon  fill="#ffffe5" stroke="Yellow" stroke-width="25" points="16670,10050 16670,9375 17720,9375 17720,10050 16670,10050 "/>
<!-- Call diskFetch webRorW y (3) -->
<line x1="16845" y1="10050" x2="13660" y2="24275" stroke="Violet" stroke-width="25"/>
<polygon fill="Violet" stroke="Violet" stroke-width="25" points="13660,24275 13741.6,24139.5 13687.3,24153 13644,24117.7 "/>
<text x="13862" y="23563" font-family="Times" font-style="Roman" font-size="225" fill="black" text-anchor="middle">0.00917</text>
<text x="13862" y="23338" font-family="Times" font-style="Roman" font-size="225" fill="black" text-anchor="middle">(3)</text>
<!-- Call diskFetch sendStatic y (1) -->
<line x1="17020" y1="10050" x2="17127.5" y2="19325" stroke="Green" stroke-width="25"/>
<polygon fill="Green" stroke="Green" stroke-width="25" points="17127.5,19325 17175.8,19174.4 17126.1,19200 17075.8,19175.6 "/>
<text x="17117" y="18613" font-family="Times" font-style="Roman" font-size="225" fill="black" text-anchor="middle">0</text>
<text x="17117" y="18388" font-family="Times" font-style="Roman" font-size="225" fill="black" text-anchor="middle">(1)</text>
<text x="17195" y="9994" font-family="Times" font-style="Roman" font-size="225" fill="black" text-anchor="middle">28.4</text>
<text x="17195" y="9769" font-family="Times" font-style="Roman" font-size="225" fill="black" text-anchor="middle">[1]</text>
<text x="17195" y="9544" font-family="Times" font-style="Roman" font-size="225" fill="black" text-anchor="middle">diskFetch</text>
<!-- Activity webServerEnd s [0] level=4 -->
<polygon  fill="#ffffe5" stroke="Yellow" stroke-width="25" points="16070,11475 16070,10800 17120,10800 17120,11475 16070,11475 "/>
<text x="16595" y="11419" font-family="Times" font-style="Roman" font-size="225" fill="black" text-anchor="middle">0</text>
<text x="16595" y="11194" font-family="Times" font-style="Roman" font-size="225" fill="black" text-anchor="middle">[0]</text>
<text x="16595" y="10969" font-family="Times" font-style="Roman" font-size="225" fill="black" text-anchor="middle">webServerEnd</text>
<line x1="16595" y1="7200" x2="16595" y2="7450" stroke="Yellow" stroke-width="25"/>
<polygon fill="Yellow" stroke="Yellow" stroke-width="25" points="16595,7450 16645,7300 16595,7325 16545,7300 "/>
<line x1="15995" y1="8625" x2="16595" y2="8875" stroke="Yellow" stroke-width="25"/>
<polygon fill="Yellow" stroke="Yellow" stroke-width="25" points="16595,8875 16475.8,8771.15 16479.6,8826.92 16437.3,8863.46 "/>
<circle cx="16595" cy="7600" r="150"  fill="#ffffe5" stroke="Yellow" stroke-width="25"/>
<text x="16595" y="7675" font-family="Times" font-style="Roman" font-size="225" fill="Yellow" text-anchor="middle">+</text>
<line x1="16465.4" y1="7675.58" x2="15995" y2="7950" stroke="Yellow" stroke-width="25"/>
<polygon fill="Yellow" stroke="Yellow" stroke-width="25" points="15995,7950 16149.8,7917.61 16103,7887.02 16099.4,7831.23 "/>
<line x1="16724.6" y1="7675.58" x2="17195" y2="7950" stroke="Yellow" stroke-width="25"/>
<polygon fill="Yellow" stroke="Yellow" stroke-width="25" points="17195,7950 17090.6,7831.23 17087,7887.02 17040.2,7917.61 "/>
<line x1="16465.4" y1="7675.58" x2="15995" y2="7950" stroke="Yellow" stroke-width="25"/>
<polygon fill="Yellow" stroke="Yellow" stroke-width="25" points="15995,7950 16149.8,7917.61 16103,7887.02 16099.4,7831.23 "/>
<line x1="16724.6" y1="7675.58" x2="17195" y2="7950" stroke="Yellow" stroke-width="25"/>
<polygon fill="Yellow" stroke="Yellow" stroke-width="25" points="17195,7950 17090.6,7831.23 17087,7887.02 17040.2,7917.61 "/>
<text x="16038" y="7877" font-family="Times" font-style="Roman" font-size="225" fill="black" text-anchor="middle">0.9</text>
<text x="17152" y="7877" font-family="Times" font-style="Roman" font-size="225" fill="black" text-anchor="middle">0.1</text>
<circle cx="16595" cy="10400" r="150"  fill="#ffffe5" stroke="Yellow" stroke-width="25"/>
<text x="16595" y="10475" font-family="Times" font-style="Roman" font-size="225" fill="Yellow" text-anchor="middle">+</text>
<line x1="15995" y1="10050" x2="16465.4" y2="10324.4" stroke="Yellow" stroke-width="25"/>
<polygon fill="Yellow" stroke="Yellow" stroke-width="25" points="16465.4,10324.4 16361.1,10205.6 16357.5,10261.4 16310.7,10292 "/>
<line x1="17195" y1="8625" x2="16643" y2="10257.9" stroke="Yellow" stroke-width="25"/>
<polygon fill="Yellow" stroke="Yellow" stroke-width="25" points="16643,10257.9 16738.4,10131.8 16683.1,10139.5 16643.7,10099.8 "/>
<line x1="17195" y1="10050" x2="16724.6" y2="10324.4" stroke="Yellow" stroke-width="25"/>
<polygon fill="Yellow" stroke="Yellow" stroke-width="25" points="16724.6,10324.4 16879.3,10292 16832.5,10261.4 16828.9,10205.6 "/>
<circle cx="16595" cy="9025" r="150"  fill="#ffffe5" stroke="Yellow" stroke-width="25"/>
<text x="16595" y="9100" font-family="Times" font-style="Roman" font-size="225" fill="Yellow" text-anchor="middle">+</text>
<line x1="16465.4" y1="9100.58" x2="15995" y2="9375" stroke="Yellow" stroke-width="25"/>
<polygon fill="Yellow" stroke="Yellow" stroke-width="25" points="15995,9375 16149.8,9342.61 16103,9312.02 16099.4,9256.23 "/>
<line x1="16724.6" y1="9100.58" x2="17195" y2="9375" stroke="Yellow" stroke-width="25"/>
<polygon fill="Yellow" stroke="Yellow" stroke-width="25" points="17195,9375 17090.6,9256.23 17087,9312.02 17040.2,9342.61 "/>
<line x1="16465.4" y1="9100.58" x2="15995" y2="9375" stroke="Yellow" stroke-width="25"/>
<polygon fill="Yellow" stroke="Yellow" stroke-width="25" points="15995,9375 16149.8,9342.61 16103,9312.02 16099.4,9256.23 "/>
<line x1="16724.6" y1="9100.58" x2="17195" y2="9375" stroke="Yellow" stroke-width="25"/>
<polygon fill="Yellow" stroke="Yellow" stroke-width="25" points="17195,9375 17090.6,9256.23 17087,9312.02 17040.2,9342.61 "/>
<text x="16038" y="9302" font-family="Times" font-style="Roman" font-size="225" fill="black" text-anchor="middle">0.7</text>
<text x="17152" y="9302" font-family="Times" font-style="Roman" font-size="225" fill="black" text-anchor="middle">0.3</text>
<line x1="16595" y1="10550" x2="16595" y2="10800" stroke="Yellow" stroke-width="25"/>
<polygon fill="Yellow" stroke="Yellow" stroke-width="25" points="16595,10800 16645,10650 16595,10675 16545,10650 "/>
<!-- Task CGIAppn  cgiApp -1 WSP -->
<polygon  fill="#e5f0ff" stroke="Indigo" stroke-width="25" points="15482.5,13125 18260,13125 17770,18025 14992.5,18025 "/>
<polygon  fill="#e5f0ff" stroke="Indigo" stroke-width="25" points="15432.5,13075 18210,13075 17720,17975 14942.5,17975 "/>
<text x="16576" y="14188" font-family="Times" font-style="Roman" font-size="225" fill="black" text-anchor="middle">&#0955;=0.101,&#0961;=12.9</text>
<text x="16576" y="13963" font-family="Times" font-style="Roman" font-size="225" fill="black" text-anchor="middle">CGIApp {50}</text>
<!-- Entry cgiApp A cgiStart -->
<polyline  stroke="Indigo" stroke-width="25" fill="none" points="16292.5,13075 16225,13750 17282.5,13750 17350,13075 "/>
<text x="16788" y="13600" font-family="Times" font-style="Roman" font-size="225" fill="black" text-anchor="middle">128</text>
<text x="16788" y="13375" font-family="Times" font-style="Roman" font-size="225" fill="black" text-anchor="middle">cgiApp</text>
<line x1="16787.5" y1="13750" x2="16595" y2="14200" stroke="Indigo" stroke-width="25"/>
<polygon fill="Indigo" stroke="Indigo" stroke-width="25" points="16595,14200 16700,14081.8 16644.2,14085.1 16608,14042.4 "/>
<!-- Call cgiAppEnd cgiApp -->
<line x1="16857.5" y1="17050" x2="17068.8" y2="13750" stroke-dasharray="75" stroke="Indigo" stroke-width="25"/>
<polygon fill="Indigo" stroke="Indigo" stroke-width="25" points="17068.8,13750 17009.3,13896.5 17060.8,13874.7 17109.1,13902.9 "/>
<!-- Activity cdPage s [5] level=2 -->
<polygon  fill="#e5f0ff" stroke="Indigo" stroke-width="25" points="15470,16300 15470,15625 16520,15625 16520,16300 15470,16300 "/>
<!-- Call cdPage dbRead y (4.3) -->
<line x1="15645" y1="16300" x2="3732.5" y2="19325" stroke="Blue" stroke-width="25"/>
<polygon fill="Blue" stroke="Blue" stroke-width="25" points="3732.5,19325 3890.19,19336.5 3853.65,19294.2 3865.58,19239.6 "/>
<text x="5505" y="19063" font-family="Times" font-style="Roman" font-size="225" fill="black" text-anchor="middle">0</text>
<text x="5505" y="18838" font-family="Times" font-style="Roman" font-size="225" fill="black" text-anchor="middle">(4.3)</text>
<!-- Call cdPage sendDynamic y (1) -->
<line x1="15820" y1="16300" x2="16070" y2="19325" stroke="Green" stroke-width="25"/>
<polygon fill="Green" stroke="Green" stroke-width="25" points="16070,19325 16107.5,19171.4 16059.7,19200.4 16007.8,19179.6 "/>
<text x="16033" y="19063" font-family="Times" font-style="Roman" font-size="225" fill="black" text-anchor="middle">0</text>
<text x="16033" y="18838" font-family="Times" font-style="Roman" font-size="225" fill="black" text-anchor="middle">(1)</text>
<text x="15995" y="16244" font-family="Times" font-style="Roman" font-size="225" fill="black" text-anchor="middle">180</text>
<text x="15995" y="16019" font-family="Times" font-style="Roman" font-size="225" fill="black" text-anchor="middle">[5]</text>
<text x="15995" y="15794" font-family="Times" font-style="Roman" font-size="225" fill="black" text-anchor="middle">cdPage</text>
<!-- Activity cgiAppEnd s [0] level=3 -->
<polygon  fill="#e5f0ff" stroke="Indigo" stroke-width="25" points="16070,17725 16070,17050 17120,17050 17120,17725 16070,17725 "/>
<text x="16595" y="17669" font-family="Times" font-style="Roman" font-size="225" fill="black" text-anchor="middle">0</text>
<text x="16595" y="17444" font-family="Times" font-style="Roman" font-size="225" fill="black" text-anchor="middle">[0]</text>
<text x="16595" y="17219" font-family="Times" font-style="Roman" font-size="225" fill="black" text-anchor="middle">cgiAppEnd</text>
<!-- Activity cgiStart s [0] level=1 -->
<polygon  fill="#e5f0ff" stroke="Indigo" stroke-width="25" points="16070,14875 16070,14200 17120,14200 17120,14875 16070,14875 "/>
<text x="16595" y="14819" font-family="Times" font-style="Roman" font-size="225" fill="black" text-anchor="middle">0</text>
<text x="16595" y="14594" font-family="Times" font-style="Roman" font-size="225" fill="black" text-anchor="middle">[0]</text>
<text x="16595" y="14369" font-family="Times" font-style="Roman" font-size="225" fill="black" text-anchor="middle">cgiStart</text>
<!-- Activity procData s [15] level=2 -->
<polygon  fill="#e5f0ff" stroke="Indigo" stroke-width="25" points="16670,16300 16670,15625 17720,15625 17720,16300 16670,16300 "/>
<!-- Call procData dbUpdate y (1.7) -->
<line x1="16845" y1="16300" x2="4790" y2="19325" stroke="Blue" stroke-width="25"/>
<polygon fill="Blue" stroke="Blue" stroke-width="25" points="4790,19325 4947.66,19337 4911.24,19294.6 4923.32,19240 "/>
<text x="6583" y="19063" font-family="Times" font-style="Roman" font-size="225" fill="black" text-anchor="middle">0</text>
<text x="6583" y="18838" font-family="Times" font-style="Roman" font-size="225" fill="black" text-anchor="middle">(1.7)</text>
<!-- Call procData sendStatic y (1) -->
<line x1="17020" y1="16300" x2="17408.8" y2="19325" stroke="Green" stroke-width="25"/>
<polygon fill="Green" stroke="Green" stroke-width="25" points="17408.8,19325 17439.2,19169.9 17392.8,19201 17340,19182.6 "/>
<text x="17351" y="19063" font-family="Times" font-style="Roman" font-size="225" fill="black" text-anchor="middle">0</text>
<text x="17351" y="18838" font-family="Times" font-style="Roman" font-size="225" fill="black" text-anchor="middle">(1)</text>
<text x="17195" y="16244" font-family="Times" font-style="Roman" font-size="225" fill="black" text-anchor="middle">93.4</text>
<text x="17195" y="16019" font-family="Times" font-style="Roman" font-size="225" fill="black" text-anchor="middle">[15]</text>
<text x="17195" y="15794" font-family="Times" font-style="Roman" font-size="225" fill="black" text-anchor="middle">procData</text>
<circle cx="16595" cy="16650" r="150"  fill="#e5f0ff" stroke="Indigo" stroke-width="25"/>
<text x="16595" y="16725" font-family="Times" font-style="Roman" font-size="225" fill="Indigo" text-anchor="middle">+</text>
<line x1="15995" y1="16300" x2="16465.4" y2="16574.4" stroke="Indigo" stroke-width="25"/>
<polygon fill="Indigo" stroke="Indigo" stroke-width="25" points="16465.4,16574.4 16361.1,16455.6 16357.5,16511.4 16310.7,16542 "/>
<line x1="17195" y1="16300" x2="16724.6" y2="16574.4" stroke="Indigo" stroke-width="25"/>
<polygon fill="Indigo" stroke="Indigo" stroke-width="25" points="16724.6,16574.4 16879.3,16542 16832.5,16511.4 16828.9,16455.6 "/>
<circle cx="16595" cy="15275" r="150"  fill="#e5f0ff" stroke="Indigo" stroke-width="25"/>
<text x="16595" y="15350" font-family="Times" font-style="Roman" font-size="225" fill="Indigo" text-anchor="middle">+</text>
<line x1="16465.4" y1="15350.6" x2="15995" y2="15625" stroke="Indigo" stroke-width="25"/>
<polygon fill="Indigo" stroke="Indigo" stroke-width="25" points="15995,15625 16149.8,15592.6 16103,15562 16099.4,15506.2 "/>
<line x1="16724.6" y1="15350.6" x2="17195" y2="15625" stroke="Indigo" stroke-width="25"/>
<polygon fill="Indigo" stroke="Indigo" stroke-width="25" points="17195,15625 17090.6,15506.2 17087,15562 17040.2,15592.6 "/>
<line x1="16465.4" y1="15350.6" x2="15995" y2="15625" stroke="Indigo" stroke-width="25"/>
<polygon fill="Indigo" stroke="Indigo" stroke-width="25" points="15995,15625 16149.8,15592.6 16103,15562 16099.4,15506.2 "/>
<line x1="16724.6" y1="15350.6" x2="17195" y2="15625" stroke="Indigo" stroke-width="25"/>
<polygon fill="Indigo" stroke="Indigo" stroke-width="25" points="17195,15625 17090.6,15506.2 17087,15562 17040.2,15592.6 "/>
<text x="16038" y="15552" font-family="Times" font-style="Roman" font-size="225" fill="black" text-anchor="middle">0.4</text>
<text x="17152" y="15552" font-family="Times" font-style="Roman" font-size="225" fill="black" text-anchor="middle">0.6</text>
<line x1="16595" y1="16800" x2="16595" y2="17050" stroke="Indigo" stroke-width="25"/>
<polygon fill="Indigo" stroke="Indigo" stroke-width="25" points="16595,17050 16645,16900 16595,16925 16545,16900 "/>
<line x1="16595" y1="14875" x2="16595" y2="15125" stroke="Indigo" stroke-width="25"/>
<polygon fill="Indigo" stroke="Indigo" stroke-width="25" points="16595,15125 16645,14975 16595,15000 16545,14975 "/>
<!-- Task DBProcessn  dbUpdate dbRead -1 DBP -->
<polygon  fill="#e5e5ff" stroke="Blue" stroke-width="25" points="3287.5,19375 5402.5,19375 5290,20500 3175,20500 "/>
<polygon  fill="#e5e5ff" stroke="Blue" stroke-width="25" points="3237.5,19325 5352.5,19325 5240,20450 3125,20450 "/>
<text x="4239" y="20413" font-family="Times" font-style="Roman" font-size="225" fill="black" text-anchor="middle">&#0955;=0.276,&#0961;=6.7</text>
<text x="4239" y="20188" font-family="Times" font-style="Roman" font-size="225" fill="black" text-anchor="middle">DBProcess {50}</text>
<!-- Entry dbRead s [20] -->
<polyline  stroke="Blue" stroke-width="25" fill="none" points="3170,20000 4227.5,20000 4295,19325 "/>
<text x="3733" y="19944" font-family="Times" font-style="Roman" font-size="225" fill="black" text-anchor="middle">20.5</text>
<text x="3733" y="19719" font-family="Times" font-style="Roman" font-size="225" fill="black" text-anchor="middle">[20]</text>
<text x="3733" y="19494" font-family="Times" font-style="Roman" font-size="225" fill="black" text-anchor="middle">dbRead</text>
<!-- Call dbRead read y (4) -->
<line x1="3732.5" y1="20000" x2="870" y2="21800" stroke="Blue" stroke-width="25"/>
<polygon fill="Blue" stroke="Blue" stroke-width="25" points="870,21800 1023.6,21762.5 975.818,21733.5 970.365,21677.8 "/>
<text x="1586" y="21538" font-family="Times" font-style="Roman" font-size="225" fill="black" text-anchor="middle">0.0146</text>
<text x="1586" y="21313" font-family="Times" font-style="Roman" font-size="225" fill="black" text-anchor="middle">(4)</text>
<!-- Entry dbUpdate s [30] -->
<line x1="4227.5" y1="20000" x2="5285" y2="20000" stroke="Blue" stroke-width="25"/>
<text x="4790" y="19944" font-family="Times" font-style="Roman" font-size="225" fill="black" text-anchor="middle">30.7</text>
<text x="4790" y="19719" font-family="Times" font-style="Roman" font-size="225" fill="black" text-anchor="middle">[30]</text>
<text x="4790" y="19494" font-family="Times" font-style="Roman" font-size="225" fill="black" text-anchor="middle">dbUpdate</text>
<!-- Call dbUpdate read y (2) -->
<line x1="4602.5" y1="20000" x2="1245" y2="21800" stroke="Blue" stroke-width="25"/>
<polygon fill="Blue" stroke="Blue" stroke-width="25" points="1245,21800 1400.82,21773.2 1355.17,21740.9 1353.58,21685.1 "/>
<text x="2924" y="21088" font-family="Times" font-style="Roman" font-size="225" fill="black" text-anchor="middle">0.0146</text>
<text x="2924" y="20863" font-family="Times" font-style="Roman" font-size="225" fill="black" text-anchor="middle">(2)</text>
<!-- Call dbUpdate write y (4) -->
<line x1="4977.5" y1="20000" x2="2115" y2="21800" stroke="Blue" stroke-width="25"/>
<polygon fill="Blue" stroke="Blue" stroke-width="25" points="2115,21800 2268.6,21762.5 2220.82,21733.5 2215.37,21677.8 "/>
<text x="2831" y="21538" font-family="Times" font-style="Roman" font-size="225" fill="black" text-anchor="middle">0.0146</text>
<text x="2831" y="21313" font-family="Times" font-style="Roman" font-size="225" fill="black" text-anchor="middle">(4)</text>
<!-- Task WebReplyn  sendStatic sendDynamic -1 WSP -->
<polygon  fill="#e5ffe5" stroke="Green" stroke-width="25" points="15625,19375 17740,19375 17627.5,20500 15512.5,20500 "/>
<polygon  fill="#e5ffe5" stroke="Green" stroke-width="25" points="15575,19325 17690,19325 17577.5,20450 15462.5,20450 "/>
<text x="16576" y="20413" font-family="Times" font-style="Roman" font-size="225" fill="black" text-anchor="middle">&#0955;=1.01,&#0961;=25.1</text>
<text x="16576" y="20188" font-family="Times" font-style="Roman" font-size="225" fill="black" text-anchor="middle">WebReply {50}</text>
<!-- Entry sendDynamic s [0.8] -->
<polyline  stroke="Green" stroke-width="25" fill="none" points="15507.5,20000 16565,20000 16632.5,19325 "/>
<text x="16070" y="19944" font-family="Times" font-style="Roman" font-size="225" fill="black" text-anchor="middle">81.3</text>
<text x="16070" y="19719" font-family="Times" font-style="Roman" font-size="225" fill="black" text-anchor="middle">[0.8]</text>
<text x="16070" y="19494" font-family="Times" font-style="Roman" font-size="225" fill="black" text-anchor="middle">sendDynamic</text>
<!-- Call sendDynamic packet y (40) -->
<line x1="15882.5" y1="20000" x2="8785" y2="21800" stroke="Violet" stroke-width="25"/>
<polygon fill="Violet" stroke="Violet" stroke-width="25" points="8785,21800 8942.69,21811.6 8906.16,21769.3 8918.11,21714.7 "/>
<text x="10559" y="21538" font-family="Times" font-style="Roman" font-size="225" fill="black" text-anchor="middle">0</text>
<text x="10559" y="21313" font-family="Times" font-style="Roman" font-size="225" fill="black" text-anchor="middle">(40)</text>
<!-- Call sendDynamic getObjects y (8) -->
<line x1="16257.5" y1="20000" x2="16598.8" y2="21800" stroke="Turquoise" stroke-width="25"/>
<polygon fill="Turquoise" stroke="Turquoise" stroke-width="25" points="16598.8,21800 16619.9,21643.3 16575.5,21677.2 16521.7,21661.9 "/>
<text x="16513" y="21538" font-family="Times" font-style="Roman" font-size="225" fill="black" text-anchor="middle">0.966</text>
<text x="16513" y="21313" font-family="Times" font-style="Roman" font-size="225" fill="black" text-anchor="middle">(8)</text>
<!-- Entry sendStatic s [0.8] -->
<line x1="16565" y1="20000" x2="17622.5" y2="20000" stroke="Green" stroke-width="25"/>
<text x="17128" y="19944" font-family="Times" font-style="Roman" font-size="225" fill="black" text-anchor="middle">22.6</text>
<text x="17128" y="19719" font-family="Times" font-style="Roman" font-size="225" fill="black" text-anchor="middle">[0.8]</text>
<text x="17128" y="19494" font-family="Times" font-style="Roman" font-size="225" fill="black" text-anchor="middle">sendStatic</text>
<!-- Call sendStatic packet y (16) -->
<line x1="17127.5" y1="20000" x2="9160" y2="21800" stroke="Violet" stroke-width="25"/>
<polygon fill="Violet" stroke="Violet" stroke-width="25" points="9160,21800 9317.33,21815.7 9281.93,21772.5 9295.29,21718.2 "/>
<text x="13144" y="21088" font-family="Times" font-style="Roman" font-size="225" fill="black" text-anchor="middle">0</text>
<text x="13144" y="20863" font-family="Times" font-style="Roman" font-size="225" fill="black" text-anchor="middle">(16)</text>
<!-- Task DBOperationn  write read -1 DBDisk -->
<polygon  fill="#e5e5ff" stroke="Blue" stroke-width="25" points="562.5,21800 2677.5,21800 2565,22925 450,22925 "/>
<text x="1564" y="22888" font-family="Times" font-style="Roman" font-size="225" fill="black" text-anchor="middle">&#0955;=1.31,&#0961;=0.131</text>
<text x="1564" y="22663" font-family="Times" font-style="Roman" font-size="225" fill="black" text-anchor="middle">DBOperation</text>
<!-- Entry read s [0.1] -->
<polyline  stroke="Blue" stroke-width="25" fill="none" points="495,22475 1552.5,22475 1620,21800 "/>
<text x="1058" y="22419" font-family="Times" font-style="Roman" font-size="225" fill="black" text-anchor="middle">0.1</text>
<text x="1058" y="22194" font-family="Times" font-style="Roman" font-size="225" fill="black" text-anchor="middle">[0.1]</text>
<text x="1058" y="21969" font-family="Times" font-style="Roman" font-size="225" fill="black" text-anchor="middle">read</text>
<!-- Entry write s [0.1] -->
<line x1="1552.5" y1="22475" x2="2610" y2="22475" stroke="Blue" stroke-width="25"/>
<text x="2115" y="22419" font-family="Times" font-style="Roman" font-size="225" fill="black" text-anchor="middle">0.1</text>
<text x="2115" y="22194" font-family="Times" font-style="Roman" font-size="225" fill="black" text-anchor="middle">[0.1]</text>
<text x="2115" y="21969" font-family="Times" font-style="Roman" font-size="225" fill="black" text-anchor="middle">write</text>
<!-- Task ProtocolReplyn  packet -1 ProtocolP2 -->
<polygon  fill="#f2e5ff" stroke="Violet" stroke-width="25" points="8212.5,21850 9900,21850 9787.5,22975 8100,22975 "/>
<polygon  fill="#f2e5ff" stroke="Violet" stroke-width="25" points="8162.5,21800 9850,21800 9737.5,22925 8050,22925 "/>
<text x="8950" y="22888" font-family="Times" font-style="Roman" font-size="225" fill="black" text-anchor="middle">&#0955;=17.1,&#0961;=4.61</text>
<text x="8950" y="22663" font-family="Times" font-style="Roman" font-size="225" fill="black" text-anchor="middle">ProtocolReply {50}</text>
<!-- Entry packet s [0.25] -->
<polyline  stroke="Violet" stroke-width="25" fill="none" points="8477.5,21800 8410,22475 9467.5,22475 9535,21800 "/>
<text x="8973" y="22419" font-family="Times" font-style="Roman" font-size="225" fill="black" text-anchor="middle">0.269</text>
<text x="8973" y="22194" font-family="Times" font-style="Roman" font-size="225" fill="black" text-anchor="middle">[0.25]</text>
<text x="8973" y="21969" font-family="Times" font-style="Roman" font-size="225" fill="black" text-anchor="middle">packet</text>
<!-- Task GetObjectsn  getObjects -1 WSP -->
<polygon  fill="#e5fff2" stroke="Turquoise" stroke-width="25" points="15788.7,21800 17476.2,21800 17363.8,22925 15676.2,22925 "/>
<text x="16576" y="22888" font-family="Times" font-style="Roman" font-size="225" fill="black" text-anchor="middle">&#0955;=0.323,&#0961;=0.468</text>
<text x="16576" y="22663" font-family="Times" font-style="Roman" font-size="225" fill="black" text-anchor="middle">GetObjects</text>
<!-- Entry getObjects s [1] -->
<polyline  stroke="Turquoise" stroke-width="25" fill="none" points="16103.8,21800 16036.3,22475 17093.8,22475 17161.2,21800 "/>
<text x="16599" y="22419" font-family="Times" font-style="Roman" font-size="225" fill="black" text-anchor="middle">1.45</text>
<text x="16599" y="22194" font-family="Times" font-style="Roman" font-size="225" fill="black" text-anchor="middle">[1]</text>
<text x="16599" y="21969" font-family="Times" font-style="Roman" font-size="225" fill="black" text-anchor="middle">getObjects</text>
<!-- Call getObjects webRorW y (0.2) -->
<line x1="16598.8" y1="22475" x2="13285" y2="24275" stroke="Violet" stroke-width="25"/>
<polygon fill="Violet" stroke="Violet" stroke-width="25" points="13285,24275 13440.7,24247.3 13394.8,24215.3 13392.9,24159.5 "/>
<text x="14113" y="24013" font-family="Times" font-style="Roman" font-size="225" fill="black" text-anchor="middle">0.00883</text>
<text x="14113" y="23788" font-family="Times" font-style="Roman" font-size="225" fill="black" text-anchor="middle">(0.2)</text>
<!-- Task WebDiskn  webRorW -1 WSDisk -->
<polygon  fill="#f2e5ff" stroke="Violet" stroke-width="25" points="12662.5,24275 14350,24275 14237.5,25400 12550,25400 "/>
<text x="13450" y="25363" font-family="Times" font-style="Roman" font-size="225" fill="black" text-anchor="middle">&#0955;=0.881,&#0961;=0.0881</text>
<text x="13450" y="25138" font-family="Times" font-style="Roman" font-size="225" fill="black" text-anchor="middle">WebDisk</text>
<!-- Entry webRorW s [0.1] -->
<polyline  stroke="Violet" stroke-width="25" fill="none" points="12977.5,24275 12910,24950 13967.5,24950 14035,24275 "/>
<text x="13473" y="24894" font-family="Times" font-style="Roman" font-size="225" fill="black" text-anchor="middle">0.1</text>
<text x="13473" y="24669" font-family="Times" font-style="Roman" font-size="225" fill="black" text-anchor="middle">[0.1]</text>
<text x="13473" y="24444" font-family="Times" font-style="Roman" font-size="225" fill="black" text-anchor="middle">webRorW</text>
</svg>
