<?xml version="1.0" standalone="no"?>
<!DOCTYPE svg PUBLIC "-//W3C//DTD SVG 20000303 Stylable//EN"
"http://www.w3.org/TR/2000/03/WD-SVG-20000303/DTD/svg-20000303-stylable.dtd">
<!-- Title: projectCode/3FurtherImprovements/1ProtocolProcessor/ProtocolP1_6_WSP5.d/ProtocolP1_6_WSP5-007.lqxo -->
<!-- Creator: lqn2svg Version 5.26 -->
<!-- Wed Apr 13 22:10:34 2022 -->
<!-- For: Haomi -->
<!-- Invoked as: lqn2svg projectCode/3FurtherImprovements/1ProtocolProcessor/ProtocolP1_6_WSP5.d/ProtocolP1_6_WSP5-007.lqxo -->
<svg xmlns="http://www.w3.org/2000/svg" width="4.7375in" height="15.7361in" viewBox="0 0 8528 28325">
<desc>0xababc8</desc>
<!-- Task Userr  user -1 UP -->
<polygon  fill="#ffffff" stroke="black" stroke-width="25" points="3526.25,500 5213.75,500 5101.25,1625 3413.75,1625 "/>
<polygon  fill="#ffffff" stroke="black" stroke-width="25" points="3476.25,450 5163.75,450 5051.25,1575 3363.75,1575 "/>
<text x="4264" y="1538" font-family="Times" font-style="Roman" font-size="225" fill="black" text-anchor="middle">&#0955;=0.444,&#0961;=7</text>
<text x="4264" y="1313" font-family="Times" font-style="Roman" font-size="225" fill="black" text-anchor="middle">User {7}</text>
<!-- Entry user s [0] -->
<polyline  stroke="black" stroke-width="25" fill="none" points="3791.25,450 3723.75,1125 4781.25,1125 4848.75,450 "/>
<text x="4286" y="1069" font-family="Times" font-style="Roman" font-size="225" fill="black" text-anchor="middle">15.8</text>
<text x="4286" y="844" font-family="Times" font-style="Roman" font-size="225" fill="black" text-anchor="middle">[0]</text>
<text x="4286" y="619" font-family="Times" font-style="Roman" font-size="225" fill="black" text-anchor="middle">user</text>
<!-- Call user protocol y (1) -->
<line x1="4286.25" y1="1125" x2="4286.25" y2="2925" stroke="Blue" stroke-width="25"/>
<polygon fill="Blue" stroke="Blue" stroke-width="25" points="4286.25,2925 4336.25,2775 4286.25,2800 4236.25,2775 "/>
<text x="4286" y="2663" font-family="Times" font-style="Roman" font-size="225" fill="black" text-anchor="middle">0</text>
<text x="4286" y="2438" font-family="Times" font-style="Roman" font-size="225" fill="black" text-anchor="middle">(1)</text>
<!-- Task Protocoln  protocol -1 ProtocolP1 -->
<polygon  fill="#e5e5ff" stroke="Blue" stroke-width="25" points="3526.25,2975 5213.75,2975 5101.25,4100 3413.75,4100 "/>
<polygon  fill="#e5e5ff" stroke="Blue" stroke-width="25" points="3476.25,2925 5163.75,2925 5051.25,4050 3363.75,4050 "/>
<text x="4264" y="4013" font-family="Times" font-style="Roman" font-size="225" fill="black" text-anchor="middle">&#0955;=0.444,&#0961;=7</text>
<text x="4264" y="3788" font-family="Times" font-style="Roman" font-size="225" fill="black" text-anchor="middle">Protocol {50}</text>
<!-- Entry protocol s [0.25] -->
<polyline  stroke="Blue" stroke-width="25" fill="none" points="3791.25,2925 3723.75,3600 4781.25,3600 4848.75,2925 "/>
<text x="4286" y="3544" font-family="Times" font-style="Roman" font-size="225" fill="black" text-anchor="middle">15.8</text>
<text x="4286" y="3319" font-family="Times" font-style="Roman" font-size="225" fill="black" text-anchor="middle">[0.25]</text>
<text x="4286" y="3094" font-family="Times" font-style="Roman" font-size="225" fill="black" text-anchor="middle">protocol</text>
<!-- Call protocol webServer y (1) -->
<line x1="4286.25" y1="3600" x2="5221.25" y2="5400" stroke="Blue" stroke-width="25"/>
<polygon fill="Blue" stroke="Blue" stroke-width="25" points="5221.25,5400 5196.48,5243.84 5163.63,5289.07 5107.73,5289.94 "/>
<text x="4988" y="5138" font-family="Times" font-style="Roman" font-size="225" fill="black" text-anchor="middle">0</text>
<text x="4988" y="4913" font-family="Times" font-style="Roman" font-size="225" fill="black" text-anchor="middle">(1)</text>
<!-- Call Protocol ProtocolP1 -->
<line x1="3813.75" y1="4050" x2="2713.16" y2="5512.99" stroke="Blue" stroke-width="25"/>
<polygon fill="Blue" stroke="Blue" stroke-width="25" points="2713.16,5512.99 2843.29,5423.18 2788.3,5413.1 2763.38,5363.07 "/>
<text x="3449" y="4594" font-family="Times" font-style="Roman" font-size="225" fill="black" text-anchor="middle">W[protocol]=0.0258</text>
<!-- Processor ProtocolP1 FCFS -->
<circle cx="2375" cy="5963" r="563"  fill="#e5e5ff" stroke="Blue" stroke-width="25"/>
<text x="2375" y="6150" font-family="Times" font-style="Roman" font-size="225" fill="black" text-anchor="middle">&#0961;=0.111</text>
<text x="2375" y="5925" font-family="Times" font-style="Roman" font-size="225" fill="black" text-anchor="middle">ProtocolP1</text>
<!-- Task WebServern  webServer -1 WSP -->
<polygon  fill="#e5e5ff" stroke="Blue" stroke-width="25" points="3845,5450 6765,5450 6132.5,11775 3212.5,11775 "/>
<polygon  fill="#e5e5ff" stroke="Blue" stroke-width="25" points="3795,5400 6715,5400 6082.5,11725 3162.5,11725 "/>
<text x="4939" y="6513" font-family="Times" font-style="Roman" font-size="225" fill="black" text-anchor="middle">&#0955;=0.444,&#0961;=6.88</text>
<text x="4939" y="6288" font-family="Times" font-style="Roman" font-size="225" fill="black" text-anchor="middle">WebServer {50}</text>
<!-- Entry webServer A analyze -->
<polyline  stroke="Blue" stroke-width="25" fill="none" points="4726.25,5400 4658.75,6075 5716.25,6075 5783.75,5400 "/>
<text x="5221" y="5925" font-family="Times" font-style="Roman" font-size="225" fill="black" text-anchor="middle">15.5</text>
<text x="5221" y="5700" font-family="Times" font-style="Roman" font-size="225" fill="black" text-anchor="middle">webServer</text>
<line x1="5221.25" y1="6075" x2="4957.5" y2="6525" stroke="Blue" stroke-width="25"/>
<polygon fill="Blue" stroke="Blue" stroke-width="25" points="4957.5,6525 5076.49,6420.87 5020.71,6417.16 4990.21,6370.31 "/>
<!-- Call webServerEnd webServer -->
<line x1="5220" y1="10800" x2="5502.5" y2="6075" stroke-dasharray="75" stroke="Blue" stroke-width="25"/>
<polygon fill="Blue" stroke="Blue" stroke-width="25" points="5502.5,6075 5443.64,6221.75 5495.04,6199.78 5543.46,6227.72 "/>
<!-- Activity analyze s [1] level=1 -->
<polygon  fill="#e5e5ff" stroke="Blue" stroke-width="25" points="4432.5,7200 4432.5,6525 5482.5,6525 5482.5,7200 4432.5,7200 "/>
<text x="4958" y="7144" font-family="Times" font-style="Roman" font-size="225" fill="black" text-anchor="middle">1</text>
<text x="4958" y="6919" font-family="Times" font-style="Roman" font-size="225" fill="black" text-anchor="middle">[1]</text>
<text x="4958" y="6694" font-family="Times" font-style="Roman" font-size="225" fill="black" text-anchor="middle">analyze</text>
<!-- Activity cache s [1] level=2 -->
<polygon  fill="#e5e5ff" stroke="Blue" stroke-width="25" points="3832.5,8625 3832.5,7950 4882.5,7950 4882.5,8625 3832.5,8625 "/>
<text x="4358" y="8569" font-family="Times" font-style="Roman" font-size="225" fill="black" text-anchor="middle">1</text>
<text x="4358" y="8344" font-family="Times" font-style="Roman" font-size="225" fill="black" text-anchor="middle">[1]</text>
<text x="4358" y="8119" font-family="Times" font-style="Roman" font-size="225" fill="black" text-anchor="middle">cache</text>
<!-- Activity cacheEnd s [0] level=3 -->
<polygon  fill="#e5e5ff" stroke="Blue" stroke-width="25" points="3832.5,10050 3832.5,9375 4882.5,9375 4882.5,10050 3832.5,10050 "/>
<!-- Call cacheEnd sendStatic y (1) -->
<line x1="4620" y1="10050" x2="5760" y2="19325" stroke="Violet" stroke-width="25"/>
<polygon fill="Violet" stroke="Violet" stroke-width="25" points="5760,19325 5791.33,19170 5744.75,19200.9 5692.07,19182.2 "/>
<text x="5705" y="19063" font-family="Times" font-style="Roman" font-size="225" fill="black" text-anchor="middle">0</text>
<text x="5705" y="18838" font-family="Times" font-style="Roman" font-size="225" fill="black" text-anchor="middle">(1)</text>
<text x="4358" y="9994" font-family="Times" font-style="Roman" font-size="225" fill="black" text-anchor="middle">4.87</text>
<text x="4358" y="9769" font-family="Times" font-style="Roman" font-size="225" fill="black" text-anchor="middle">[0]</text>
<text x="4358" y="9544" font-family="Times" font-style="Roman" font-size="225" fill="black" text-anchor="middle">cacheEnd</text>
<!-- Activity cgiDrive s [0] level=2 -->
<polygon  fill="#e5e5ff" stroke="Blue" stroke-width="25" points="5032.5,8625 5032.5,7950 6082.5,7950 6082.5,8625 5032.5,8625 "/>
<!-- Call cgiDrive cgiApp y (1) -->
<line x1="5295" y1="8625" x2="5150" y2="13075" stroke="Violet" stroke-width="25"/>
<polygon fill="Violet" stroke="Violet" stroke-width="25" points="5150,13075 5204.86,12926.7 5154.07,12950.1 5104.91,12923.5 "/>
<text x="5165" y="12813" font-family="Times" font-style="Roman" font-size="225" fill="black" text-anchor="middle">0</text>
<text x="5165" y="12588" font-family="Times" font-style="Roman" font-size="225" fill="black" text-anchor="middle">(1)</text>
<text x="5558" y="8569" font-family="Times" font-style="Roman" font-size="225" fill="black" text-anchor="middle">88.4</text>
<text x="5558" y="8344" font-family="Times" font-style="Roman" font-size="225" fill="black" text-anchor="middle">[0]</text>
<text x="5558" y="8119" font-family="Times" font-style="Roman" font-size="225" fill="black" text-anchor="middle">cgiDrive</text>
<!-- Activity diskFetch s [1] level=3 -->
<polygon  fill="#e5e5ff" stroke="Blue" stroke-width="25" points="5032.5,10050 5032.5,9375 6082.5,9375 6082.5,10050 5032.5,10050 "/>
<!-- Call diskFetch webRorW y (3) -->
<line x1="5732.5" y1="10050" x2="6498.75" y2="24275" stroke="Violet" stroke-width="25"/>
<polygon fill="Violet" stroke="Violet" stroke-width="25" points="6498.75,24275 6540.61,24122.5 6492.03,24150.2 6440.75,24127.9 "/>
<text x="6450" y="23563" font-family="Times" font-style="Roman" font-size="225" fill="black" text-anchor="middle">0.00296</text>
<text x="6450" y="23338" font-family="Times" font-style="Roman" font-size="225" fill="black" text-anchor="middle">(3)</text>
<!-- Call diskFetch sendStatic y (1) -->
<line x1="5907.5" y1="10050" x2="6322.5" y2="19325" stroke="Violet" stroke-width="25"/>
<polygon fill="Violet" stroke="Violet" stroke-width="25" points="6322.5,19325 6365.75,19172.9 6316.91,19200.1 6265.85,19177.4 "/>
<text x="6302" y="19063" font-family="Times" font-style="Roman" font-size="225" fill="black" text-anchor="middle">0</text>
<text x="6302" y="18838" font-family="Times" font-style="Roman" font-size="225" fill="black" text-anchor="middle">(1)</text>
<text x="5558" y="9994" font-family="Times" font-style="Roman" font-size="225" fill="black" text-anchor="middle">6.19</text>
<text x="5558" y="9769" font-family="Times" font-style="Roman" font-size="225" fill="black" text-anchor="middle">[1]</text>
<text x="5558" y="9544" font-family="Times" font-style="Roman" font-size="225" fill="black" text-anchor="middle">diskFetch</text>
<!-- Activity webServerEnd s [0] level=4 -->
<polygon  fill="#e5e5ff" stroke="Blue" stroke-width="25" points="4432.5,11475 4432.5,10800 5482.5,10800 5482.5,11475 4432.5,11475 "/>
<text x="4958" y="11419" font-family="Times" font-style="Roman" font-size="225" fill="black" text-anchor="middle">0</text>
<text x="4958" y="11194" font-family="Times" font-style="Roman" font-size="225" fill="black" text-anchor="middle">[0]</text>
<text x="4958" y="10969" font-family="Times" font-style="Roman" font-size="225" fill="black" text-anchor="middle">webServerEnd</text>
<line x1="4957.5" y1="7200" x2="4957.5" y2="7450" stroke="Blue" stroke-width="25"/>
<polygon fill="Blue" stroke="Blue" stroke-width="25" points="4957.5,7450 5007.5,7300 4957.5,7325 4907.5,7300 "/>
<line x1="4357.5" y1="8625" x2="4957.5" y2="8875" stroke="Blue" stroke-width="25"/>
<polygon fill="Blue" stroke="Blue" stroke-width="25" points="4957.5,8875 4838.27,8771.15 4842.12,8826.92 4799.81,8863.46 "/>
<circle cx="4958" cy="7600" r="150"  fill="#e5e5ff" stroke="Blue" stroke-width="25"/>
<text x="4958" y="7675" font-family="Times" font-style="Roman" font-size="225" fill="Blue" text-anchor="middle">+</text>
<line x1="4827.93" y1="7675.58" x2="4357.5" y2="7950" stroke="Blue" stroke-width="25"/>
<polygon fill="Blue" stroke="Blue" stroke-width="25" points="4357.5,7950 4512.26,7917.61 4465.47,7887.02 4461.87,7831.23 "/>
<line x1="5087.07" y1="7675.58" x2="5557.5" y2="7950" stroke="Blue" stroke-width="25"/>
<polygon fill="Blue" stroke="Blue" stroke-width="25" points="5557.5,7950 5453.13,7831.23 5449.53,7887.02 5402.74,7917.61 "/>
<line x1="4827.93" y1="7675.58" x2="4357.5" y2="7950" stroke="Blue" stroke-width="25"/>
<polygon fill="Blue" stroke="Blue" stroke-width="25" points="4357.5,7950 4512.26,7917.61 4465.47,7887.02 4461.87,7831.23 "/>
<line x1="5087.07" y1="7675.58" x2="5557.5" y2="7950" stroke="Blue" stroke-width="25"/>
<polygon fill="Blue" stroke="Blue" stroke-width="25" points="5557.5,7950 5453.13,7831.23 5449.53,7887.02 5402.74,7917.61 "/>
<text x="4401" y="7877" font-family="Times" font-style="Roman" font-size="225" fill="black" text-anchor="middle">0.9</text>
<text x="5514" y="7877" font-family="Times" font-style="Roman" font-size="225" fill="black" text-anchor="middle">0.1</text>
<circle cx="4958" cy="10400" r="150"  fill="#e5e5ff" stroke="Blue" stroke-width="25"/>
<text x="4958" y="10475" font-family="Times" font-style="Roman" font-size="225" fill="Blue" text-anchor="middle">+</text>
<line x1="4357.5" y1="10050" x2="4827.93" y2="10324.4" stroke="Blue" stroke-width="25"/>
<polygon fill="Blue" stroke="Blue" stroke-width="25" points="4827.93,10324.4 4723.56,10205.6 4719.96,10261.4 4673.17,10292 "/>
<line x1="5557.5" y1="8625" x2="5005.53" y2="10257.9" stroke="Blue" stroke-width="25"/>
<polygon fill="Blue" stroke="Blue" stroke-width="25" points="5005.53,10257.9 5100.94,10131.8 5045.56,10139.5 5006.2,10099.8 "/>
<line x1="5557.5" y1="10050" x2="5087.07" y2="10324.4" stroke="Blue" stroke-width="25"/>
<polygon fill="Blue" stroke="Blue" stroke-width="25" points="5087.07,10324.4 5241.83,10292 5195.04,10261.4 5191.44,10205.6 "/>
<circle cx="4958" cy="9025" r="150"  fill="#e5e5ff" stroke="Blue" stroke-width="25"/>
<text x="4958" y="9100" font-family="Times" font-style="Roman" font-size="225" fill="Blue" text-anchor="middle">+</text>
<line x1="4827.93" y1="9100.58" x2="4357.5" y2="9375" stroke="Blue" stroke-width="25"/>
<polygon fill="Blue" stroke="Blue" stroke-width="25" points="4357.5,9375 4512.26,9342.61 4465.47,9312.02 4461.87,9256.23 "/>
<line x1="5087.07" y1="9100.58" x2="5557.5" y2="9375" stroke="Blue" stroke-width="25"/>
<polygon fill="Blue" stroke="Blue" stroke-width="25" points="5557.5,9375 5453.13,9256.23 5449.53,9312.02 5402.74,9342.61 "/>
<line x1="4827.93" y1="9100.58" x2="4357.5" y2="9375" stroke="Blue" stroke-width="25"/>
<polygon fill="Blue" stroke="Blue" stroke-width="25" points="4357.5,9375 4512.26,9342.61 4465.47,9312.02 4461.87,9256.23 "/>
<line x1="5087.07" y1="9100.58" x2="5557.5" y2="9375" stroke="Blue" stroke-width="25"/>
<polygon fill="Blue" stroke="Blue" stroke-width="25" points="5557.5,9375 5453.13,9256.23 5449.53,9312.02 5402.74,9342.61 "/>
<text x="4401" y="9302" font-family="Times" font-style="Roman" font-size="225" fill="black" text-anchor="middle">0.7</text>
<text x="5514" y="9302" font-family="Times" font-style="Roman" font-size="225" fill="black" text-anchor="middle">0.3</text>
<line x1="4957.5" y1="10550" x2="4957.5" y2="10800" stroke="Blue" stroke-width="25"/>
<polygon fill="Blue" stroke="Blue" stroke-width="25" points="4957.5,10800 5007.5,10650 4957.5,10675 4907.5,10650 "/>
<!-- Call WebServer WSP -->
<line x1="4050.62" y1="11725" x2="1992.24" y2="24282.4" stroke="Cyan" stroke-width="25"/>
<polygon fill="Cyan" stroke="Cyan" stroke-width="25" points="1992.24,24282.4 2065.84,24142.5 2012.46,24159.1 1967.16,24126.3 "/>
<text x="3964" y="12456" font-family="Times" font-style="Roman" font-size="225" fill="black" text-anchor="middle">W[diskFetch]=0.0149</text>
<text x="3964" y="12231" font-family="Times" font-style="Roman" font-size="225" fill="black" text-anchor="middle">W[cache]=0.00298</text>
<text x="3964" y="12006" font-family="Times" font-style="Roman" font-size="225" fill="black" text-anchor="middle">W[analyze]=0.00298</text>
<!-- Task CGIAppn  cgiApp -1 WSP -->
<polygon  fill="#f2e5ff" stroke="Violet" stroke-width="25" points="3845,13125 6622.5,13125 6132.5,18025 3355,18025 "/>
<polygon  fill="#f2e5ff" stroke="Violet" stroke-width="25" points="3795,13075 6572.5,13075 6082.5,17975 3305,17975 "/>
<text x="4939" y="14188" font-family="Times" font-style="Roman" font-size="225" fill="black" text-anchor="middle">&#0955;=0.0444,&#0961;=3.93</text>
<text x="4939" y="13963" font-family="Times" font-style="Roman" font-size="225" fill="black" text-anchor="middle">CGIApp {50}</text>
<!-- Entry cgiApp A cgiStart -->
<polyline  stroke="Violet" stroke-width="25" fill="none" points="4655,13075 4587.5,13750 5645,13750 5712.5,13075 "/>
<text x="5150" y="13600" font-family="Times" font-style="Roman" font-size="225" fill="black" text-anchor="middle">88.4</text>
<text x="5150" y="13375" font-family="Times" font-style="Roman" font-size="225" fill="black" text-anchor="middle">cgiApp</text>
<line x1="5150" y1="13750" x2="4957.5" y2="14200" stroke="Violet" stroke-width="25"/>
<polygon fill="Violet" stroke="Violet" stroke-width="25" points="4957.5,14200 5062.47,14081.8 5006.66,14085.1 4970.52,14042.4 "/>
<!-- Call cgiAppEnd cgiApp -->
<line x1="5220" y1="17050" x2="5431.25" y2="13750" stroke-dasharray="75" stroke="Violet" stroke-width="25"/>
<polygon fill="Violet" stroke="Violet" stroke-width="25" points="5431.25,13750 5371.77,13896.5 5423.26,13874.7 5471.57,13902.9 "/>
<!-- Activity cdPage s [5] level=2 -->
<polygon  fill="#f2e5ff" stroke="Violet" stroke-width="25" points="3832.5,16300 3832.5,15625 4882.5,15625 4882.5,16300 3832.5,16300 "/>
<!-- Call cdPage dbRead y (4.3) -->
<line x1="4095" y1="16300" x2="2531.25" y2="19325" stroke="Violet" stroke-width="25"/>
<polygon fill="Violet" stroke="Violet" stroke-width="25" points="2531.25,19325 2644.55,19214.7 2588.65,19214 2555.72,19168.8 "/>
<text x="2764" y="19063" font-family="Times" font-style="Roman" font-size="225" fill="black" text-anchor="middle">0</text>
<text x="2764" y="18838" font-family="Times" font-style="Roman" font-size="225" fill="black" text-anchor="middle">(4.3)</text>
<!-- Call cdPage sendDynamic y (1) -->
<line x1="4620" y1="16300" x2="4983.75" y2="19325" stroke="Violet" stroke-width="25"/>
<polygon fill="Violet" stroke="Violet" stroke-width="25" points="4983.75,19325 5015.48,19170.1 4968.83,19200.9 4916.2,19182 "/>
<text x="4930" y="19063" font-family="Times" font-style="Roman" font-size="225" fill="black" text-anchor="middle">0</text>
<text x="4930" y="18838" font-family="Times" font-style="Roman" font-size="225" fill="black" text-anchor="middle">(1)</text>
<text x="4358" y="16244" font-family="Times" font-style="Roman" font-size="225" fill="black" text-anchor="middle">113</text>
<text x="4358" y="16019" font-family="Times" font-style="Roman" font-size="225" fill="black" text-anchor="middle">[5]</text>
<text x="4358" y="15794" font-family="Times" font-style="Roman" font-size="225" fill="black" text-anchor="middle">cdPage</text>
<!-- Activity cgiAppEnd s [0] level=3 -->
<polygon  fill="#f2e5ff" stroke="Violet" stroke-width="25" points="4432.5,17725 4432.5,17050 5482.5,17050 5482.5,17725 4432.5,17725 "/>
<text x="4958" y="17669" font-family="Times" font-style="Roman" font-size="225" fill="black" text-anchor="middle">0</text>
<text x="4958" y="17444" font-family="Times" font-style="Roman" font-size="225" fill="black" text-anchor="middle">[0]</text>
<text x="4958" y="17219" font-family="Times" font-style="Roman" font-size="225" fill="black" text-anchor="middle">cgiAppEnd</text>
<!-- Activity cgiStart s [0] level=1 -->
<polygon  fill="#f2e5ff" stroke="Violet" stroke-width="25" points="4432.5,14875 4432.5,14200 5482.5,14200 5482.5,14875 4432.5,14875 "/>
<text x="4958" y="14819" font-family="Times" font-style="Roman" font-size="225" fill="black" text-anchor="middle">0</text>
<text x="4958" y="14594" font-family="Times" font-style="Roman" font-size="225" fill="black" text-anchor="middle">[0]</text>
<text x="4958" y="14369" font-family="Times" font-style="Roman" font-size="225" fill="black" text-anchor="middle">cgiStart</text>
<!-- Activity procData s [15] level=2 -->
<polygon  fill="#f2e5ff" stroke="Violet" stroke-width="25" points="5032.5,16300 5032.5,15625 6082.5,15625 6082.5,16300 5032.5,16300 "/>
<!-- Call procData dbUpdate y (1.7) -->
<line x1="5295" y1="16300" x2="3588.75" y2="19325" stroke="Violet" stroke-width="25"/>
<polygon fill="Violet" stroke="Violet" stroke-width="25" points="3588.75,19325 3705.99,19218.9 3650.16,19216.1 3618.89,19169.8 "/>
<text x="3843" y="19063" font-family="Times" font-style="Roman" font-size="225" fill="black" text-anchor="middle">0</text>
<text x="3843" y="18838" font-family="Times" font-style="Roman" font-size="225" fill="black" text-anchor="middle">(1.7)</text>
<!-- Call procData sendStatic y (1) -->
<line x1="5820" y1="16300" x2="6041.25" y2="19325" stroke="Violet" stroke-width="25"/>
<polygon fill="Violet" stroke="Violet" stroke-width="25" points="6041.25,19325 6080.17,19171.8 6032.13,19200.3 5980.44,19179 "/>
<text x="5975" y="18613" font-family="Times" font-style="Roman" font-size="225" fill="black" text-anchor="middle">0</text>
<text x="5975" y="18388" font-family="Times" font-style="Roman" font-size="225" fill="black" text-anchor="middle">(1)</text>
<text x="5558" y="16244" font-family="Times" font-style="Roman" font-size="225" fill="black" text-anchor="middle">72</text>
<text x="5558" y="16019" font-family="Times" font-style="Roman" font-size="225" fill="black" text-anchor="middle">[15]</text>
<text x="5558" y="15794" font-family="Times" font-style="Roman" font-size="225" fill="black" text-anchor="middle">procData</text>
<circle cx="4958" cy="16650" r="150"  fill="#f2e5ff" stroke="Violet" stroke-width="25"/>
<text x="4958" y="16725" font-family="Times" font-style="Roman" font-size="225" fill="Violet" text-anchor="middle">+</text>
<line x1="5557.5" y1="16300" x2="5087.07" y2="16574.4" stroke="Violet" stroke-width="25"/>
<polygon fill="Violet" stroke="Violet" stroke-width="25" points="5087.07,16574.4 5241.83,16542 5195.04,16511.4 5191.44,16455.6 "/>
<line x1="4357.5" y1="16300" x2="4827.93" y2="16574.4" stroke="Violet" stroke-width="25"/>
<polygon fill="Violet" stroke="Violet" stroke-width="25" points="4827.93,16574.4 4723.56,16455.6 4719.96,16511.4 4673.17,16542 "/>
<circle cx="4958" cy="15275" r="150"  fill="#f2e5ff" stroke="Violet" stroke-width="25"/>
<text x="4958" y="15350" font-family="Times" font-style="Roman" font-size="225" fill="Violet" text-anchor="middle">+</text>
<line x1="5087.07" y1="15350.6" x2="5557.5" y2="15625" stroke="Violet" stroke-width="25"/>
<polygon fill="Violet" stroke="Violet" stroke-width="25" points="5557.5,15625 5453.13,15506.2 5449.53,15562 5402.74,15592.6 "/>
<line x1="4827.93" y1="15350.6" x2="4357.5" y2="15625" stroke="Violet" stroke-width="25"/>
<polygon fill="Violet" stroke="Violet" stroke-width="25" points="4357.5,15625 4512.26,15592.6 4465.47,15562 4461.87,15506.2 "/>
<line x1="5087.07" y1="15350.6" x2="5557.5" y2="15625" stroke="Violet" stroke-width="25"/>
<polygon fill="Violet" stroke="Violet" stroke-width="25" points="5557.5,15625 5453.13,15506.2 5449.53,15562 5402.74,15592.6 "/>
<line x1="4827.93" y1="15350.6" x2="4357.5" y2="15625" stroke="Violet" stroke-width="25"/>
<polygon fill="Violet" stroke="Violet" stroke-width="25" points="4357.5,15625 4512.26,15592.6 4465.47,15562 4461.87,15506.2 "/>
<text x="5514" y="15552" font-family="Times" font-style="Roman" font-size="225" fill="black" text-anchor="middle">0.6</text>
<text x="4401" y="15552" font-family="Times" font-style="Roman" font-size="225" fill="black" text-anchor="middle">0.4</text>
<line x1="4957.5" y1="16800" x2="4957.5" y2="17050" stroke="Violet" stroke-width="25"/>
<polygon fill="Violet" stroke="Violet" stroke-width="25" points="4957.5,17050 5007.5,16900 4957.5,16925 4907.5,16900 "/>
<line x1="4957.5" y1="14875" x2="4957.5" y2="15125" stroke="Violet" stroke-width="25"/>
<polygon fill="Violet" stroke="Violet" stroke-width="25" points="4957.5,15125 5007.5,14975 4957.5,15000 4907.5,14975 "/>
<!-- Call CGIApp WSP -->
<line x1="4121.88" y1="17975" x2="2074.43" y2="24302.3" stroke="Cyan" stroke-width="25"/>
<polygon fill="Cyan" stroke="Cyan" stroke-width="25" points="2074.43,24302.3 2168.18,24175 2112.91,24183.4 2073.04,24144.2 "/>
<text x="3783" y="19063" font-family="Times" font-style="Roman" font-size="225" fill="black" text-anchor="middle">W[procData]=0.0129</text>
<text x="3783" y="18838" font-family="Times" font-style="Roman" font-size="225" fill="black" text-anchor="middle">W[cdPage]=0.0219</text>
<!-- Task DBProcessn  dbUpdate dbRead -1 DBP -->
<polygon  fill="#f2e5ff" stroke="Violet" stroke-width="25" points="2086.25,19375 4201.25,19375 4088.75,20500 1973.75,20500 "/>
<polygon  fill="#f2e5ff" stroke="Violet" stroke-width="25" points="2036.25,19325 4151.25,19325 4038.75,20450 1923.75,20450 "/>
<text x="3038" y="20413" font-family="Times" font-style="Roman" font-size="225" fill="black" text-anchor="middle">&#0955;=0.122,&#0961;=2.95</text>
<text x="3038" y="20188" font-family="Times" font-style="Roman" font-size="225" fill="black" text-anchor="middle">DBProcess {50}</text>
<!-- Entry dbRead s [20] -->
<polyline  stroke="Violet" stroke-width="25" fill="none" points="1968.75,20000 3026.25,20000 3093.75,19325 "/>
<text x="2531" y="19944" font-family="Times" font-style="Roman" font-size="225" fill="black" text-anchor="middle">20.4</text>
<text x="2531" y="19719" font-family="Times" font-style="Roman" font-size="225" fill="black" text-anchor="middle">[20]</text>
<text x="2531" y="19494" font-family="Times" font-style="Roman" font-size="225" fill="black" text-anchor="middle">dbRead</text>
<!-- Call dbRead read y (4) -->
<line x1="2531.25" y1="20000" x2="870" y2="21800" stroke="Violet" stroke-width="25"/>
<polygon fill="Violet" stroke="Violet" stroke-width="25" points="870,21800 1008.48,21723.7 954.777,21708.1 934.989,21655.9 "/>
<text x="1285" y="21538" font-family="Times" font-style="Roman" font-size="225" fill="black" text-anchor="middle">0.00516</text>
<text x="1285" y="21313" font-family="Times" font-style="Roman" font-size="225" fill="black" text-anchor="middle">(4)</text>
<!-- Entry dbUpdate s [30] -->
<line x1="3026.25" y1="20000" x2="4083.75" y2="20000" stroke="Violet" stroke-width="25"/>
<text x="3589" y="19944" font-family="Times" font-style="Roman" font-size="225" fill="black" text-anchor="middle">30.6</text>
<text x="3589" y="19719" font-family="Times" font-style="Roman" font-size="225" fill="black" text-anchor="middle">[30]</text>
<text x="3589" y="19494" font-family="Times" font-style="Roman" font-size="225" fill="black" text-anchor="middle">dbUpdate</text>
<!-- Call dbUpdate read y (2) -->
<line x1="3401.25" y1="20000" x2="1245" y2="21800" stroke="Violet" stroke-width="25"/>
<polygon fill="Violet" stroke="Violet" stroke-width="25" points="1245,21800 1392.19,21742.3 1340.96,21719.9 1328.11,21665.5 "/>
<text x="2323" y="21088" font-family="Times" font-style="Roman" font-size="225" fill="black" text-anchor="middle">0.00516</text>
<text x="2323" y="20863" font-family="Times" font-style="Roman" font-size="225" fill="black" text-anchor="middle">(2)</text>
<!-- Call dbUpdate write y (4) -->
<line x1="3776.25" y1="20000" x2="2115" y2="21800" stroke="Violet" stroke-width="25"/>
<polygon fill="Violet" stroke="Violet" stroke-width="25" points="2115,21800 2253.48,21723.7 2199.78,21708.1 2179.99,21655.9 "/>
<text x="2530" y="21538" font-family="Times" font-style="Roman" font-size="225" fill="black" text-anchor="middle">0.00516</text>
<text x="2530" y="21313" font-family="Times" font-style="Roman" font-size="225" fill="black" text-anchor="middle">(4)</text>
<!-- Call DBProcess DBP -->
<line x1="3037.5" y1="20450" x2="3342.29" y2="21813.5" stroke="Blue" stroke-width="25"/>
<polygon fill="Blue" stroke="Blue" stroke-width="25" points="3342.29,21813.5 3358.37,21656.3 3315.02,21691.6 3260.78,21678.1 "/>
<!-- Task WebReplyn  sendStatic sendDynamic -1 WSP -->
<polygon  fill="#f2e5ff" stroke="Violet" stroke-width="25" points="4538.75,19375 6653.75,19375 6541.25,20500 4426.25,20500 "/>
<polygon  fill="#f2e5ff" stroke="Violet" stroke-width="25" points="4488.75,19325 6603.75,19325 6491.25,20450 4376.25,20450 "/>
<text x="5490" y="20413" font-family="Times" font-style="Roman" font-size="225" fill="black" text-anchor="middle">&#0955;=0.444,&#0961;=2.44</text>
<text x="5490" y="20188" font-family="Times" font-style="Roman" font-size="225" fill="black" text-anchor="middle">WebReply {50}</text>
<!-- Entry sendDynamic s [0.8] -->
<polyline  stroke="Violet" stroke-width="25" fill="none" points="4421.25,20000 5478.75,20000 5546.25,19325 "/>
<text x="4984" y="19944" font-family="Times" font-style="Roman" font-size="225" fill="black" text-anchor="middle">20.3</text>
<text x="4984" y="19719" font-family="Times" font-style="Roman" font-size="225" fill="black" text-anchor="middle">[0.8]</text>
<text x="4984" y="19494" font-family="Times" font-style="Roman" font-size="225" fill="black" text-anchor="middle">sendDynamic</text>
<!-- Call sendDynamic getObjects y (8) -->
<line x1="4796.25" y1="20000" x2="5175" y2="21800" stroke="Blue" stroke-width="25"/>
<polygon fill="Blue" stroke="Blue" stroke-width="25" points="5175,21800 5193.04,21642.9 5149.26,21677.7 5095.19,21663.5 "/>
<text x="5080" y="21538" font-family="Times" font-style="Roman" font-size="225" fill="black" text-anchor="middle">0.142</text>
<text x="5080" y="21313" font-family="Times" font-style="Roman" font-size="225" fill="black" text-anchor="middle">(8)</text>
<!-- Call sendDynamic packet y (40) -->
<line x1="5171.25" y1="20000" x2="7012.5" y2="21800" stroke="Violet" stroke-width="25"/>
<polygon fill="Violet" stroke="Violet" stroke-width="25" points="7012.5,21800 6940.19,21659.4 6923.12,21712.6 6870.29,21730.9 "/>
<text x="6552" y="21538" font-family="Times" font-style="Roman" font-size="225" fill="black" text-anchor="middle">0</text>
<text x="6552" y="21313" font-family="Times" font-style="Roman" font-size="225" fill="black" text-anchor="middle">(40)</text>
<!-- Entry sendStatic s [0.8] -->
<line x1="5478.75" y1="20000" x2="6536.25" y2="20000" stroke="Violet" stroke-width="25"/>
<text x="6041" y="19944" font-family="Times" font-style="Roman" font-size="225" fill="black" text-anchor="middle">4.87</text>
<text x="6041" y="19719" font-family="Times" font-style="Roman" font-size="225" fill="black" text-anchor="middle">[0.8]</text>
<text x="6041" y="19494" font-family="Times" font-style="Roman" font-size="225" fill="black" text-anchor="middle">sendStatic</text>
<!-- Call sendStatic packet y (16) -->
<line x1="6041.25" y1="20000" x2="7387.5" y2="21800" stroke="Violet" stroke-width="25"/>
<polygon fill="Violet" stroke="Violet" stroke-width="25" points="7387.5,21800 7337.7,21649.9 7312.63,21699.9 7257.62,21709.8 "/>
<text x="6714" y="21088" font-family="Times" font-style="Roman" font-size="225" fill="black" text-anchor="middle">0</text>
<text x="6714" y="20863" font-family="Times" font-style="Roman" font-size="225" fill="black" text-anchor="middle">(16)</text>
<!-- Call WebReply WSP -->
<line x1="4933.12" y1="20450" x2="2221.03" y2="24374.7" stroke="Cyan" stroke-width="25"/>
<polygon fill="Cyan" stroke="Cyan" stroke-width="25" points="2221.03,24374.7 2347.44,24279.8 2292.09,24271.9 2265.17,24222.9 "/>
<text x="4608" y="21088" font-family="Times" font-style="Roman" font-size="225" fill="black" text-anchor="middle">W[sendStatic]=0.0687</text>
<text x="4608" y="20863" font-family="Times" font-style="Roman" font-size="225" fill="black" text-anchor="middle">W[sendDynamic]=0.198</text>
<!-- Task DBOperationn  write read -1 DBDisk -->
<polygon  fill="#f2e5ff" stroke="Violet" stroke-width="25" points="562.5,21800 2677.5,21800 2565,22925 450,22925 "/>
<text x="1564" y="22888" font-family="Times" font-style="Roman" font-size="225" fill="black" text-anchor="middle">&#0955;=0.577,&#0961;=0.0577</text>
<text x="1564" y="22663" font-family="Times" font-style="Roman" font-size="225" fill="black" text-anchor="middle">DBOperation</text>
<!-- Entry read s [0.1] -->
<polyline  stroke="Violet" stroke-width="25" fill="none" points="495,22475 1552.5,22475 1620,21800 "/>
<text x="1058" y="22419" font-family="Times" font-style="Roman" font-size="225" fill="black" text-anchor="middle">0.1</text>
<text x="1058" y="22194" font-family="Times" font-style="Roman" font-size="225" fill="black" text-anchor="middle">[0.1]</text>
<text x="1058" y="21969" font-family="Times" font-style="Roman" font-size="225" fill="black" text-anchor="middle">read</text>
<!-- Entry write s [0.1] -->
<line x1="1552.5" y1="22475" x2="2610" y2="22475" stroke="Violet" stroke-width="25"/>
<text x="2115" y="22419" font-family="Times" font-style="Roman" font-size="225" fill="black" text-anchor="middle">0.1</text>
<text x="2115" y="22194" font-family="Times" font-style="Roman" font-size="225" fill="black" text-anchor="middle">[0.1]</text>
<text x="2115" y="21969" font-family="Times" font-style="Roman" font-size="225" fill="black" text-anchor="middle">write</text>
<!-- Call DBOperation DBDisk -->
<line x1="2120.62" y1="22925" x2="2964.99" y2="24353.3" stroke="Violet" stroke-width="25"/>
<polygon fill="Violet" stroke="Violet" stroke-width="25" points="2964.99,24353.3 2931.7,24198.7 2901.38,24245.7 2845.62,24249.6 "/>
<!-- Processor DBP FCFS -->
<circle cx="3515" cy="22413" r="563"  fill="#e5e5ff" stroke="Blue" stroke-width="25"/>
<circle cx="3465" cy="22363" r="563"  fill="#e5e5ff" stroke="Blue" stroke-width="25"/>
<text x="3465" y="22644" font-family="Times" font-style="Roman" font-size="225" fill="black" text-anchor="middle">&#0961;=2.89</text>
<text x="3465" y="22419" font-family="Times" font-style="Roman" font-size="225" fill="black" text-anchor="middle">{20}</text>
<text x="3465" y="22194" font-family="Times" font-style="Roman" font-size="225" fill="black" text-anchor="middle">DBP</text>
<!-- Task GetObjectsn  getObjects -1 WSP -->
<polygon  fill="#e5e5ff" stroke="Blue" stroke-width="25" points="4365,21800 6052.5,21800 5940,22925 4252.5,22925 "/>
<text x="5153" y="22888" font-family="Times" font-style="Roman" font-size="225" fill="black" text-anchor="middle">&#0955;=0.142,&#0961;=0.146</text>
<text x="5153" y="22663" font-family="Times" font-style="Roman" font-size="225" fill="black" text-anchor="middle">GetObjects</text>
<!-- Entry getObjects s [1] -->
<polyline  stroke="Blue" stroke-width="25" fill="none" points="4680,21800 4612.5,22475 5670,22475 5737.5,21800 "/>
<text x="5175" y="22419" font-family="Times" font-style="Roman" font-size="225" fill="black" text-anchor="middle">1.02</text>
<text x="5175" y="22194" font-family="Times" font-style="Roman" font-size="225" fill="black" text-anchor="middle">[1]</text>
<text x="5175" y="21969" font-family="Times" font-style="Roman" font-size="225" fill="black" text-anchor="middle">getObjects</text>
<!-- Call getObjects webRorW y (0.2) -->
<line x1="5175" y1="22475" x2="6123.75" y2="24275" stroke="Violet" stroke-width="25"/>
<polygon fill="Violet" stroke="Violet" stroke-width="25" points="6123.75,24275 6098.04,24119 6065.47,24164.4 6009.58,24165.6 "/>
<text x="5887" y="24013" font-family="Times" font-style="Roman" font-size="225" fill="black" text-anchor="middle">0.00317</text>
<text x="5887" y="23788" font-family="Times" font-style="Roman" font-size="225" fill="black" text-anchor="middle">(0.2)</text>
<!-- Call GetObjects WSP -->
<line x1="4702.5" y1="22925" x2="2365.81" y2="24520.3" stroke="Cyan" stroke-width="25"/>
<polygon fill="Cyan" stroke="Cyan" stroke-width="25" points="2365.81,24520.3 2517.88,24477 2469.04,24449.9 2461.49,24394.5 "/>
<text x="3476" y="23919" font-family="Times" font-style="Roman" font-size="225" fill="black" text-anchor="middle">W[getObjects]=0.00353</text>
<!-- Task ProtocolReplyn  packet -1 ProtocolP2 -->
<polygon  fill="#f2e5ff" stroke="Violet" stroke-width="25" points="6440,21850 8127.5,21850 8015,22975 6327.5,22975 "/>
<polygon  fill="#f2e5ff" stroke="Violet" stroke-width="25" points="6390,21800 8077.5,21800 7965,22925 6277.5,22925 "/>
<text x="7178" y="22888" font-family="Times" font-style="Roman" font-size="225" fill="black" text-anchor="middle">&#0955;=7.53,&#0961;=1.88</text>
<text x="7178" y="22663" font-family="Times" font-style="Roman" font-size="225" fill="black" text-anchor="middle">ProtocolReply {50}</text>
<!-- Entry packet s [0.25] -->
<polyline  stroke="Violet" stroke-width="25" fill="none" points="6705,21800 6637.5,22475 7695,22475 7762.5,21800 "/>
<text x="7200" y="22419" font-family="Times" font-style="Roman" font-size="225" fill="black" text-anchor="middle">0.25</text>
<text x="7200" y="22194" font-family="Times" font-style="Roman" font-size="225" fill="black" text-anchor="middle">[0.25]</text>
<text x="7200" y="21969" font-family="Times" font-style="Roman" font-size="225" fill="black" text-anchor="middle">packet</text>
<!-- Call ProtocolReply ProtocolP2 -->
<line x1="6727.5" y1="22925" x2="5019.46" y2="24461.3" stroke="Cyan" stroke-width="25"/>
<polygon fill="Cyan" stroke="Cyan" stroke-width="25" points="5019.46,24461.3 5164.42,24398.2 5112.4,24377.7 5097.55,24323.8 "/>
<text x="6239" y="23469" font-family="Times" font-style="Roman" font-size="225" fill="black" text-anchor="middle">W[packet]=2.53e-05</text>
<!-- Processor WSP FCFS -->
<circle cx="1951" cy="24888" r="563"  fill="#e5ffff" stroke="Cyan" stroke-width="25"/>
<circle cx="1901" cy="24838" r="563"  fill="#e5ffff" stroke="Cyan" stroke-width="25"/>
<text x="1901" y="25119" font-family="Times" font-style="Roman" font-size="225" fill="black" text-anchor="middle">&#0961;=1.94</text>
<text x="1901" y="24894" font-family="Times" font-style="Roman" font-size="225" fill="black" text-anchor="middle">{5}</text>
<text x="1901" y="24669" font-family="Times" font-style="Roman" font-size="225" fill="black" text-anchor="middle">WSP</text>
<!-- Processor DBDisk FCFS -->
<circle cx="3251" cy="24838" r="563"  fill="#f2e5ff" stroke="Violet" stroke-width="25"/>
<text x="3251" y="25025" font-family="Times" font-style="Roman" font-size="225" fill="black" text-anchor="middle">&#0961;=0.0577</text>
<text x="3251" y="24800" font-family="Times" font-style="Roman" font-size="225" fill="black" text-anchor="middle">DBDisk</text>
<!-- Processor ProtocolP2 FCFS -->
<circle cx="4651" cy="24888" r="563"  fill="#e5ffff" stroke="Cyan" stroke-width="25"/>
<circle cx="4601" cy="24838" r="563"  fill="#e5ffff" stroke="Cyan" stroke-width="25"/>
<text x="4601" y="25119" font-family="Times" font-style="Roman" font-size="225" fill="black" text-anchor="middle">&#0961;=1.88</text>
<text x="4601" y="24894" font-family="Times" font-style="Roman" font-size="225" fill="black" text-anchor="middle">{6}</text>
<text x="4601" y="24669" font-family="Times" font-style="Roman" font-size="225" fill="black" text-anchor="middle">ProtocolP2</text>
<!-- Task WebDiskn  webRorW -1 WSDisk -->
<polygon  fill="#f2e5ff" stroke="Violet" stroke-width="25" points="5501.25,24275 7188.75,24275 7076.25,25400 5388.75,25400 "/>
<text x="6289" y="25363" font-family="Times" font-style="Roman" font-size="225" fill="black" text-anchor="middle">&#0955;=0.388,&#0961;=0.0388</text>
<text x="6289" y="25138" font-family="Times" font-style="Roman" font-size="225" fill="black" text-anchor="middle">WebDisk</text>
<!-- Entry webRorW s [0.1] -->
<polyline  stroke="Violet" stroke-width="25" fill="none" points="5816.25,24275 5748.75,24950 6806.25,24950 6873.75,24275 "/>
<text x="6311" y="24894" font-family="Times" font-style="Roman" font-size="225" fill="black" text-anchor="middle">0.1</text>
<text x="6311" y="24669" font-family="Times" font-style="Roman" font-size="225" fill="black" text-anchor="middle">[0.1]</text>
<text x="6311" y="24444" font-family="Times" font-style="Roman" font-size="225" fill="black" text-anchor="middle">webRorW</text>
<!-- Call WebDisk WSDisk -->
<line x1="6288.75" y1="25400" x2="6288.75" y2="26750" stroke="Violet" stroke-width="25"/>
<polygon fill="Violet" stroke="Violet" stroke-width="25" points="6288.75,26750 6338.75,26600 6288.75,26625 6238.75,26600 "/>
<!-- Processor WSDisk FCFS -->
<circle cx="6289" cy="27313" r="563"  fill="#f2e5ff" stroke="Violet" stroke-width="25"/>
<text x="6289" y="27500" font-family="Times" font-style="Roman" font-size="225" fill="black" text-anchor="middle">&#0961;=0.0388</text>
<text x="6289" y="27275" font-family="Times" font-style="Roman" font-size="225" fill="black" text-anchor="middle">WSDisk</text>
</svg>
