<?xml version="1.0" standalone="no"?>
<!DOCTYPE svg PUBLIC "-//W3C//DTD SVG 20000303 Stylable//EN"
"http://www.w3.org/TR/2000/03/WD-SVG-20000303/DTD/svg-20000303-stylable.dtd">
<!-- Title: template_1.lqn -->
<!-- Creator: lqn2ps Version 5.25 -->
<!-- Mon Apr 11 22:05:38 2022 -->
<!-- For: Haomi -->
<!-- Invoked as: lqn2ps -Osvg -Lprocessor template_1.lqn -->
<svg xmlns="http://www.w3.org/2000/svg" width="8.22222in" height="14.5736in" viewBox="0 0 14800 26233">
<desc>0x163a3e0</desc>
<polygon  stroke-dasharray="100,75" fill="#ffffff" stroke="black" stroke-width="25" points="337.5,23307.5 337.5,21687.5 2790,21687.5 2790,23307.5 337.5,23307.5 "/>
<text x="1564" y="23266" font-family="Times" font-style="Roman" font-size="225" fill="black" text-anchor="middle">DBDisk</text>
<polygon  stroke-dasharray="100,75" fill="#ffffff" stroke="black" stroke-width="25" points="3012.5,20832.5 3012.5,19212.5 5465,19212.5 5465,20832.5 3012.5,20832.5 "/>
<text x="4239" y="20791" font-family="Times" font-style="Roman" font-size="225" fill="black" text-anchor="middle">DBP</text>
<polygon  stroke-dasharray="100,75" fill="#ffffff" stroke="black" stroke-width="25" points="5687.5,1957.5 5687.5,337.5 7712.5,337.5 7712.5,1957.5 5687.5,1957.5 "/>
<text x="6700" y="1916" font-family="Times" font-style="Roman" font-size="225" fill="black" text-anchor="middle">UP {&#8734;}</text>
<polygon  stroke-dasharray="100,75" fill="#ffffff" stroke="black" stroke-width="25" points="7937.5,25782.5 7937.5,24162.5 9962.5,24162.5 9962.5,25782.5 7937.5,25782.5 "/>
<text x="8950" y="25741" font-family="Times" font-style="Roman" font-size="225" fill="black" text-anchor="middle">WSDisk</text>
<polygon  stroke-dasharray="100,75" fill="#ffffff" stroke="black" stroke-width="25" points="10187.5,23307.5 10187.5,2812.5 14237.5,2812.5 14237.5,23307.5 10187.5,23307.5 "/>
<text x="12213" y="23266" font-family="Times" font-style="Roman" font-size="225" fill="black" text-anchor="middle">WSP</text>
<!-- Task Userr  user -1 UP -->
<polygon  fill="#ffffff" stroke="black" stroke-width="25" points="5962.5,500 7650,500 7537.5,1625 5850,1625 "/>
<polygon  fill="#ffffff" stroke="black" stroke-width="25" points="5912.5,450 7600,450 7487.5,1575 5800,1575 "/>
<text x="6700" y="1444" font-family="Times" font-style="Roman" font-size="225" fill="black" text-anchor="middle">User {$N} Z=1</text>
<!-- Entry user s [0] -->
<polyline  stroke="black" stroke-width="25" fill="none" points="6227.5,450 6160,1125 7217.5,1125 7285,450 "/>
<text x="6722" y="975" font-family="Times" font-style="Roman" font-size="225" fill="black" text-anchor="middle">[0]</text>
<text x="6722" y="750" font-family="Times" font-style="Roman" font-size="225" fill="black" text-anchor="middle">user</text>
<!-- Call user protocol y (1) -->
<line x1="6722.5" y1="1125" x2="12235" y2="2925" stroke="black" stroke-width="25"/>
<polygon fill="black" stroke="black" stroke-width="25" points="12235,2925 12107.9,2830.91 12116.2,2886.2 12076.9,2925.97 "/>
<text x="10857" y="2569" font-family="Times" font-style="Roman" font-size="225" fill="black" text-anchor="middle">(1)</text>
<!-- Task Protocoln  protocol -1 WSP -->
<polygon  fill="#ffffff" stroke="black" stroke-width="25" points="11425,2925 13112.5,2925 13000,4050 11312.5,4050 "/>
<text x="12213" y="3919" font-family="Times" font-style="Roman" font-size="225" fill="black" text-anchor="middle">Protocol</text>
<!-- Entry protocol s [0.25] -->
<polyline  stroke="black" stroke-width="25" fill="none" points="11740,2925 11672.5,3600 12730,3600 12797.5,2925 "/>
<text x="12235" y="3450" font-family="Times" font-style="Roman" font-size="225" fill="black" text-anchor="middle">[0.25]</text>
<text x="12235" y="3225" font-family="Times" font-style="Roman" font-size="225" fill="black" text-anchor="middle">protocol</text>
<!-- Call protocol webServer y (1) -->
<line x1="12235" y1="3600" x2="12495" y2="5400" stroke="black" stroke-width="25"/>
<polygon fill="black" stroke="black" stroke-width="25" points="12495,5400 12523,5244.39 12477.1,5276.28 12424.1,5258.69 "/>
<text x="12430" y="5044" font-family="Times" font-style="Roman" font-size="225" fill="black" text-anchor="middle">(1)</text>
<!-- Task WebServern  webServer -1 WSP -->
<polygon  fill="#ffffff" stroke="black" stroke-width="25" points="11068.8,5400 13988.8,5400 13356.2,11725 10436.2,11725 "/>
<text x="12213" y="6419" font-family="Times" font-style="Roman" font-size="225" fill="black" text-anchor="middle">WebServer</text>
<!-- Entry webServer A analyze -->
<polyline  stroke="black" stroke-width="25" fill="none" points="12000,5400 11932.5,6075 12990,6075 13057.5,5400 "/>
<text x="12495" y="5831" font-family="Times" font-style="Roman" font-size="225" fill="black" text-anchor="middle">webServer</text>
<line x1="12495" y1="6075" x2="12231.2" y2="6525" stroke="black" stroke-width="25"/>
<polygon fill="black" stroke="black" stroke-width="25" points="12231.2,6525 12350.2,6420.87 12294.5,6417.16 12264,6370.31 "/>
<!-- Call webServerEnd webServer -->
<line x1="12493.8" y1="10800" x2="12776.2" y2="6075" stroke-dasharray="75" stroke="black" stroke-width="25"/>
<polygon fill="black" stroke="black" stroke-width="25" points="12776.2,6075 12717.4,6221.75 12768.8,6199.78 12817.2,6227.72 "/>
<!-- Activity analyze s [1] level=1 -->
<polygon  fill="#ffffff" stroke="black" stroke-width="25" points="11706.2,7200 11706.2,6525 12756.2,6525 12756.2,7200 11706.2,7200 "/>
<text x="12231" y="7050" font-family="Times" font-style="Roman" font-size="225" fill="black" text-anchor="middle">[1]</text>
<text x="12231" y="6825" font-family="Times" font-style="Roman" font-size="225" fill="black" text-anchor="middle">analyze</text>
<!-- Activity cache s [1] level=2 -->
<polygon  fill="#ffffff" stroke="black" stroke-width="25" points="11106.2,8625 11106.2,7950 12156.2,7950 12156.2,8625 11106.2,8625 "/>
<text x="11631" y="8475" font-family="Times" font-style="Roman" font-size="225" fill="black" text-anchor="middle">[1]</text>
<text x="11631" y="8250" font-family="Times" font-style="Roman" font-size="225" fill="black" text-anchor="middle">cache</text>
<!-- Activity cacheEnd level=3 -->
<polygon  fill="#ffffff" stroke="black" stroke-width="25" points="11106.2,10050 11106.2,9375 12156.2,9375 12156.2,10050 11106.2,10050 "/>
<!-- Call cacheEnd sendStatic2 y (1) -->
<line x1="11893.8" y1="10050" x2="12235" y2="19325" stroke="black" stroke-width="25"/>
<polygon fill="black" stroke="black" stroke-width="25" points="12235,19325 12279.5,19173.3 12230.4,19200.1 12179.5,19176.9 "/>
<text x="12218" y="18969" font-family="Times" font-style="Roman" font-size="225" fill="black" text-anchor="middle">(1)</text>
<text x="11631" y="9806" font-family="Times" font-style="Roman" font-size="225" fill="black" text-anchor="middle">cacheEnd</text>
<!-- Activity cgiDrive level=2 -->
<polygon  fill="#ffffff" stroke="black" stroke-width="25" points="12306.2,8625 12306.2,7950 13356.2,7950 13356.2,8625 12306.2,8625 "/>
<!-- Call cgiDrive cgiApp y (1) -->
<line x1="12568.8" y1="8625" x2="12423.8" y2="13075" stroke="black" stroke-width="25"/>
<polygon fill="black" stroke="black" stroke-width="25" points="12423.8,13075 12478.6,12926.7 12427.8,12950.1 12378.7,12923.5 "/>
<text x="12438" y="12719" font-family="Times" font-style="Roman" font-size="225" fill="black" text-anchor="middle">(1)</text>
<text x="12831" y="8381" font-family="Times" font-style="Roman" font-size="225" fill="black" text-anchor="middle">cgiDrive</text>
<!-- Activity diskFetch s [1] level=3 -->
<polygon  fill="#ffffff" stroke="black" stroke-width="25" points="12306.2,10050 12306.2,9375 13356.2,9375 13356.2,10050 12306.2,10050 "/>
<!-- Call diskFetch webRorW y (3) -->
<line x1="12568.8" y1="10050" x2="9160" y2="24275" stroke="black" stroke-width="25"/>
<polygon fill="black" stroke="black" stroke-width="25" points="9160,24275 9243.58,24140.8 9189.13,24153.4 9146.33,24117.5 "/>
<text x="9376" y="23469" font-family="Times" font-style="Roman" font-size="225" fill="black" text-anchor="middle">(3)</text>
<!-- Call diskFetch sendStatic1 y (1) -->
<line x1="13093.8" y1="10050" x2="13480" y2="19325" stroke="black" stroke-width="25"/>
<polygon fill="black" stroke="black" stroke-width="25" points="13480,19325 13523.7,19173 13474.8,19200.1 13423.8,19177.2 "/>
<text x="13443" y="18519" font-family="Times" font-style="Roman" font-size="225" fill="black" text-anchor="middle">(1)</text>
<text x="12831" y="9900" font-family="Times" font-style="Roman" font-size="225" fill="black" text-anchor="middle">[1]</text>
<text x="12831" y="9675" font-family="Times" font-style="Roman" font-size="225" fill="black" text-anchor="middle">diskFetch</text>
<!-- Activity webServerEnd level=4 -->
<polygon  fill="#ffffff" stroke="black" stroke-width="25" points="11706.2,11475 11706.2,10800 12756.2,10800 12756.2,11475 11706.2,11475 "/>
<text x="12231" y="11231" font-family="Times" font-style="Roman" font-size="225" fill="black" text-anchor="middle">webServerEnd</text>
<line x1="12231.2" y1="7200" x2="12231.2" y2="7450" stroke="black" stroke-width="25"/>
<polygon fill="black" stroke="black" stroke-width="25" points="12231.2,7450 12281.2,7300 12231.2,7325 12181.2,7300 "/>
<line x1="11631.2" y1="8625" x2="12231.2" y2="8875" stroke="black" stroke-width="25"/>
<polygon fill="black" stroke="black" stroke-width="25" points="12231.2,8875 12112,8771.15 12115.9,8826.92 12073.6,8863.46 "/>
<circle cx="12231" cy="7600" r="150"  fill="#ffffff" stroke="black" stroke-width="25"/>
<text x="12231" y="7675" font-family="Times" font-style="Roman" font-size="225" fill="black" text-anchor="middle">+</text>
<line x1="12101.7" y1="7675.58" x2="11631.2" y2="7950" stroke="black" stroke-width="25"/>
<polygon fill="black" stroke="black" stroke-width="25" points="11631.2,7950 11786,7917.61 11739.2,7887.02 11735.6,7831.23 "/>
<line x1="12360.8" y1="7675.58" x2="12831.2" y2="7950" stroke="black" stroke-width="25"/>
<polygon fill="black" stroke="black" stroke-width="25" points="12831.2,7950 12726.9,7831.23 12723.3,7887.02 12676.5,7917.61 "/>
<line x1="12101.7" y1="7675.58" x2="11631.2" y2="7950" stroke="black" stroke-width="25"/>
<polygon fill="black" stroke="black" stroke-width="25" points="11631.2,7950 11786,7917.61 11739.2,7887.02 11735.6,7831.23 "/>
<line x1="12360.8" y1="7675.58" x2="12831.2" y2="7950" stroke="black" stroke-width="25"/>
<polygon fill="black" stroke="black" stroke-width="25" points="12831.2,7950 12726.9,7831.23 12723.3,7887.02 12676.5,7917.61 "/>
<text x="11674" y="7877" font-family="Times" font-style="Roman" font-size="225" fill="black" text-anchor="middle">0.9</text>
<text x="12788" y="7877" font-family="Times" font-style="Roman" font-size="225" fill="black" text-anchor="middle">0.1</text>
<circle cx="12231" cy="10400" r="150"  fill="#ffffff" stroke="black" stroke-width="25"/>
<text x="12231" y="10475" font-family="Times" font-style="Roman" font-size="225" fill="black" text-anchor="middle">+</text>
<line x1="11631.2" y1="10050" x2="12101.7" y2="10324.4" stroke="black" stroke-width="25"/>
<polygon fill="black" stroke="black" stroke-width="25" points="12101.7,10324.4 11997.3,10205.6 11993.7,10261.4 11946.9,10292 "/>
<line x1="12831.2" y1="8625" x2="12279.3" y2="10257.9" stroke="black" stroke-width="25"/>
<polygon fill="black" stroke="black" stroke-width="25" points="12279.3,10257.9 12374.7,10131.8 12319.3,10139.5 12280,10099.8 "/>
<line x1="12831.2" y1="10050" x2="12360.8" y2="10324.4" stroke="black" stroke-width="25"/>
<polygon fill="black" stroke="black" stroke-width="25" points="12360.8,10324.4 12515.6,10292 12468.8,10261.4 12465.2,10205.6 "/>
<circle cx="12231" cy="9025" r="150"  fill="#ffffff" stroke="black" stroke-width="25"/>
<text x="12231" y="9100" font-family="Times" font-style="Roman" font-size="225" fill="black" text-anchor="middle">+</text>
<line x1="12101.7" y1="9100.58" x2="11631.2" y2="9375" stroke="black" stroke-width="25"/>
<polygon fill="black" stroke="black" stroke-width="25" points="11631.2,9375 11786,9342.61 11739.2,9312.02 11735.6,9256.23 "/>
<line x1="12360.8" y1="9100.58" x2="12831.2" y2="9375" stroke="black" stroke-width="25"/>
<polygon fill="black" stroke="black" stroke-width="25" points="12831.2,9375 12726.9,9256.23 12723.3,9312.02 12676.5,9342.61 "/>
<line x1="12101.7" y1="9100.58" x2="11631.2" y2="9375" stroke="black" stroke-width="25"/>
<polygon fill="black" stroke="black" stroke-width="25" points="11631.2,9375 11786,9342.61 11739.2,9312.02 11735.6,9256.23 "/>
<line x1="12360.8" y1="9100.58" x2="12831.2" y2="9375" stroke="black" stroke-width="25"/>
<polygon fill="black" stroke="black" stroke-width="25" points="12831.2,9375 12726.9,9256.23 12723.3,9312.02 12676.5,9342.61 "/>
<text x="11674" y="9302" font-family="Times" font-style="Roman" font-size="225" fill="black" text-anchor="middle">0.7</text>
<text x="12788" y="9302" font-family="Times" font-style="Roman" font-size="225" fill="black" text-anchor="middle">0.3</text>
<line x1="12231.2" y1="10550" x2="12231.2" y2="10800" stroke="black" stroke-width="25"/>
<polygon fill="black" stroke="black" stroke-width="25" points="12231.2,10800 12281.2,10650 12231.2,10675 12181.2,10650 "/>
<!-- Task CGIAppn  cgiApp -1 WSP -->
<polygon  fill="#ffffff" stroke="black" stroke-width="25" points="11068.8,13075 13846.2,13075 13356.2,17975 10578.8,17975 "/>
<text x="12213" y="14094" font-family="Times" font-style="Roman" font-size="225" fill="black" text-anchor="middle">CGIApp</text>
<!-- Entry cgiApp A cgiStart -->
<polyline  stroke="black" stroke-width="25" fill="none" points="11928.8,13075 11861.2,13750 12918.8,13750 12986.2,13075 "/>
<text x="12424" y="13506" font-family="Times" font-style="Roman" font-size="225" fill="black" text-anchor="middle">cgiApp</text>
<line x1="12423.8" y1="13750" x2="12231.2" y2="14200" stroke="black" stroke-width="25"/>
<polygon fill="black" stroke="black" stroke-width="25" points="12231.2,14200 12336.2,14081.8 12280.4,14085.1 12244.3,14042.4 "/>
<!-- Call cgiAppEnd cgiApp -->
<line x1="12493.8" y1="17050" x2="12705" y2="13750" stroke-dasharray="75" stroke="black" stroke-width="25"/>
<polygon fill="black" stroke="black" stroke-width="25" points="12705,13750 12645.5,13896.5 12697,13874.7 12745.3,13902.9 "/>
<!-- Activity cdPage s [5] level=2 -->
<polygon  fill="#ffffff" stroke="black" stroke-width="25" points="11106.2,16300 11106.2,15625 12156.2,15625 12156.2,16300 11106.2,16300 "/>
<!-- Call cdPage dbRead y (4.3) -->
<line x1="11281.2" y1="16300" x2="3732.5" y2="19325" stroke="black" stroke-width="25"/>
<polygon fill="black" stroke="black" stroke-width="25" points="3732.5,19325 3890.34,19315.6 3848.53,19278.5 3853.14,19222.8 "/>
<text x="4855" y="18969" font-family="Times" font-style="Roman" font-size="225" fill="black" text-anchor="middle">(4.3)</text>
<!-- Call cdPage sendDynamic y (1) -->
<line x1="11456.2" y1="16300" x2="11177.5" y2="19325" stroke="black" stroke-width="25"/>
<polygon fill="black" stroke="black" stroke-width="25" points="11177.5,19325 11241.1,19180.2 11189,19200.5 11141.5,19171 "/>
<text x="11219" y="18969" font-family="Times" font-style="Roman" font-size="225" fill="black" text-anchor="middle">(1)</text>
<text x="11631" y="16150" font-family="Times" font-style="Roman" font-size="225" fill="black" text-anchor="middle">[5]</text>
<text x="11631" y="15925" font-family="Times" font-style="Roman" font-size="225" fill="black" text-anchor="middle">cdPage</text>
<!-- Activity cgiAppEnd level=3 -->
<polygon  fill="#ffffff" stroke="black" stroke-width="25" points="11706.2,17725 11706.2,17050 12756.2,17050 12756.2,17725 11706.2,17725 "/>
<text x="12231" y="17481" font-family="Times" font-style="Roman" font-size="225" fill="black" text-anchor="middle">cgiAppEnd</text>
<!-- Activity cgiStart level=1 -->
<polygon  fill="#ffffff" stroke="black" stroke-width="25" points="11706.2,14875 11706.2,14200 12756.2,14200 12756.2,14875 11706.2,14875 "/>
<text x="12231" y="14631" font-family="Times" font-style="Roman" font-size="225" fill="black" text-anchor="middle">cgiStart</text>
<!-- Activity procData s [15] level=2 -->
<polygon  fill="#ffffff" stroke="black" stroke-width="25" points="12306.2,16300 12306.2,15625 13356.2,15625 13356.2,16300 12306.2,16300 "/>
<!-- Call procData dbUpdate y (1.7) -->
<line x1="12481.2" y1="16300" x2="4790" y2="19325" stroke="black" stroke-width="25"/>
<polygon fill="black" stroke="black" stroke-width="25" points="4790,19325 4947.89,19316.6 4906.33,19279.2 4911.29,19223.6 "/>
<text x="5934" y="18969" font-family="Times" font-style="Roman" font-size="225" fill="black" text-anchor="middle">(1.7)</text>
<!-- Call procData sendStatic1 y (1) -->
<line x1="12656.2" y1="16300" x2="13105" y2="19325" stroke="black" stroke-width="25"/>
<polygon fill="black" stroke="black" stroke-width="25" points="13105,19325 13132.4,19169.3 13086.7,19201.4 13033.5,19184 "/>
<text x="13038" y="18969" font-family="Times" font-style="Roman" font-size="225" fill="black" text-anchor="middle">(1)</text>
<text x="12831" y="16150" font-family="Times" font-style="Roman" font-size="225" fill="black" text-anchor="middle">[15]</text>
<text x="12831" y="15925" font-family="Times" font-style="Roman" font-size="225" fill="black" text-anchor="middle">procData</text>
<circle cx="12231" cy="16650" r="150"  fill="#ffffff" stroke="black" stroke-width="25"/>
<text x="12231" y="16725" font-family="Times" font-style="Roman" font-size="225" fill="black" text-anchor="middle">+</text>
<line x1="11631.2" y1="16300" x2="12101.7" y2="16574.4" stroke="black" stroke-width="25"/>
<polygon fill="black" stroke="black" stroke-width="25" points="12101.7,16574.4 11997.3,16455.6 11993.7,16511.4 11946.9,16542 "/>
<line x1="12831.2" y1="16300" x2="12360.8" y2="16574.4" stroke="black" stroke-width="25"/>
<polygon fill="black" stroke="black" stroke-width="25" points="12360.8,16574.4 12515.6,16542 12468.8,16511.4 12465.2,16455.6 "/>
<circle cx="12231" cy="15275" r="150"  fill="#ffffff" stroke="black" stroke-width="25"/>
<text x="12231" y="15350" font-family="Times" font-style="Roman" font-size="225" fill="black" text-anchor="middle">+</text>
<line x1="12101.7" y1="15350.6" x2="11631.2" y2="15625" stroke="black" stroke-width="25"/>
<polygon fill="black" stroke="black" stroke-width="25" points="11631.2,15625 11786,15592.6 11739.2,15562 11735.6,15506.2 "/>
<line x1="12360.8" y1="15350.6" x2="12831.2" y2="15625" stroke="black" stroke-width="25"/>
<polygon fill="black" stroke="black" stroke-width="25" points="12831.2,15625 12726.9,15506.2 12723.3,15562 12676.5,15592.6 "/>
<line x1="12101.7" y1="15350.6" x2="11631.2" y2="15625" stroke="black" stroke-width="25"/>
<polygon fill="black" stroke="black" stroke-width="25" points="11631.2,15625 11786,15592.6 11739.2,15562 11735.6,15506.2 "/>
<line x1="12360.8" y1="15350.6" x2="12831.2" y2="15625" stroke="black" stroke-width="25"/>
<polygon fill="black" stroke="black" stroke-width="25" points="12831.2,15625 12726.9,15506.2 12723.3,15562 12676.5,15592.6 "/>
<text x="11674" y="15552" font-family="Times" font-style="Roman" font-size="225" fill="black" text-anchor="middle">0.4</text>
<text x="12788" y="15552" font-family="Times" font-style="Roman" font-size="225" fill="black" text-anchor="middle">0.6</text>
<line x1="12231.2" y1="16800" x2="12231.2" y2="17050" stroke="black" stroke-width="25"/>
<polygon fill="black" stroke="black" stroke-width="25" points="12231.2,17050 12281.2,16900 12231.2,16925 12181.2,16900 "/>
<line x1="12231.2" y1="14875" x2="12231.2" y2="15125" stroke="black" stroke-width="25"/>
<polygon fill="black" stroke="black" stroke-width="25" points="12231.2,15125 12281.2,14975 12231.2,15000 12181.2,14975 "/>
<!-- Task DBProcessn  dbUpdate dbRead -1 DBP -->
<polygon  fill="#ffffff" stroke="black" stroke-width="25" points="3237.5,19325 5352.5,19325 5240,20450 3125,20450 "/>
<text x="4239" y="20319" font-family="Times" font-style="Roman" font-size="225" fill="black" text-anchor="middle">DBProcess</text>
<!-- Entry dbRead s [20] -->
<polyline  stroke="black" stroke-width="25" fill="none" points="3170,20000 4227.5,20000 4295,19325 "/>
<text x="3733" y="19850" font-family="Times" font-style="Roman" font-size="225" fill="black" text-anchor="middle">[20]</text>
<text x="3733" y="19625" font-family="Times" font-style="Roman" font-size="225" fill="black" text-anchor="middle">dbRead</text>
<!-- Call dbRead read y (4) -->
<line x1="3732.5" y1="20000" x2="870" y2="21800" stroke="black" stroke-width="25"/>
<polygon fill="black" stroke="black" stroke-width="25" points="870,21800 1023.6,21762.5 975.818,21733.5 970.365,21677.8 "/>
<text x="1586" y="21444" font-family="Times" font-style="Roman" font-size="225" fill="black" text-anchor="middle">(4)</text>
<!-- Entry dbUpdate s [30] -->
<line x1="4227.5" y1="20000" x2="5285" y2="20000" stroke="black" stroke-width="25"/>
<text x="4790" y="19850" font-family="Times" font-style="Roman" font-size="225" fill="black" text-anchor="middle">[30]</text>
<text x="4790" y="19625" font-family="Times" font-style="Roman" font-size="225" fill="black" text-anchor="middle">dbUpdate</text>
<!-- Call dbUpdate read y (2) -->
<line x1="4602.5" y1="20000" x2="1245" y2="21800" stroke="black" stroke-width="25"/>
<polygon fill="black" stroke="black" stroke-width="25" points="1245,21800 1400.82,21773.2 1355.17,21740.9 1353.58,21685.1 "/>
<text x="2924" y="20994" font-family="Times" font-style="Roman" font-size="225" fill="black" text-anchor="middle">(2)</text>
<!-- Call dbUpdate write y (4) -->
<line x1="4977.5" y1="20000" x2="2115" y2="21800" stroke="black" stroke-width="25"/>
<polygon fill="black" stroke="black" stroke-width="25" points="2115,21800 2268.6,21762.5 2220.82,21733.5 2215.37,21677.8 "/>
<text x="2831" y="21444" font-family="Times" font-style="Roman" font-size="225" fill="black" text-anchor="middle">(4)</text>
<!-- Task WebReplyn  sendStatic1 sendStatic2 sendDynamic -1 WSP -->
<polygon  fill="#ffffff" stroke="black" stroke-width="25" points="10682.5,19325 13855,19325 13742.5,20450 10570,20450 "/>
<text x="12213" y="20319" font-family="Times" font-style="Roman" font-size="225" fill="black" text-anchor="middle">WebReply</text>
<!-- Entry sendDynamic s [0.8] -->
<polyline  stroke="black" stroke-width="25" fill="none" points="10682.5,19325 10615,20000 11672.5,20000 11740,19325 "/>
<text x="11178" y="19850" font-family="Times" font-style="Roman" font-size="225" fill="black" text-anchor="middle">[0.8]</text>
<text x="11178" y="19625" font-family="Times" font-style="Roman" font-size="225" fill="black" text-anchor="middle">sendDynamic</text>
<!-- Call sendDynamic getObjects y (8) -->
<line x1="10990" y1="20000" x2="11222.5" y2="21800" stroke="black" stroke-width="25"/>
<polygon fill="black" stroke="black" stroke-width="25" points="11222.5,21800 11252.9,21644.8 11206.5,21676 11153.7,21657.6 "/>
<text x="11164" y="21444" font-family="Times" font-style="Roman" font-size="225" fill="black" text-anchor="middle">(8)</text>
<!-- Call sendDynamic packet y (40) -->
<line x1="11365" y1="20000" x2="12966.2" y2="21800" stroke="black" stroke-width="25"/>
<polygon fill="black" stroke="black" stroke-width="25" points="12966.2,21800 12903.9,21654.7 12883.2,21706.6 12829.2,21721.2 "/>
<text x="12566" y="21444" font-family="Times" font-style="Roman" font-size="225" fill="black" text-anchor="middle">(40)</text>
<!-- Entry sendStatic2 s [0.8] -->
<polyline  stroke="black" stroke-width="25" fill="none" points="11740,19325 11672.5,20000 12730,20000 12797.5,19325 "/>
<text x="12235" y="19850" font-family="Times" font-style="Roman" font-size="225" fill="black" text-anchor="middle">[0.8]</text>
<text x="12235" y="19625" font-family="Times" font-style="Roman" font-size="225" fill="black" text-anchor="middle">sendStatic2</text>
<!-- Call sendStatic2 packet y (16) -->
<line x1="12235" y1="20000" x2="13247.5" y2="21800" stroke="black" stroke-width="25"/>
<polygon fill="black" stroke="black" stroke-width="25" points="13247.5,21800 13217.5,21644.8 13186.2,21691.1 13130.4,21693.8 "/>
<text x="12741" y="20994" font-family="Times" font-style="Roman" font-size="225" fill="black" text-anchor="middle">(16)</text>
<!-- Entry sendStatic1 s [0.8] -->
<polyline  stroke="black" stroke-width="25" fill="none" points="12797.5,19325 12730,20000 13787.5,20000 13855,19325 "/>
<text x="13293" y="19850" font-family="Times" font-style="Roman" font-size="225" fill="black" text-anchor="middle">[0.8]</text>
<text x="13293" y="19625" font-family="Times" font-style="Roman" font-size="225" fill="black" text-anchor="middle">sendStatic1</text>
<!-- Call sendStatic1 packet y (16) -->
<line x1="13292.5" y1="20000" x2="13528.8" y2="21800" stroke="black" stroke-width="25"/>
<polygon fill="black" stroke="black" stroke-width="25" points="13528.8,21800 13558.8,21644.8 13512.5,21676.1 13459.7,21657.8 "/>
<text x="13470" y="21444" font-family="Times" font-style="Roman" font-size="225" fill="black" text-anchor="middle">(16)</text>
<!-- Task DBOperationn  write read -1 DBDisk -->
<polygon  fill="#ffffff" stroke="black" stroke-width="25" points="562.5,21800 2677.5,21800 2565,22925 450,22925 "/>
<text x="1564" y="22794" font-family="Times" font-style="Roman" font-size="225" fill="black" text-anchor="middle">DBOperation</text>
<!-- Entry read s [0.1] -->
<polyline  stroke="black" stroke-width="25" fill="none" points="495,22475 1552.5,22475 1620,21800 "/>
<text x="1058" y="22325" font-family="Times" font-style="Roman" font-size="225" fill="black" text-anchor="middle">[0.1]</text>
<text x="1058" y="22100" font-family="Times" font-style="Roman" font-size="225" fill="black" text-anchor="middle">read</text>
<!-- Entry write s [0.1] -->
<line x1="1552.5" y1="22475" x2="2610" y2="22475" stroke="black" stroke-width="25"/>
<text x="2115" y="22325" font-family="Times" font-style="Roman" font-size="225" fill="black" text-anchor="middle">[0.1]</text>
<text x="2115" y="22100" font-family="Times" font-style="Roman" font-size="225" fill="black" text-anchor="middle">write</text>
<!-- Task GetObjectsn  getObjects -1 WSP -->
<polygon  fill="#ffffff" stroke="black" stroke-width="25" points="10412.5,21800 12100,21800 11987.5,22925 10300,22925 "/>
<text x="11200" y="22794" font-family="Times" font-style="Roman" font-size="225" fill="black" text-anchor="middle">GetObjects</text>
<!-- Entry getObjects s [1] -->
<polyline  stroke="black" stroke-width="25" fill="none" points="10727.5,21800 10660,22475 11717.5,22475 11785,21800 "/>
<text x="11223" y="22325" font-family="Times" font-style="Roman" font-size="225" fill="black" text-anchor="middle">[1]</text>
<text x="11223" y="22100" font-family="Times" font-style="Roman" font-size="225" fill="black" text-anchor="middle">getObjects</text>
<!-- Call getObjects webRorW y (0.2) -->
<line x1="11222.5" y1="22475" x2="8785" y2="24275" stroke="black" stroke-width="25"/>
<polygon fill="black" stroke="black" stroke-width="25" points="8785,24275 8935.37,24226.1 8885.55,24200.7 8875.96,24145.7 "/>
<text x="9394" y="23919" font-family="Times" font-style="Roman" font-size="225" fill="black" text-anchor="middle">(0.2)</text>
<!-- Task ProtocolReplyn  packet -1 WSP -->
<polygon  fill="#ffffff" stroke="black" stroke-width="25" points="12437.5,21800 14125,21800 14012.5,22925 12325,22925 "/>
<text x="13225" y="22794" font-family="Times" font-style="Roman" font-size="225" fill="black" text-anchor="middle">ProtocolReply</text>
<!-- Entry packet s [0.25] -->
<polyline  stroke="black" stroke-width="25" fill="none" points="12752.5,21800 12685,22475 13742.5,22475 13810,21800 "/>
<text x="13248" y="22325" font-family="Times" font-style="Roman" font-size="225" fill="black" text-anchor="middle">[0.25]</text>
<text x="13248" y="22100" font-family="Times" font-style="Roman" font-size="225" fill="black" text-anchor="middle">packet</text>
<!-- Task WebDiskn  webRorW -1 WSDisk -->
<polygon  fill="#ffffff" stroke="black" stroke-width="25" points="8162.5,24275 9850,24275 9737.5,25400 8050,25400 "/>
<text x="8950" y="25269" font-family="Times" font-style="Roman" font-size="225" fill="black" text-anchor="middle">WebDisk</text>
<!-- Entry webRorW s [0.1] -->
<polyline  stroke="black" stroke-width="25" fill="none" points="8477.5,24275 8410,24950 9467.5,24950 9535,24275 "/>
<text x="8973" y="24800" font-family="Times" font-style="Roman" font-size="225" fill="black" text-anchor="middle">[0.1]</text>
<text x="8973" y="24575" font-family="Times" font-style="Roman" font-size="225" fill="black" text-anchor="middle">webRorW</text>
</svg>
