<?xml version="1.0" standalone="no"?>
<!DOCTYPE svg PUBLIC "-//W3C//DTD SVG 20000303 Stylable//EN"
"http://www.w3.org/TR/2000/03/WD-SVG-20000303/DTD/svg-20000303-stylable.dtd">
<!-- Title: template_1_debug.lqn -->
<!-- Creator: lqn2ps Version 5.25 -->
<!-- Mon Apr 11 06:51:45 2022 -->
<!-- For: Haomi -->
<!-- Invoked as: lqn2ps -Osvg -Lprocessor template_1_debug.lqn -->
<svg xmlns="http://www.w3.org/2000/svg" width="4.02778in" height="5.39306in" viewBox="0 0 7250 9708">
<desc>0x1449d28</desc>
<polygon  stroke-dasharray="100,75" fill="#ffffff" stroke="black" stroke-width="25" points="787.5,1957.5 787.5,337.5 2812.5,337.5 2812.5,1957.5 787.5,1957.5 "/>
<text x="1800" y="1916" font-family="Times" font-style="Roman" font-size="225" fill="black" text-anchor="middle">UP {&#8734;}</text>
<polygon  stroke-dasharray="100,75" fill="#ffffff" stroke="black" stroke-width="25" points="3487.5,9257.5 3487.5,2812.5 6695,2812.5 6695,9257.5 3487.5,9257.5 "/>
<text x="5091" y="9216" font-family="Times" font-style="Roman" font-size="225" fill="black" text-anchor="middle">WSP</text>
<!-- Task Userr  user -1 UP -->
<polygon  fill="#ffffff" stroke="black" stroke-width="25" points="1062.5,500 2750,500 2637.5,1625 950,1625 "/>
<polygon  fill="#ffffff" stroke="black" stroke-width="25" points="1012.5,450 2700,450 2587.5,1575 900,1575 "/>
<text x="1800" y="1444" font-family="Times" font-style="Roman" font-size="225" fill="black" text-anchor="middle">User {$N} Z=1</text>
<!-- Entry user s [0] -->
<polyline  stroke="black" stroke-width="25" fill="none" points="1327.5,450 1260,1125 2317.5,1125 2385,450 "/>
<text x="1823" y="975" font-family="Times" font-style="Roman" font-size="225" fill="black" text-anchor="middle">[0]</text>
<text x="1823" y="750" font-family="Times" font-style="Roman" font-size="225" fill="black" text-anchor="middle">user</text>
<!-- Call user protocol y (1) -->
<line x1="1822.5" y1="1125" x2="5113.75" y2="2925" stroke="black" stroke-width="25"/>
<polygon fill="black" stroke="black" stroke-width="25" points="5113.75,2925 5006.14,2809.16 5004.08,2865.02 4958.15,2896.89 "/>
<text x="4291" y="2569" font-family="Times" font-style="Roman" font-size="225" fill="black" text-anchor="middle">(1)</text>
<!-- Task Protocoln  protocol -1 WSP -->
<polygon  fill="#ffffff" stroke="black" stroke-width="25" points="4303.75,2925 5991.25,2925 5878.75,4050 4191.25,4050 "/>
<text x="5091" y="3919" font-family="Times" font-style="Roman" font-size="225" fill="black" text-anchor="middle">Protocol</text>
<!-- Entry protocol s [0.25] -->
<polyline  stroke="black" stroke-width="25" fill="none" points="4618.75,2925 4551.25,3600 5608.75,3600 5676.25,2925 "/>
<text x="5114" y="3450" font-family="Times" font-style="Roman" font-size="225" fill="black" text-anchor="middle">[0.25]</text>
<text x="5114" y="3225" font-family="Times" font-style="Roman" font-size="225" fill="black" text-anchor="middle">protocol</text>
<!-- Call protocol webServer y (1) -->
<line x1="5113.75" y1="3600" x2="5231.25" y2="5400" stroke="black" stroke-width="25"/>
<polygon fill="black" stroke="black" stroke-width="25" points="5231.25,5400 5271.37,5247.06 5223.11,5275.27 5171.59,5253.58 "/>
<text x="5202" y="5044" font-family="Times" font-style="Roman" font-size="225" fill="black" text-anchor="middle">(1)</text>
<!-- Task WebServern  webServer -1 WSP -->
<polygon  fill="#ffffff" stroke="black" stroke-width="25" points="3947.5,5400 6582.5,5400 6235,8875 3600,8875 "/>
<text x="5091" y="6419" font-family="Times" font-style="Roman" font-size="225" fill="black" text-anchor="middle">WebServer</text>
<!-- Entry webServer A analyze -->
<polyline  stroke="black" stroke-width="25" fill="none" points="4736.25,5400 4668.75,6075 5726.25,6075 5793.75,5400 "/>
<text x="5231" y="5831" font-family="Times" font-style="Roman" font-size="225" fill="black" text-anchor="middle">webServer</text>
<line x1="5231.25" y1="6075" x2="5110" y2="6525" stroke="black" stroke-width="25"/>
<polygon fill="black" stroke="black" stroke-width="25" points="5110,6525 5197.3,6393.17 5142.52,6404.3 5100.75,6367.16 "/>
<!-- Activity analyze s [1] level=1 -->
<polygon  fill="#ffffff" stroke="black" stroke-width="25" points="4585,7200 4585,6525 5635,6525 5635,7200 4585,7200 "/>
<text x="5110" y="7050" font-family="Times" font-style="Roman" font-size="225" fill="black" text-anchor="middle">[1]</text>
<text x="5110" y="6825" font-family="Times" font-style="Roman" font-size="225" fill="black" text-anchor="middle">analyze</text>
<!-- Activity cache s [1] level=2 -->
<polygon  fill="#ffffff" stroke="black" stroke-width="25" points="3985,8625 3985,7950 5035,7950 5035,8625 3985,8625 "/>
<text x="4510" y="8475" font-family="Times" font-style="Roman" font-size="225" fill="black" text-anchor="middle">[1]</text>
<text x="4510" y="8250" font-family="Times" font-style="Roman" font-size="225" fill="black" text-anchor="middle">cache</text>
<!-- Activity cgiDrive s [0.1] level=2 -->
<polygon  fill="#ffffff" stroke="black" stroke-width="25" points="5185,8625 5185,7950 6235,7950 6235,8625 5185,8625 "/>
<text x="5710" y="8475" font-family="Times" font-style="Roman" font-size="225" fill="black" text-anchor="middle">[0.1]</text>
<text x="5710" y="8250" font-family="Times" font-style="Roman" font-size="225" fill="black" text-anchor="middle">cgiDrive</text>
<line x1="5110" y1="7200" x2="5110" y2="7450" stroke="black" stroke-width="25"/>
<polygon fill="black" stroke="black" stroke-width="25" points="5110,7450 5160,7300 5110,7325 5060,7300 "/>
<circle cx="5110" cy="7600" r="150"  fill="#ffffff" stroke="black" stroke-width="25"/>
<text x="5110" y="7675" font-family="Times" font-style="Roman" font-size="225" fill="black" text-anchor="middle">+</text>
<line x1="4980.43" y1="7675.58" x2="4510" y2="7950" stroke="black" stroke-width="25"/>
<polygon fill="black" stroke="black" stroke-width="25" points="4510,7950 4664.76,7917.61 4617.97,7887.02 4614.37,7831.23 "/>
<line x1="5239.57" y1="7675.58" x2="5710" y2="7950" stroke="black" stroke-width="25"/>
<polygon fill="black" stroke="black" stroke-width="25" points="5710,7950 5605.63,7831.23 5602.03,7887.02 5555.24,7917.61 "/>
<line x1="4980.43" y1="7675.58" x2="4510" y2="7950" stroke="black" stroke-width="25"/>
<polygon fill="black" stroke="black" stroke-width="25" points="4510,7950 4664.76,7917.61 4617.97,7887.02 4614.37,7831.23 "/>
<line x1="5239.57" y1="7675.58" x2="5710" y2="7950" stroke="black" stroke-width="25"/>
<polygon fill="black" stroke="black" stroke-width="25" points="5710,7950 5605.63,7831.23 5602.03,7887.02 5555.24,7917.61 "/>
<text x="4553" y="7877" font-family="Times" font-style="Roman" font-size="225" fill="black" text-anchor="middle">$PS</text>
<text x="5667" y="7877" font-family="Times" font-style="Roman" font-size="225" fill="black" text-anchor="middle">$1_PS</text>
</svg>
