<?xml version="1.0" standalone="no"?>
<!DOCTYPE svg PUBLIC "-//W3C//DTD SVG 20000303 Stylable//EN"
"http://www.w3.org/TR/2000/03/WD-SVG-20000303/DTD/svg-20000303-stylable.dtd">
<!-- Title: template_1.lqn -->
<!-- Creator: lqn2ps Version 5.25 -->
<!-- Mon Apr 11 10:55:01 2022 -->
<!-- For: Haomi -->
<!-- Invoked as: lqn2ps -Osvg template_1.lqn -->
<svg xmlns="http://www.w3.org/2000/svg" width="3.9875in" height="15.7361in" viewBox="0 0 7178 28325">
<desc>0x12a9b98</desc>
<!-- Task Userr  user -1 UP -->
<polygon  fill="#ffffff" stroke="black" stroke-width="25" points="2851.25,500 4538.75,500 4426.25,1625 2738.75,1625 "/>
<polygon  fill="#ffffff" stroke="black" stroke-width="25" points="2801.25,450 4488.75,450 4376.25,1575 2688.75,1575 "/>
<text x="3589" y="1444" font-family="Times" font-style="Roman" font-size="225" fill="black" text-anchor="middle">User {$N} Z=1</text>
<!-- Entry user s [0] -->
<polyline  stroke="black" stroke-width="25" fill="none" points="3116.25,450 3048.75,1125 4106.25,1125 4173.75,450 "/>
<text x="3611" y="975" font-family="Times" font-style="Roman" font-size="225" fill="black" text-anchor="middle">[0]</text>
<text x="3611" y="750" font-family="Times" font-style="Roman" font-size="225" fill="black" text-anchor="middle">user</text>
<!-- Call user protocol y (1) -->
<line x1="3611.25" y1="1125" x2="3611.25" y2="2925" stroke="black" stroke-width="25"/>
<polygon fill="black" stroke="black" stroke-width="25" points="3611.25,2925 3661.25,2775 3611.25,2800 3561.25,2775 "/>
<text x="3611" y="2569" font-family="Times" font-style="Roman" font-size="225" fill="black" text-anchor="middle">(1)</text>
<!-- Task Protocoln  protocol -1 WSP -->
<polygon  fill="#ffffff" stroke="black" stroke-width="25" points="2801.25,2925 4488.75,2925 4376.25,4050 2688.75,4050 "/>
<text x="3589" y="3919" font-family="Times" font-style="Roman" font-size="225" fill="black" text-anchor="middle">Protocol</text>
<!-- Entry protocol s [0.25] -->
<polyline  stroke="black" stroke-width="25" fill="none" points="3116.25,2925 3048.75,3600 4106.25,3600 4173.75,2925 "/>
<text x="3611" y="3450" font-family="Times" font-style="Roman" font-size="225" fill="black" text-anchor="middle">[0.25]</text>
<text x="3611" y="3225" font-family="Times" font-style="Roman" font-size="225" fill="black" text-anchor="middle">protocol</text>
<!-- Call protocol webServer y (1) -->
<line x1="3611.25" y1="3600" x2="3871.25" y2="5400" stroke="black" stroke-width="25"/>
<polygon fill="black" stroke="black" stroke-width="25" points="3871.25,5400 3899.29,5244.39 3853.38,5276.28 3800.32,5258.69 "/>
<text x="3806" y="5044" font-family="Times" font-style="Roman" font-size="225" fill="black" text-anchor="middle">(1)</text>
<!-- Call Protocol WSP -->
<line x1="3138.75" y1="4050" x2="1934.68" y2="24276" stroke="black" stroke-width="25"/>
<polygon fill="black" stroke="black" stroke-width="25" points="1934.68,24276 1993.5,24129.2 1942.11,24151.2 1893.68,24123.3 "/>
<!-- Task WebServern  webServer -1 WSP -->
<polygon  fill="#ffffff" stroke="black" stroke-width="25" points="2445,5400 5365,5400 4732.5,11725 1812.5,11725 "/>
<text x="3589" y="6419" font-family="Times" font-style="Roman" font-size="225" fill="black" text-anchor="middle">WebServer</text>
<!-- Entry webServer A analyze -->
<polyline  stroke="black" stroke-width="25" fill="none" points="3376.25,5400 3308.75,6075 4366.25,6075 4433.75,5400 "/>
<text x="3871" y="5831" font-family="Times" font-style="Roman" font-size="225" fill="black" text-anchor="middle">webServer</text>
<line x1="3871.25" y1="6075" x2="3607.5" y2="6525" stroke="black" stroke-width="25"/>
<polygon fill="black" stroke="black" stroke-width="25" points="3607.5,6525 3726.49,6420.87 3670.71,6417.16 3640.21,6370.31 "/>
<!-- Call webServerEnd webServer -->
<line x1="3870" y1="10800" x2="4152.5" y2="6075" stroke-dasharray="75" stroke="black" stroke-width="25"/>
<polygon fill="black" stroke="black" stroke-width="25" points="4152.5,6075 4093.64,6221.75 4145.04,6199.78 4193.46,6227.72 "/>
<!-- Activity analyze s [1] level=1 -->
<polygon  fill="#ffffff" stroke="black" stroke-width="25" points="3082.5,7200 3082.5,6525 4132.5,6525 4132.5,7200 3082.5,7200 "/>
<text x="3608" y="7050" font-family="Times" font-style="Roman" font-size="225" fill="black" text-anchor="middle">[1]</text>
<text x="3608" y="6825" font-family="Times" font-style="Roman" font-size="225" fill="black" text-anchor="middle">analyze</text>
<!-- Activity cache s [1] level=2 -->
<polygon  fill="#ffffff" stroke="black" stroke-width="25" points="2482.5,8625 2482.5,7950 3532.5,7950 3532.5,8625 2482.5,8625 "/>
<text x="3008" y="8475" font-family="Times" font-style="Roman" font-size="225" fill="black" text-anchor="middle">[1]</text>
<text x="3008" y="8250" font-family="Times" font-style="Roman" font-size="225" fill="black" text-anchor="middle">cache</text>
<!-- Activity cacheEnd level=3 -->
<polygon  fill="#ffffff" stroke="black" stroke-width="25" points="2482.5,10050 2482.5,9375 3532.5,9375 3532.5,10050 2482.5,10050 "/>
<!-- Call cacheEnd sendStatic y (1) -->
<line x1="3270" y1="10050" x2="5085" y2="19325" stroke="black" stroke-width="25"/>
<polygon fill="black" stroke="black" stroke-width="25" points="5085,19325 5105.26,19168.2 5060.99,19202.3 5007.12,19187.4 "/>
<text x="4997" y="18969" font-family="Times" font-style="Roman" font-size="225" fill="black" text-anchor="middle">(1)</text>
<text x="3008" y="9806" font-family="Times" font-style="Roman" font-size="225" fill="black" text-anchor="middle">cacheEnd</text>
<!-- Activity cgiDrive level=2 -->
<polygon  fill="#ffffff" stroke="black" stroke-width="25" points="3682.5,8625 3682.5,7950 4732.5,7950 4732.5,8625 3682.5,8625 "/>
<!-- Call cgiDrive cgiApp y (1) -->
<line x1="3945" y1="8625" x2="3800" y2="13075" stroke="black" stroke-width="25"/>
<polygon fill="black" stroke="black" stroke-width="25" points="3800,13075 3854.86,12926.7 3804.07,12950.1 3754.91,12923.5 "/>
<text x="3815" y="12719" font-family="Times" font-style="Roman" font-size="225" fill="black" text-anchor="middle">(1)</text>
<text x="4208" y="8381" font-family="Times" font-style="Roman" font-size="225" fill="black" text-anchor="middle">cgiDrive</text>
<!-- Activity diskFetch s [1] level=3 -->
<polygon  fill="#ffffff" stroke="black" stroke-width="25" points="3682.5,10050 3682.5,9375 4732.5,9375 4732.5,10050 3682.5,10050 "/>
<!-- Call diskFetch webRorW y (3) -->
<line x1="4382.5" y1="10050" x2="5148.75" y2="24275" stroke="black" stroke-width="25"/>
<polygon fill="black" stroke="black" stroke-width="25" points="5148.75,24275 5190.61,24122.5 5142.03,24150.2 5090.75,24127.9 "/>
<text x="5100" y="23469" font-family="Times" font-style="Roman" font-size="225" fill="black" text-anchor="middle">(3)</text>
<!-- Call diskFetch sendStatic y (1) -->
<line x1="4557.5" y1="10050" x2="5647.5" y2="19325" stroke="black" stroke-width="25"/>
<polygon fill="black" stroke="black" stroke-width="25" points="5647.5,19325 5679.65,19170.2 5632.91,19200.9 5580.33,19181.9 "/>
<text x="5595" y="18969" font-family="Times" font-style="Roman" font-size="225" fill="black" text-anchor="middle">(1)</text>
<text x="4208" y="9900" font-family="Times" font-style="Roman" font-size="225" fill="black" text-anchor="middle">[1]</text>
<text x="4208" y="9675" font-family="Times" font-style="Roman" font-size="225" fill="black" text-anchor="middle">diskFetch</text>
<!-- Activity webServerEnd level=4 -->
<polygon  fill="#ffffff" stroke="black" stroke-width="25" points="3082.5,11475 3082.5,10800 4132.5,10800 4132.5,11475 3082.5,11475 "/>
<text x="3608" y="11231" font-family="Times" font-style="Roman" font-size="225" fill="black" text-anchor="middle">webServerEnd</text>
<line x1="3607.5" y1="7200" x2="3607.5" y2="7450" stroke="black" stroke-width="25"/>
<polygon fill="black" stroke="black" stroke-width="25" points="3607.5,7450 3657.5,7300 3607.5,7325 3557.5,7300 "/>
<line x1="3007.5" y1="8625" x2="3607.5" y2="8875" stroke="black" stroke-width="25"/>
<polygon fill="black" stroke="black" stroke-width="25" points="3607.5,8875 3488.27,8771.15 3492.12,8826.92 3449.81,8863.46 "/>
<circle cx="3608" cy="7600" r="150"  fill="#ffffff" stroke="black" stroke-width="25"/>
<text x="3608" y="7675" font-family="Times" font-style="Roman" font-size="225" fill="black" text-anchor="middle">+</text>
<line x1="3477.93" y1="7675.58" x2="3007.5" y2="7950" stroke="black" stroke-width="25"/>
<polygon fill="black" stroke="black" stroke-width="25" points="3007.5,7950 3162.26,7917.61 3115.47,7887.02 3111.87,7831.23 "/>
<line x1="3737.07" y1="7675.58" x2="4207.5" y2="7950" stroke="black" stroke-width="25"/>
<polygon fill="black" stroke="black" stroke-width="25" points="4207.5,7950 4103.13,7831.23 4099.53,7887.02 4052.74,7917.61 "/>
<line x1="3477.93" y1="7675.58" x2="3007.5" y2="7950" stroke="black" stroke-width="25"/>
<polygon fill="black" stroke="black" stroke-width="25" points="3007.5,7950 3162.26,7917.61 3115.47,7887.02 3111.87,7831.23 "/>
<line x1="3737.07" y1="7675.58" x2="4207.5" y2="7950" stroke="black" stroke-width="25"/>
<polygon fill="black" stroke="black" stroke-width="25" points="4207.5,7950 4103.13,7831.23 4099.53,7887.02 4052.74,7917.61 "/>
<text x="3051" y="7877" font-family="Times" font-style="Roman" font-size="225" fill="black" text-anchor="middle">0.9</text>
<text x="4164" y="7877" font-family="Times" font-style="Roman" font-size="225" fill="black" text-anchor="middle">0.1</text>
<circle cx="3608" cy="10400" r="150"  fill="#ffffff" stroke="black" stroke-width="25"/>
<text x="3608" y="10475" font-family="Times" font-style="Roman" font-size="225" fill="black" text-anchor="middle">+</text>
<line x1="3007.5" y1="10050" x2="3477.93" y2="10324.4" stroke="black" stroke-width="25"/>
<polygon fill="black" stroke="black" stroke-width="25" points="3477.93,10324.4 3373.56,10205.6 3369.96,10261.4 3323.17,10292 "/>
<line x1="4207.5" y1="8625" x2="3655.53" y2="10257.9" stroke="black" stroke-width="25"/>
<polygon fill="black" stroke="black" stroke-width="25" points="3655.53,10257.9 3750.94,10131.8 3695.56,10139.5 3656.2,10099.8 "/>
<line x1="4207.5" y1="10050" x2="3737.07" y2="10324.4" stroke="black" stroke-width="25"/>
<polygon fill="black" stroke="black" stroke-width="25" points="3737.07,10324.4 3891.83,10292 3845.04,10261.4 3841.44,10205.6 "/>
<circle cx="3608" cy="9025" r="150"  fill="#ffffff" stroke="black" stroke-width="25"/>
<text x="3608" y="9100" font-family="Times" font-style="Roman" font-size="225" fill="black" text-anchor="middle">+</text>
<line x1="3477.93" y1="9100.58" x2="3007.5" y2="9375" stroke="black" stroke-width="25"/>
<polygon fill="black" stroke="black" stroke-width="25" points="3007.5,9375 3162.26,9342.61 3115.47,9312.02 3111.87,9256.23 "/>
<line x1="3737.07" y1="9100.58" x2="4207.5" y2="9375" stroke="black" stroke-width="25"/>
<polygon fill="black" stroke="black" stroke-width="25" points="4207.5,9375 4103.13,9256.23 4099.53,9312.02 4052.74,9342.61 "/>
<line x1="3477.93" y1="9100.58" x2="3007.5" y2="9375" stroke="black" stroke-width="25"/>
<polygon fill="black" stroke="black" stroke-width="25" points="3007.5,9375 3162.26,9342.61 3115.47,9312.02 3111.87,9256.23 "/>
<line x1="3737.07" y1="9100.58" x2="4207.5" y2="9375" stroke="black" stroke-width="25"/>
<polygon fill="black" stroke="black" stroke-width="25" points="4207.5,9375 4103.13,9256.23 4099.53,9312.02 4052.74,9342.61 "/>
<text x="3051" y="9302" font-family="Times" font-style="Roman" font-size="225" fill="black" text-anchor="middle">0.7</text>
<text x="4164" y="9302" font-family="Times" font-style="Roman" font-size="225" fill="black" text-anchor="middle">0.3</text>
<line x1="3607.5" y1="10550" x2="3607.5" y2="10800" stroke="black" stroke-width="25"/>
<polygon fill="black" stroke="black" stroke-width="25" points="3607.5,10800 3657.5,10650 3607.5,10675 3557.5,10650 "/>
<!-- Call WebServer WSP -->
<line x1="2700.62" y1="11725" x2="1935.48" y2="24276" stroke="black" stroke-width="25"/>
<polygon fill="black" stroke="black" stroke-width="25" points="1935.48,24276 1994.51,24129.4 1943.08,24151.3 1894.7,24123.3 "/>
<!-- Task CGIAppn  cgiApp -1 WSP -->
<polygon  fill="#ffffff" stroke="black" stroke-width="25" points="2445,13075 5222.5,13075 4732.5,17975 1955,17975 "/>
<text x="3589" y="14094" font-family="Times" font-style="Roman" font-size="225" fill="black" text-anchor="middle">CGIApp</text>
<!-- Entry cgiApp A cgiStart -->
<polyline  stroke="black" stroke-width="25" fill="none" points="3305,13075 3237.5,13750 4295,13750 4362.5,13075 "/>
<text x="3800" y="13506" font-family="Times" font-style="Roman" font-size="225" fill="black" text-anchor="middle">cgiApp</text>
<line x1="3800" y1="13750" x2="3607.5" y2="14200" stroke="black" stroke-width="25"/>
<polygon fill="black" stroke="black" stroke-width="25" points="3607.5,14200 3712.47,14081.8 3656.66,14085.1 3620.52,14042.4 "/>
<!-- Call cgiAppEnd cgiApp -->
<line x1="3870" y1="17050" x2="4081.25" y2="13750" stroke-dasharray="75" stroke="black" stroke-width="25"/>
<polygon fill="black" stroke="black" stroke-width="25" points="4081.25,13750 4021.77,13896.5 4073.26,13874.7 4121.57,13902.9 "/>
<!-- Activity cdPage s [5] level=2 -->
<polygon  fill="#ffffff" stroke="black" stroke-width="25" points="2482.5,16300 2482.5,15625 3532.5,15625 3532.5,16300 2482.5,16300 "/>
<!-- Call cdPage dbRead y (4.3) -->
<line x1="2745" y1="16300" x2="1856.25" y2="19325" stroke="black" stroke-width="25"/>
<polygon fill="black" stroke="black" stroke-width="25" points="1856.25,19325 1946.51,19195.2 1891.49,19205.1 1850.56,19167 "/>
<text x="1988" y="18969" font-family="Times" font-style="Roman" font-size="225" fill="black" text-anchor="middle">(4.3)</text>
<!-- Call cdPage sendDynamic y (1) -->
<line x1="3270" y1="16300" x2="4308.75" y2="19325" stroke="black" stroke-width="25"/>
<polygon fill="black" stroke="black" stroke-width="25" points="4308.75,19325 4307.32,19166.9 4268.15,19206.8 4212.74,19199.4 "/>
<text x="4154" y="18969" font-family="Times" font-style="Roman" font-size="225" fill="black" text-anchor="middle">(1)</text>
<text x="3008" y="16150" font-family="Times" font-style="Roman" font-size="225" fill="black" text-anchor="middle">[5]</text>
<text x="3008" y="15925" font-family="Times" font-style="Roman" font-size="225" fill="black" text-anchor="middle">cdPage</text>
<!-- Activity cgiAppEnd level=3 -->
<polygon  fill="#ffffff" stroke="black" stroke-width="25" points="3082.5,17725 3082.5,17050 4132.5,17050 4132.5,17725 3082.5,17725 "/>
<text x="3608" y="17481" font-family="Times" font-style="Roman" font-size="225" fill="black" text-anchor="middle">cgiAppEnd</text>
<!-- Activity cgiStart level=1 -->
<polygon  fill="#ffffff" stroke="black" stroke-width="25" points="3082.5,14875 3082.5,14200 4132.5,14200 4132.5,14875 3082.5,14875 "/>
<text x="3608" y="14631" font-family="Times" font-style="Roman" font-size="225" fill="black" text-anchor="middle">cgiStart</text>
<!-- Activity procData s [15] level=2 -->
<polygon  fill="#ffffff" stroke="black" stroke-width="25" points="3682.5,16300 3682.5,15625 4732.5,15625 4732.5,16300 3682.5,16300 "/>
<!-- Call procData dbUpdate y (1.7) -->
<line x1="3945" y1="16300" x2="2913.75" y2="19325" stroke="black" stroke-width="25"/>
<polygon fill="black" stroke="black" stroke-width="25" points="2913.75,19325 3009.48,19199.2 2954.08,19206.7 2914.83,19166.9 "/>
<text x="3067" y="18969" font-family="Times" font-style="Roman" font-size="225" fill="black" text-anchor="middle">(1.7)</text>
<!-- Call procData sendStatic y (1) -->
<line x1="4470" y1="16300" x2="5366.25" y2="19325" stroke="black" stroke-width="25"/>
<polygon fill="black" stroke="black" stroke-width="25" points="5366.25,19325 5371.58,19167 5330.74,19205.1 5275.7,19195.4 "/>
<text x="5100" y="18519" font-family="Times" font-style="Roman" font-size="225" fill="black" text-anchor="middle">(1)</text>
<text x="4208" y="16150" font-family="Times" font-style="Roman" font-size="225" fill="black" text-anchor="middle">[15]</text>
<text x="4208" y="15925" font-family="Times" font-style="Roman" font-size="225" fill="black" text-anchor="middle">procData</text>
<circle cx="3608" cy="16650" r="150"  fill="#ffffff" stroke="black" stroke-width="25"/>
<text x="3608" y="16725" font-family="Times" font-style="Roman" font-size="225" fill="black" text-anchor="middle">+</text>
<line x1="3007.5" y1="16300" x2="3477.93" y2="16574.4" stroke="black" stroke-width="25"/>
<polygon fill="black" stroke="black" stroke-width="25" points="3477.93,16574.4 3373.56,16455.6 3369.96,16511.4 3323.17,16542 "/>
<line x1="4207.5" y1="16300" x2="3737.07" y2="16574.4" stroke="black" stroke-width="25"/>
<polygon fill="black" stroke="black" stroke-width="25" points="3737.07,16574.4 3891.83,16542 3845.04,16511.4 3841.44,16455.6 "/>
<circle cx="3608" cy="15275" r="150"  fill="#ffffff" stroke="black" stroke-width="25"/>
<text x="3608" y="15350" font-family="Times" font-style="Roman" font-size="225" fill="black" text-anchor="middle">+</text>
<line x1="3477.93" y1="15350.6" x2="3007.5" y2="15625" stroke="black" stroke-width="25"/>
<polygon fill="black" stroke="black" stroke-width="25" points="3007.5,15625 3162.26,15592.6 3115.47,15562 3111.87,15506.2 "/>
<line x1="3737.07" y1="15350.6" x2="4207.5" y2="15625" stroke="black" stroke-width="25"/>
<polygon fill="black" stroke="black" stroke-width="25" points="4207.5,15625 4103.13,15506.2 4099.53,15562 4052.74,15592.6 "/>
<line x1="3477.93" y1="15350.6" x2="3007.5" y2="15625" stroke="black" stroke-width="25"/>
<polygon fill="black" stroke="black" stroke-width="25" points="3007.5,15625 3162.26,15592.6 3115.47,15562 3111.87,15506.2 "/>
<line x1="3737.07" y1="15350.6" x2="4207.5" y2="15625" stroke="black" stroke-width="25"/>
<polygon fill="black" stroke="black" stroke-width="25" points="4207.5,15625 4103.13,15506.2 4099.53,15562 4052.74,15592.6 "/>
<text x="3051" y="15552" font-family="Times" font-style="Roman" font-size="225" fill="black" text-anchor="middle">0.4</text>
<text x="4164" y="15552" font-family="Times" font-style="Roman" font-size="225" fill="black" text-anchor="middle">0.6</text>
<line x1="3607.5" y1="16800" x2="3607.5" y2="17050" stroke="black" stroke-width="25"/>
<polygon fill="black" stroke="black" stroke-width="25" points="3607.5,17050 3657.5,16900 3607.5,16925 3557.5,16900 "/>
<line x1="3607.5" y1="14875" x2="3607.5" y2="15125" stroke="black" stroke-width="25"/>
<polygon fill="black" stroke="black" stroke-width="25" points="3607.5,15125 3657.5,14975 3607.5,15000 3557.5,14975 "/>
<!-- Call CGIApp WSP -->
<line x1="2771.88" y1="17975" x2="1972.05" y2="24279.5" stroke="black" stroke-width="25"/>
<polygon fill="black" stroke="black" stroke-width="25" points="1972.05,24279.5 2040.53,24137 1987.78,24155.5 1941.32,24124.4 "/>
<!-- Task DBProcessn  dbUpdate dbRead -1 DBP -->
<polygon  fill="#ffffff" stroke="black" stroke-width="25" points="1361.25,19325 3476.25,19325 3363.75,20450 1248.75,20450 "/>
<text x="2363" y="20319" font-family="Times" font-style="Roman" font-size="225" fill="black" text-anchor="middle">DBProcess</text>
<!-- Entry dbRead s [20] -->
<polyline  stroke="black" stroke-width="25" fill="none" points="1293.75,20000 2351.25,20000 2418.75,19325 "/>
<text x="1856" y="19850" font-family="Times" font-style="Roman" font-size="225" fill="black" text-anchor="middle">[20]</text>
<text x="1856" y="19625" font-family="Times" font-style="Roman" font-size="225" fill="black" text-anchor="middle">dbRead</text>
<!-- Call dbRead read y (4) -->
<line x1="1856.25" y1="20000" x2="870" y2="21800" stroke="black" stroke-width="25"/>
<polygon fill="black" stroke="black" stroke-width="25" points="870,21800 985.927,21692.5 930.064,21690.4 898.228,21644.4 "/>
<text x="1117" y="21444" font-family="Times" font-style="Roman" font-size="225" fill="black" text-anchor="middle">(4)</text>
<!-- Entry dbUpdate s [30] -->
<line x1="2351.25" y1="20000" x2="3408.75" y2="20000" stroke="black" stroke-width="25"/>
<text x="2914" y="19850" font-family="Times" font-style="Roman" font-size="225" fill="black" text-anchor="middle">[30]</text>
<text x="2914" y="19625" font-family="Times" font-style="Roman" font-size="225" fill="black" text-anchor="middle">dbUpdate</text>
<!-- Call dbUpdate read y (2) -->
<line x1="2726.25" y1="20000" x2="1245" y2="21800" stroke="black" stroke-width="25"/>
<polygon fill="black" stroke="black" stroke-width="25" points="1245,21800 1378.92,21715.9 1324.43,21703.5 1301.71,21652.4 "/>
<text x="1986" y="20994" font-family="Times" font-style="Roman" font-size="225" fill="black" text-anchor="middle">(2)</text>
<!-- Call dbUpdate write y (4) -->
<line x1="3101.25" y1="20000" x2="2115" y2="21800" stroke="black" stroke-width="25"/>
<polygon fill="black" stroke="black" stroke-width="25" points="2115,21800 2230.93,21692.5 2175.06,21690.4 2143.23,21644.4 "/>
<text x="2362" y="21444" font-family="Times" font-style="Roman" font-size="225" fill="black" text-anchor="middle">(4)</text>
<!-- Call DBProcess DBP -->
<line x1="2919.38" y1="20450" x2="3208.82" y2="24276.6" stroke="black" stroke-width="25"/>
<polygon fill="black" stroke="black" stroke-width="25" points="3208.82,24276.6 3247.37,24123.3 3199.39,24152 3147.65,24130.8 "/>
<!-- Task WebReplyn  sendStatic sendDynamic -1 WSP -->
<polygon  fill="#ffffff" stroke="black" stroke-width="25" points="3813.75,19325 5928.75,19325 5816.25,20450 3701.25,20450 "/>
<text x="4815" y="20319" font-family="Times" font-style="Roman" font-size="225" fill="black" text-anchor="middle">WebReply</text>
<!-- Entry sendDynamic s [0.8] -->
<polyline  stroke="black" stroke-width="25" fill="none" points="3746.25,20000 4803.75,20000 4871.25,19325 "/>
<text x="4309" y="19850" font-family="Times" font-style="Roman" font-size="225" fill="black" text-anchor="middle">[0.8]</text>
<text x="4309" y="19625" font-family="Times" font-style="Roman" font-size="225" fill="black" text-anchor="middle">sendDynamic</text>
<!-- Call sendDynamic getObjects y (8) -->
<line x1="4121.25" y1="20000" x2="3825" y2="21800" stroke="black" stroke-width="25"/>
<polygon fill="black" stroke="black" stroke-width="25" points="3825,21800 3898.7,21660.1 3845.3,21676.7 3800.02,21643.9 "/>
<text x="3899" y="21444" font-family="Times" font-style="Roman" font-size="225" fill="black" text-anchor="middle">(8)</text>
<!-- Call sendDynamic packet y (40) -->
<line x1="4496.25" y1="20000" x2="5662.5" y2="21800" stroke="black" stroke-width="25"/>
<polygon fill="black" stroke="black" stroke-width="25" points="5662.5,21800 5622.9,21646.9 5594.53,21695.1 5538.97,21701.3 "/>
<text x="5371" y="21444" font-family="Times" font-style="Roman" font-size="225" fill="black" text-anchor="middle">(40)</text>
<!-- Entry sendStatic s [0.8] -->
<line x1="4803.75" y1="20000" x2="5861.25" y2="20000" stroke="black" stroke-width="25"/>
<text x="5366" y="19850" font-family="Times" font-style="Roman" font-size="225" fill="black" text-anchor="middle">[0.8]</text>
<text x="5366" y="19625" font-family="Times" font-style="Roman" font-size="225" fill="black" text-anchor="middle">sendStatic</text>
<!-- Call sendStatic packet y (16) -->
<line x1="5366.25" y1="20000" x2="6037.5" y2="21800" stroke="black" stroke-width="25"/>
<polygon fill="black" stroke="black" stroke-width="25" points="6037.5,21800 6031.94,21642 5993.82,21682.9 5938.24,21676.9 "/>
<text x="5702" y="20994" font-family="Times" font-style="Roman" font-size="225" fill="black" text-anchor="middle">(16)</text>
<!-- Call WebReply WSP -->
<line x1="4258.12" y1="20450" x2="2167.44" y2="24342" stroke="black" stroke-width="25"/>
<polygon fill="black" stroke="black" stroke-width="25" points="2167.44,24342 2282.47,24233.5 2226.59,24231.9 2194.38,24186.2 "/>
<!-- Task DBPn  write read -1 DBP -->
<polygon  fill="#ffffff" stroke="black" stroke-width="25" points="562.5,21800 2677.5,21800 2565,22925 450,22925 "/>
<text x="1564" y="22794" font-family="Times" font-style="Roman" font-size="225" fill="black" text-anchor="middle">DBP</text>
<!-- Entry read s [0.1] -->
<polyline  stroke="black" stroke-width="25" fill="none" points="495,22475 1552.5,22475 1620,21800 "/>
<text x="1058" y="22325" font-family="Times" font-style="Roman" font-size="225" fill="black" text-anchor="middle">[0.1]</text>
<text x="1058" y="22100" font-family="Times" font-style="Roman" font-size="225" fill="black" text-anchor="middle">read</text>
<!-- Entry write s [0.1] -->
<line x1="1552.5" y1="22475" x2="2610" y2="22475" stroke="black" stroke-width="25"/>
<text x="2115" y="22325" font-family="Times" font-style="Roman" font-size="225" fill="black" text-anchor="middle">[0.1]</text>
<text x="2115" y="22100" font-family="Times" font-style="Roman" font-size="225" fill="black" text-anchor="middle">write</text>
<!-- Call DBP DBP -->
<line x1="2120.62" y1="22925" x2="2964.99" y2="24353.3" stroke="black" stroke-width="25"/>
<polygon fill="black" stroke="black" stroke-width="25" points="2964.99,24353.3 2931.7,24198.7 2901.38,24245.7 2845.62,24249.6 "/>
<!-- Task GetObjectsn  getObjects -1 WSP -->
<polygon  fill="#ffffff" stroke="black" stroke-width="25" points="3015,21800 4702.5,21800 4590,22925 2902.5,22925 "/>
<text x="3803" y="22794" font-family="Times" font-style="Roman" font-size="225" fill="black" text-anchor="middle">GetObjects</text>
<!-- Entry getObjects s [1] -->
<polyline  stroke="black" stroke-width="25" fill="none" points="3330,21800 3262.5,22475 4320,22475 4387.5,21800 "/>
<text x="3825" y="22325" font-family="Times" font-style="Roman" font-size="225" fill="black" text-anchor="middle">[1]</text>
<text x="3825" y="22100" font-family="Times" font-style="Roman" font-size="225" fill="black" text-anchor="middle">getObjects</text>
<!-- Call getObjects webRorW y (0.2) -->
<line x1="3825" y1="22475" x2="4773.75" y2="24275" stroke="black" stroke-width="25"/>
<polygon fill="black" stroke="black" stroke-width="25" points="4773.75,24275 4748.04,24119 4715.47,24164.4 4659.58,24165.6 "/>
<text x="4537" y="23919" font-family="Times" font-style="Roman" font-size="225" fill="black" text-anchor="middle">(0.2)</text>
<!-- Call GetObjects WSP -->
<line x1="3352.5" y1="22925" x2="2241.28" y2="24389.4" stroke="black" stroke-width="25"/>
<polygon fill="black" stroke="black" stroke-width="25" points="2241.28,24389.4 2371.78,24300.1 2316.84,24289.8 2292.12,24239.7 "/>
<!-- Task ProtocolReplyn  packet -1 WSP -->
<polygon  fill="#ffffff" stroke="black" stroke-width="25" points="5040,21800 6727.5,21800 6615,22925 4927.5,22925 "/>
<text x="5828" y="22794" font-family="Times" font-style="Roman" font-size="225" fill="black" text-anchor="middle">ProtocolReply</text>
<!-- Entry packet s [0.25] -->
<polyline  stroke="black" stroke-width="25" fill="none" points="5355,21800 5287.5,22475 6345,22475 6412.5,21800 "/>
<text x="5850" y="22325" font-family="Times" font-style="Roman" font-size="225" fill="black" text-anchor="middle">[0.25]</text>
<text x="5850" y="22100" font-family="Times" font-style="Roman" font-size="225" fill="black" text-anchor="middle">packet</text>
<!-- Call ProtocolReply WSP -->
<line x1="5377.5" y1="22925" x2="2394.09" y2="24566.4" stroke="black" stroke-width="25"/>
<polygon fill="black" stroke="black" stroke-width="25" points="2394.09,24566.4 2549.61,24537.9 2503.61,24506.1 2501.41,24450.2 "/>
<!-- Processor WSP FCFS -->
<circle cx="1901" cy="24838" r="563"  fill="#ffffff" stroke="black" stroke-width="25"/>
<text x="1901" y="24931" font-family="Times" font-style="Roman" font-size="225" fill="black" text-anchor="middle">WSP</text>
<!-- Processor DBP FCFS -->
<circle cx="3251" cy="24838" r="563"  fill="#ffffff" stroke="black" stroke-width="25"/>
<text x="3251" y="24931" font-family="Times" font-style="Roman" font-size="225" fill="black" text-anchor="middle">DBP</text>
<!-- Task WebDiskn  webRorW -1 WSDisk -->
<polygon  fill="#ffffff" stroke="black" stroke-width="25" points="4151.25,24275 5838.75,24275 5726.25,25400 4038.75,25400 "/>
<text x="4939" y="25269" font-family="Times" font-style="Roman" font-size="225" fill="black" text-anchor="middle">WebDisk</text>
<!-- Entry webRorW s [0.1] -->
<polyline  stroke="black" stroke-width="25" fill="none" points="4466.25,24275 4398.75,24950 5456.25,24950 5523.75,24275 "/>
<text x="4961" y="24800" font-family="Times" font-style="Roman" font-size="225" fill="black" text-anchor="middle">[0.1]</text>
<text x="4961" y="24575" font-family="Times" font-style="Roman" font-size="225" fill="black" text-anchor="middle">webRorW</text>
<!-- Call WebDisk WSDisk -->
<line x1="4938.75" y1="25400" x2="4938.75" y2="26750" stroke="black" stroke-width="25"/>
<polygon fill="black" stroke="black" stroke-width="25" points="4938.75,26750 4988.75,26600 4938.75,26625 4888.75,26600 "/>
<!-- Processor WSDisk FCFS -->
<circle cx="4939" cy="27313" r="563"  fill="#ffffff" stroke="black" stroke-width="25"/>
<text x="4939" y="27406" font-family="Times" font-style="Roman" font-size="225" fill="black" text-anchor="middle">WSDisk</text>
</svg>
