<?xml version="1.0" standalone="no"?>
<!DOCTYPE svg PUBLIC "-//W3C//DTD SVG 20000303 Stylable//EN"
"http://www.w3.org/TR/2000/03/WD-SVG-20000303/DTD/svg-20000303-stylable.dtd">
<!-- Title: template_1.lqn -->
<!-- Creator: lqn2ps Version 5.25 -->
<!-- Mon Apr 11 00:01:56 2022 -->
<!-- For: Haomi -->
<!-- Invoked as: lqn2ps -Osvg -Pall -Lprocessor template_1.lqn -->
<svg xmlns="http://www.w3.org/2000/svg" width="6.73611in" height="12.9903in" viewBox="0 0 12125 23383">
<desc>0x1419d90</desc>
<polygon  stroke-dasharray="100,75" fill="#ffffff" stroke="black" stroke-width="25" points="337.5,20457.5 337.5,16362.5 2790,16362.5 2790,20457.5 337.5,20457.5 "/>
<text x="1564" y="20416" font-family="Times" font-style="Roman" font-size="225" fill="black" text-anchor="middle">DBP</text>
<polygon  stroke-dasharray="100,75" fill="#ffffff" stroke="black" stroke-width="25" points="3012.5,1957.5 3012.5,337.5 5037.5,337.5 5037.5,1957.5 3012.5,1957.5 "/>
<text x="4025" y="1916" font-family="Times" font-style="Roman" font-size="225" fill="black" text-anchor="middle">UP {&#8734;}</text>
<polygon  stroke-dasharray="100,75" fill="#ffffff" stroke="black" stroke-width="25" points="5262.5,22932.5 5262.5,21312.5 7287.5,21312.5 7287.5,22932.5 5262.5,22932.5 "/>
<text x="6275" y="22891" font-family="Times" font-style="Roman" font-size="225" fill="black" text-anchor="middle">WSDisk</text>
<polygon  stroke-dasharray="100,75" fill="#ffffff" stroke="black" stroke-width="25" points="7512.5,20457.5 7512.5,2812.5 11562.5,2812.5 11562.5,20457.5 7512.5,20457.5 "/>
<text x="9538" y="20416" font-family="Times" font-style="Roman" font-size="225" fill="black" text-anchor="middle">WSP</text>
<!-- Task Userr  user -1 UP -->
<polygon  fill="#ffffff" stroke="black" stroke-width="25" points="3237.5,450 4925,450 4812.5,1575 3125,1575 "/>
<text x="4025" y="1444" font-family="Times" font-style="Roman" font-size="225" fill="black" text-anchor="middle">User</text>
<!-- Entry user s [0] -->
<polyline  stroke="black" stroke-width="25" fill="none" points="3552.5,450 3485,1125 4542.5,1125 4610,450 "/>
<text x="4048" y="975" font-family="Times" font-style="Roman" font-size="225" fill="black" text-anchor="middle">[0]</text>
<text x="4048" y="750" font-family="Times" font-style="Roman" font-size="225" fill="black" text-anchor="middle">user</text>
<!-- Call user protocol y (1) -->
<line x1="4047.5" y1="1125" x2="9560" y2="2925" stroke="black" stroke-width="25"/>
<polygon fill="black" stroke="black" stroke-width="25" points="9560,2925 9432.93,2830.91 9441.17,2886.2 9401.89,2925.97 "/>
<text x="8182" y="2569" font-family="Times" font-style="Roman" font-size="225" fill="black" text-anchor="middle">(1)</text>
<!-- Task Protocoln  protocol -1 WSP -->
<polygon  fill="#ffffff" stroke="black" stroke-width="25" points="8750,2925 10437.5,2925 10325,4050 8637.5,4050 "/>
<text x="9538" y="3919" font-family="Times" font-style="Roman" font-size="225" fill="black" text-anchor="middle">Protocol</text>
<!-- Entry protocol s [0.25] -->
<polyline  stroke="black" stroke-width="25" fill="none" points="9065,2925 8997.5,3600 10055,3600 10122.5,2925 "/>
<text x="9560" y="3450" font-family="Times" font-style="Roman" font-size="225" fill="black" text-anchor="middle">[0.25]</text>
<text x="9560" y="3225" font-family="Times" font-style="Roman" font-size="225" fill="black" text-anchor="middle">protocol</text>
<!-- Call protocol webServer y (1) -->
<line x1="9560" y1="3600" x2="9748.75" y2="5400" stroke="black" stroke-width="25"/>
<polygon fill="black" stroke="black" stroke-width="25" points="9748.75,5400 9782.83,5245.6 9735.71,5275.68 9683.38,5256.03 "/>
<text x="9702" y="5044" font-family="Times" font-style="Roman" font-size="225" fill="black" text-anchor="middle">(1)</text>
<!-- Task WebServern  webServer -1 WSP -->
<polygon  fill="#ffffff" stroke="black" stroke-width="25" points="8393.75,5400 11171.2,5400 10681.2,10300 7903.75,10300 "/>
<text x="9538" y="6419" font-family="Times" font-style="Roman" font-size="225" fill="black" text-anchor="middle">WebServer</text>
<!-- Entry webServer A analyze -->
<polyline  stroke="black" stroke-width="25" fill="none" points="9253.75,5400 9186.25,6075 10243.8,6075 10311.2,5400 "/>
<text x="9749" y="5831" font-family="Times" font-style="Roman" font-size="225" fill="black" text-anchor="middle">webServer</text>
<line x1="9748.75" y1="6075" x2="9556.25" y2="6525" stroke="black" stroke-width="25"/>
<polygon fill="black" stroke="black" stroke-width="25" points="9556.25,6525 9661.22,6406.75 9605.41,6410.07 9569.27,6367.42 "/>
<!-- Activity analyze s [1] level=1 -->
<polygon  fill="#ffffff" stroke="black" stroke-width="25" points="9031.25,7200 9031.25,6525 10081.2,6525 10081.2,7200 9031.25,7200 "/>
<text x="9556" y="7050" font-family="Times" font-style="Roman" font-size="225" fill="black" text-anchor="middle">[1]</text>
<text x="9556" y="6825" font-family="Times" font-style="Roman" font-size="225" fill="black" text-anchor="middle">analyze</text>
<!-- Activity cache s [1] level=2 -->
<polygon  fill="#ffffff" stroke="black" stroke-width="25" points="8431.25,8625 8431.25,7950 9481.25,7950 9481.25,8625 8431.25,8625 "/>
<text x="8956" y="8475" font-family="Times" font-style="Roman" font-size="225" fill="black" text-anchor="middle">[1]</text>
<text x="8956" y="8250" font-family="Times" font-style="Roman" font-size="225" fill="black" text-anchor="middle">cache</text>
<!-- Activity cacheEnd level=3 -->
<polygon  fill="#ffffff" stroke="black" stroke-width="25" points="8431.25,10050 8431.25,9375 9481.25,9375 9481.25,10050 8431.25,10050 "/>
<!-- Call cacheEnd sendStatic y (1) -->
<line x1="9218.75" y1="10050" x2="9807.5" y2="16475" stroke="black" stroke-width="25"/>
<polygon fill="black" stroke="black" stroke-width="25" points="9807.5,16475 9843.6,16321.1 9796.09,16350.5 9744.02,16330.2 "/>
<text x="9766" y="16119" font-family="Times" font-style="Roman" font-size="225" fill="black" text-anchor="middle">(1)</text>
<text x="8956" y="9806" font-family="Times" font-style="Roman" font-size="225" fill="black" text-anchor="middle">cacheEnd</text>
<!-- Activity cgiDrive level=2 -->
<polygon  fill="#ffffff" stroke="black" stroke-width="25" points="9631.25,8625 9631.25,7950 10681.2,7950 10681.2,8625 9631.25,8625 "/>
<!-- Call cgiDrive cgiApp y (1) -->
<line x1="9893.75" y1="8625" x2="9677.5" y2="11650" stroke="black" stroke-width="25"/>
<polygon fill="black" stroke="black" stroke-width="25" points="9677.5,11650 9738.07,11503.9 9686.41,11525.3 9638.32,11496.8 "/>
<text x="9710" y="11294" font-family="Times" font-style="Roman" font-size="225" fill="black" text-anchor="middle">(1)</text>
<text x="10156" y="8381" font-family="Times" font-style="Roman" font-size="225" fill="black" text-anchor="middle">cgiDrive</text>
<!-- Activity diskFetch s [1] level=3 -->
<polygon  fill="#ffffff" stroke="black" stroke-width="25" points="9631.25,10050 9631.25,9375 10681.2,9375 10681.2,10050 9631.25,10050 "/>
<!-- Call diskFetch webRorW y (3) -->
<line x1="9806.25" y1="10050" x2="6485" y2="21425" stroke="black" stroke-width="25"/>
<polygon fill="black" stroke="black" stroke-width="25" points="6485,21425 6575.04,21295 6520.03,21305 6479.05,21267 "/>
<text x="6748" y="20619" font-family="Times" font-style="Roman" font-size="225" fill="black" text-anchor="middle">(3)</text>
<!-- Call diskFetch sendStatic y (1) -->
<line x1="9981.25" y1="10050" x2="10088.8" y2="16475" stroke="black" stroke-width="25"/>
<polygon fill="black" stroke="black" stroke-width="25" points="10088.8,16475 10136.2,16324.2 10086.7,16350 10036.2,16325.9 "/>
<text x="10074" y="15669" font-family="Times" font-style="Roman" font-size="225" fill="black" text-anchor="middle">(1)</text>
<text x="10156" y="9900" font-family="Times" font-style="Roman" font-size="225" fill="black" text-anchor="middle">[1]</text>
<text x="10156" y="9675" font-family="Times" font-style="Roman" font-size="225" fill="black" text-anchor="middle">diskFetch</text>
<line x1="9556.25" y1="7200" x2="9556.25" y2="7450" stroke="black" stroke-width="25"/>
<polygon fill="black" stroke="black" stroke-width="25" points="9556.25,7450 9606.25,7300 9556.25,7325 9506.25,7300 "/>
<line x1="8956.25" y1="8625" x2="9556.25" y2="8875" stroke="black" stroke-width="25"/>
<polygon fill="black" stroke="black" stroke-width="25" points="9556.25,8875 9437.02,8771.15 9440.87,8826.92 9398.56,8863.46 "/>
<circle cx="9556" cy="7600" r="150"  fill="#ffffff" stroke="black" stroke-width="25"/>
<text x="9556" y="7675" font-family="Times" font-style="Roman" font-size="225" fill="black" text-anchor="middle">+</text>
<line x1="9426.68" y1="7675.58" x2="8956.25" y2="7950" stroke="black" stroke-width="25"/>
<polygon fill="black" stroke="black" stroke-width="25" points="8956.25,7950 9111.01,7917.61 9064.22,7887.02 9060.62,7831.23 "/>
<line x1="9685.82" y1="7675.58" x2="10156.2" y2="7950" stroke="black" stroke-width="25"/>
<polygon fill="black" stroke="black" stroke-width="25" points="10156.2,7950 10051.9,7831.23 10048.3,7887.02 10001.5,7917.61 "/>
<line x1="9426.68" y1="7675.58" x2="8956.25" y2="7950" stroke="black" stroke-width="25"/>
<polygon fill="black" stroke="black" stroke-width="25" points="8956.25,7950 9111.01,7917.61 9064.22,7887.02 9060.62,7831.23 "/>
<line x1="9685.82" y1="7675.58" x2="10156.2" y2="7950" stroke="black" stroke-width="25"/>
<polygon fill="black" stroke="black" stroke-width="25" points="10156.2,7950 10051.9,7831.23 10048.3,7887.02 10001.5,7917.61 "/>
<text x="8999" y="7877" font-family="Times" font-style="Roman" font-size="225" fill="black" text-anchor="middle">$PS</text>
<text x="10113" y="7877" font-family="Times" font-style="Roman" font-size="225" fill="black" text-anchor="middle">$1_PS</text>
<circle cx="9556" cy="9025" r="150"  fill="#ffffff" stroke="black" stroke-width="25"/>
<text x="9556" y="9100" font-family="Times" font-style="Roman" font-size="225" fill="black" text-anchor="middle">+</text>
<line x1="9426.68" y1="9100.58" x2="8956.25" y2="9375" stroke="black" stroke-width="25"/>
<polygon fill="black" stroke="black" stroke-width="25" points="8956.25,9375 9111.01,9342.61 9064.22,9312.02 9060.62,9256.23 "/>
<line x1="9685.82" y1="9100.58" x2="10156.2" y2="9375" stroke="black" stroke-width="25"/>
<polygon fill="black" stroke="black" stroke-width="25" points="10156.2,9375 10051.9,9256.23 10048.3,9312.02 10001.5,9342.61 "/>
<line x1="9426.68" y1="9100.58" x2="8956.25" y2="9375" stroke="black" stroke-width="25"/>
<polygon fill="black" stroke="black" stroke-width="25" points="8956.25,9375 9111.01,9342.61 9064.22,9312.02 9060.62,9256.23 "/>
<line x1="9685.82" y1="9100.58" x2="10156.2" y2="9375" stroke="black" stroke-width="25"/>
<polygon fill="black" stroke="black" stroke-width="25" points="10156.2,9375 10051.9,9256.23 10048.3,9312.02 10001.5,9342.61 "/>
<text x="8999" y="9302" font-family="Times" font-style="Roman" font-size="225" fill="black" text-anchor="middle">$1_PCM</text>
<text x="10113" y="9302" font-family="Times" font-style="Roman" font-size="225" fill="black" text-anchor="middle">$PCM</text>
<!-- Task CGIAppn  cgiApp -1 WSP -->
<polygon  fill="#ffffff" stroke="black" stroke-width="25" points="8393.75,11650 11028.8,11650 10681.2,15125 8046.25,15125 "/>
<text x="9538" y="12669" font-family="Times" font-style="Roman" font-size="225" fill="black" text-anchor="middle">CGIApp</text>
<!-- Entry cgiApp A cgiStart -->
<polyline  stroke="black" stroke-width="25" fill="none" points="9182.5,11650 9115,12325 10172.5,12325 10240,11650 "/>
<text x="9678" y="12081" font-family="Times" font-style="Roman" font-size="225" fill="black" text-anchor="middle">cgiApp</text>
<line x1="9677.5" y1="12325" x2="9556.25" y2="12775" stroke="black" stroke-width="25"/>
<polygon fill="black" stroke="black" stroke-width="25" points="9556.25,12775 9643.55,12643.2 9588.77,12654.3 9547,12617.2 "/>
<!-- Activity cdPage s [5] level=2 -->
<polygon  fill="#ffffff" stroke="black" stroke-width="25" points="8431.25,14875 8431.25,14200 9481.25,14200 9481.25,14875 8431.25,14875 "/>
<!-- Call cdPage dbRead y (4.3) -->
<line x1="8606.25" y1="14875" x2="1057.5" y2="16475" stroke="black" stroke-width="25"/>
<polygon fill="black" stroke="black" stroke-width="25" points="1057.5,16475 1214.61,16492.8 1179.78,16449.1 1193.87,16395 "/>
<text x="3181" y="16119" font-family="Times" font-style="Roman" font-size="225" fill="black" text-anchor="middle">(4.3)</text>
<!-- Call cdPage sendDynamic y (1) -->
<line x1="8781.25" y1="14875" x2="9031.25" y2="16475" stroke="black" stroke-width="25"/>
<polygon fill="black" stroke="black" stroke-width="25" points="9031.25,16475 9057.49,16319.1 9011.95,16351.5 8958.69,16334.5 "/>
<text x="8961" y="16119" font-family="Times" font-style="Roman" font-size="225" fill="black" text-anchor="middle">(1)</text>
<text x="8956" y="14725" font-family="Times" font-style="Roman" font-size="225" fill="black" text-anchor="middle">[5]</text>
<text x="8956" y="14500" font-family="Times" font-style="Roman" font-size="225" fill="black" text-anchor="middle">cdPage</text>
<!-- Activity cgiStart level=1 -->
<polygon  fill="#ffffff" stroke="black" stroke-width="25" points="9031.25,13450 9031.25,12775 10081.2,12775 10081.2,13450 9031.25,13450 "/>
<text x="9556" y="13206" font-family="Times" font-style="Roman" font-size="225" fill="black" text-anchor="middle">cgiStart</text>
<!-- Activity procData s [15] level=2 -->
<polygon  fill="#ffffff" stroke="black" stroke-width="25" points="9631.25,14875 9631.25,14200 10681.2,14200 10681.2,14875 9631.25,14875 "/>
<!-- Call procData dbUpdate y (1.7) -->
<line x1="9806.25" y1="14875" x2="2115" y2="16475" stroke="black" stroke-width="25"/>
<polygon fill="black" stroke="black" stroke-width="25" points="2115,16475 2272.04,16493.4 2237.38,16449.5 2251.67,16395.5 "/>
<text x="4278" y="16119" font-family="Times" font-style="Roman" font-size="225" fill="black" text-anchor="middle">(1.7)</text>
<!-- Call procData sendStatic y (1) -->
<line x1="9981.25" y1="14875" x2="10370" y2="16475" stroke="black" stroke-width="25"/>
<polygon fill="black" stroke="black" stroke-width="25" points="10370,16475 10383.2,16317.4 10340.5,16353.5 10286,16341 "/>
<text x="10261" y="16119" font-family="Times" font-style="Roman" font-size="225" fill="black" text-anchor="middle">(1)</text>
<text x="10156" y="14725" font-family="Times" font-style="Roman" font-size="225" fill="black" text-anchor="middle">[15]</text>
<text x="10156" y="14500" font-family="Times" font-style="Roman" font-size="225" fill="black" text-anchor="middle">procData</text>
<circle cx="9556" cy="13850" r="150"  fill="#ffffff" stroke="black" stroke-width="25"/>
<text x="9556" y="13925" font-family="Times" font-style="Roman" font-size="225" fill="black" text-anchor="middle">+</text>
<line x1="9426.68" y1="13925.6" x2="8956.25" y2="14200" stroke="black" stroke-width="25"/>
<polygon fill="black" stroke="black" stroke-width="25" points="8956.25,14200 9111.01,14167.6 9064.22,14137 9060.62,14081.2 "/>
<line x1="9685.82" y1="13925.6" x2="10156.2" y2="14200" stroke="black" stroke-width="25"/>
<polygon fill="black" stroke="black" stroke-width="25" points="10156.2,14200 10051.9,14081.2 10048.3,14137 10001.5,14167.6 "/>
<line x1="9426.68" y1="13925.6" x2="8956.25" y2="14200" stroke="black" stroke-width="25"/>
<polygon fill="black" stroke="black" stroke-width="25" points="8956.25,14200 9111.01,14167.6 9064.22,14137 9060.62,14081.2 "/>
<line x1="9685.82" y1="13925.6" x2="10156.2" y2="14200" stroke="black" stroke-width="25"/>
<polygon fill="black" stroke="black" stroke-width="25" points="10156.2,14200 10051.9,14081.2 10048.3,14137 10001.5,14167.6 "/>
<text x="8999" y="14127" font-family="Times" font-style="Roman" font-size="225" fill="black" text-anchor="middle">$1_PR</text>
<text x="10113" y="14127" font-family="Times" font-style="Roman" font-size="225" fill="black" text-anchor="middle">$PR</text>
<line x1="9556.25" y1="13450" x2="9556.25" y2="13700" stroke="black" stroke-width="25"/>
<polygon fill="black" stroke="black" stroke-width="25" points="9556.25,13700 9606.25,13550 9556.25,13575 9506.25,13550 "/>
<!-- Task DBProcessn  dbUpdate dbRead -1 DBP -->
<polygon  fill="#ffffff" stroke="black" stroke-width="25" points="562.5,16475 2677.5,16475 2565,17600 450,17600 "/>
<text x="1564" y="17469" font-family="Times" font-style="Roman" font-size="225" fill="black" text-anchor="middle">DBProcess</text>
<!-- Entry dbRead s [20] -->
<polyline  stroke="black" stroke-width="25" fill="none" points="495,17150 1552.5,17150 1620,16475 "/>
<text x="1058" y="17000" font-family="Times" font-style="Roman" font-size="225" fill="black" text-anchor="middle">[20]</text>
<text x="1058" y="16775" font-family="Times" font-style="Roman" font-size="225" fill="black" text-anchor="middle">dbRead</text>
<!-- Call dbRead read y (4) -->
<line x1="1057.5" y1="17150" x2="870" y2="18950" stroke="black" stroke-width="25"/>
<polygon fill="black" stroke="black" stroke-width="25" points="870,18950 935.272,18806 882.951,18825.7 835.81,18795.6 "/>
<text x="917" y="18594" font-family="Times" font-style="Roman" font-size="225" fill="black" text-anchor="middle">(4)</text>
<!-- Entry dbUpdate s [30] -->
<line x1="1552.5" y1="17150" x2="2610" y2="17150" stroke="black" stroke-width="25"/>
<text x="2115" y="17000" font-family="Times" font-style="Roman" font-size="225" fill="black" text-anchor="middle">[30]</text>
<text x="2115" y="16775" font-family="Times" font-style="Roman" font-size="225" fill="black" text-anchor="middle">dbUpdate</text>
<!-- Call dbUpdate read y (2) -->
<line x1="1927.5" y1="17150" x2="1245" y2="18950" stroke="black" stroke-width="25"/>
<polygon fill="black" stroke="black" stroke-width="25" points="1245,18950 1344.93,18827.5 1289.32,18833.1 1251.43,18792 "/>
<text x="1586" y="18144" font-family="Times" font-style="Roman" font-size="225" fill="black" text-anchor="middle">(2)</text>
<!-- Call dbUpdate write y (4) -->
<line x1="2302.5" y1="17150" x2="2115" y2="18950" stroke="black" stroke-width="25"/>
<polygon fill="black" stroke="black" stroke-width="25" points="2115,18950 2180.27,18806 2127.95,18825.7 2080.81,18795.6 "/>
<text x="2162" y="18594" font-family="Times" font-style="Roman" font-size="225" fill="black" text-anchor="middle">(4)</text>
<!-- Task WebReplyn  sendStatic sendDynamic -1 WSP -->
<polygon  fill="#ffffff" stroke="black" stroke-width="25" points="8536.25,16475 10651.2,16475 10538.8,17600 8423.75,17600 "/>
<text x="9538" y="17469" font-family="Times" font-style="Roman" font-size="225" fill="black" text-anchor="middle">WebReply</text>
<!-- Entry sendDynamic s [0.8] -->
<polyline  stroke="black" stroke-width="25" fill="none" points="8468.75,17150 9526.25,17150 9593.75,16475 "/>
<text x="9031" y="17000" font-family="Times" font-style="Roman" font-size="225" fill="black" text-anchor="middle">[0.8]</text>
<text x="9031" y="16775" font-family="Times" font-style="Roman" font-size="225" fill="black" text-anchor="middle">sendDynamic</text>
<!-- Call sendDynamic getObjects y (8) -->
<line x1="9031.25" y1="17150" x2="8547.5" y2="18950" stroke="black" stroke-width="25"/>
<polygon fill="black" stroke="black" stroke-width="25" points="8547.5,18950 8634.72,18818.1 8579.94,18829.3 8538.14,18792.2 "/>
<text x="8668" y="18594" font-family="Times" font-style="Roman" font-size="225" fill="black" text-anchor="middle">(8)</text>
<!-- Entry sendStatic s [0.8] -->
<line x1="9526.25" y1="17150" x2="10583.8" y2="17150" stroke="black" stroke-width="25"/>
<text x="10089" y="17000" font-family="Times" font-style="Roman" font-size="225" fill="black" text-anchor="middle">[0.8]</text>
<text x="10089" y="16775" font-family="Times" font-style="Roman" font-size="225" fill="black" text-anchor="middle">sendStatic</text>
<!-- Call sendStatic proReply y (1) -->
<line x1="10088.8" y1="17150" x2="10572.5" y2="18950" stroke="black" stroke-width="25"/>
<polygon fill="black" stroke="black" stroke-width="25" points="10572.5,18950 10581.9,18792.2 10540.1,18829.3 10485.3,18818.1 "/>
<text x="10452" y="18594" font-family="Times" font-style="Roman" font-size="225" fill="black" text-anchor="middle">(1)</text>
<!-- Task DBPn  write read -1 DBP -->
<polygon  fill="#ffffff" stroke="black" stroke-width="25" points="562.5,18950 2677.5,18950 2565,20075 450,20075 "/>
<text x="1564" y="19944" font-family="Times" font-style="Roman" font-size="225" fill="black" text-anchor="middle">DBP</text>
<!-- Entry read s [0.1] -->
<polyline  stroke="black" stroke-width="25" fill="none" points="495,19625 1552.5,19625 1620,18950 "/>
<text x="1058" y="19475" font-family="Times" font-style="Roman" font-size="225" fill="black" text-anchor="middle">[0.1]</text>
<text x="1058" y="19250" font-family="Times" font-style="Roman" font-size="225" fill="black" text-anchor="middle">read</text>
<!-- Entry write s [0.1] -->
<line x1="1552.5" y1="19625" x2="2610" y2="19625" stroke="black" stroke-width="25"/>
<text x="2115" y="19475" font-family="Times" font-style="Roman" font-size="225" fill="black" text-anchor="middle">[0.1]</text>
<text x="2115" y="19250" font-family="Times" font-style="Roman" font-size="225" fill="black" text-anchor="middle">write</text>
<!-- Task GetObjectsn  getObjects -1 WSP -->
<polygon  fill="#ffffff" stroke="black" stroke-width="25" points="7737.5,18950 9425,18950 9312.5,20075 7625,20075 "/>
<text x="8525" y="19944" font-family="Times" font-style="Roman" font-size="225" fill="black" text-anchor="middle">GetObjects</text>
<!-- Entry getObjects s [1] -->
<polyline  stroke="black" stroke-width="25" fill="none" points="8052.5,18950 7985,19625 9042.5,19625 9110,18950 "/>
<text x="8548" y="19475" font-family="Times" font-style="Roman" font-size="225" fill="black" text-anchor="middle">[1]</text>
<text x="8548" y="19250" font-family="Times" font-style="Roman" font-size="225" fill="black" text-anchor="middle">getObjects</text>
<!-- Call getObjects webRorW y (0.2) -->
<line x1="8547.5" y1="19625" x2="6110" y2="21425" stroke="black" stroke-width="25"/>
<polygon fill="black" stroke="black" stroke-width="25" points="6110,21425 6260.37,21376.1 6210.55,21350.7 6200.96,21295.7 "/>
<text x="6719" y="21069" font-family="Times" font-style="Roman" font-size="225" fill="black" text-anchor="middle">(0.2)</text>
<!-- Task ProReplyn  proReply -1 WSP -->
<polygon  fill="#ffffff" stroke="black" stroke-width="25" points="9762.5,18950 11450,18950 11337.5,20075 9650,20075 "/>
<text x="10550" y="19944" font-family="Times" font-style="Roman" font-size="225" fill="black" text-anchor="middle">ProReply</text>
<!-- Entry proReply s [1] -->
<polyline  stroke="black" stroke-width="25" fill="none" points="10077.5,18950 10010,19625 11067.5,19625 11135,18950 "/>
<text x="10573" y="19475" font-family="Times" font-style="Roman" font-size="225" fill="black" text-anchor="middle">[1]</text>
<text x="10573" y="19250" font-family="Times" font-style="Roman" font-size="225" fill="black" text-anchor="middle">proReply</text>
<!-- Task WebDiskn  webRorW -1 WSDisk -->
<polygon  fill="#ffffff" stroke="black" stroke-width="25" points="5487.5,21425 7175,21425 7062.5,22550 5375,22550 "/>
<text x="6275" y="22419" font-family="Times" font-style="Roman" font-size="225" fill="black" text-anchor="middle">WebDisk</text>
<!-- Entry webRorW s [0.1] -->
<polyline  stroke="black" stroke-width="25" fill="none" points="5802.5,21425 5735,22100 6792.5,22100 6860,21425 "/>
<text x="6298" y="21950" font-family="Times" font-style="Roman" font-size="225" fill="black" text-anchor="middle">[0.1]</text>
<text x="6298" y="21725" font-family="Times" font-style="Roman" font-size="225" fill="black" text-anchor="middle">webRorW</text>
</svg>
