<?xml version="1.0" standalone="no"?>
<!DOCTYPE svg PUBLIC "-//W3C//DTD SVG 20000303 Stylable//EN"
"http://www.w3.org/TR/2000/03/WD-SVG-20000303/DTD/svg-20000303-stylable.dtd">
<!-- Title: template_1.lqn -->
<!-- Creator: lqn2ps Version 5.25 -->
<!-- Sun Apr 10 23:59:55 2022 -->
<!-- For: Haomi -->
<!-- Invoked as: lqn2ps -Osvg template_1.lqn -->
<svg xmlns="http://www.w3.org/2000/svg" width="3.9875in" height="14.1528in" viewBox="0 0 7178 25475">
<desc>0x1539b38</desc>
<!-- Task Userr  user -1 UP -->
<polygon  fill="#ffffff" stroke="black" stroke-width="25" points="2801.25,450 4488.75,450 4376.25,1575 2688.75,1575 "/>
<text x="3589" y="1444" font-family="Times" font-style="Roman" font-size="225" fill="black" text-anchor="middle">User</text>
<!-- Entry user s [0] -->
<polyline  stroke="black" stroke-width="25" fill="none" points="3116.25,450 3048.75,1125 4106.25,1125 4173.75,450 "/>
<text x="3611" y="975" font-family="Times" font-style="Roman" font-size="225" fill="black" text-anchor="middle">[0]</text>
<text x="3611" y="750" font-family="Times" font-style="Roman" font-size="225" fill="black" text-anchor="middle">user</text>
<!-- Call user protocol y (1) -->
<line x1="3611.25" y1="1125" x2="3611.25" y2="2925" stroke="black" stroke-width="25"/>
<polygon fill="black" stroke="black" stroke-width="25" points="3611.25,2925 3661.25,2775 3611.25,2800 3561.25,2775 "/>
<text x="3611" y="2569" font-family="Times" font-style="Roman" font-size="225" fill="black" text-anchor="middle">(1)</text>
<!-- Task Protocoln  protocol -1 WSP -->
<polygon  fill="#ffffff" stroke="black" stroke-width="25" points="2801.25,2925 4488.75,2925 4376.25,4050 2688.75,4050 "/>
<text x="3589" y="3919" font-family="Times" font-style="Roman" font-size="225" fill="black" text-anchor="middle">Protocol</text>
<!-- Entry protocol s [0.25] -->
<polyline  stroke="black" stroke-width="25" fill="none" points="3116.25,2925 3048.75,3600 4106.25,3600 4173.75,2925 "/>
<text x="3611" y="3450" font-family="Times" font-style="Roman" font-size="225" fill="black" text-anchor="middle">[0.25]</text>
<text x="3611" y="3225" font-family="Times" font-style="Roman" font-size="225" fill="black" text-anchor="middle">protocol</text>
<!-- Call protocol webServer y (1) -->
<line x1="3611.25" y1="3600" x2="3800" y2="5400" stroke="black" stroke-width="25"/>
<polygon fill="black" stroke="black" stroke-width="25" points="3800,5400 3834.08,5245.6 3786.96,5275.68 3734.63,5256.03 "/>
<text x="3753" y="5044" font-family="Times" font-style="Roman" font-size="225" fill="black" text-anchor="middle">(1)</text>
<!-- Call Protocol WSP -->
<line x1="3138.75" y1="4050" x2="1939.96" y2="21426.3" stroke="black" stroke-width="25"/>
<polygon fill="black" stroke="black" stroke-width="25" points="1939.96,21426.3 2000.17,21280.1 1948.57,21301.6 1900.41,21273.2 "/>
<!-- Task WebServern  webServer -1 WSP -->
<polygon  fill="#ffffff" stroke="black" stroke-width="25" points="2445,5400 5222.5,5400 4732.5,10300 1955,10300 "/>
<text x="3589" y="6419" font-family="Times" font-style="Roman" font-size="225" fill="black" text-anchor="middle">WebServer</text>
<!-- Entry webServer A analyze -->
<polyline  stroke="black" stroke-width="25" fill="none" points="3305,5400 3237.5,6075 4295,6075 4362.5,5400 "/>
<text x="3800" y="5831" font-family="Times" font-style="Roman" font-size="225" fill="black" text-anchor="middle">webServer</text>
<line x1="3800" y1="6075" x2="3607.5" y2="6525" stroke="black" stroke-width="25"/>
<polygon fill="black" stroke="black" stroke-width="25" points="3607.5,6525 3712.47,6406.75 3656.66,6410.07 3620.52,6367.42 "/>
<!-- Activity analyze s [1] level=1 -->
<polygon  fill="#ffffff" stroke="black" stroke-width="25" points="3082.5,7200 3082.5,6525 4132.5,6525 4132.5,7200 3082.5,7200 "/>
<text x="3608" y="7050" font-family="Times" font-style="Roman" font-size="225" fill="black" text-anchor="middle">[1]</text>
<text x="3608" y="6825" font-family="Times" font-style="Roman" font-size="225" fill="black" text-anchor="middle">analyze</text>
<!-- Activity cache s [1] level=2 -->
<polygon  fill="#ffffff" stroke="black" stroke-width="25" points="2482.5,8625 2482.5,7950 3532.5,7950 3532.5,8625 2482.5,8625 "/>
<text x="3008" y="8475" font-family="Times" font-style="Roman" font-size="225" fill="black" text-anchor="middle">[1]</text>
<text x="3008" y="8250" font-family="Times" font-style="Roman" font-size="225" fill="black" text-anchor="middle">cache</text>
<!-- Activity cacheEnd level=3 -->
<polygon  fill="#ffffff" stroke="black" stroke-width="25" points="2482.5,10050 2482.5,9375 3532.5,9375 3532.5,10050 2482.5,10050 "/>
<!-- Call cacheEnd sendStatic y (1) -->
<line x1="3270" y1="10050" x2="5085" y2="16475" stroke="black" stroke-width="25"/>
<polygon fill="black" stroke="black" stroke-width="25" points="5085,16475 5092.34,16317.1 5051.02,16354.7 4996.11,16344.2 "/>
<text x="4958" y="16119" font-family="Times" font-style="Roman" font-size="225" fill="black" text-anchor="middle">(1)</text>
<text x="3008" y="9806" font-family="Times" font-style="Roman" font-size="225" fill="black" text-anchor="middle">cacheEnd</text>
<!-- Activity cgiDrive level=2 -->
<polygon  fill="#ffffff" stroke="black" stroke-width="25" points="3682.5,8625 3682.5,7950 4732.5,7950 4732.5,8625 3682.5,8625 "/>
<!-- Call cgiDrive cgiApp y (1) -->
<line x1="3945" y1="8625" x2="3728.75" y2="11650" stroke="black" stroke-width="25"/>
<polygon fill="black" stroke="black" stroke-width="25" points="3728.75,11650 3789.32,11503.9 3737.66,11525.3 3689.57,11496.8 "/>
<text x="3761" y="11294" font-family="Times" font-style="Roman" font-size="225" fill="black" text-anchor="middle">(1)</text>
<text x="4208" y="8381" font-family="Times" font-style="Roman" font-size="225" fill="black" text-anchor="middle">cgiDrive</text>
<!-- Activity diskFetch s [1] level=3 -->
<polygon  fill="#ffffff" stroke="black" stroke-width="25" points="3682.5,10050 3682.5,9375 4732.5,9375 4732.5,10050 3682.5,10050 "/>
<!-- Call diskFetch webRorW y (3) -->
<line x1="4382.5" y1="10050" x2="5148.75" y2="21425" stroke="black" stroke-width="25"/>
<polygon fill="black" stroke="black" stroke-width="25" points="5148.75,21425 5188.56,21272 5140.35,21300.3 5088.78,21278.7 "/>
<text x="5088" y="20619" font-family="Times" font-style="Roman" font-size="225" fill="black" text-anchor="middle">(3)</text>
<!-- Call diskFetch sendStatic y (1) -->
<line x1="4557.5" y1="10050" x2="5647.5" y2="16475" stroke="black" stroke-width="25"/>
<polygon fill="black" stroke="black" stroke-width="25" points="5647.5,16475 5671.71,16318.8 5626.59,16351.8 5573.12,16335.5 "/>
<text x="5571" y="16119" font-family="Times" font-style="Roman" font-size="225" fill="black" text-anchor="middle">(1)</text>
<text x="4208" y="9900" font-family="Times" font-style="Roman" font-size="225" fill="black" text-anchor="middle">[1]</text>
<text x="4208" y="9675" font-family="Times" font-style="Roman" font-size="225" fill="black" text-anchor="middle">diskFetch</text>
<line x1="3607.5" y1="7200" x2="3607.5" y2="7450" stroke="black" stroke-width="25"/>
<polygon fill="black" stroke="black" stroke-width="25" points="3607.5,7450 3657.5,7300 3607.5,7325 3557.5,7300 "/>
<line x1="3007.5" y1="8625" x2="3607.5" y2="8875" stroke="black" stroke-width="25"/>
<polygon fill="black" stroke="black" stroke-width="25" points="3607.5,8875 3488.27,8771.15 3492.12,8826.92 3449.81,8863.46 "/>
<circle cx="3608" cy="7600" r="150"  fill="#ffffff" stroke="black" stroke-width="25"/>
<text x="3608" y="7675" font-family="Times" font-style="Roman" font-size="225" fill="black" text-anchor="middle">+</text>
<line x1="3477.93" y1="7675.58" x2="3007.5" y2="7950" stroke="black" stroke-width="25"/>
<polygon fill="black" stroke="black" stroke-width="25" points="3007.5,7950 3162.26,7917.61 3115.47,7887.02 3111.87,7831.23 "/>
<line x1="3737.07" y1="7675.58" x2="4207.5" y2="7950" stroke="black" stroke-width="25"/>
<polygon fill="black" stroke="black" stroke-width="25" points="4207.5,7950 4103.13,7831.23 4099.53,7887.02 4052.74,7917.61 "/>
<line x1="3477.93" y1="7675.58" x2="3007.5" y2="7950" stroke="black" stroke-width="25"/>
<polygon fill="black" stroke="black" stroke-width="25" points="3007.5,7950 3162.26,7917.61 3115.47,7887.02 3111.87,7831.23 "/>
<line x1="3737.07" y1="7675.58" x2="4207.5" y2="7950" stroke="black" stroke-width="25"/>
<polygon fill="black" stroke="black" stroke-width="25" points="4207.5,7950 4103.13,7831.23 4099.53,7887.02 4052.74,7917.61 "/>
<text x="3051" y="7877" font-family="Times" font-style="Roman" font-size="225" fill="black" text-anchor="middle">$PS</text>
<text x="4164" y="7877" font-family="Times" font-style="Roman" font-size="225" fill="black" text-anchor="middle">$1_PS</text>
<circle cx="3608" cy="9025" r="150"  fill="#ffffff" stroke="black" stroke-width="25"/>
<text x="3608" y="9100" font-family="Times" font-style="Roman" font-size="225" fill="black" text-anchor="middle">+</text>
<line x1="3477.93" y1="9100.58" x2="3007.5" y2="9375" stroke="black" stroke-width="25"/>
<polygon fill="black" stroke="black" stroke-width="25" points="3007.5,9375 3162.26,9342.61 3115.47,9312.02 3111.87,9256.23 "/>
<line x1="3737.07" y1="9100.58" x2="4207.5" y2="9375" stroke="black" stroke-width="25"/>
<polygon fill="black" stroke="black" stroke-width="25" points="4207.5,9375 4103.13,9256.23 4099.53,9312.02 4052.74,9342.61 "/>
<line x1="3477.93" y1="9100.58" x2="3007.5" y2="9375" stroke="black" stroke-width="25"/>
<polygon fill="black" stroke="black" stroke-width="25" points="3007.5,9375 3162.26,9342.61 3115.47,9312.02 3111.87,9256.23 "/>
<line x1="3737.07" y1="9100.58" x2="4207.5" y2="9375" stroke="black" stroke-width="25"/>
<polygon fill="black" stroke="black" stroke-width="25" points="4207.5,9375 4103.13,9256.23 4099.53,9312.02 4052.74,9342.61 "/>
<text x="3051" y="9302" font-family="Times" font-style="Roman" font-size="225" fill="black" text-anchor="middle">$1_PCM</text>
<text x="4164" y="9302" font-family="Times" font-style="Roman" font-size="225" fill="black" text-anchor="middle">$PCM</text>
<!-- Call WebServer WSP -->
<line x1="2771.88" y1="10300" x2="1943.04" y2="21426.6" stroke="black" stroke-width="25"/>
<polygon fill="black" stroke="black" stroke-width="25" points="1943.04,21426.6 2004.04,21280.7 1952.32,21301.9 1904.32,21273.3 "/>
<!-- Task CGIAppn  cgiApp -1 WSP -->
<polygon  fill="#ffffff" stroke="black" stroke-width="25" points="2445,11650 5080,11650 4732.5,15125 2097.5,15125 "/>
<text x="3589" y="12669" font-family="Times" font-style="Roman" font-size="225" fill="black" text-anchor="middle">CGIApp</text>
<!-- Entry cgiApp A cgiStart -->
<polyline  stroke="black" stroke-width="25" fill="none" points="3233.75,11650 3166.25,12325 4223.75,12325 4291.25,11650 "/>
<text x="3729" y="12081" font-family="Times" font-style="Roman" font-size="225" fill="black" text-anchor="middle">cgiApp</text>
<line x1="3728.75" y1="12325" x2="3607.5" y2="12775" stroke="black" stroke-width="25"/>
<polygon fill="black" stroke="black" stroke-width="25" points="3607.5,12775 3694.8,12643.2 3640.02,12654.3 3598.25,12617.2 "/>
<!-- Activity cdPage s [5] level=2 -->
<polygon  fill="#ffffff" stroke="black" stroke-width="25" points="2482.5,14875 2482.5,14200 3532.5,14200 3532.5,14875 2482.5,14875 "/>
<!-- Call cdPage dbRead y (4.3) -->
<line x1="2745" y1="14875" x2="1856.25" y2="16475" stroke="black" stroke-width="25"/>
<polygon fill="black" stroke="black" stroke-width="25" points="1856.25,16475 1972.8,16368.2 1916.95,16365.7 1885.38,16319.6 "/>
<text x="2106" y="16119" font-family="Times" font-style="Roman" font-size="225" fill="black" text-anchor="middle">(4.3)</text>
<!-- Call cdPage sendDynamic y (1) -->
<line x1="3270" y1="14875" x2="4308.75" y2="16475" stroke="black" stroke-width="25"/>
<polygon fill="black" stroke="black" stroke-width="25" points="4308.75,16475 4269.01,16322 4240.68,16370.2 4185.13,16376.4 "/>
<text x="4017" y="16119" font-family="Times" font-style="Roman" font-size="225" fill="black" text-anchor="middle">(1)</text>
<text x="3008" y="14725" font-family="Times" font-style="Roman" font-size="225" fill="black" text-anchor="middle">[5]</text>
<text x="3008" y="14500" font-family="Times" font-style="Roman" font-size="225" fill="black" text-anchor="middle">cdPage</text>
<!-- Activity cgiStart level=1 -->
<polygon  fill="#ffffff" stroke="black" stroke-width="25" points="3082.5,13450 3082.5,12775 4132.5,12775 4132.5,13450 3082.5,13450 "/>
<text x="3608" y="13206" font-family="Times" font-style="Roman" font-size="225" fill="black" text-anchor="middle">cgiStart</text>
<!-- Activity procData s [15] level=2 -->
<polygon  fill="#ffffff" stroke="black" stroke-width="25" points="3682.5,14875 3682.5,14200 4732.5,14200 4732.5,14875 3682.5,14875 "/>
<!-- Call procData dbUpdate y (1.7) -->
<line x1="3945" y1="14875" x2="2913.75" y2="16475" stroke="black" stroke-width="25"/>
<polygon fill="black" stroke="black" stroke-width="25" points="2913.75,16475 3037.04,16376 2981.47,16369.9 2952.99,16321.8 "/>
<text x="3204" y="16119" font-family="Times" font-style="Roman" font-size="225" fill="black" text-anchor="middle">(1.7)</text>
<!-- Call procData sendStatic y (1) -->
<line x1="4470" y1="14875" x2="5366.25" y2="16475" stroke="black" stroke-width="25"/>
<polygon fill="black" stroke="black" stroke-width="25" points="5366.25,16475 5336.57,16319.7 5305.16,16365.9 5249.32,16368.6 "/>
<text x="4862" y="15669" font-family="Times" font-style="Roman" font-size="225" fill="black" text-anchor="middle">(1)</text>
<text x="4208" y="14725" font-family="Times" font-style="Roman" font-size="225" fill="black" text-anchor="middle">[15]</text>
<text x="4208" y="14500" font-family="Times" font-style="Roman" font-size="225" fill="black" text-anchor="middle">procData</text>
<circle cx="3608" cy="13850" r="150"  fill="#ffffff" stroke="black" stroke-width="25"/>
<text x="3608" y="13925" font-family="Times" font-style="Roman" font-size="225" fill="black" text-anchor="middle">+</text>
<line x1="3477.93" y1="13925.6" x2="3007.5" y2="14200" stroke="black" stroke-width="25"/>
<polygon fill="black" stroke="black" stroke-width="25" points="3007.5,14200 3162.26,14167.6 3115.47,14137 3111.87,14081.2 "/>
<line x1="3737.07" y1="13925.6" x2="4207.5" y2="14200" stroke="black" stroke-width="25"/>
<polygon fill="black" stroke="black" stroke-width="25" points="4207.5,14200 4103.13,14081.2 4099.53,14137 4052.74,14167.6 "/>
<line x1="3477.93" y1="13925.6" x2="3007.5" y2="14200" stroke="black" stroke-width="25"/>
<polygon fill="black" stroke="black" stroke-width="25" points="3007.5,14200 3162.26,14167.6 3115.47,14137 3111.87,14081.2 "/>
<line x1="3737.07" y1="13925.6" x2="4207.5" y2="14200" stroke="black" stroke-width="25"/>
<polygon fill="black" stroke="black" stroke-width="25" points="4207.5,14200 4103.13,14081.2 4099.53,14137 4052.74,14167.6 "/>
<text x="3051" y="14127" font-family="Times" font-style="Roman" font-size="225" fill="black" text-anchor="middle">$1_PR</text>
<text x="4164" y="14127" font-family="Times" font-style="Roman" font-size="225" fill="black" text-anchor="middle">$PR</text>
<line x1="3607.5" y1="13450" x2="3607.5" y2="13700" stroke="black" stroke-width="25"/>
<polygon fill="black" stroke="black" stroke-width="25" points="3607.5,13700 3657.5,13550 3607.5,13575 3557.5,13550 "/>
<!-- Call CGIApp WSP -->
<line x1="2843.12" y1="15125" x2="1977.74" y2="21430.2" stroke="black" stroke-width="25"/>
<polygon fill="black" stroke="black" stroke-width="25" points="1977.74,21430.2 2047.67,21288.4 1994.73,21306.4 1948.6,21274.8 "/>
<!-- Task DBProcessn  dbUpdate dbRead -1 DBP -->
<polygon  fill="#ffffff" stroke="black" stroke-width="25" points="1361.25,16475 3476.25,16475 3363.75,17600 1248.75,17600 "/>
<text x="2363" y="17469" font-family="Times" font-style="Roman" font-size="225" fill="black" text-anchor="middle">DBProcess</text>
<!-- Entry dbRead s [20] -->
<polyline  stroke="black" stroke-width="25" fill="none" points="1293.75,17150 2351.25,17150 2418.75,16475 "/>
<text x="1856" y="17000" font-family="Times" font-style="Roman" font-size="225" fill="black" text-anchor="middle">[20]</text>
<text x="1856" y="16775" font-family="Times" font-style="Roman" font-size="225" fill="black" text-anchor="middle">dbRead</text>
<!-- Call dbRead read y (4) -->
<line x1="1856.25" y1="17150" x2="870" y2="18950" stroke="black" stroke-width="25"/>
<polygon fill="black" stroke="black" stroke-width="25" points="870,18950 985.927,18842.5 930.064,18840.4 898.228,18794.4 "/>
<text x="1117" y="18594" font-family="Times" font-style="Roman" font-size="225" fill="black" text-anchor="middle">(4)</text>
<!-- Entry dbUpdate s [30] -->
<line x1="2351.25" y1="17150" x2="3408.75" y2="17150" stroke="black" stroke-width="25"/>
<text x="2914" y="17000" font-family="Times" font-style="Roman" font-size="225" fill="black" text-anchor="middle">[30]</text>
<text x="2914" y="16775" font-family="Times" font-style="Roman" font-size="225" fill="black" text-anchor="middle">dbUpdate</text>
<!-- Call dbUpdate read y (2) -->
<line x1="2726.25" y1="17150" x2="1245" y2="18950" stroke="black" stroke-width="25"/>
<polygon fill="black" stroke="black" stroke-width="25" points="1245,18950 1378.92,18865.9 1324.43,18853.5 1301.71,18802.4 "/>
<text x="1986" y="18144" font-family="Times" font-style="Roman" font-size="225" fill="black" text-anchor="middle">(2)</text>
<!-- Call dbUpdate write y (4) -->
<line x1="3101.25" y1="17150" x2="2115" y2="18950" stroke="black" stroke-width="25"/>
<polygon fill="black" stroke="black" stroke-width="25" points="2115,18950 2230.93,18842.5 2175.06,18840.4 2143.23,18794.4 "/>
<text x="2362" y="18594" font-family="Times" font-style="Roman" font-size="225" fill="black" text-anchor="middle">(4)</text>
<!-- Call DBProcess DBP -->
<line x1="2919.38" y1="17600" x2="3208.82" y2="21426.6" stroke="black" stroke-width="25"/>
<polygon fill="black" stroke="black" stroke-width="25" points="3208.82,21426.6 3247.37,21273.3 3199.39,21302 3147.65,21280.8 "/>
<!-- Task WebReplyn  sendStatic sendDynamic -1 WSP -->
<polygon  fill="#ffffff" stroke="black" stroke-width="25" points="3813.75,16475 5928.75,16475 5816.25,17600 3701.25,17600 "/>
<text x="4815" y="17469" font-family="Times" font-style="Roman" font-size="225" fill="black" text-anchor="middle">WebReply</text>
<!-- Entry sendDynamic s [0.8] -->
<polyline  stroke="black" stroke-width="25" fill="none" points="3746.25,17150 4803.75,17150 4871.25,16475 "/>
<text x="4309" y="17000" font-family="Times" font-style="Roman" font-size="225" fill="black" text-anchor="middle">[0.8]</text>
<text x="4309" y="16775" font-family="Times" font-style="Roman" font-size="225" fill="black" text-anchor="middle">sendDynamic</text>
<!-- Call sendDynamic getObjects y (8) -->
<line x1="4308.75" y1="17150" x2="3825" y2="18950" stroke="black" stroke-width="25"/>
<polygon fill="black" stroke="black" stroke-width="25" points="3825,18950 3912.22,18818.1 3857.44,18829.3 3815.64,18792.2 "/>
<text x="3946" y="18594" font-family="Times" font-style="Roman" font-size="225" fill="black" text-anchor="middle">(8)</text>
<!-- Entry sendStatic s [0.8] -->
<line x1="4803.75" y1="17150" x2="5861.25" y2="17150" stroke="black" stroke-width="25"/>
<text x="5366" y="17000" font-family="Times" font-style="Roman" font-size="225" fill="black" text-anchor="middle">[0.8]</text>
<text x="5366" y="16775" font-family="Times" font-style="Roman" font-size="225" fill="black" text-anchor="middle">sendStatic</text>
<!-- Call sendStatic proReply y (1) -->
<line x1="5366.25" y1="17150" x2="5850" y2="18950" stroke="black" stroke-width="25"/>
<polygon fill="black" stroke="black" stroke-width="25" points="5850,18950 5859.36,18792.2 5817.56,18829.3 5762.78,18818.1 "/>
<text x="5729" y="18594" font-family="Times" font-style="Roman" font-size="225" fill="black" text-anchor="middle">(1)</text>
<!-- Call WebReply WSP -->
<line x1="4258.12" y1="17600" x2="2167.44" y2="21492" stroke="black" stroke-width="25"/>
<polygon fill="black" stroke="black" stroke-width="25" points="2167.44,21492 2282.47,21383.5 2226.59,21381.9 2194.38,21336.2 "/>
<!-- Task DBPn  write read -1 DBP -->
<polygon  fill="#ffffff" stroke="black" stroke-width="25" points="562.5,18950 2677.5,18950 2565,20075 450,20075 "/>
<text x="1564" y="19944" font-family="Times" font-style="Roman" font-size="225" fill="black" text-anchor="middle">DBP</text>
<!-- Entry read s [0.1] -->
<polyline  stroke="black" stroke-width="25" fill="none" points="495,19625 1552.5,19625 1620,18950 "/>
<text x="1058" y="19475" font-family="Times" font-style="Roman" font-size="225" fill="black" text-anchor="middle">[0.1]</text>
<text x="1058" y="19250" font-family="Times" font-style="Roman" font-size="225" fill="black" text-anchor="middle">read</text>
<!-- Entry write s [0.1] -->
<line x1="1552.5" y1="19625" x2="2610" y2="19625" stroke="black" stroke-width="25"/>
<text x="2115" y="19475" font-family="Times" font-style="Roman" font-size="225" fill="black" text-anchor="middle">[0.1]</text>
<text x="2115" y="19250" font-family="Times" font-style="Roman" font-size="225" fill="black" text-anchor="middle">write</text>
<!-- Call DBP DBP -->
<line x1="2120.62" y1="20075" x2="2964.99" y2="21503.3" stroke="black" stroke-width="25"/>
<polygon fill="black" stroke="black" stroke-width="25" points="2964.99,21503.3 2931.7,21348.7 2901.38,21395.7 2845.62,21399.6 "/>
<!-- Task GetObjectsn  getObjects -1 WSP -->
<polygon  fill="#ffffff" stroke="black" stroke-width="25" points="3015,18950 4702.5,18950 4590,20075 2902.5,20075 "/>
<text x="3803" y="19944" font-family="Times" font-style="Roman" font-size="225" fill="black" text-anchor="middle">GetObjects</text>
<!-- Entry getObjects s [1] -->
<polyline  stroke="black" stroke-width="25" fill="none" points="3330,18950 3262.5,19625 4320,19625 4387.5,18950 "/>
<text x="3825" y="19475" font-family="Times" font-style="Roman" font-size="225" fill="black" text-anchor="middle">[1]</text>
<text x="3825" y="19250" font-family="Times" font-style="Roman" font-size="225" fill="black" text-anchor="middle">getObjects</text>
<!-- Call getObjects webRorW y (0.2) -->
<line x1="3825" y1="19625" x2="4773.75" y2="21425" stroke="black" stroke-width="25"/>
<polygon fill="black" stroke="black" stroke-width="25" points="4773.75,21425 4748.04,21269 4715.47,21314.4 4659.58,21315.6 "/>
<text x="4537" y="21069" font-family="Times" font-style="Roman" font-size="225" fill="black" text-anchor="middle">(0.2)</text>
<!-- Call GetObjects WSP -->
<line x1="3352.5" y1="20075" x2="2241.28" y2="21539.4" stroke="black" stroke-width="25"/>
<polygon fill="black" stroke="black" stroke-width="25" points="2241.28,21539.4 2371.78,21450.1 2316.84,21439.8 2292.12,21389.7 "/>
<!-- Task ProReplyn  proReply -1 WSP -->
<polygon  fill="#ffffff" stroke="black" stroke-width="25" points="5040,18950 6727.5,18950 6615,20075 4927.5,20075 "/>
<text x="5828" y="19944" font-family="Times" font-style="Roman" font-size="225" fill="black" text-anchor="middle">ProReply</text>
<!-- Entry proReply s [1] -->
<polyline  stroke="black" stroke-width="25" fill="none" points="5355,18950 5287.5,19625 6345,19625 6412.5,18950 "/>
<text x="5850" y="19475" font-family="Times" font-style="Roman" font-size="225" fill="black" text-anchor="middle">[1]</text>
<text x="5850" y="19250" font-family="Times" font-style="Roman" font-size="225" fill="black" text-anchor="middle">proReply</text>
<!-- Call ProReply WSP -->
<line x1="5377.5" y1="20075" x2="2394.09" y2="21716.4" stroke="black" stroke-width="25"/>
<polygon fill="black" stroke="black" stroke-width="25" points="2394.09,21716.4 2549.61,21687.9 2503.61,21656.1 2501.41,21600.2 "/>
<!-- Processor WSP FCFS -->
<circle cx="1901" cy="21988" r="563"  fill="#ffffff" stroke="black" stroke-width="25"/>
<text x="1901" y="22081" font-family="Times" font-style="Roman" font-size="225" fill="black" text-anchor="middle">WSP</text>
<!-- Processor DBP FCFS -->
<circle cx="3251" cy="21988" r="563"  fill="#ffffff" stroke="black" stroke-width="25"/>
<text x="3251" y="22081" font-family="Times" font-style="Roman" font-size="225" fill="black" text-anchor="middle">DBP</text>
<!-- Task WebDiskn  webRorW -1 WSDisk -->
<polygon  fill="#ffffff" stroke="black" stroke-width="25" points="4151.25,21425 5838.75,21425 5726.25,22550 4038.75,22550 "/>
<text x="4939" y="22419" font-family="Times" font-style="Roman" font-size="225" fill="black" text-anchor="middle">WebDisk</text>
<!-- Entry webRorW s [0.1] -->
<polyline  stroke="black" stroke-width="25" fill="none" points="4466.25,21425 4398.75,22100 5456.25,22100 5523.75,21425 "/>
<text x="4961" y="21950" font-family="Times" font-style="Roman" font-size="225" fill="black" text-anchor="middle">[0.1]</text>
<text x="4961" y="21725" font-family="Times" font-style="Roman" font-size="225" fill="black" text-anchor="middle">webRorW</text>
<!-- Call WebDisk WSDisk -->
<line x1="4938.75" y1="22550" x2="4938.75" y2="23900" stroke="black" stroke-width="25"/>
<polygon fill="black" stroke="black" stroke-width="25" points="4938.75,23900 4988.75,23750 4938.75,23775 4888.75,23750 "/>
<!-- Processor WSDisk FCFS -->
<circle cx="4939" cy="24463" r="563"  fill="#ffffff" stroke="black" stroke-width="25"/>
<text x="4939" y="24556" font-family="Times" font-style="Roman" font-size="225" fill="black" text-anchor="middle">WSDisk</text>
</svg>
