<?xml version="1.0" standalone="no"?>
<!DOCTYPE svg PUBLIC "-//W3C//DTD SVG 20000303 Stylable//EN"
"http://www.w3.org/TR/2000/03/WD-SVG-20000303/DTD/svg-20000303-stylable.dtd">
<!-- Title: cgiDrive-003.lqxo -->
<!-- Creator: lqn2svg Version 5.25 -->
<!-- Mon Apr 11 21:12:34 2022 -->
<!-- For: Haomi -->
<!-- Invoked as: lqn2svg cgiDrive-003.lqxo -->
<svg xmlns="http://www.w3.org/2000/svg" width="2.31528in" height="7.34722in" viewBox="0 0 4168 13225">
<desc>0xde9b50</desc>
<!-- Task Userr  user -1 UserP -->
<polygon  fill="#ffffff" stroke="black" stroke-width="25" points="1346.25,500 3033.75,500 2921.25,1625 1233.75,1625 "/>
<polygon  fill="#ffffff" stroke="black" stroke-width="25" points="1296.25,450 2983.75,450 2871.25,1575 1183.75,1575 "/>
<text x="2084" y="1538" font-family="Times" font-style="Roman" font-size="225" fill="black" text-anchor="middle">&#0955;=0.443,&#0961;=10</text>
<text x="2084" y="1313" font-family="Times" font-style="Roman" font-size="225" fill="black" text-anchor="middle">User {10}</text>
<!-- Entry user s [0] -->
<polyline  stroke="black" stroke-width="25" fill="none" points="1611.25,450 1543.75,1125 2601.25,1125 2668.75,450 "/>
<text x="2106" y="1069" font-family="Times" font-style="Roman" font-size="225" fill="black" text-anchor="middle">22.6</text>
<text x="2106" y="844" font-family="Times" font-style="Roman" font-size="225" fill="black" text-anchor="middle">[0]</text>
<text x="2106" y="619" font-family="Times" font-style="Roman" font-size="225" fill="black" text-anchor="middle">user</text>
<!-- Call user protocol y (1) -->
<line x1="2106.25" y1="1125" x2="2106.25" y2="2925" stroke="Red" stroke-width="25"/>
<polygon fill="Red" stroke="Red" stroke-width="25" points="2106.25,2925 2156.25,2775 2106.25,2800 2056.25,2775 "/>
<text x="2106" y="2663" font-family="Times" font-style="Roman" font-size="225" fill="black" text-anchor="middle">20.4</text>
<text x="2106" y="2438" font-family="Times" font-style="Roman" font-size="225" fill="black" text-anchor="middle">(1)</text>
<!-- Task Protocoln  protocol -1 WSP -->
<polygon  fill="#ffe5e5" stroke="Red" stroke-width="25" points="1296.25,2925 2983.75,2925 2871.25,4050 1183.75,4050 "/>
<text x="2084" y="4013" font-family="Times" font-style="Roman" font-size="225" fill="black" text-anchor="middle">&#0955;=0.443,&#0961;=0.951</text>
<text x="2084" y="3788" font-family="Times" font-style="Roman" font-size="225" fill="black" text-anchor="middle">Protocol</text>
<!-- Entry protocol s [0.25] -->
<polyline  stroke="Red" stroke-width="25" fill="none" points="1611.25,2925 1543.75,3600 2601.25,3600 2668.75,2925 "/>
<text x="2106" y="3544" font-family="Times" font-style="Roman" font-size="225" fill="black" text-anchor="middle">2.15</text>
<text x="2106" y="3319" font-family="Times" font-style="Roman" font-size="225" fill="black" text-anchor="middle">[0.25]</text>
<text x="2106" y="3094" font-family="Times" font-style="Roman" font-size="225" fill="black" text-anchor="middle">protocol</text>
<!-- Call protocol webServer y (1) -->
<line x1="2106.25" y1="3600" x2="2295" y2="5400" stroke="Orange" stroke-width="25"/>
<polygon fill="Orange" stroke="Orange" stroke-width="25" points="2295,5400 2329.08,5245.6 2281.96,5275.68 2229.63,5256.03 "/>
<text x="2248" y="5138" font-family="Times" font-style="Roman" font-size="225" fill="black" text-anchor="middle">0</text>
<text x="2248" y="4913" font-family="Times" font-style="Roman" font-size="225" fill="black" text-anchor="middle">(1)</text>
<!-- Call Protocol WSP -->
<line x1="2083.75" y1="4050" x2="2083.75" y2="11650" stroke="Red" stroke-width="25"/>
<polygon fill="Red" stroke="Red" stroke-width="25" points="2083.75,11650 2133.75,11500 2083.75,11525 2033.75,11500 "/>
<!-- Task WebServern  webServer -1 WSP -->
<polygon  fill="#fff2e5" stroke="Orange" stroke-width="25" points="940,5400 3717.5,5400 3227.5,10300 450,10300 "/>
<text x="2084" y="6513" font-family="Times" font-style="Roman" font-size="225" fill="black" text-anchor="middle">&#0955;=0.443,&#0961;=0.841</text>
<text x="2084" y="6288" font-family="Times" font-style="Roman" font-size="225" fill="black" text-anchor="middle">WebServer</text>
<!-- Entry webServer A analyze -->
<polyline  stroke="Orange" stroke-width="25" fill="none" points="1800,5400 1732.5,6075 2790,6075 2857.5,5400 "/>
<text x="2295" y="5925" font-family="Times" font-style="Roman" font-size="225" fill="black" text-anchor="middle">1.9</text>
<text x="2295" y="5700" font-family="Times" font-style="Roman" font-size="225" fill="black" text-anchor="middle">webServer</text>
<line x1="2295" y1="6075" x2="2102.5" y2="6525" stroke="Orange" stroke-width="25"/>
<polygon fill="Orange" stroke="Orange" stroke-width="25" points="2102.5,6525 2207.47,6406.75 2151.66,6410.07 2115.52,6367.42 "/>
<!-- Call webServerEnd webServer -->
<line x1="2365" y1="9375" x2="2576.25" y2="6075" stroke-dasharray="75" stroke="Orange" stroke-width="25"/>
<polygon fill="Orange" stroke="Orange" stroke-width="25" points="2576.25,6075 2516.77,6221.5 2568.26,6199.74 2616.57,6227.89 "/>
<!-- Activity analyze s [1] level=1 -->
<polygon  fill="#fff2e5" stroke="Orange" stroke-width="25" points="1577.5,7200 1577.5,6525 2627.5,6525 2627.5,7200 1577.5,7200 "/>
<text x="2103" y="7144" font-family="Times" font-style="Roman" font-size="225" fill="black" text-anchor="middle">1</text>
<text x="2103" y="6919" font-family="Times" font-style="Roman" font-size="225" fill="black" text-anchor="middle">[1]</text>
<text x="2103" y="6694" font-family="Times" font-style="Roman" font-size="225" fill="black" text-anchor="middle">analyze</text>
<!-- Activity cache s [1] level=2 -->
<polygon  fill="#fff2e5" stroke="Orange" stroke-width="25" points="977.5,8625 977.5,7950 2027.5,7950 2027.5,8625 977.5,8625 "/>
<text x="1503" y="8569" font-family="Times" font-style="Roman" font-size="225" fill="black" text-anchor="middle">1</text>
<text x="1503" y="8344" font-family="Times" font-style="Roman" font-size="225" fill="black" text-anchor="middle">[1]</text>
<text x="1503" y="8119" font-family="Times" font-style="Roman" font-size="225" fill="black" text-anchor="middle">cache</text>
<!-- Activity cgiDrive s [0] level=2 -->
<polygon  fill="#fff2e5" stroke="Orange" stroke-width="25" points="2177.5,8625 2177.5,7950 3227.5,7950 3227.5,8625 2177.5,8625 "/>
<text x="2703" y="8569" font-family="Times" font-style="Roman" font-size="225" fill="black" text-anchor="middle">0</text>
<text x="2703" y="8344" font-family="Times" font-style="Roman" font-size="225" fill="black" text-anchor="middle">[0]</text>
<text x="2703" y="8119" font-family="Times" font-style="Roman" font-size="225" fill="black" text-anchor="middle">cgiDrive</text>
<!-- Activity webServerEnd s [0] level=3 -->
<polygon  fill="#fff2e5" stroke="Orange" stroke-width="25" points="1577.5,10050 1577.5,9375 2627.5,9375 2627.5,10050 1577.5,10050 "/>
<text x="2103" y="9994" font-family="Times" font-style="Roman" font-size="225" fill="black" text-anchor="middle">0</text>
<text x="2103" y="9769" font-family="Times" font-style="Roman" font-size="225" fill="black" text-anchor="middle">[0]</text>
<text x="2103" y="9544" font-family="Times" font-style="Roman" font-size="225" fill="black" text-anchor="middle">webServerEnd</text>
<line x1="2102.5" y1="7200" x2="2102.5" y2="7450" stroke="Orange" stroke-width="25"/>
<polygon fill="Orange" stroke="Orange" stroke-width="25" points="2102.5,7450 2152.5,7300 2102.5,7325 2052.5,7300 "/>
<circle cx="2103" cy="8975" r="150"  fill="#fff2e5" stroke="Orange" stroke-width="25"/>
<text x="2103" y="9050" font-family="Times" font-style="Roman" font-size="225" fill="Orange" text-anchor="middle">+</text>
<line x1="1502.5" y1="8625" x2="1972.93" y2="8899.42" stroke="Orange" stroke-width="25"/>
<polygon fill="Orange" stroke="Orange" stroke-width="25" points="1972.93,8899.42 1868.56,8780.65 1864.96,8836.44 1818.17,8867.03 "/>
<line x1="2702.5" y1="8625" x2="2232.07" y2="8899.42" stroke="Orange" stroke-width="25"/>
<polygon fill="Orange" stroke="Orange" stroke-width="25" points="2232.07,8899.42 2386.83,8867.03 2340.04,8836.44 2336.44,8780.65 "/>
<circle cx="2103" cy="7600" r="150"  fill="#fff2e5" stroke="Orange" stroke-width="25"/>
<text x="2103" y="7675" font-family="Times" font-style="Roman" font-size="225" fill="Orange" text-anchor="middle">+</text>
<line x1="1972.93" y1="7675.58" x2="1502.5" y2="7950" stroke="Orange" stroke-width="25"/>
<polygon fill="Orange" stroke="Orange" stroke-width="25" points="1502.5,7950 1657.26,7917.61 1610.47,7887.02 1606.87,7831.23 "/>
<line x1="2232.07" y1="7675.58" x2="2702.5" y2="7950" stroke="Orange" stroke-width="25"/>
<polygon fill="Orange" stroke="Orange" stroke-width="25" points="2702.5,7950 2598.13,7831.23 2594.53,7887.02 2547.74,7917.61 "/>
<line x1="1972.93" y1="7675.58" x2="1502.5" y2="7950" stroke="Orange" stroke-width="25"/>
<polygon fill="Orange" stroke="Orange" stroke-width="25" points="1502.5,7950 1657.26,7917.61 1610.47,7887.02 1606.87,7831.23 "/>
<line x1="2232.07" y1="7675.58" x2="2702.5" y2="7950" stroke="Orange" stroke-width="25"/>
<polygon fill="Orange" stroke="Orange" stroke-width="25" points="2702.5,7950 2598.13,7831.23 2594.53,7887.02 2547.74,7917.61 "/>
<text x="1546" y="7877" font-family="Times" font-style="Roman" font-size="225" fill="black" text-anchor="middle">0.9</text>
<text x="2659" y="7877" font-family="Times" font-style="Roman" font-size="225" fill="black" text-anchor="middle">0.1</text>
<line x1="2102.5" y1="9125" x2="2102.5" y2="9375" stroke="Orange" stroke-width="25"/>
<polygon fill="Orange" stroke="Orange" stroke-width="25" points="2102.5,9375 2152.5,9225 2102.5,9250 2052.5,9225 "/>
<!-- Call WebServer WSP -->
<line x1="2083.75" y1="10300" x2="2083.75" y2="11650" stroke="Red" stroke-width="25"/>
<polygon fill="Red" stroke="Red" stroke-width="25" points="2083.75,11650 2133.75,11500 2083.75,11525 2033.75,11500 "/>
<!-- Processor WSP FCFS -->
<circle cx="2084" cy="12213" r="563"  fill="#ffe5e5" stroke="Red" stroke-width="25"/>
<text x="2084" y="12400" font-family="Times" font-style="Roman" font-size="225" fill="black" text-anchor="middle">&#0961;=0.951</text>
<text x="2084" y="12175" font-family="Times" font-style="Roman" font-size="225" fill="black" text-anchor="middle">WSP</text>
</svg>
