<?xml version="1.0" standalone="no"?>
<!DOCTYPE svg PUBLIC "-//W3C//DTD SVG 20000303 Stylable//EN"
"http://www.w3.org/TR/2000/03/WD-SVG-20000303/DTD/svg-20000303-stylable.dtd">
<!-- Title: CGIP.lqn -->
<!-- Creator: lqn2ps Version 5.26 -->
<!-- Sat Apr 16 15:39:33 2022 -->
<!-- For: Haomi -->
<!-- Invoked as: lqn2ps -Osvg -Lprocessor CGIP.lqn -->
<svg xmlns="http://www.w3.org/2000/svg" width="12.625in" height="14.5736in" viewBox="0 0 22725 26233">
<desc>0x11d0be0</desc>
<polygon  stroke-dasharray="100,75" fill="#ffffff" stroke="black" stroke-width="25" points="337.5,18357.5 337.5,12962.5 3830,12962.5 3830,18357.5 337.5,18357.5 "/>
<text x="2084" y="18316" font-family="Times" font-style="Roman" font-size="225" fill="black" text-anchor="middle">CGIP</text>
<polygon  stroke-dasharray="100,75" fill="#ffffff" stroke="black" stroke-width="25" points="4037.5,23307.5 4037.5,21687.5 6490,21687.5 6490,23307.5 4037.5,23307.5 "/>
<text x="5264" y="23266" font-family="Times" font-style="Roman" font-size="225" fill="black" text-anchor="middle">DBDisk</text>
<polygon  stroke-dasharray="100,75" fill="#ffffff" stroke="black" stroke-width="25" points="6712.5,20832.5 6712.5,19212.5 9165,19212.5 9165,20832.5 6712.5,20832.5 "/>
<text x="7939" y="20791" font-family="Times" font-style="Roman" font-size="225" fill="black" text-anchor="middle">DBP {$DBPThread}</text>
<polygon  stroke-dasharray="100,75" fill="#ffffff" stroke="black" stroke-width="25" points="9387.5,4432.5 9387.5,2812.5 11412.5,2812.5 11412.5,4432.5 9387.5,4432.5 "/>
<text x="10400" y="4391" font-family="Times" font-style="Roman" font-size="225" fill="black" text-anchor="middle">ProtocolP1 {$ProtP1Thread}</text>
<polygon  stroke-dasharray="100,75" fill="#ffffff" stroke="black" stroke-width="25" points="11637.5,23307.5 11637.5,21687.5 13662.5,21687.5 13662.5,23307.5 11637.5,23307.5 "/>
<text x="12650" y="23266" font-family="Times" font-style="Roman" font-size="225" fill="black" text-anchor="middle">ProtocolP2 {$ProtP2Thread}</text>
<polygon  stroke-dasharray="100,75" fill="#ffffff" stroke="black" stroke-width="25" points="13887.5,1957.5 13887.5,337.5 15912.5,337.5 15912.5,1957.5 13887.5,1957.5 "/>
<text x="14900" y="1916" font-family="Times" font-style="Roman" font-size="225" fill="black" text-anchor="middle">UP {&#8734;}</text>
<polygon  stroke-dasharray="100,75" fill="#ffffff" stroke="black" stroke-width="25" points="16137.5,25782.5 16137.5,24162.5 18162.5,24162.5 18162.5,25782.5 16137.5,25782.5 "/>
<text x="17150" y="25741" font-family="Times" font-style="Roman" font-size="225" fill="black" text-anchor="middle">WSDisk</text>
<polygon  stroke-dasharray="100,75" fill="#ffffff" stroke="black" stroke-width="25" points="18387.5,23307.5 18387.5,5287.5 22165,5287.5 22165,23307.5 18387.5,23307.5 "/>
<text x="20276" y="23266" font-family="Times" font-style="Roman" font-size="225" fill="black" text-anchor="middle">WSP {$WSPThread}</text>
<!-- Task Userr  user -1 UP -->
<polygon  fill="#ffffff" stroke="black" stroke-width="25" points="14162.5,500 15850,500 15737.5,1625 14050,1625 "/>
<polygon  fill="#ffffff" stroke="black" stroke-width="25" points="14112.5,450 15800,450 15687.5,1575 14000,1575 "/>
<text x="14900" y="1444" font-family="Times" font-style="Roman" font-size="225" fill="black" text-anchor="middle">User {$N}</text>
<!-- Entry user s [0] -->
<polyline  stroke="black" stroke-width="25" fill="none" points="14427.5,450 14360,1125 15417.5,1125 15485,450 "/>
<text x="14923" y="975" font-family="Times" font-style="Roman" font-size="225" fill="black" text-anchor="middle">[0]</text>
<text x="14923" y="750" font-family="Times" font-style="Roman" font-size="225" fill="black" text-anchor="middle">user</text>
<!-- Call user protocol y (1) -->
<line x1="14922.5" y1="1125" x2="10422.5" y2="2925" stroke="black" stroke-width="25"/>
<polygon fill="black" stroke="black" stroke-width="25" points="10422.5,2925 10580.3,2915.72 10538.6,2878.58 10543.2,2822.87 "/>
<text x="11548" y="2569" font-family="Times" font-style="Roman" font-size="225" fill="black" text-anchor="middle">(1)</text>
<!-- Task Protocoln  protocol -1 ProtocolP1 -->
<polygon  fill="#ffffff" stroke="black" stroke-width="25" points="9662.5,2975 11350,2975 11237.5,4100 9550,4100 "/>
<polygon  fill="#ffffff" stroke="black" stroke-width="25" points="9612.5,2925 11300,2925 11187.5,4050 9500,4050 "/>
<text x="10400" y="3919" font-family="Times" font-style="Roman" font-size="225" fill="black" text-anchor="middle">Protocol {$ProtThread}</text>
<!-- Entry protocol s [0.25] -->
<polyline  stroke="black" stroke-width="25" fill="none" points="9927.5,2925 9860,3600 10917.5,3600 10985,2925 "/>
<text x="10423" y="3450" font-family="Times" font-style="Roman" font-size="225" fill="black" text-anchor="middle">[0.25]</text>
<text x="10423" y="3225" font-family="Times" font-style="Roman" font-size="225" fill="black" text-anchor="middle">protocol</text>
<!-- Call protocol webServer y (1) -->
<line x1="10422.5" y1="3600" x2="20558.8" y2="5400" stroke="black" stroke-width="25"/>
<polygon fill="black" stroke="black" stroke-width="25" points="20558.8,5400 20419.8,5324.54 20435.7,5378.14 20402.3,5423 "/>
<text x="18025" y="5044" font-family="Times" font-style="Roman" font-size="225" fill="black" text-anchor="middle">(1)</text>
<!-- Task WebServern  webServer -1 WSP -->
<polygon  fill="#ffffff" stroke="black" stroke-width="25" points="19182.5,5450 22102.5,5450 21470,11775 18550,11775 "/>
<polygon  fill="#ffffff" stroke="black" stroke-width="25" points="19132.5,5400 22052.5,5400 21420,11725 18500,11725 "/>
<text x="20276" y="6419" font-family="Times" font-style="Roman" font-size="225" fill="black" text-anchor="middle">WebServer {$WSThread}</text>
<!-- Entry webServer A analyze -->
<polyline  stroke="black" stroke-width="25" fill="none" points="20063.8,5400 19996.2,6075 21053.8,6075 21121.2,5400 "/>
<text x="20559" y="5831" font-family="Times" font-style="Roman" font-size="225" fill="black" text-anchor="middle">webServer</text>
<line x1="20558.8" y1="6075" x2="20295" y2="6525" stroke="black" stroke-width="25"/>
<polygon fill="black" stroke="black" stroke-width="25" points="20295,6525 20414,6420.87 20358.2,6417.16 20327.7,6370.31 "/>
<!-- Call webServerEnd webServer -->
<line x1="20557.5" y1="10800" x2="20840" y2="6075" stroke-dasharray="75" stroke="black" stroke-width="25"/>
<polygon fill="black" stroke="black" stroke-width="25" points="20840,6075 20781.1,6221.75 20832.5,6199.78 20881,6227.72 "/>
<!-- Activity analyze s [1] level=1 -->
<polygon  fill="#ffffff" stroke="black" stroke-width="25" points="19770,7200 19770,6525 20820,6525 20820,7200 19770,7200 "/>
<text x="20295" y="7050" font-family="Times" font-style="Roman" font-size="225" fill="black" text-anchor="middle">[1]</text>
<text x="20295" y="6825" font-family="Times" font-style="Roman" font-size="225" fill="black" text-anchor="middle">analyze</text>
<!-- Activity cache s [1] level=2 -->
<polygon  fill="#ffffff" stroke="black" stroke-width="25" points="19170,8625 19170,7950 20220,7950 20220,8625 19170,8625 "/>
<text x="19695" y="8475" font-family="Times" font-style="Roman" font-size="225" fill="black" text-anchor="middle">[1]</text>
<text x="19695" y="8250" font-family="Times" font-style="Roman" font-size="225" fill="black" text-anchor="middle">cache</text>
<!-- Activity cacheEnd level=3 -->
<polygon  fill="#ffffff" stroke="black" stroke-width="25" points="19170,10050 19170,9375 20220,9375 20220,10050 19170,10050 "/>
<!-- Call cacheEnd sendStatic y (1) -->
<line x1="19957.5" y1="10050" x2="20827.5" y2="19325" stroke="black" stroke-width="25"/>
<polygon fill="black" stroke="black" stroke-width="25" points="20827.5,19325 20863.3,19171 20815.8,19200.5 20763.7,19180.3 "/>
<text x="20743" y="18519" font-family="Times" font-style="Roman" font-size="225" fill="black" text-anchor="middle">(1)</text>
<text x="19695" y="9806" font-family="Times" font-style="Roman" font-size="225" fill="black" text-anchor="middle">cacheEnd</text>
<!-- Activity cgiDrive level=2 -->
<polygon  fill="#ffffff" stroke="black" stroke-width="25" points="20370,8625 20370,7950 21420,7950 21420,8625 20370,8625 "/>
<!-- Call cgiDrive cgiApp y (1) -->
<line x1="20632.5" y1="8625" x2="2295" y2="13075" stroke="black" stroke-width="25"/>
<polygon fill="black" stroke="black" stroke-width="25" points="2295,13075 2452.56,13088.2 2416.47,13045.5 2428.98,12991 "/>
<text x="4149" y="12719" font-family="Times" font-style="Roman" font-size="225" fill="black" text-anchor="middle">(1)</text>
<text x="20895" y="8381" font-family="Times" font-style="Roman" font-size="225" fill="black" text-anchor="middle">cgiDrive</text>
<!-- Activity diskFetch s [1] level=3 -->
<polygon  fill="#ffffff" stroke="black" stroke-width="25" points="20370,10050 20370,9375 21420,9375 21420,10050 20370,10050 "/>
<!-- Call diskFetch webRorW y (3) -->
<line x1="20545" y1="10050" x2="17360" y2="24275" stroke="black" stroke-width="25"/>
<polygon fill="black" stroke="black" stroke-width="25" points="17360,24275 17441.6,24139.5 17387.3,24153 17344,24117.7 "/>
<text x="17562" y="23469" font-family="Times" font-style="Roman" font-size="225" fill="black" text-anchor="middle">(3)</text>
<!-- Call diskFetch sendStatic y (1) -->
<line x1="20720" y1="10050" x2="21108.8" y2="19325" stroke="black" stroke-width="25"/>
<polygon fill="black" stroke="black" stroke-width="25" points="21108.8,19325 21152.4,19173 21103.5,19200.1 21052.5,19177.2 "/>
<text x="21090" y="18969" font-family="Times" font-style="Roman" font-size="225" fill="black" text-anchor="middle">(1)</text>
<text x="20895" y="9900" font-family="Times" font-style="Roman" font-size="225" fill="black" text-anchor="middle">[1]</text>
<text x="20895" y="9675" font-family="Times" font-style="Roman" font-size="225" fill="black" text-anchor="middle">diskFetch</text>
<!-- Activity webServerEnd level=4 -->
<polygon  fill="#ffffff" stroke="black" stroke-width="25" points="19770,11475 19770,10800 20820,10800 20820,11475 19770,11475 "/>
<text x="20295" y="11231" font-family="Times" font-style="Roman" font-size="225" fill="black" text-anchor="middle">webServerEnd</text>
<line x1="20295" y1="7200" x2="20295" y2="7450" stroke="black" stroke-width="25"/>
<polygon fill="black" stroke="black" stroke-width="25" points="20295,7450 20345,7300 20295,7325 20245,7300 "/>
<line x1="19695" y1="8625" x2="20295" y2="8875" stroke="black" stroke-width="25"/>
<polygon fill="black" stroke="black" stroke-width="25" points="20295,8875 20175.8,8771.15 20179.6,8826.92 20137.3,8863.46 "/>
<circle cx="20295" cy="7600" r="150"  fill="#ffffff" stroke="black" stroke-width="25"/>
<text x="20295" y="7675" font-family="Times" font-style="Roman" font-size="225" fill="black" text-anchor="middle">+</text>
<line x1="20165.4" y1="7675.58" x2="19695" y2="7950" stroke="black" stroke-width="25"/>
<polygon fill="black" stroke="black" stroke-width="25" points="19695,7950 19849.8,7917.61 19803,7887.02 19799.4,7831.23 "/>
<line x1="20424.6" y1="7675.58" x2="20895" y2="7950" stroke="black" stroke-width="25"/>
<polygon fill="black" stroke="black" stroke-width="25" points="20895,7950 20790.6,7831.23 20787,7887.02 20740.2,7917.61 "/>
<line x1="20165.4" y1="7675.58" x2="19695" y2="7950" stroke="black" stroke-width="25"/>
<polygon fill="black" stroke="black" stroke-width="25" points="19695,7950 19849.8,7917.61 19803,7887.02 19799.4,7831.23 "/>
<line x1="20424.6" y1="7675.58" x2="20895" y2="7950" stroke="black" stroke-width="25"/>
<polygon fill="black" stroke="black" stroke-width="25" points="20895,7950 20790.6,7831.23 20787,7887.02 20740.2,7917.61 "/>
<text x="19738" y="7877" font-family="Times" font-style="Roman" font-size="225" fill="black" text-anchor="middle">0.9</text>
<text x="20852" y="7877" font-family="Times" font-style="Roman" font-size="225" fill="black" text-anchor="middle">0.1</text>
<circle cx="20295" cy="10400" r="150"  fill="#ffffff" stroke="black" stroke-width="25"/>
<text x="20295" y="10475" font-family="Times" font-style="Roman" font-size="225" fill="black" text-anchor="middle">+</text>
<line x1="19695" y1="10050" x2="20165.4" y2="10324.4" stroke="black" stroke-width="25"/>
<polygon fill="black" stroke="black" stroke-width="25" points="20165.4,10324.4 20061.1,10205.6 20057.5,10261.4 20010.7,10292 "/>
<line x1="20895" y1="8625" x2="20343" y2="10257.9" stroke="black" stroke-width="25"/>
<polygon fill="black" stroke="black" stroke-width="25" points="20343,10257.9 20438.4,10131.8 20383.1,10139.5 20343.7,10099.8 "/>
<line x1="20895" y1="10050" x2="20424.6" y2="10324.4" stroke="black" stroke-width="25"/>
<polygon fill="black" stroke="black" stroke-width="25" points="20424.6,10324.4 20579.3,10292 20532.5,10261.4 20528.9,10205.6 "/>
<circle cx="20295" cy="9025" r="150"  fill="#ffffff" stroke="black" stroke-width="25"/>
<text x="20295" y="9100" font-family="Times" font-style="Roman" font-size="225" fill="black" text-anchor="middle">+</text>
<line x1="20165.4" y1="9100.58" x2="19695" y2="9375" stroke="black" stroke-width="25"/>
<polygon fill="black" stroke="black" stroke-width="25" points="19695,9375 19849.8,9342.61 19803,9312.02 19799.4,9256.23 "/>
<line x1="20424.6" y1="9100.58" x2="20895" y2="9375" stroke="black" stroke-width="25"/>
<polygon fill="black" stroke="black" stroke-width="25" points="20895,9375 20790.6,9256.23 20787,9312.02 20740.2,9342.61 "/>
<line x1="20165.4" y1="9100.58" x2="19695" y2="9375" stroke="black" stroke-width="25"/>
<polygon fill="black" stroke="black" stroke-width="25" points="19695,9375 19849.8,9342.61 19803,9312.02 19799.4,9256.23 "/>
<line x1="20424.6" y1="9100.58" x2="20895" y2="9375" stroke="black" stroke-width="25"/>
<polygon fill="black" stroke="black" stroke-width="25" points="20895,9375 20790.6,9256.23 20787,9312.02 20740.2,9342.61 "/>
<text x="19738" y="9302" font-family="Times" font-style="Roman" font-size="225" fill="black" text-anchor="middle">0.7</text>
<text x="20852" y="9302" font-family="Times" font-style="Roman" font-size="225" fill="black" text-anchor="middle">0.3</text>
<line x1="20295" y1="10550" x2="20295" y2="10800" stroke="black" stroke-width="25"/>
<polygon fill="black" stroke="black" stroke-width="25" points="20295,10800 20345,10650 20295,10675 20245,10650 "/>
<!-- Task CGIAppn  cgiApp -1 CGIP -->
<polygon  fill="#ffffff" stroke="black" stroke-width="25" points="990,13125 3767.5,13125 3277.5,18025 500,18025 "/>
<polygon  fill="#ffffff" stroke="black" stroke-width="25" points="940,13075 3717.5,13075 3227.5,17975 450,17975 "/>
<text x="2084" y="14094" font-family="Times" font-style="Roman" font-size="225" fill="black" text-anchor="middle">CGIApp {$CGIAppThread}</text>
<!-- Entry cgiApp A cgiStart -->
<polyline  stroke="black" stroke-width="25" fill="none" points="1800,13075 1732.5,13750 2790,13750 2857.5,13075 "/>
<text x="2295" y="13506" font-family="Times" font-style="Roman" font-size="225" fill="black" text-anchor="middle">cgiApp</text>
<line x1="2295" y1="13750" x2="2102.5" y2="14200" stroke="black" stroke-width="25"/>
<polygon fill="black" stroke="black" stroke-width="25" points="2102.5,14200 2207.47,14081.8 2151.66,14085.1 2115.52,14042.4 "/>
<!-- Call cgiAppEnd cgiApp -->
<line x1="2365" y1="17050" x2="2576.25" y2="13750" stroke-dasharray="75" stroke="black" stroke-width="25"/>
<polygon fill="black" stroke="black" stroke-width="25" points="2576.25,13750 2516.77,13896.5 2568.26,13874.7 2616.57,13902.9 "/>
<!-- Activity cdPage s [5] level=2 -->
<polygon  fill="#ffffff" stroke="black" stroke-width="25" points="977.5,16300 977.5,15625 2027.5,15625 2027.5,16300 977.5,16300 "/>
<!-- Call cdPage dbRead y (4.3) -->
<line x1="1677.5" y1="16300" x2="7432.5" y2="19325" stroke="black" stroke-width="25"/>
<polygon fill="black" stroke="black" stroke-width="25" points="7432.5,19325 7322.99,19211 7321.85,19266.8 7276.46,19299.5 "/>
<text x="6576" y="18969" font-family="Times" font-style="Roman" font-size="225" fill="black" text-anchor="middle">(4.3)</text>
<!-- Call cdPage sendDynamic y (1) -->
<line x1="1852.5" y1="16300" x2="19770" y2="19325" stroke="black" stroke-width="25"/>
<polygon fill="black" stroke="black" stroke-width="25" points="19770,19325 19630.4,19250.7 19646.7,19304.2 19613.8,19349.3 "/>
<text x="17105" y="18969" font-family="Times" font-style="Roman" font-size="225" fill="black" text-anchor="middle">(1)</text>
<text x="1503" y="16150" font-family="Times" font-style="Roman" font-size="225" fill="black" text-anchor="middle">[5]</text>
<text x="1503" y="15925" font-family="Times" font-style="Roman" font-size="225" fill="black" text-anchor="middle">cdPage</text>
<!-- Activity cgiAppEnd level=3 -->
<polygon  fill="#ffffff" stroke="black" stroke-width="25" points="1577.5,17725 1577.5,17050 2627.5,17050 2627.5,17725 1577.5,17725 "/>
<text x="2103" y="17481" font-family="Times" font-style="Roman" font-size="225" fill="black" text-anchor="middle">cgiAppEnd</text>
<!-- Activity cgiStart level=1 -->
<polygon  fill="#ffffff" stroke="black" stroke-width="25" points="1577.5,14875 1577.5,14200 2627.5,14200 2627.5,14875 1577.5,14875 "/>
<text x="2103" y="14631" font-family="Times" font-style="Roman" font-size="225" fill="black" text-anchor="middle">cgiStart</text>
<!-- Activity procData s [15] level=2 -->
<polygon  fill="#ffffff" stroke="black" stroke-width="25" points="2177.5,16300 2177.5,15625 3227.5,15625 3227.5,16300 2177.5,16300 "/>
<!-- Call procData dbUpdate y (1.7) -->
<line x1="2877.5" y1="16300" x2="8490" y2="19325" stroke="black" stroke-width="25"/>
<polygon fill="black" stroke="black" stroke-width="25" points="8490,19325 8381.68,19209.8 8379.96,19265.7 8334.24,19297.8 "/>
<text x="7655" y="18969" font-family="Times" font-style="Roman" font-size="225" fill="black" text-anchor="middle">(1.7)</text>
<!-- Call procData sendStatic y (1) -->
<line x1="3052.5" y1="16300" x2="20546.2" y2="19325" stroke="black" stroke-width="25"/>
<polygon fill="black" stroke="black" stroke-width="25" points="20546.2,19325 20407,19250.2 20423.1,19303.7 20389.9,19348.7 "/>
<text x="17944" y="18969" font-family="Times" font-style="Roman" font-size="225" fill="black" text-anchor="middle">(1)</text>
<text x="2703" y="16150" font-family="Times" font-style="Roman" font-size="225" fill="black" text-anchor="middle">[15]</text>
<text x="2703" y="15925" font-family="Times" font-style="Roman" font-size="225" fill="black" text-anchor="middle">procData</text>
<circle cx="2103" cy="16650" r="150"  fill="#ffffff" stroke="black" stroke-width="25"/>
<text x="2103" y="16725" font-family="Times" font-style="Roman" font-size="225" fill="black" text-anchor="middle">+</text>
<line x1="1502.5" y1="16300" x2="1972.93" y2="16574.4" stroke="black" stroke-width="25"/>
<polygon fill="black" stroke="black" stroke-width="25" points="1972.93,16574.4 1868.56,16455.6 1864.96,16511.4 1818.17,16542 "/>
<line x1="2702.5" y1="16300" x2="2232.07" y2="16574.4" stroke="black" stroke-width="25"/>
<polygon fill="black" stroke="black" stroke-width="25" points="2232.07,16574.4 2386.83,16542 2340.04,16511.4 2336.44,16455.6 "/>
<circle cx="2103" cy="15275" r="150"  fill="#ffffff" stroke="black" stroke-width="25"/>
<text x="2103" y="15350" font-family="Times" font-style="Roman" font-size="225" fill="black" text-anchor="middle">+</text>
<line x1="1972.93" y1="15350.6" x2="1502.5" y2="15625" stroke="black" stroke-width="25"/>
<polygon fill="black" stroke="black" stroke-width="25" points="1502.5,15625 1657.26,15592.6 1610.47,15562 1606.87,15506.2 "/>
<line x1="2232.07" y1="15350.6" x2="2702.5" y2="15625" stroke="black" stroke-width="25"/>
<polygon fill="black" stroke="black" stroke-width="25" points="2702.5,15625 2598.13,15506.2 2594.53,15562 2547.74,15592.6 "/>
<line x1="1972.93" y1="15350.6" x2="1502.5" y2="15625" stroke="black" stroke-width="25"/>
<polygon fill="black" stroke="black" stroke-width="25" points="1502.5,15625 1657.26,15592.6 1610.47,15562 1606.87,15506.2 "/>
<line x1="2232.07" y1="15350.6" x2="2702.5" y2="15625" stroke="black" stroke-width="25"/>
<polygon fill="black" stroke="black" stroke-width="25" points="2702.5,15625 2598.13,15506.2 2594.53,15562 2547.74,15592.6 "/>
<text x="1546" y="15552" font-family="Times" font-style="Roman" font-size="225" fill="black" text-anchor="middle">0.4</text>
<text x="2659" y="15552" font-family="Times" font-style="Roman" font-size="225" fill="black" text-anchor="middle">0.6</text>
<line x1="2102.5" y1="16800" x2="2102.5" y2="17050" stroke="black" stroke-width="25"/>
<polygon fill="black" stroke="black" stroke-width="25" points="2102.5,17050 2152.5,16900 2102.5,16925 2052.5,16900 "/>
<line x1="2102.5" y1="14875" x2="2102.5" y2="15125" stroke="black" stroke-width="25"/>
<polygon fill="black" stroke="black" stroke-width="25" points="2102.5,15125 2152.5,14975 2102.5,15000 2052.5,14975 "/>
<!-- Task DBProcessn  dbUpdate dbRead -1 DBP -->
<polygon  fill="#ffffff" stroke="black" stroke-width="25" points="6987.5,19375 9102.5,19375 8990,20500 6875,20500 "/>
<polygon  fill="#ffffff" stroke="black" stroke-width="25" points="6937.5,19325 9052.5,19325 8940,20450 6825,20450 "/>
<text x="7939" y="20319" font-family="Times" font-style="Roman" font-size="225" fill="black" text-anchor="middle">DBProcess {$DBProcessThread}</text>
<!-- Entry dbRead s [20] -->
<polyline  stroke="black" stroke-width="25" fill="none" points="6870,20000 7927.5,20000 7995,19325 "/>
<text x="7433" y="19850" font-family="Times" font-style="Roman" font-size="225" fill="black" text-anchor="middle">[20]</text>
<text x="7433" y="19625" font-family="Times" font-style="Roman" font-size="225" fill="black" text-anchor="middle">dbRead</text>
<!-- Call dbRead read y (4) -->
<line x1="7432.5" y1="20000" x2="4570" y2="21800" stroke="black" stroke-width="25"/>
<polygon fill="black" stroke="black" stroke-width="25" points="4570,21800 4723.6,21762.5 4675.82,21733.5 4670.37,21677.8 "/>
<text x="5286" y="21444" font-family="Times" font-style="Roman" font-size="225" fill="black" text-anchor="middle">(4)</text>
<!-- Entry dbUpdate s [30] -->
<line x1="7927.5" y1="20000" x2="8985" y2="20000" stroke="black" stroke-width="25"/>
<text x="8490" y="19850" font-family="Times" font-style="Roman" font-size="225" fill="black" text-anchor="middle">[30]</text>
<text x="8490" y="19625" font-family="Times" font-style="Roman" font-size="225" fill="black" text-anchor="middle">dbUpdate</text>
<!-- Call dbUpdate read y (2) -->
<line x1="8302.5" y1="20000" x2="4945" y2="21800" stroke="black" stroke-width="25"/>
<polygon fill="black" stroke="black" stroke-width="25" points="4945,21800 5100.82,21773.2 5055.17,21740.9 5053.58,21685.1 "/>
<text x="6624" y="20994" font-family="Times" font-style="Roman" font-size="225" fill="black" text-anchor="middle">(2)</text>
<!-- Call dbUpdate write y (4) -->
<line x1="8677.5" y1="20000" x2="5815" y2="21800" stroke="black" stroke-width="25"/>
<polygon fill="black" stroke="black" stroke-width="25" points="5815,21800 5968.6,21762.5 5920.82,21733.5 5915.37,21677.8 "/>
<text x="6531" y="21444" font-family="Times" font-style="Roman" font-size="225" fill="black" text-anchor="middle">(4)</text>
<!-- Task WebReplyn  sendStatic sendDynamic -1 WSP -->
<polygon  fill="#ffffff" stroke="black" stroke-width="25" points="19325,19375 21440,19375 21327.5,20500 19212.5,20500 "/>
<polygon  fill="#ffffff" stroke="black" stroke-width="25" points="19275,19325 21390,19325 21277.5,20450 19162.5,20450 "/>
<text x="20276" y="20319" font-family="Times" font-style="Roman" font-size="225" fill="black" text-anchor="middle">WebReply {$WReplyThread}</text>
<!-- Entry sendDynamic s [0.8] -->
<polyline  stroke="black" stroke-width="25" fill="none" points="19207.5,20000 20265,20000 20332.5,19325 "/>
<text x="19770" y="19850" font-family="Times" font-style="Roman" font-size="225" fill="black" text-anchor="middle">[0.8]</text>
<text x="19770" y="19625" font-family="Times" font-style="Roman" font-size="225" fill="black" text-anchor="middle">sendDynamic</text>
<!-- Call sendDynamic packet y (40) -->
<line x1="19582.5" y1="20000" x2="12485" y2="21800" stroke="black" stroke-width="25"/>
<polygon fill="black" stroke="black" stroke-width="25" points="12485,21800 12642.7,21811.6 12606.2,21769.3 12618.1,21714.7 "/>
<text x="14259" y="21444" font-family="Times" font-style="Roman" font-size="225" fill="black" text-anchor="middle">(40)</text>
<!-- Call sendDynamic getObjects y (8) -->
<line x1="19957.5" y1="20000" x2="20298.8" y2="21800" stroke="black" stroke-width="25"/>
<polygon fill="black" stroke="black" stroke-width="25" points="20298.8,21800 20319.9,21643.3 20275.5,21677.2 20221.7,21661.9 "/>
<text x="20213" y="21444" font-family="Times" font-style="Roman" font-size="225" fill="black" text-anchor="middle">(8)</text>
<!-- Entry sendStatic s [0.8] -->
<line x1="20265" y1="20000" x2="21322.5" y2="20000" stroke="black" stroke-width="25"/>
<text x="20828" y="19850" font-family="Times" font-style="Roman" font-size="225" fill="black" text-anchor="middle">[0.8]</text>
<text x="20828" y="19625" font-family="Times" font-style="Roman" font-size="225" fill="black" text-anchor="middle">sendStatic</text>
<!-- Call sendStatic packet y (16) -->
<line x1="20827.5" y1="20000" x2="12860" y2="21800" stroke="black" stroke-width="25"/>
<polygon fill="black" stroke="black" stroke-width="25" points="12860,21800 13017.3,21815.7 12981.9,21772.5 12995.3,21718.2 "/>
<text x="16844" y="20994" font-family="Times" font-style="Roman" font-size="225" fill="black" text-anchor="middle">(16)</text>
<!-- Task DBOperationn  write read -1 DBDisk -->
<polygon  fill="#ffffff" stroke="black" stroke-width="25" points="4262.5,21800 6377.5,21800 6265,22925 4150,22925 "/>
<text x="5264" y="22794" font-family="Times" font-style="Roman" font-size="225" fill="black" text-anchor="middle">DBOperation</text>
<!-- Entry read s [0.1] -->
<polyline  stroke="black" stroke-width="25" fill="none" points="4195,22475 5252.5,22475 5320,21800 "/>
<text x="4758" y="22325" font-family="Times" font-style="Roman" font-size="225" fill="black" text-anchor="middle">[0.1]</text>
<text x="4758" y="22100" font-family="Times" font-style="Roman" font-size="225" fill="black" text-anchor="middle">read</text>
<!-- Entry write s [0.1] -->
<line x1="5252.5" y1="22475" x2="6310" y2="22475" stroke="black" stroke-width="25"/>
<text x="5815" y="22325" font-family="Times" font-style="Roman" font-size="225" fill="black" text-anchor="middle">[0.1]</text>
<text x="5815" y="22100" font-family="Times" font-style="Roman" font-size="225" fill="black" text-anchor="middle">write</text>
<!-- Task ProtocolReplyn  packet -1 ProtocolP2 -->
<polygon  fill="#ffffff" stroke="black" stroke-width="25" points="11912.5,21850 13600,21850 13487.5,22975 11800,22975 "/>
<polygon  fill="#ffffff" stroke="black" stroke-width="25" points="11862.5,21800 13550,21800 13437.5,22925 11750,22925 "/>
<text x="12650" y="22794" font-family="Times" font-style="Roman" font-size="225" fill="black" text-anchor="middle">ProtocolReply {$PRThread}</text>
<!-- Entry packet s [0.25] -->
<polyline  stroke="black" stroke-width="25" fill="none" points="12177.5,21800 12110,22475 13167.5,22475 13235,21800 "/>
<text x="12673" y="22325" font-family="Times" font-style="Roman" font-size="225" fill="black" text-anchor="middle">[0.25]</text>
<text x="12673" y="22100" font-family="Times" font-style="Roman" font-size="225" fill="black" text-anchor="middle">packet</text>
<!-- Task GetObjectsn  getObjects -1 WSP -->
<polygon  fill="#ffffff" stroke="black" stroke-width="25" points="19488.8,21800 21176.2,21800 21063.8,22925 19376.2,22925 "/>
<text x="20276" y="22794" font-family="Times" font-style="Roman" font-size="225" fill="black" text-anchor="middle">GetObjects</text>
<!-- Entry getObjects s [1] -->
<polyline  stroke="black" stroke-width="25" fill="none" points="19803.8,21800 19736.2,22475 20793.8,22475 20861.2,21800 "/>
<text x="20299" y="22325" font-family="Times" font-style="Roman" font-size="225" fill="black" text-anchor="middle">[1]</text>
<text x="20299" y="22100" font-family="Times" font-style="Roman" font-size="225" fill="black" text-anchor="middle">getObjects</text>
<!-- Call getObjects webRorW y (0.2) -->
<line x1="20298.8" y1="22475" x2="16985" y2="24275" stroke="black" stroke-width="25"/>
<polygon fill="black" stroke="black" stroke-width="25" points="16985,24275 17140.7,24247.3 17094.8,24215.3 17092.9,24159.5 "/>
<text x="17813" y="23919" font-family="Times" font-style="Roman" font-size="225" fill="black" text-anchor="middle">(0.2)</text>
<!-- Task WebDiskn  webRorW -1 WSDisk -->
<polygon  fill="#ffffff" stroke="black" stroke-width="25" points="16362.5,24275 18050,24275 17937.5,25400 16250,25400 "/>
<text x="17150" y="25269" font-family="Times" font-style="Roman" font-size="225" fill="black" text-anchor="middle">WebDisk</text>
<!-- Entry webRorW s [0.1] -->
<polyline  stroke="black" stroke-width="25" fill="none" points="16677.5,24275 16610,24950 17667.5,24950 17735,24275 "/>
<text x="17173" y="24800" font-family="Times" font-style="Roman" font-size="225" fill="black" text-anchor="middle">[0.1]</text>
<text x="17173" y="24575" font-family="Times" font-style="Roman" font-size="225" fill="black" text-anchor="middle">webRorW</text>
</svg>
