<?xml version="1.0" standalone="no"?>
<!DOCTYPE svg PUBLIC "-//W3C//DTD SVG 20000303 Stylable//EN"
"http://www.w3.org/TR/2000/03/WD-SVG-20000303/DTD/svg-20000303-stylable.dtd">
<!-- Title: webServerEnd.lqn -->
<!-- Creator: lqn2ps Version 5.25 -->
<!-- Mon Apr 11 21:16:24 2022 -->
<!-- For: Haomi -->
<!-- Invoked as: lqn2ps -Osvg webServerEnd.lqn -->
<svg xmlns="http://www.w3.org/2000/svg" width="2.47361in" height="8.13889in" viewBox="0 0 4453 14650">
<desc>0x1919ab8</desc>
<!-- Task Userr  user -1 UserP -->
<polygon  fill="#ffffff" stroke="black" stroke-width="25" points="1488.75,500 3176.25,500 3063.75,1625 1376.25,1625 "/>
<polygon  fill="#ffffff" stroke="black" stroke-width="25" points="1438.75,450 3126.25,450 3013.75,1575 1326.25,1575 "/>
<text x="2226" y="1444" font-family="Times" font-style="Roman" font-size="225" fill="black" text-anchor="middle">User {$N}</text>
<!-- Entry user s [0] -->
<polyline  stroke="black" stroke-width="25" fill="none" points="1753.75,450 1686.25,1125 2743.75,1125 2811.25,450 "/>
<text x="2249" y="975" font-family="Times" font-style="Roman" font-size="225" fill="black" text-anchor="middle">[0]</text>
<text x="2249" y="750" font-family="Times" font-style="Roman" font-size="225" fill="black" text-anchor="middle">user</text>
<!-- Call user protocol y (1) -->
<line x1="2248.75" y1="1125" x2="2248.75" y2="2925" stroke="black" stroke-width="25"/>
<polygon fill="black" stroke="black" stroke-width="25" points="2248.75,2925 2298.75,2775 2248.75,2800 2198.75,2775 "/>
<text x="2249" y="2569" font-family="Times" font-style="Roman" font-size="225" fill="black" text-anchor="middle">(1)</text>
<!-- Task Protocoln  protocol -1 WSP -->
<polygon  fill="#ffffff" stroke="black" stroke-width="25" points="1438.75,2925 3126.25,2925 3013.75,4050 1326.25,4050 "/>
<text x="2226" y="3919" font-family="Times" font-style="Roman" font-size="225" fill="black" text-anchor="middle">Protocol</text>
<!-- Entry protocol s [0.25] -->
<polyline  stroke="black" stroke-width="25" fill="none" points="1753.75,2925 1686.25,3600 2743.75,3600 2811.25,2925 "/>
<text x="2249" y="3450" font-family="Times" font-style="Roman" font-size="225" fill="black" text-anchor="middle">[0.25]</text>
<text x="2249" y="3225" font-family="Times" font-style="Roman" font-size="225" fill="black" text-anchor="middle">protocol</text>
<!-- Call protocol webServer y (1) -->
<line x1="2248.75" y1="3600" x2="2508.75" y2="5400" stroke="black" stroke-width="25"/>
<polygon fill="black" stroke="black" stroke-width="25" points="2508.75,5400 2536.79,5244.39 2490.88,5276.28 2437.82,5258.69 "/>
<text x="2444" y="5044" font-family="Times" font-style="Roman" font-size="225" fill="black" text-anchor="middle">(1)</text>
<!-- Call Protocol WSP -->
<line x1="2226.25" y1="4050" x2="2226.25" y2="13075" stroke="black" stroke-width="25"/>
<polygon fill="black" stroke="black" stroke-width="25" points="2226.25,13075 2276.25,12925 2226.25,12950 2176.25,12925 "/>
<!-- Task WebServern  webServer -1 WSP -->
<polygon  fill="#ffffff" stroke="black" stroke-width="25" points="1082.5,5400 4002.5,5400 3370,11725 450,11725 "/>
<text x="2226" y="6419" font-family="Times" font-style="Roman" font-size="225" fill="black" text-anchor="middle">WebServer</text>
<!-- Entry webServer A analyze -->
<polyline  stroke="black" stroke-width="25" fill="none" points="2013.75,5400 1946.25,6075 3003.75,6075 3071.25,5400 "/>
<text x="2509" y="5831" font-family="Times" font-style="Roman" font-size="225" fill="black" text-anchor="middle">webServer</text>
<line x1="2508.75" y1="6075" x2="2245" y2="6525" stroke="black" stroke-width="25"/>
<polygon fill="black" stroke="black" stroke-width="25" points="2245,6525 2363.99,6420.87 2308.21,6417.16 2277.71,6370.31 "/>
<!-- Call webServerEnd webServer -->
<line x1="2507.5" y1="10800" x2="2790" y2="6075" stroke-dasharray="75" stroke="black" stroke-width="25"/>
<polygon fill="black" stroke="black" stroke-width="25" points="2790,6075 2731.14,6221.75 2782.54,6199.78 2830.96,6227.72 "/>
<!-- Activity analyze s [1] level=1 -->
<polygon  fill="#ffffff" stroke="black" stroke-width="25" points="1720,7200 1720,6525 2770,6525 2770,7200 1720,7200 "/>
<text x="2245" y="7050" font-family="Times" font-style="Roman" font-size="225" fill="black" text-anchor="middle">[1]</text>
<text x="2245" y="6825" font-family="Times" font-style="Roman" font-size="225" fill="black" text-anchor="middle">analyze</text>
<!-- Activity cache s [1] level=2 -->
<polygon  fill="#ffffff" stroke="black" stroke-width="25" points="1120,8625 1120,7950 2170,7950 2170,8625 1120,8625 "/>
<text x="1645" y="8475" font-family="Times" font-style="Roman" font-size="225" fill="black" text-anchor="middle">[1]</text>
<text x="1645" y="8250" font-family="Times" font-style="Roman" font-size="225" fill="black" text-anchor="middle">cache</text>
<!-- Activity cacheEnd level=3 -->
<polygon  fill="#ffffff" stroke="black" stroke-width="25" points="1120,10050 1120,9375 2170,9375 2170,10050 1120,10050 "/>
<text x="1645" y="9806" font-family="Times" font-style="Roman" font-size="225" fill="black" text-anchor="middle">cacheEnd</text>
<!-- Activity cgiDrive level=2 -->
<polygon  fill="#ffffff" stroke="black" stroke-width="25" points="2320,8625 2320,7950 3370,7950 3370,8625 2320,8625 "/>
<text x="2845" y="8381" font-family="Times" font-style="Roman" font-size="225" fill="black" text-anchor="middle">cgiDrive</text>
<!-- Activity diskFetch s [1] level=3 -->
<polygon  fill="#ffffff" stroke="black" stroke-width="25" points="2320,10050 2320,9375 3370,9375 3370,10050 2320,10050 "/>
<text x="2845" y="9900" font-family="Times" font-style="Roman" font-size="225" fill="black" text-anchor="middle">[1]</text>
<text x="2845" y="9675" font-family="Times" font-style="Roman" font-size="225" fill="black" text-anchor="middle">diskFetch</text>
<!-- Activity webServerEnd level=4 -->
<polygon  fill="#ffffff" stroke="black" stroke-width="25" points="1720,11475 1720,10800 2770,10800 2770,11475 1720,11475 "/>
<text x="2245" y="11231" font-family="Times" font-style="Roman" font-size="225" fill="black" text-anchor="middle">webServerEnd</text>
<line x1="2245" y1="7200" x2="2245" y2="7450" stroke="black" stroke-width="25"/>
<polygon fill="black" stroke="black" stroke-width="25" points="2245,7450 2295,7300 2245,7325 2195,7300 "/>
<line x1="1645" y1="8625" x2="2245" y2="8875" stroke="black" stroke-width="25"/>
<polygon fill="black" stroke="black" stroke-width="25" points="2245,8875 2125.77,8771.15 2129.62,8826.92 2087.31,8863.46 "/>
<circle cx="2245" cy="7600" r="150"  fill="#ffffff" stroke="black" stroke-width="25"/>
<text x="2245" y="7675" font-family="Times" font-style="Roman" font-size="225" fill="black" text-anchor="middle">+</text>
<line x1="2115.43" y1="7675.58" x2="1645" y2="7950" stroke="black" stroke-width="25"/>
<polygon fill="black" stroke="black" stroke-width="25" points="1645,7950 1799.76,7917.61 1752.97,7887.02 1749.37,7831.23 "/>
<line x1="2374.57" y1="7675.58" x2="2845" y2="7950" stroke="black" stroke-width="25"/>
<polygon fill="black" stroke="black" stroke-width="25" points="2845,7950 2740.63,7831.23 2737.03,7887.02 2690.24,7917.61 "/>
<line x1="2115.43" y1="7675.58" x2="1645" y2="7950" stroke="black" stroke-width="25"/>
<polygon fill="black" stroke="black" stroke-width="25" points="1645,7950 1799.76,7917.61 1752.97,7887.02 1749.37,7831.23 "/>
<line x1="2374.57" y1="7675.58" x2="2845" y2="7950" stroke="black" stroke-width="25"/>
<polygon fill="black" stroke="black" stroke-width="25" points="2845,7950 2740.63,7831.23 2737.03,7887.02 2690.24,7917.61 "/>
<text x="1688" y="7877" font-family="Times" font-style="Roman" font-size="225" fill="black" text-anchor="middle">0.9</text>
<text x="2802" y="7877" font-family="Times" font-style="Roman" font-size="225" fill="black" text-anchor="middle">0.1</text>
<circle cx="2245" cy="10400" r="150"  fill="#ffffff" stroke="black" stroke-width="25"/>
<text x="2245" y="10475" font-family="Times" font-style="Roman" font-size="225" fill="black" text-anchor="middle">+</text>
<line x1="1645" y1="10050" x2="2115.43" y2="10324.4" stroke="black" stroke-width="25"/>
<polygon fill="black" stroke="black" stroke-width="25" points="2115.43,10324.4 2011.06,10205.6 2007.46,10261.4 1960.67,10292 "/>
<line x1="2845" y1="8625" x2="2293.03" y2="10257.9" stroke="black" stroke-width="25"/>
<polygon fill="black" stroke="black" stroke-width="25" points="2293.03,10257.9 2388.44,10131.8 2333.06,10139.5 2293.7,10099.8 "/>
<line x1="2845" y1="10050" x2="2374.57" y2="10324.4" stroke="black" stroke-width="25"/>
<polygon fill="black" stroke="black" stroke-width="25" points="2374.57,10324.4 2529.33,10292 2482.54,10261.4 2478.94,10205.6 "/>
<circle cx="2245" cy="9025" r="150"  fill="#ffffff" stroke="black" stroke-width="25"/>
<text x="2245" y="9100" font-family="Times" font-style="Roman" font-size="225" fill="black" text-anchor="middle">+</text>
<line x1="2115.43" y1="9100.58" x2="1645" y2="9375" stroke="black" stroke-width="25"/>
<polygon fill="black" stroke="black" stroke-width="25" points="1645,9375 1799.76,9342.61 1752.97,9312.02 1749.37,9256.23 "/>
<line x1="2374.57" y1="9100.58" x2="2845" y2="9375" stroke="black" stroke-width="25"/>
<polygon fill="black" stroke="black" stroke-width="25" points="2845,9375 2740.63,9256.23 2737.03,9312.02 2690.24,9342.61 "/>
<line x1="2115.43" y1="9100.58" x2="1645" y2="9375" stroke="black" stroke-width="25"/>
<polygon fill="black" stroke="black" stroke-width="25" points="1645,9375 1799.76,9342.61 1752.97,9312.02 1749.37,9256.23 "/>
<line x1="2374.57" y1="9100.58" x2="2845" y2="9375" stroke="black" stroke-width="25"/>
<polygon fill="black" stroke="black" stroke-width="25" points="2845,9375 2740.63,9256.23 2737.03,9312.02 2690.24,9342.61 "/>
<text x="1688" y="9302" font-family="Times" font-style="Roman" font-size="225" fill="black" text-anchor="middle">0.7</text>
<text x="2802" y="9302" font-family="Times" font-style="Roman" font-size="225" fill="black" text-anchor="middle">0.3</text>
<line x1="2245" y1="10550" x2="2245" y2="10800" stroke="black" stroke-width="25"/>
<polygon fill="black" stroke="black" stroke-width="25" points="2245,10800 2295,10650 2245,10675 2195,10650 "/>
<!-- Call WebServer WSP -->
<line x1="2226.25" y1="11725" x2="2226.25" y2="13075" stroke="black" stroke-width="25"/>
<polygon fill="black" stroke="black" stroke-width="25" points="2226.25,13075 2276.25,12925 2226.25,12950 2176.25,12925 "/>
<!-- Processor WSP FCFS -->
<circle cx="2226" cy="13638" r="563"  fill="#ffffff" stroke="black" stroke-width="25"/>
<text x="2226" y="13731" font-family="Times" font-style="Roman" font-size="225" fill="black" text-anchor="middle">WSP</text>
</svg>
