<?xml version="1.0" standalone="no"?>
<!DOCTYPE svg PUBLIC "-//W3C//DTD SVG 20000303 Stylable//EN"
"http://www.w3.org/TR/2000/03/WD-SVG-20000303/DTD/svg-20000303-stylable.dtd">
<!-- Title: projectCode/1-2IncreaseNumberOfUser/template_1.d/template_1-008.lqxo -->
<!-- Creator: lqn2svg Version 5.25 -->
<!-- Tue Apr 12 20:30:35 2022 -->
<!-- For: Haomi -->
<!-- Invoked as: lqn2svg projectCode/1-2IncreaseNumberOfUser/template_1.d/template_1-008.lqxo -->
<svg xmlns="http://www.w3.org/2000/svg" width="4.7375in" height="15.7361in" viewBox="0 0 8528 28325">
<desc>0x10f9d98</desc>
<!-- Task Userr  user -1 UP -->
<polygon  fill="#ffffff" stroke="black" stroke-width="25" points="3526.25,500 5213.75,500 5101.25,1625 3413.75,1625 "/>
<polygon  fill="#ffffff" stroke="black" stroke-width="25" points="3476.25,450 5163.75,450 5051.25,1575 3363.75,1575 "/>
<text x="4264" y="1538" font-family="Times" font-style="Roman" font-size="225" fill="black" text-anchor="middle">&#0955;=0.053,&#0961;=7.95</text>
<text x="4264" y="1313" font-family="Times" font-style="Roman" font-size="225" fill="black" text-anchor="middle">User {8} Z=1</text>
<!-- Entry user s [0] -->
<polyline  stroke="black" stroke-width="25" fill="none" points="3791.25,450 3723.75,1125 4781.25,1125 4848.75,450 "/>
<text x="4286" y="1069" font-family="Times" font-style="Roman" font-size="225" fill="black" text-anchor="middle">150</text>
<text x="4286" y="844" font-family="Times" font-style="Roman" font-size="225" fill="black" text-anchor="middle">[0]</text>
<text x="4286" y="619" font-family="Times" font-style="Roman" font-size="225" fill="black" text-anchor="middle">user</text>
<!-- Call user protocol y (1) -->
<line x1="4286.25" y1="1125" x2="4286.25" y2="2925" stroke="Orange" stroke-width="25"/>
<polygon fill="Orange" stroke="Orange" stroke-width="25" points="4286.25,2925 4336.25,2775 4286.25,2800 4236.25,2775 "/>
<text x="4286" y="2663" font-family="Times" font-style="Roman" font-size="225" fill="black" text-anchor="middle">134</text>
<text x="4286" y="2438" font-family="Times" font-style="Roman" font-size="225" fill="black" text-anchor="middle">(1)</text>
<!-- Task Protocoln  protocol -1 WSP -->
<polygon  fill="#fff2e5" stroke="Orange" stroke-width="25" points="3476.25,2925 5163.75,2925 5051.25,4050 3363.75,4050 "/>
<text x="4264" y="4013" font-family="Times" font-style="Roman" font-size="225" fill="black" text-anchor="middle">&#0955;=0.053,&#0961;=0.861</text>
<text x="4264" y="3788" font-family="Times" font-style="Roman" font-size="225" fill="black" text-anchor="middle">Protocol</text>
<!-- Entry protocol s [0.25] -->
<polyline  stroke="Orange" stroke-width="25" fill="none" points="3791.25,2925 3723.75,3600 4781.25,3600 4848.75,2925 "/>
<text x="4286" y="3544" font-family="Times" font-style="Roman" font-size="225" fill="black" text-anchor="middle">16.3</text>
<text x="4286" y="3319" font-family="Times" font-style="Roman" font-size="225" fill="black" text-anchor="middle">[0.25]</text>
<text x="4286" y="3094" font-family="Times" font-style="Roman" font-size="225" fill="black" text-anchor="middle">protocol</text>
<!-- Call protocol webServer y (1) -->
<line x1="4286.25" y1="3600" x2="4546.25" y2="5400" stroke="Yellow" stroke-width="25"/>
<polygon fill="Yellow" stroke="Yellow" stroke-width="25" points="4546.25,5400 4574.29,5244.39 4528.38,5276.28 4475.32,5258.69 "/>
<text x="4481" y="5138" font-family="Times" font-style="Roman" font-size="225" fill="black" text-anchor="middle">0.506</text>
<text x="4481" y="4913" font-family="Times" font-style="Roman" font-size="225" fill="black" text-anchor="middle">(1)</text>
<!-- Call Protocol WSP -->
<line x1="3813.75" y1="4050" x2="2609.68" y2="24276" stroke="Turquoise" stroke-width="25"/>
<polygon fill="Turquoise" stroke="Turquoise" stroke-width="25" points="2609.68,24276 2668.5,24129.2 2617.11,24151.2 2568.68,24123.3 "/>
<!-- Task WebServern  webServer -1 WSP -->
<polygon  fill="#ffffe5" stroke="Yellow" stroke-width="25" points="3120,5400 6040,5400 5407.5,11725 2487.5,11725 "/>
<text x="4264" y="6513" font-family="Times" font-style="Roman" font-size="225" fill="black" text-anchor="middle">&#0955;=0.0513,&#0961;=0.799</text>
<text x="4264" y="6288" font-family="Times" font-style="Roman" font-size="225" fill="black" text-anchor="middle">WebServer</text>
<!-- Entry webServer A analyze -->
<polyline  stroke="Yellow" stroke-width="25" fill="none" points="4051.25,5400 3983.75,6075 5041.25,6075 5108.75,5400 "/>
<text x="4546" y="5925" font-family="Times" font-style="Roman" font-size="225" fill="black" text-anchor="middle">15.6</text>
<text x="4546" y="5700" font-family="Times" font-style="Roman" font-size="225" fill="black" text-anchor="middle">webServer</text>
<line x1="4546.25" y1="6075" x2="4282.5" y2="6525" stroke="Yellow" stroke-width="25"/>
<polygon fill="Yellow" stroke="Yellow" stroke-width="25" points="4282.5,6525 4401.49,6420.87 4345.71,6417.16 4315.21,6370.31 "/>
<!-- Call webServerEnd webServer -->
<line x1="4545" y1="10800" x2="4827.5" y2="6075" stroke-dasharray="75" stroke="Yellow" stroke-width="25"/>
<polygon fill="Yellow" stroke="Yellow" stroke-width="25" points="4827.5,6075 4768.64,6221.75 4820.04,6199.78 4868.46,6227.72 "/>
<!-- Activity analyze s [1] level=1 -->
<polygon  fill="#ffffe5" stroke="Yellow" stroke-width="25" points="3757.5,7200 3757.5,6525 4807.5,6525 4807.5,7200 3757.5,7200 "/>
<text x="4283" y="7144" font-family="Times" font-style="Roman" font-size="225" fill="black" text-anchor="middle">1</text>
<text x="4283" y="6919" font-family="Times" font-style="Roman" font-size="225" fill="black" text-anchor="middle">[1]</text>
<text x="4283" y="6694" font-family="Times" font-style="Roman" font-size="225" fill="black" text-anchor="middle">analyze</text>
<!-- Activity cache s [1] level=2 -->
<polygon  fill="#ffffe5" stroke="Yellow" stroke-width="25" points="3157.5,8625 3157.5,7950 4207.5,7950 4207.5,8625 3157.5,8625 "/>
<text x="3683" y="8569" font-family="Times" font-style="Roman" font-size="225" fill="black" text-anchor="middle">1</text>
<text x="3683" y="8344" font-family="Times" font-style="Roman" font-size="225" fill="black" text-anchor="middle">[1]</text>
<text x="3683" y="8119" font-family="Times" font-style="Roman" font-size="225" fill="black" text-anchor="middle">cache</text>
<!-- Activity cacheEnd s [0] level=3 -->
<polygon  fill="#ffffe5" stroke="Yellow" stroke-width="25" points="3157.5,10050 3157.5,9375 4207.5,9375 4207.5,10050 3157.5,10050 "/>
<!-- Call cacheEnd sendStatic2 y (1) -->
<line x1="3945" y1="10050" x2="6570" y2="19325" stroke="Indigo" stroke-width="25"/>
<polygon fill="Indigo" stroke="Indigo" stroke-width="25" points="6570,19325 6577.26,19167.1 6535.96,19204.7 6481.04,19194.3 "/>
<text x="6443" y="19063" font-family="Times" font-style="Roman" font-size="225" fill="black" text-anchor="middle">0.0915</text>
<text x="6443" y="18838" font-family="Times" font-style="Roman" font-size="225" fill="black" text-anchor="middle">(1)</text>
<text x="3683" y="9994" font-family="Times" font-style="Roman" font-size="225" fill="black" text-anchor="middle">5.01</text>
<text x="3683" y="9769" font-family="Times" font-style="Roman" font-size="225" fill="black" text-anchor="middle">[0]</text>
<text x="3683" y="9544" font-family="Times" font-style="Roman" font-size="225" fill="black" text-anchor="middle">cacheEnd</text>
<!-- Activity cgiDrive s [0] level=2 -->
<polygon  fill="#ffffe5" stroke="Yellow" stroke-width="25" points="4357.5,8625 4357.5,7950 5407.5,7950 5407.5,8625 4357.5,8625 "/>
<!-- Call cgiDrive cgiApp y (1) -->
<line x1="4620" y1="8625" x2="4475" y2="13075" stroke="Turquoise" stroke-width="25"/>
<polygon fill="Turquoise" stroke="Turquoise" stroke-width="25" points="4475,13075 4529.86,12926.7 4479.07,12950.1 4429.91,12923.5 "/>
<text x="4490" y="12813" font-family="Times" font-style="Roman" font-size="225" fill="black" text-anchor="middle">0</text>
<text x="4490" y="12588" font-family="Times" font-style="Roman" font-size="225" fill="black" text-anchor="middle">(1)</text>
<text x="4883" y="8569" font-family="Times" font-style="Roman" font-size="225" fill="black" text-anchor="middle">88</text>
<text x="4883" y="8344" font-family="Times" font-style="Roman" font-size="225" fill="black" text-anchor="middle">[0]</text>
<text x="4883" y="8119" font-family="Times" font-style="Roman" font-size="225" fill="black" text-anchor="middle">cgiDrive</text>
<!-- Activity diskFetch s [1] level=3 -->
<polygon  fill="#ffffe5" stroke="Yellow" stroke-width="25" points="4357.5,10050 4357.5,9375 5407.5,9375 5407.5,10050 4357.5,10050 "/>
<!-- Call diskFetch webRorW y (3) -->
<line x1="5057.5" y1="10050" x2="5448.75" y2="24275" stroke="Violet" stroke-width="25"/>
<polygon fill="Violet" stroke="Violet" stroke-width="25" points="5448.75,24275 5494.61,24123.7 5445.31,24150 5394.64,24126.4 "/>
<text x="5436" y="24013" font-family="Times" font-style="Roman" font-size="225" fill="black" text-anchor="middle">0</text>
<text x="5436" y="23788" font-family="Times" font-style="Roman" font-size="225" fill="black" text-anchor="middle">(3)</text>
<!-- Call diskFetch sendStatic1 y (1) -->
<line x1="5232.5" y1="10050" x2="5700" y2="19325" stroke="Indigo" stroke-width="25"/>
<polygon fill="Indigo" stroke="Indigo" stroke-width="25" points="5700,19325 5742.39,19172.7 5693.71,19200.2 5642.51,19177.7 "/>
<text x="5655" y="18613" font-family="Times" font-style="Roman" font-size="225" fill="black" text-anchor="middle">0.0915</text>
<text x="5655" y="18388" font-family="Times" font-style="Roman" font-size="225" fill="black" text-anchor="middle">(1)</text>
<text x="4883" y="9994" font-family="Times" font-style="Roman" font-size="225" fill="black" text-anchor="middle">6.31</text>
<text x="4883" y="9769" font-family="Times" font-style="Roman" font-size="225" fill="black" text-anchor="middle">[1]</text>
<text x="4883" y="9544" font-family="Times" font-style="Roman" font-size="225" fill="black" text-anchor="middle">diskFetch</text>
<!-- Activity webServerEnd s [0] level=4 -->
<polygon  fill="#ffffe5" stroke="Yellow" stroke-width="25" points="3757.5,11475 3757.5,10800 4807.5,10800 4807.5,11475 3757.5,11475 "/>
<text x="4283" y="11419" font-family="Times" font-style="Roman" font-size="225" fill="black" text-anchor="middle">0</text>
<text x="4283" y="11194" font-family="Times" font-style="Roman" font-size="225" fill="black" text-anchor="middle">[0]</text>
<text x="4283" y="10969" font-family="Times" font-style="Roman" font-size="225" fill="black" text-anchor="middle">webServerEnd</text>
<line x1="4282.5" y1="7200" x2="4282.5" y2="7450" stroke="Yellow" stroke-width="25"/>
<polygon fill="Yellow" stroke="Yellow" stroke-width="25" points="4282.5,7450 4332.5,7300 4282.5,7325 4232.5,7300 "/>
<line x1="3682.5" y1="8625" x2="4282.5" y2="8875" stroke="Yellow" stroke-width="25"/>
<polygon fill="Yellow" stroke="Yellow" stroke-width="25" points="4282.5,8875 4163.27,8771.15 4167.12,8826.92 4124.81,8863.46 "/>
<circle cx="4283" cy="7600" r="150"  fill="#ffffe5" stroke="Yellow" stroke-width="25"/>
<text x="4283" y="7675" font-family="Times" font-style="Roman" font-size="225" fill="Yellow" text-anchor="middle">+</text>
<line x1="4152.93" y1="7675.58" x2="3682.5" y2="7950" stroke="Yellow" stroke-width="25"/>
<polygon fill="Yellow" stroke="Yellow" stroke-width="25" points="3682.5,7950 3837.26,7917.61 3790.47,7887.02 3786.87,7831.23 "/>
<line x1="4412.07" y1="7675.58" x2="4882.5" y2="7950" stroke="Yellow" stroke-width="25"/>
<polygon fill="Yellow" stroke="Yellow" stroke-width="25" points="4882.5,7950 4778.13,7831.23 4774.53,7887.02 4727.74,7917.61 "/>
<line x1="4152.93" y1="7675.58" x2="3682.5" y2="7950" stroke="Yellow" stroke-width="25"/>
<polygon fill="Yellow" stroke="Yellow" stroke-width="25" points="3682.5,7950 3837.26,7917.61 3790.47,7887.02 3786.87,7831.23 "/>
<line x1="4412.07" y1="7675.58" x2="4882.5" y2="7950" stroke="Yellow" stroke-width="25"/>
<polygon fill="Yellow" stroke="Yellow" stroke-width="25" points="4882.5,7950 4778.13,7831.23 4774.53,7887.02 4727.74,7917.61 "/>
<text x="3726" y="7877" font-family="Times" font-style="Roman" font-size="225" fill="black" text-anchor="middle">0.9</text>
<text x="4839" y="7877" font-family="Times" font-style="Roman" font-size="225" fill="black" text-anchor="middle">0.1</text>
<circle cx="4283" cy="10400" r="150"  fill="#ffffe5" stroke="Yellow" stroke-width="25"/>
<text x="4283" y="10475" font-family="Times" font-style="Roman" font-size="225" fill="Yellow" text-anchor="middle">+</text>
<line x1="3682.5" y1="10050" x2="4152.93" y2="10324.4" stroke="Yellow" stroke-width="25"/>
<polygon fill="Yellow" stroke="Yellow" stroke-width="25" points="4152.93,10324.4 4048.56,10205.6 4044.96,10261.4 3998.17,10292 "/>
<line x1="4882.5" y1="8625" x2="4330.53" y2="10257.9" stroke="Yellow" stroke-width="25"/>
<polygon fill="Yellow" stroke="Yellow" stroke-width="25" points="4330.53,10257.9 4425.94,10131.8 4370.56,10139.5 4331.2,10099.8 "/>
<line x1="4882.5" y1="10050" x2="4412.07" y2="10324.4" stroke="Yellow" stroke-width="25"/>
<polygon fill="Yellow" stroke="Yellow" stroke-width="25" points="4412.07,10324.4 4566.83,10292 4520.04,10261.4 4516.44,10205.6 "/>
<circle cx="4283" cy="9025" r="150"  fill="#ffffe5" stroke="Yellow" stroke-width="25"/>
<text x="4283" y="9100" font-family="Times" font-style="Roman" font-size="225" fill="Yellow" text-anchor="middle">+</text>
<line x1="4152.93" y1="9100.58" x2="3682.5" y2="9375" stroke="Yellow" stroke-width="25"/>
<polygon fill="Yellow" stroke="Yellow" stroke-width="25" points="3682.5,9375 3837.26,9342.61 3790.47,9312.02 3786.87,9256.23 "/>
<line x1="4412.07" y1="9100.58" x2="4882.5" y2="9375" stroke="Yellow" stroke-width="25"/>
<polygon fill="Yellow" stroke="Yellow" stroke-width="25" points="4882.5,9375 4778.13,9256.23 4774.53,9312.02 4727.74,9342.61 "/>
<line x1="4152.93" y1="9100.58" x2="3682.5" y2="9375" stroke="Yellow" stroke-width="25"/>
<polygon fill="Yellow" stroke="Yellow" stroke-width="25" points="3682.5,9375 3837.26,9342.61 3790.47,9312.02 3786.87,9256.23 "/>
<line x1="4412.07" y1="9100.58" x2="4882.5" y2="9375" stroke="Yellow" stroke-width="25"/>
<polygon fill="Yellow" stroke="Yellow" stroke-width="25" points="4882.5,9375 4778.13,9256.23 4774.53,9312.02 4727.74,9342.61 "/>
<text x="3726" y="9302" font-family="Times" font-style="Roman" font-size="225" fill="black" text-anchor="middle">0.7</text>
<text x="4839" y="9302" font-family="Times" font-style="Roman" font-size="225" fill="black" text-anchor="middle">0.3</text>
<line x1="4282.5" y1="10550" x2="4282.5" y2="10800" stroke="Yellow" stroke-width="25"/>
<polygon fill="Yellow" stroke="Yellow" stroke-width="25" points="4282.5,10800 4332.5,10650 4282.5,10675 4232.5,10650 "/>
<!-- Call WebServer WSP -->
<line x1="3375.62" y1="11725" x2="2610.48" y2="24276" stroke="Turquoise" stroke-width="25"/>
<polygon fill="Turquoise" stroke="Turquoise" stroke-width="25" points="2610.48,24276 2669.51,24129.4 2618.08,24151.3 2569.7,24123.3 "/>
<!-- Task CGIAppn  cgiApp -1 WSP -->
<polygon  fill="#e5fff2" stroke="Turquoise" stroke-width="25" points="3120,13075 5897.5,13075 5407.5,17975 2630,17975 "/>
<text x="4264" y="14188" font-family="Times" font-style="Roman" font-size="225" fill="black" text-anchor="middle">&#0955;=0.00513,&#0961;=0.452</text>
<text x="4264" y="13963" font-family="Times" font-style="Roman" font-size="225" fill="black" text-anchor="middle">CGIApp</text>
<!-- Entry cgiApp A cgiStart -->
<polyline  stroke="Turquoise" stroke-width="25" fill="none" points="3980,13075 3912.5,13750 4970,13750 5037.5,13075 "/>
<text x="4475" y="13600" font-family="Times" font-style="Roman" font-size="225" fill="black" text-anchor="middle">88</text>
<text x="4475" y="13375" font-family="Times" font-style="Roman" font-size="225" fill="black" text-anchor="middle">cgiApp</text>
<line x1="4475" y1="13750" x2="4282.5" y2="14200" stroke="Turquoise" stroke-width="25"/>
<polygon fill="Turquoise" stroke="Turquoise" stroke-width="25" points="4282.5,14200 4387.47,14081.8 4331.66,14085.1 4295.52,14042.4 "/>
<!-- Call cgiAppEnd cgiApp -->
<line x1="4545" y1="17050" x2="4756.25" y2="13750" stroke-dasharray="75" stroke="Turquoise" stroke-width="25"/>
<polygon fill="Turquoise" stroke="Turquoise" stroke-width="25" points="4756.25,13750 4696.77,13896.5 4748.26,13874.7 4796.57,13902.9 "/>
<!-- Activity cdPage s [5] level=2 -->
<polygon  fill="#e5fff2" stroke="Turquoise" stroke-width="25" points="3157.5,16300 3157.5,15625 4207.5,15625 4207.5,16300 3157.5,16300 "/>
<!-- Call cdPage dbRead y (4.3) -->
<line x1="3420" y1="16300" x2="2002.5" y2="19325" stroke="Cyan" stroke-width="25"/>
<polygon fill="Cyan" stroke="Cyan" stroke-width="25" points="2002.5,19325 2111.42,19210.4 2055.54,19211.8 2020.87,19168 "/>
<text x="2213" y="19063" font-family="Times" font-style="Roman" font-size="225" fill="black" text-anchor="middle">0</text>
<text x="2213" y="18838" font-family="Times" font-style="Roman" font-size="225" fill="black" text-anchor="middle">(4.3)</text>
<!-- Call cdPage sendDynamic y (1) -->
<line x1="3945" y1="16300" x2="4455" y2="19325" stroke="Indigo" stroke-width="25"/>
<polygon fill="Indigo" stroke="Indigo" stroke-width="25" points="4455,19325 4479.37,19168.8 4434.22,19201.7 4380.76,19185.4 "/>
<text x="4379" y="19063" font-family="Times" font-style="Roman" font-size="225" fill="black" text-anchor="middle">0.283</text>
<text x="4379" y="18838" font-family="Times" font-style="Roman" font-size="225" fill="black" text-anchor="middle">(1)</text>
<text x="3683" y="16244" font-family="Times" font-style="Roman" font-size="225" fill="black" text-anchor="middle">112</text>
<text x="3683" y="16019" font-family="Times" font-style="Roman" font-size="225" fill="black" text-anchor="middle">[5]</text>
<text x="3683" y="15794" font-family="Times" font-style="Roman" font-size="225" fill="black" text-anchor="middle">cdPage</text>
<!-- Activity cgiAppEnd s [0] level=3 -->
<polygon  fill="#e5fff2" stroke="Turquoise" stroke-width="25" points="3757.5,17725 3757.5,17050 4807.5,17050 4807.5,17725 3757.5,17725 "/>
<text x="4283" y="17669" font-family="Times" font-style="Roman" font-size="225" fill="black" text-anchor="middle">0</text>
<text x="4283" y="17444" font-family="Times" font-style="Roman" font-size="225" fill="black" text-anchor="middle">[0]</text>
<text x="4283" y="17219" font-family="Times" font-style="Roman" font-size="225" fill="black" text-anchor="middle">cgiAppEnd</text>
<!-- Activity cgiStart s [0] level=1 -->
<polygon  fill="#e5fff2" stroke="Turquoise" stroke-width="25" points="3757.5,14875 3757.5,14200 4807.5,14200 4807.5,14875 3757.5,14875 "/>
<text x="4283" y="14819" font-family="Times" font-style="Roman" font-size="225" fill="black" text-anchor="middle">0</text>
<text x="4283" y="14594" font-family="Times" font-style="Roman" font-size="225" fill="black" text-anchor="middle">[0]</text>
<text x="4283" y="14369" font-family="Times" font-style="Roman" font-size="225" fill="black" text-anchor="middle">cgiStart</text>
<!-- Activity procData s [15] level=2 -->
<polygon  fill="#e5fff2" stroke="Turquoise" stroke-width="25" points="4357.5,16300 4357.5,15625 5407.5,15625 5407.5,16300 4357.5,16300 "/>
<!-- Call procData dbUpdate y (1.7) -->
<line x1="4620" y1="16300" x2="3060" y2="19325" stroke="Cyan" stroke-width="25"/>
<polygon fill="Cyan" stroke="Cyan" stroke-width="25" points="3060,19325 3173.19,19214.6 3117.29,19213.9 3084.31,19168.8 "/>
<text x="3279" y="19063" font-family="Times" font-style="Roman" font-size="225" fill="black" text-anchor="middle">0</text>
<text x="3279" y="18838" font-family="Times" font-style="Roman" font-size="225" fill="black" text-anchor="middle">(1.7)</text>
<!-- Call procData sendStatic1 y (1) -->
<line x1="5145" y1="16300" x2="5325" y2="19325" stroke="Indigo" stroke-width="25"/>
<polygon fill="Indigo" stroke="Indigo" stroke-width="25" points="5325,19325 5366,19172.3 5317.58,19200.2 5266.18,19178.2 "/>
<text x="5298" y="19063" font-family="Times" font-style="Roman" font-size="225" fill="black" text-anchor="middle">0.0915</text>
<text x="5298" y="18838" font-family="Times" font-style="Roman" font-size="225" fill="black" text-anchor="middle">(1)</text>
<text x="4883" y="16244" font-family="Times" font-style="Roman" font-size="225" fill="black" text-anchor="middle">72</text>
<text x="4883" y="16019" font-family="Times" font-style="Roman" font-size="225" fill="black" text-anchor="middle">[15]</text>
<text x="4883" y="15794" font-family="Times" font-style="Roman" font-size="225" fill="black" text-anchor="middle">procData</text>
<circle cx="4283" cy="16650" r="150"  fill="#e5fff2" stroke="Turquoise" stroke-width="25"/>
<text x="4283" y="16725" font-family="Times" font-style="Roman" font-size="225" fill="Turquoise" text-anchor="middle">+</text>
<line x1="3682.5" y1="16300" x2="4152.93" y2="16574.4" stroke="Turquoise" stroke-width="25"/>
<polygon fill="Turquoise" stroke="Turquoise" stroke-width="25" points="4152.93,16574.4 4048.56,16455.6 4044.96,16511.4 3998.17,16542 "/>
<line x1="4882.5" y1="16300" x2="4412.07" y2="16574.4" stroke="Turquoise" stroke-width="25"/>
<polygon fill="Turquoise" stroke="Turquoise" stroke-width="25" points="4412.07,16574.4 4566.83,16542 4520.04,16511.4 4516.44,16455.6 "/>
<circle cx="4283" cy="15275" r="150"  fill="#e5fff2" stroke="Turquoise" stroke-width="25"/>
<text x="4283" y="15350" font-family="Times" font-style="Roman" font-size="225" fill="Turquoise" text-anchor="middle">+</text>
<line x1="4152.93" y1="15350.6" x2="3682.5" y2="15625" stroke="Turquoise" stroke-width="25"/>
<polygon fill="Turquoise" stroke="Turquoise" stroke-width="25" points="3682.5,15625 3837.26,15592.6 3790.47,15562 3786.87,15506.2 "/>
<line x1="4412.07" y1="15350.6" x2="4882.5" y2="15625" stroke="Turquoise" stroke-width="25"/>
<polygon fill="Turquoise" stroke="Turquoise" stroke-width="25" points="4882.5,15625 4778.13,15506.2 4774.53,15562 4727.74,15592.6 "/>
<line x1="4152.93" y1="15350.6" x2="3682.5" y2="15625" stroke="Turquoise" stroke-width="25"/>
<polygon fill="Turquoise" stroke="Turquoise" stroke-width="25" points="3682.5,15625 3837.26,15592.6 3790.47,15562 3786.87,15506.2 "/>
<line x1="4412.07" y1="15350.6" x2="4882.5" y2="15625" stroke="Turquoise" stroke-width="25"/>
<polygon fill="Turquoise" stroke="Turquoise" stroke-width="25" points="4882.5,15625 4778.13,15506.2 4774.53,15562 4727.74,15592.6 "/>
<text x="3726" y="15552" font-family="Times" font-style="Roman" font-size="225" fill="black" text-anchor="middle">0.4</text>
<text x="4839" y="15552" font-family="Times" font-style="Roman" font-size="225" fill="black" text-anchor="middle">0.6</text>
<line x1="4282.5" y1="16800" x2="4282.5" y2="17050" stroke="Turquoise" stroke-width="25"/>
<polygon fill="Turquoise" stroke="Turquoise" stroke-width="25" points="4282.5,17050 4332.5,16900 4282.5,16925 4232.5,16900 "/>
<line x1="4282.5" y1="14875" x2="4282.5" y2="15125" stroke="Turquoise" stroke-width="25"/>
<polygon fill="Turquoise" stroke="Turquoise" stroke-width="25" points="4282.5,15125 4332.5,14975 4282.5,15000 4232.5,14975 "/>
<!-- Call CGIApp WSP -->
<line x1="3446.88" y1="17975" x2="2647.05" y2="24279.5" stroke="Turquoise" stroke-width="25"/>
<polygon fill="Turquoise" stroke="Turquoise" stroke-width="25" points="2647.05,24279.5 2715.53,24137 2662.78,24155.5 2616.32,24124.4 "/>
<!-- Task DBProcessn  dbUpdate dbRead -1 DBP -->
<polygon  fill="#e5ffff" stroke="Cyan" stroke-width="25" points="1507.5,19325 3622.5,19325 3510,20450 1395,20450 "/>
<text x="2509" y="20413" font-family="Times" font-style="Roman" font-size="225" fill="black" text-anchor="middle">&#0955;=0.0141,&#0961;=0.341</text>
<text x="2509" y="20188" font-family="Times" font-style="Roman" font-size="225" fill="black" text-anchor="middle">DBProcess</text>
<!-- Entry dbRead s [20] -->
<polyline  stroke="Cyan" stroke-width="25" fill="none" points="1440,20000 2497.5,20000 2565,19325 "/>
<text x="2003" y="19944" font-family="Times" font-style="Roman" font-size="225" fill="black" text-anchor="middle">20.4</text>
<text x="2003" y="19719" font-family="Times" font-style="Roman" font-size="225" fill="black" text-anchor="middle">[20]</text>
<text x="2003" y="19494" font-family="Times" font-style="Roman" font-size="225" fill="black" text-anchor="middle">dbRead</text>
<!-- Call dbRead read y (4) -->
<line x1="2002.5" y1="20000" x2="870" y2="21800" stroke="Violet" stroke-width="25"/>
<polygon fill="Violet" stroke="Violet" stroke-width="25" points="870,21800 992.2,21699.7 936.567,21694.2 907.559,21646.4 "/>
<text x="1153" y="21538" font-family="Times" font-style="Roman" font-size="225" fill="black" text-anchor="middle">0</text>
<text x="1153" y="21313" font-family="Times" font-style="Roman" font-size="225" fill="black" text-anchor="middle">(4)</text>
<!-- Entry dbUpdate s [30] -->
<line x1="2497.5" y1="20000" x2="3555" y2="20000" stroke="Cyan" stroke-width="25"/>
<text x="3060" y="19944" font-family="Times" font-style="Roman" font-size="225" fill="black" text-anchor="middle">30.6</text>
<text x="3060" y="19719" font-family="Times" font-style="Roman" font-size="225" fill="black" text-anchor="middle">[30]</text>
<text x="3060" y="19494" font-family="Times" font-style="Roman" font-size="225" fill="black" text-anchor="middle">dbUpdate</text>
<!-- Call dbUpdate read y (2) -->
<line x1="2872.5" y1="20000" x2="1245" y2="21800" stroke="Violet" stroke-width="25"/>
<polygon fill="Violet" stroke="Violet" stroke-width="25" points="1245,21800 1382.69,21722.3 1328.83,21707.3 1308.51,21655.2 "/>
<text x="2059" y="21088" font-family="Times" font-style="Roman" font-size="225" fill="black" text-anchor="middle">0</text>
<text x="2059" y="20863" font-family="Times" font-style="Roman" font-size="225" fill="black" text-anchor="middle">(2)</text>
<!-- Call dbUpdate write y (4) -->
<line x1="3247.5" y1="20000" x2="2115" y2="21800" stroke="Violet" stroke-width="25"/>
<polygon fill="Violet" stroke="Violet" stroke-width="25" points="2115,21800 2237.2,21699.7 2181.57,21694.2 2152.56,21646.4 "/>
<text x="2398" y="21538" font-family="Times" font-style="Roman" font-size="225" fill="black" text-anchor="middle">0</text>
<text x="2398" y="21313" font-family="Times" font-style="Roman" font-size="225" fill="black" text-anchor="middle">(4)</text>
<!-- Call DBProcess DBP -->
<line x1="3065.62" y1="20450" x2="3350.02" y2="21811.9" stroke="Cyan" stroke-width="25"/>
<polygon fill="Cyan" stroke="Cyan" stroke-width="25" points="3350.02,21811.9 3368.3,21654.8 3324.47,21689.5 3270.41,21675.3 "/>
<!-- Task WebReplyn  sendStatic2 sendStatic1 sendDynamic -1 WSP -->
<polygon  fill="#e5f0ff" stroke="Indigo" stroke-width="25" points="3960,19325 7132.5,19325 7020,20450 3847.5,20450 "/>
<text x="5490" y="20413" font-family="Times" font-style="Roman" font-size="225" fill="black" text-anchor="middle">&#0955;=0.0527,&#0961;=0.286</text>
<text x="5490" y="20188" font-family="Times" font-style="Roman" font-size="225" fill="black" text-anchor="middle">WebReply</text>
<!-- Entry sendDynamic s [0.8] -->
<polyline  stroke="Indigo" stroke-width="25" fill="none" points="3960,19325 3892.5,20000 4950,20000 5017.5,19325 "/>
<text x="4455" y="19944" font-family="Times" font-style="Roman" font-size="225" fill="black" text-anchor="middle">19.1</text>
<text x="4455" y="19719" font-family="Times" font-style="Roman" font-size="225" fill="black" text-anchor="middle">[0.8]</text>
<text x="4455" y="19494" font-family="Times" font-style="Roman" font-size="225" fill="black" text-anchor="middle">sendDynamic</text>
<!-- Call sendDynamic getObjects y (8) -->
<line x1="4267.5" y1="20000" x2="5175" y2="21800" stroke="Violet" stroke-width="25"/>
<polygon fill="Violet" stroke="Violet" stroke-width="25" points="5175,21800 5152.12,21643.6 5118.73,21688.4 5062.83,21688.6 "/>
<text x="4948" y="21538" font-family="Times" font-style="Roman" font-size="225" fill="black" text-anchor="middle">0.00331</text>
<text x="4948" y="21313" font-family="Times" font-style="Roman" font-size="225" fill="black" text-anchor="middle">(8)</text>
<!-- Call sendDynamic packet y (40) -->
<line x1="4642.5" y1="20000" x2="6918.75" y2="21800" stroke="Indigo" stroke-width="25"/>
<polygon fill="Indigo" stroke="Indigo" stroke-width="25" points="6918.75,21800 6832.11,21667.7 6820.7,21722.5 6770.08,21746.2 "/>
<text x="6350" y="21538" font-family="Times" font-style="Roman" font-size="225" fill="black" text-anchor="middle">0.00269</text>
<text x="6350" y="21313" font-family="Times" font-style="Roman" font-size="225" fill="black" text-anchor="middle">(40)</text>
<!-- Entry sendStatic1 s [0.8] -->
<polyline  stroke="Indigo" stroke-width="25" fill="none" points="5017.5,19325 4950,20000 6007.5,20000 6075,19325 "/>
<text x="5513" y="19944" font-family="Times" font-style="Roman" font-size="225" fill="black" text-anchor="middle">4.86</text>
<text x="5513" y="19719" font-family="Times" font-style="Roman" font-size="225" fill="black" text-anchor="middle">[0.8]</text>
<text x="5513" y="19494" font-family="Times" font-style="Roman" font-size="225" fill="black" text-anchor="middle">sendStatic1</text>
<!-- Call sendStatic1 packet y (16) -->
<line x1="5512.5" y1="20000" x2="7200" y2="21800" stroke="Indigo" stroke-width="25"/>
<polygon fill="Indigo" stroke="Indigo" stroke-width="25" points="7200,21800 7133.89,21656.4 7114.51,21708.8 7060.93,21724.8 "/>
<text x="6356" y="21088" font-family="Times" font-style="Roman" font-size="225" fill="black" text-anchor="middle">0.00269</text>
<text x="6356" y="20863" font-family="Times" font-style="Roman" font-size="225" fill="black" text-anchor="middle">(16)</text>
<!-- Entry sendStatic2 s [0.8] -->
<polyline  stroke="Indigo" stroke-width="25" fill="none" points="6075,19325 6007.5,20000 7065,20000 7132.5,19325 "/>
<text x="6570" y="19944" font-family="Times" font-style="Roman" font-size="225" fill="black" text-anchor="middle">4.86</text>
<text x="6570" y="19719" font-family="Times" font-style="Roman" font-size="225" fill="black" text-anchor="middle">[0.8]</text>
<text x="6570" y="19494" font-family="Times" font-style="Roman" font-size="225" fill="black" text-anchor="middle">sendStatic2</text>
<!-- Call sendStatic2 packet y (16) -->
<line x1="6570" y1="20000" x2="7481.25" y2="21800" stroke="Indigo" stroke-width="25"/>
<polygon fill="Indigo" stroke="Indigo" stroke-width="25" points="7481.25,21800 7458.11,21643.6 7424.79,21688.5 7368.89,21688.8 "/>
<text x="7253" y="21538" font-family="Times" font-style="Roman" font-size="225" fill="black" text-anchor="middle">0.00269</text>
<text x="7253" y="21313" font-family="Times" font-style="Roman" font-size="225" fill="black" text-anchor="middle">(16)</text>
<!-- Call WebReply WSP -->
<line x1="4668.75" y1="20450" x2="2818.39" y2="24329.8" stroke="Turquoise" stroke-width="25"/>
<polygon fill="Turquoise" stroke="Turquoise" stroke-width="25" points="2818.39,24329.8 2928.09,24215.9 2872.2,24217 2837.83,24172.9 "/>
<!-- Task DBOperationn  write read -1 DBDisk -->
<polygon  fill="#f2e5ff" stroke="Violet" stroke-width="25" points="562.5,21800 2677.5,21800 2565,22925 450,22925 "/>
<text x="1564" y="22888" font-family="Times" font-style="Roman" font-size="225" fill="black" text-anchor="middle">&#0955;=0.0671,&#0961;=0.00671</text>
<text x="1564" y="22663" font-family="Times" font-style="Roman" font-size="225" fill="black" text-anchor="middle">DBOperation</text>
<!-- Entry read s [0.1] -->
<polyline  stroke="Violet" stroke-width="25" fill="none" points="495,22475 1552.5,22475 1620,21800 "/>
<text x="1058" y="22419" font-family="Times" font-style="Roman" font-size="225" fill="black" text-anchor="middle">0.1</text>
<text x="1058" y="22194" font-family="Times" font-style="Roman" font-size="225" fill="black" text-anchor="middle">[0.1]</text>
<text x="1058" y="21969" font-family="Times" font-style="Roman" font-size="225" fill="black" text-anchor="middle">read</text>
<!-- Entry write s [0.1] -->
<line x1="1552.5" y1="22475" x2="2610" y2="22475" stroke="Violet" stroke-width="25"/>
<text x="2115" y="22419" font-family="Times" font-style="Roman" font-size="225" fill="black" text-anchor="middle">0.1</text>
<text x="2115" y="22194" font-family="Times" font-style="Roman" font-size="225" fill="black" text-anchor="middle">[0.1]</text>
<text x="2115" y="21969" font-family="Times" font-style="Roman" font-size="225" fill="black" text-anchor="middle">write</text>
<!-- Call DBOperation DBDisk -->
<line x1="2120.62" y1="22925" x2="3540.09" y2="24428.5" stroke="Violet" stroke-width="25"/>
<polygon fill="Violet" stroke="Violet" stroke-width="25" points="3540.09,24428.5 3473.48,24285.1 3454.28,24337.6 3400.76,24353.7 "/>
<!-- Processor DBP FCFS -->
<circle cx="3465" cy="22363" r="563"  fill="#e5ffff" stroke="Cyan" stroke-width="25"/>
<text x="3465" y="22550" font-family="Times" font-style="Roman" font-size="225" fill="black" text-anchor="middle">&#0961;=0.335</text>
<text x="3465" y="22325" font-family="Times" font-style="Roman" font-size="225" fill="black" text-anchor="middle">DBP</text>
<!-- Task GetObjectsn  getObjects -1 WSP -->
<polygon  fill="#f2e5ff" stroke="Violet" stroke-width="25" points="4365,21800 6052.5,21800 5940,22925 4252.5,22925 "/>
<text x="5153" y="22888" font-family="Times" font-style="Roman" font-size="225" fill="black" text-anchor="middle">&#0955;=0.0165,&#0961;=0.0168</text>
<text x="5153" y="22663" font-family="Times" font-style="Roman" font-size="225" fill="black" text-anchor="middle">GetObjects</text>
<!-- Entry getObjects s [1] -->
<polyline  stroke="Violet" stroke-width="25" fill="none" points="4680,21800 4612.5,22475 5670,22475 5737.5,21800 "/>
<text x="5175" y="22419" font-family="Times" font-style="Roman" font-size="225" fill="black" text-anchor="middle">1.02</text>
<text x="5175" y="22194" font-family="Times" font-style="Roman" font-size="225" fill="black" text-anchor="middle">[1]</text>
<text x="5175" y="21969" font-family="Times" font-style="Roman" font-size="225" fill="black" text-anchor="middle">getObjects</text>
<!-- Call getObjects webRorW y (0.2) -->
<line x1="5175" y1="22475" x2="5823.75" y2="24275" stroke="Violet" stroke-width="25"/>
<polygon fill="Violet" stroke="Violet" stroke-width="25" points="5823.75,24275 5819.93,24116.9 5781.37,24157.4 5725.85,24150.8 "/>
<text x="5499" y="23563" font-family="Times" font-style="Roman" font-size="225" fill="black" text-anchor="middle">0</text>
<text x="5499" y="23338" font-family="Times" font-style="Roman" font-size="225" fill="black" text-anchor="middle">(0.2)</text>
<!-- Call GetObjects WSP -->
<line x1="4702.5" y1="22925" x2="2994.46" y2="24461.3" stroke="Turquoise" stroke-width="25"/>
<polygon fill="Turquoise" stroke="Turquoise" stroke-width="25" points="2994.46,24461.3 3139.42,24398.2 3087.4,24377.7 3072.55,24323.8 "/>
<!-- Task ProtocolReplyn  packet -1 WSP -->
<polygon  fill="#e5f0ff" stroke="Indigo" stroke-width="25" points="6390,21800 8077.5,21800 7965,22925 6277.5,22925 "/>
<text x="7178" y="22888" font-family="Times" font-style="Roman" font-size="225" fill="black" text-anchor="middle">&#0955;=0.893,&#0961;=0.224</text>
<text x="7178" y="22663" font-family="Times" font-style="Roman" font-size="225" fill="black" text-anchor="middle">ProtocolReply</text>
<!-- Entry packet s [0.25] -->
<polyline  stroke="Indigo" stroke-width="25" fill="none" points="6705,21800 6637.5,22475 7695,22475 7762.5,21800 "/>
<text x="7200" y="22419" font-family="Times" font-style="Roman" font-size="225" fill="black" text-anchor="middle">0.25</text>
<text x="7200" y="22194" font-family="Times" font-style="Roman" font-size="225" fill="black" text-anchor="middle">[0.25]</text>
<text x="7200" y="21969" font-family="Times" font-style="Roman" font-size="225" fill="black" text-anchor="middle">packet</text>
<!-- Call ProtocolReply WSP -->
<line x1="6727.5" y1="22925" x2="3087.14" y2="24602.1" stroke="Turquoise" stroke-width="25"/>
<polygon fill="Turquoise" stroke="Turquoise" stroke-width="25" points="3087.14,24602.1 3244.3,24584.8 3200.67,24549.8 3202.45,24494 "/>
<!-- Processor WSP FCFS -->
<circle cx="2576" cy="24838" r="563"  fill="#e5fff2" stroke="Turquoise" stroke-width="25"/>
<text x="2576" y="25025" font-family="Times" font-style="Roman" font-size="225" fill="black" text-anchor="middle">&#0961;=0.462</text>
<text x="2576" y="24800" font-family="Times" font-style="Roman" font-size="225" fill="black" text-anchor="middle">WSP</text>
<!-- Processor DBDisk FCFS -->
<circle cx="3926" cy="24838" r="563"  fill="#f2e5ff" stroke="Violet" stroke-width="25"/>
<text x="3926" y="25025" font-family="Times" font-style="Roman" font-size="225" fill="black" text-anchor="middle">&#0961;=0.00671</text>
<text x="3926" y="24800" font-family="Times" font-style="Roman" font-size="225" fill="black" text-anchor="middle">DBDisk</text>
<!-- Task WebDiskn  webRorW -1 WSDisk -->
<polygon  fill="#f2e5ff" stroke="Violet" stroke-width="25" points="4826.25,24275 6513.75,24275 6401.25,25400 4713.75,25400 "/>
<text x="5614" y="25363" font-family="Times" font-style="Roman" font-size="225" fill="black" text-anchor="middle">&#0955;=0.046,&#0961;=0.0046</text>
<text x="5614" y="25138" font-family="Times" font-style="Roman" font-size="225" fill="black" text-anchor="middle">WebDisk</text>
<!-- Entry webRorW s [0.1] -->
<polyline  stroke="Violet" stroke-width="25" fill="none" points="5141.25,24275 5073.75,24950 6131.25,24950 6198.75,24275 "/>
<text x="5636" y="24894" font-family="Times" font-style="Roman" font-size="225" fill="black" text-anchor="middle">0.1</text>
<text x="5636" y="24669" font-family="Times" font-style="Roman" font-size="225" fill="black" text-anchor="middle">[0.1]</text>
<text x="5636" y="24444" font-family="Times" font-style="Roman" font-size="225" fill="black" text-anchor="middle">webRorW</text>
<!-- Call WebDisk WSDisk -->
<line x1="5613.75" y1="25400" x2="5613.75" y2="26750" stroke="Violet" stroke-width="25"/>
<polygon fill="Violet" stroke="Violet" stroke-width="25" points="5613.75,26750 5663.75,26600 5613.75,26625 5563.75,26600 "/>
<!-- Processor WSDisk FCFS -->
<circle cx="5614" cy="27313" r="563"  fill="#f2e5ff" stroke="Violet" stroke-width="25"/>
<text x="5614" y="27500" font-family="Times" font-style="Roman" font-size="225" fill="black" text-anchor="middle">&#0961;=0.0046</text>
<text x="5614" y="27275" font-family="Times" font-style="Roman" font-size="225" fill="black" text-anchor="middle">WSDisk</text>
</svg>
