<?xml version="1.0" standalone="no"?>
<!DOCTYPE svg PUBLIC "-//W3C//DTD SVG 20000303 Stylable//EN"
"http://www.w3.org/TR/2000/03/WD-SVG-20000303/DTD/svg-20000303-stylable.dtd">
<!-- Title: Optimized.lqn -->
<!-- Creator: lqn2ps Version 5.26 -->
<!-- Sat Apr 16 20:26:22 2022 -->
<!-- For: Haomi -->
<!-- Invoked as: lqn2ps -Osvg -Lprocessor Optimized.lqn -->
<svg xmlns="http://www.w3.org/2000/svg" width="13.5833in" height="13.7819in" viewBox="0 0 24450 24808">
<desc>0x13e0ea8</desc>
<polygon  stroke-dasharray="100,75" fill="#ffffff" stroke="black" stroke-width="25" points="337.5,16932.5 337.5,11537.5 3830,11537.5 3830,16932.5 337.5,16932.5 "/>
<text x="2084" y="16891" font-family="Times" font-style="Roman" font-size="225" fill="black" text-anchor="middle">CGIP {$CGIPThread}</text>
<polygon  stroke-dasharray="100,75" fill="#ffffff" stroke="black" stroke-width="25" points="4037.5,21882.5 4037.5,20262.5 6490,20262.5 6490,21882.5 4037.5,21882.5 "/>
<text x="5264" y="21841" font-family="Times" font-style="Roman" font-size="225" fill="black" text-anchor="middle">DBDisk</text>
<polygon  stroke-dasharray="100,75" fill="#ffffff" stroke="black" stroke-width="25" points="6712.5,19407.5 6712.5,17787.5 9165,17787.5 9165,19407.5 6712.5,19407.5 "/>
<text x="7939" y="19366" font-family="Times" font-style="Roman" font-size="225" fill="black" text-anchor="middle">DBP {$DBPThread}</text>
<polygon  stroke-dasharray="100,75" fill="#ffffff" stroke="black" stroke-width="25" points="9387.5,10682.5 9387.5,2812.5 13437.5,2812.5 13437.5,10682.5 9387.5,10682.5 "/>
<text x="11413" y="10641" font-family="Times" font-style="Roman" font-size="225" fill="black" text-anchor="middle">ProtocolP1 {$ProtP1Thread}</text>
<polygon  stroke-dasharray="100,75" fill="#ffffff" stroke="black" stroke-width="25" points="13662.5,21882.5 13662.5,20262.5 15687.5,20262.5 15687.5,21882.5 13662.5,21882.5 "/>
<text x="14675" y="21841" font-family="Times" font-style="Roman" font-size="225" fill="black" text-anchor="middle">ProtocolP2 {$ProtP2Thread}</text>
<polygon  stroke-dasharray="100,75" fill="#ffffff" stroke="black" stroke-width="25" points="15912.5,1957.5 15912.5,337.5 17937.5,337.5 17937.5,1957.5 15912.5,1957.5 "/>
<text x="16925" y="1916" font-family="Times" font-style="Roman" font-size="225" fill="black" text-anchor="middle">UP {&#8734;}</text>
<polygon  stroke-dasharray="100,75" fill="#ffffff" stroke="black" stroke-width="25" points="18162.5,24357.5 18162.5,22737.5 20187.5,22737.5 20187.5,24357.5 18162.5,24357.5 "/>
<text x="19175" y="24316" font-family="Times" font-style="Roman" font-size="225" fill="black" text-anchor="middle">WSDisk</text>
<polygon  stroke-dasharray="100,75" fill="#ffffff" stroke="black" stroke-width="25" points="20412.5,21882.5 20412.5,11537.5 23905,11537.5 23905,21882.5 20412.5,21882.5 "/>
<text x="22159" y="21841" font-family="Times" font-style="Roman" font-size="225" fill="black" text-anchor="middle">WSP {$WSPThread}</text>
<!-- Task Userr  user -1 UP -->
<polygon  fill="#ffffff" stroke="black" stroke-width="25" points="16187.5,500 17875,500 17762.5,1625 16075,1625 "/>
<polygon  fill="#ffffff" stroke="black" stroke-width="25" points="16137.5,450 17825,450 17712.5,1575 16025,1575 "/>
<text x="16925" y="1444" font-family="Times" font-style="Roman" font-size="225" fill="black" text-anchor="middle">User {$N}</text>
<!-- Entry user s [0] -->
<polyline  stroke="black" stroke-width="25" fill="none" points="16452.5,450 16385,1125 17442.5,1125 17510,450 "/>
<text x="16948" y="975" font-family="Times" font-style="Roman" font-size="225" fill="black" text-anchor="middle">[0]</text>
<text x="16948" y="750" font-family="Times" font-style="Roman" font-size="225" fill="black" text-anchor="middle">user</text>
<!-- Call user distributor y (1) -->
<line x1="16947.5" y1="1125" x2="11623.8" y2="2925" stroke="black" stroke-width="25"/>
<polygon fill="black" stroke="black" stroke-width="25" points="11623.8,2925 11781.9,2924.32 11742.2,2884.96 11749.8,2829.59 "/>
<text x="12955" y="2569" font-family="Times" font-style="Roman" font-size="225" fill="black" text-anchor="middle">(1)</text>
<!-- Task Distributorn  distributor -1 ProtocolP1 -->
<polygon  fill="#ffffff" stroke="black" stroke-width="25" points="10318.8,2975 13096.2,2975 12606.2,7875 9828.75,7875 "/>
<polygon  fill="#ffffff" stroke="black" stroke-width="25" points="10268.8,2925 13046.2,2925 12556.2,7825 9778.75,7825 "/>
<text x="11413" y="3944" font-family="Times" font-style="Roman" font-size="225" fill="black" text-anchor="middle">Distributor {$DistributorThread}</text>
<!-- Entry distributor A analyze -->
<polyline  stroke="black" stroke-width="25" fill="none" points="11128.8,2925 11061.2,3600 12118.8,3600 12186.2,2925 "/>
<text x="11624" y="3356" font-family="Times" font-style="Roman" font-size="225" fill="black" text-anchor="middle">distributor</text>
<line x1="11623.8" y1="3600" x2="11431.2" y2="4050" stroke="black" stroke-width="25"/>
<polygon fill="black" stroke="black" stroke-width="25" points="11431.2,4050 11536.2,3931.75 11480.4,3935.07 11444.3,3892.42 "/>
<!-- Call distributeEnd distributor -->
<line x1="11693.8" y1="6900" x2="11905" y2="3600" stroke-dasharray="75" stroke="black" stroke-width="25"/>
<polygon fill="black" stroke="black" stroke-width="25" points="11905,3600 11845.5,3746.5 11897,3724.74 11945.3,3752.89 "/>
<!-- Activity analyze s [1] level=1 -->
<polygon  fill="#ffffff" stroke="black" stroke-width="25" points="10906.2,4725 10906.2,4050 11956.2,4050 11956.2,4725 10906.2,4725 "/>
<text x="11431" y="4575" font-family="Times" font-style="Roman" font-size="225" fill="black" text-anchor="middle">[1]</text>
<text x="11431" y="4350" font-family="Times" font-style="Roman" font-size="225" fill="black" text-anchor="middle">analyze</text>
<!-- Activity cgiDrive level=2 -->
<polygon  fill="#ffffff" stroke="black" stroke-width="25" points="10306.2,6150 10306.2,5475 11356.2,5475 11356.2,6150 10306.2,6150 "/>
<!-- Call cgiDrive protocol2 y (1) -->
<line x1="10568.8" y1="6150" x2="10422.5" y2="9175" stroke="black" stroke-width="25"/>
<polygon fill="black" stroke="black" stroke-width="25" points="10422.5,9175 10479.7,9027.59 10428.5,9050.15 10379.8,9022.76 "/>
<text x="10444" y="8819" font-family="Times" font-style="Roman" font-size="225" fill="black" text-anchor="middle">(1)</text>
<text x="10831" y="5906" font-family="Times" font-style="Roman" font-size="225" fill="black" text-anchor="middle">cgiDrive</text>
<!-- Activity distributeEnd level=3 -->
<polygon  fill="#ffffff" stroke="black" stroke-width="25" points="10906.2,7575 10906.2,6900 11956.2,6900 11956.2,7575 10906.2,7575 "/>
<text x="11431" y="7331" font-family="Times" font-style="Roman" font-size="225" fill="black" text-anchor="middle">distributeEnd</text>
<!-- Activity staticPage level=2 -->
<polygon  fill="#ffffff" stroke="black" stroke-width="25" points="11506.2,6150 11506.2,5475 12556.2,5475 12556.2,6150 11506.2,6150 "/>
<!-- Call staticPage protocol1 y (1) -->
<line x1="11768.8" y1="6150" x2="12447.5" y2="9175" stroke="black" stroke-width="25"/>
<polygon fill="black" stroke="black" stroke-width="25" points="12447.5,9175 12463.4,9017.69 12420.1,9053.03 12365.9,9039.59 "/>
<text x="12347" y="8819" font-family="Times" font-style="Roman" font-size="225" fill="black" text-anchor="middle">(1)</text>
<text x="12031" y="5906" font-family="Times" font-style="Roman" font-size="225" fill="black" text-anchor="middle">staticPage</text>
<line x1="11431.2" y1="4725" x2="11431.2" y2="4975" stroke="black" stroke-width="25"/>
<polygon fill="black" stroke="black" stroke-width="25" points="11431.2,4975 11481.2,4825 11431.2,4850 11381.2,4825 "/>
<circle cx="11431" cy="6500" r="150"  fill="#ffffff" stroke="black" stroke-width="25"/>
<text x="11431" y="6575" font-family="Times" font-style="Roman" font-size="225" fill="black" text-anchor="middle">+</text>
<line x1="10831.2" y1="6150" x2="11301.7" y2="6424.42" stroke="black" stroke-width="25"/>
<polygon fill="black" stroke="black" stroke-width="25" points="11301.7,6424.42 11197.3,6305.65 11193.7,6361.44 11146.9,6392.03 "/>
<line x1="12031.2" y1="6150" x2="11560.8" y2="6424.42" stroke="black" stroke-width="25"/>
<polygon fill="black" stroke="black" stroke-width="25" points="11560.8,6424.42 11715.6,6392.03 11668.8,6361.44 11665.2,6305.65 "/>
<circle cx="11431" cy="5125" r="150"  fill="#ffffff" stroke="black" stroke-width="25"/>
<text x="11431" y="5200" font-family="Times" font-style="Roman" font-size="225" fill="black" text-anchor="middle">+</text>
<line x1="11301.7" y1="5200.58" x2="10831.2" y2="5475" stroke="black" stroke-width="25"/>
<polygon fill="black" stroke="black" stroke-width="25" points="10831.2,5475 10986,5442.61 10939.2,5412.02 10935.6,5356.23 "/>
<line x1="11560.8" y1="5200.58" x2="12031.2" y2="5475" stroke="black" stroke-width="25"/>
<polygon fill="black" stroke="black" stroke-width="25" points="12031.2,5475 11926.9,5356.23 11923.3,5412.02 11876.5,5442.61 "/>
<line x1="11301.7" y1="5200.58" x2="10831.2" y2="5475" stroke="black" stroke-width="25"/>
<polygon fill="black" stroke="black" stroke-width="25" points="10831.2,5475 10986,5442.61 10939.2,5412.02 10935.6,5356.23 "/>
<line x1="11560.8" y1="5200.58" x2="12031.2" y2="5475" stroke="black" stroke-width="25"/>
<polygon fill="black" stroke="black" stroke-width="25" points="12031.2,5475 11926.9,5356.23 11923.3,5412.02 11876.5,5442.61 "/>
<text x="10874" y="5402" font-family="Times" font-style="Roman" font-size="225" fill="black" text-anchor="middle">0.1</text>
<text x="11988" y="5402" font-family="Times" font-style="Roman" font-size="225" fill="black" text-anchor="middle">0.9</text>
<line x1="11431.2" y1="6650" x2="11431.2" y2="6900" stroke="black" stroke-width="25"/>
<polygon fill="black" stroke="black" stroke-width="25" points="11431.2,6900 11481.2,6750 11431.2,6775 11381.2,6750 "/>
<!-- Task Protocol2n  protocol2 -1 ProtocolP1 -->
<polygon  fill="#ffffff" stroke="black" stroke-width="25" points="9662.5,9225 11350,9225 11237.5,10350 9550,10350 "/>
<polygon  fill="#ffffff" stroke="black" stroke-width="25" points="9612.5,9175 11300,9175 11187.5,10300 9500,10300 "/>
<text x="10400" y="10169" font-family="Times" font-style="Roman" font-size="225" fill="black" text-anchor="middle">Protocol2 {$Prot2Thread}</text>
<!-- Entry protocol2 s [0.25] -->
<polyline  stroke="black" stroke-width="25" fill="none" points="9927.5,9175 9860,9850 10917.5,9850 10985,9175 "/>
<text x="10423" y="9700" font-family="Times" font-style="Roman" font-size="225" fill="black" text-anchor="middle">[0.25]</text>
<text x="10423" y="9475" font-family="Times" font-style="Roman" font-size="225" fill="black" text-anchor="middle">protocol2</text>
<!-- Call protocol2 cgiApp y (1) -->
<line x1="10422.5" y1="9850" x2="2295" y2="11650" stroke="black" stroke-width="25"/>
<polygon fill="black" stroke="black" stroke-width="25" points="2295,11650 2452.26,11666.4 2417.04,11623 2430.64,11568.7 "/>
<text x="4327" y="11294" font-family="Times" font-style="Roman" font-size="225" fill="black" text-anchor="middle">(1)</text>
<!-- Task Protocol1n  protocol1 -1 ProtocolP1 -->
<polygon  fill="#ffffff" stroke="black" stroke-width="25" points="11687.5,9225 13375,9225 13262.5,10350 11575,10350 "/>
<polygon  fill="#ffffff" stroke="black" stroke-width="25" points="11637.5,9175 13325,9175 13212.5,10300 11525,10300 "/>
<text x="12425" y="10169" font-family="Times" font-style="Roman" font-size="225" fill="black" text-anchor="middle">Protocol1 {$Prot1Thread}</text>
<!-- Entry protocol1 s [0.25] -->
<polyline  stroke="black" stroke-width="25" fill="none" points="11952.5,9175 11885,9850 12942.5,9850 13010,9175 "/>
<text x="12448" y="9700" font-family="Times" font-style="Roman" font-size="225" fill="black" text-anchor="middle">[0.25]</text>
<text x="12448" y="9475" font-family="Times" font-style="Roman" font-size="225" fill="black" text-anchor="middle">protocol1</text>
<!-- Call protocol1 webServer y (1) -->
<line x1="12447.5" y1="9850" x2="22370" y2="11650" stroke="black" stroke-width="25"/>
<polygon fill="black" stroke="black" stroke-width="25" points="22370,11650 22231.3,11574 22247,11627.7 22213.5,11672.4 "/>
<text x="19889" y="11294" font-family="Times" font-style="Roman" font-size="225" fill="black" text-anchor="middle">(1)</text>
<!-- Task CGIAppn  cgiApp -1 CGIP -->
<polygon  fill="#ffffff" stroke="black" stroke-width="25" points="990,11700 3767.5,11700 3277.5,16600 500,16600 "/>
<polygon  fill="#ffffff" stroke="black" stroke-width="25" points="940,11650 3717.5,11650 3227.5,16550 450,16550 "/>
<text x="2084" y="12669" font-family="Times" font-style="Roman" font-size="225" fill="black" text-anchor="middle">CGIApp {$CGIAppThread}</text>
<!-- Entry cgiApp A cgiStart -->
<polyline  stroke="black" stroke-width="25" fill="none" points="1800,11650 1732.5,12325 2790,12325 2857.5,11650 "/>
<text x="2295" y="12081" font-family="Times" font-style="Roman" font-size="225" fill="black" text-anchor="middle">cgiApp</text>
<line x1="2295" y1="12325" x2="2102.5" y2="12775" stroke="black" stroke-width="25"/>
<polygon fill="black" stroke="black" stroke-width="25" points="2102.5,12775 2207.47,12656.8 2151.66,12660.1 2115.52,12617.4 "/>
<!-- Call cgiAppEnd cgiApp -->
<line x1="2365" y1="15625" x2="2576.25" y2="12325" stroke-dasharray="75" stroke="black" stroke-width="25"/>
<polygon fill="black" stroke="black" stroke-width="25" points="2576.25,12325 2516.77,12471.5 2568.26,12449.7 2616.57,12477.9 "/>
<!-- Activity cdPage s [5] level=2 -->
<polygon  fill="#ffffff" stroke="black" stroke-width="25" points="977.5,14875 977.5,14200 2027.5,14200 2027.5,14875 977.5,14875 "/>
<!-- Call cdPage dbRead y (4.3) -->
<line x1="1677.5" y1="14875" x2="7432.5" y2="17900" stroke="black" stroke-width="25"/>
<polygon fill="black" stroke="black" stroke-width="25" points="7432.5,17900 7322.99,17786 7321.85,17841.8 7276.46,17874.5 "/>
<text x="6576" y="17544" font-family="Times" font-style="Roman" font-size="225" fill="black" text-anchor="middle">(4.3)</text>
<!-- Call cdPage sendDynamic y (1) -->
<line x1="1852.5" y1="14875" x2="21652.5" y2="17900" stroke="black" stroke-width="25"/>
<polygon fill="black" stroke="black" stroke-width="25" points="21652.5,17900 21511.8,17827.9 21528.9,17881.1 21496.7,17926.8 "/>
<text x="18707" y="17544" font-family="Times" font-style="Roman" font-size="225" fill="black" text-anchor="middle">(1)</text>
<text x="1503" y="14725" font-family="Times" font-style="Roman" font-size="225" fill="black" text-anchor="middle">[5]</text>
<text x="1503" y="14500" font-family="Times" font-style="Roman" font-size="225" fill="black" text-anchor="middle">cdPage</text>
<!-- Activity cgiAppEnd level=3 -->
<polygon  fill="#ffffff" stroke="black" stroke-width="25" points="1577.5,16300 1577.5,15625 2627.5,15625 2627.5,16300 1577.5,16300 "/>
<text x="2103" y="16056" font-family="Times" font-style="Roman" font-size="225" fill="black" text-anchor="middle">cgiAppEnd</text>
<!-- Activity cgiStart level=1 -->
<polygon  fill="#ffffff" stroke="black" stroke-width="25" points="1577.5,13450 1577.5,12775 2627.5,12775 2627.5,13450 1577.5,13450 "/>
<text x="2103" y="13206" font-family="Times" font-style="Roman" font-size="225" fill="black" text-anchor="middle">cgiStart</text>
<!-- Activity procData s [15] level=2 -->
<polygon  fill="#ffffff" stroke="black" stroke-width="25" points="2177.5,14875 2177.5,14200 3227.5,14200 3227.5,14875 2177.5,14875 "/>
<!-- Call procData dbUpdate y (1.7) -->
<line x1="2877.5" y1="14875" x2="8490" y2="17900" stroke="black" stroke-width="25"/>
<polygon fill="black" stroke="black" stroke-width="25" points="8490,17900 8381.68,17784.8 8379.96,17840.7 8334.24,17872.8 "/>
<text x="7655" y="17544" font-family="Times" font-style="Roman" font-size="225" fill="black" text-anchor="middle">(1.7)</text>
<!-- Call procData sendStatic y (1) -->
<line x1="3052.5" y1="14875" x2="22428.8" y2="17900" stroke="black" stroke-width="25"/>
<polygon fill="black" stroke="black" stroke-width="25" points="22428.8,17900 22288.3,17827.5 22305.2,17880.7 22272.8,17926.3 "/>
<text x="19546" y="17544" font-family="Times" font-style="Roman" font-size="225" fill="black" text-anchor="middle">(1)</text>
<text x="2703" y="14725" font-family="Times" font-style="Roman" font-size="225" fill="black" text-anchor="middle">[15]</text>
<text x="2703" y="14500" font-family="Times" font-style="Roman" font-size="225" fill="black" text-anchor="middle">procData</text>
<circle cx="2103" cy="15225" r="150"  fill="#ffffff" stroke="black" stroke-width="25"/>
<text x="2103" y="15300" font-family="Times" font-style="Roman" font-size="225" fill="black" text-anchor="middle">+</text>
<line x1="1502.5" y1="14875" x2="1972.93" y2="15149.4" stroke="black" stroke-width="25"/>
<polygon fill="black" stroke="black" stroke-width="25" points="1972.93,15149.4 1868.56,15030.6 1864.96,15086.4 1818.17,15117 "/>
<line x1="2702.5" y1="14875" x2="2232.07" y2="15149.4" stroke="black" stroke-width="25"/>
<polygon fill="black" stroke="black" stroke-width="25" points="2232.07,15149.4 2386.83,15117 2340.04,15086.4 2336.44,15030.6 "/>
<circle cx="2103" cy="13850" r="150"  fill="#ffffff" stroke="black" stroke-width="25"/>
<text x="2103" y="13925" font-family="Times" font-style="Roman" font-size="225" fill="black" text-anchor="middle">+</text>
<line x1="1972.93" y1="13925.6" x2="1502.5" y2="14200" stroke="black" stroke-width="25"/>
<polygon fill="black" stroke="black" stroke-width="25" points="1502.5,14200 1657.26,14167.6 1610.47,14137 1606.87,14081.2 "/>
<line x1="2232.07" y1="13925.6" x2="2702.5" y2="14200" stroke="black" stroke-width="25"/>
<polygon fill="black" stroke="black" stroke-width="25" points="2702.5,14200 2598.13,14081.2 2594.53,14137 2547.74,14167.6 "/>
<line x1="1972.93" y1="13925.6" x2="1502.5" y2="14200" stroke="black" stroke-width="25"/>
<polygon fill="black" stroke="black" stroke-width="25" points="1502.5,14200 1657.26,14167.6 1610.47,14137 1606.87,14081.2 "/>
<line x1="2232.07" y1="13925.6" x2="2702.5" y2="14200" stroke="black" stroke-width="25"/>
<polygon fill="black" stroke="black" stroke-width="25" points="2702.5,14200 2598.13,14081.2 2594.53,14137 2547.74,14167.6 "/>
<text x="1546" y="14127" font-family="Times" font-style="Roman" font-size="225" fill="black" text-anchor="middle">0.4</text>
<text x="2659" y="14127" font-family="Times" font-style="Roman" font-size="225" fill="black" text-anchor="middle">0.6</text>
<line x1="2102.5" y1="15375" x2="2102.5" y2="15625" stroke="black" stroke-width="25"/>
<polygon fill="black" stroke="black" stroke-width="25" points="2102.5,15625 2152.5,15475 2102.5,15500 2052.5,15475 "/>
<line x1="2102.5" y1="13450" x2="2102.5" y2="13700" stroke="black" stroke-width="25"/>
<polygon fill="black" stroke="black" stroke-width="25" points="2102.5,13700 2152.5,13550 2102.5,13575 2052.5,13550 "/>
<!-- Task WebServern  webServer -1 WSP -->
<polygon  fill="#ffffff" stroke="black" stroke-width="25" points="21065,11700 23842.5,11700 23352.5,16600 20575,16600 "/>
<polygon  fill="#ffffff" stroke="black" stroke-width="25" points="21015,11650 23792.5,11650 23302.5,16550 20525,16550 "/>
<text x="22159" y="12669" font-family="Times" font-style="Roman" font-size="225" fill="black" text-anchor="middle">WebServer {$WSThread}</text>
<!-- Entry webServer A cache -->
<polyline  stroke="black" stroke-width="25" fill="none" points="21875,11650 21807.5,12325 22865,12325 22932.5,11650 "/>
<text x="22370" y="12081" font-family="Times" font-style="Roman" font-size="225" fill="black" text-anchor="middle">webServer</text>
<line x1="22370" y1="12325" x2="22177.5" y2="12775" stroke="black" stroke-width="25"/>
<polygon fill="black" stroke="black" stroke-width="25" points="22177.5,12775 22282.5,12656.8 22226.7,12660.1 22190.5,12617.4 "/>
<!-- Call webServerEnd webServer -->
<line x1="22440" y1="15625" x2="22651.2" y2="12325" stroke-dasharray="75" stroke="black" stroke-width="25"/>
<polygon fill="black" stroke="black" stroke-width="25" points="22651.2,12325 22591.8,12471.5 22643.3,12449.7 22691.6,12477.9 "/>
<!-- Activity cache s [1] level=1 -->
<polygon  fill="#ffffff" stroke="black" stroke-width="25" points="21652.5,13450 21652.5,12775 22702.5,12775 22702.5,13450 21652.5,13450 "/>
<text x="22178" y="13300" font-family="Times" font-style="Roman" font-size="225" fill="black" text-anchor="middle">[1]</text>
<text x="22178" y="13075" font-family="Times" font-style="Roman" font-size="225" fill="black" text-anchor="middle">cache</text>
<!-- Activity cacheEnd level=2 -->
<polygon  fill="#ffffff" stroke="black" stroke-width="25" points="21052.5,14875 21052.5,14200 22102.5,14200 22102.5,14875 21052.5,14875 "/>
<!-- Call cacheEnd sendStatic y (1) -->
<line x1="21840" y1="14875" x2="22710" y2="17900" stroke="black" stroke-width="25"/>
<polygon fill="black" stroke="black" stroke-width="25" points="22710,17900 22716.6,17742 22675.5,17779.9 22620.5,17769.7 "/>
<text x="22451" y="17094" font-family="Times" font-style="Roman" font-size="225" fill="black" text-anchor="middle">(1)</text>
<text x="21578" y="14631" font-family="Times" font-style="Roman" font-size="225" fill="black" text-anchor="middle">cacheEnd</text>
<!-- Activity diskFetch s [1] level=2 -->
<polygon  fill="#ffffff" stroke="black" stroke-width="25" points="22252.5,14875 22252.5,14200 23302.5,14200 23302.5,14875 22252.5,14875 "/>
<!-- Call diskFetch webRorW y (3) -->
<line x1="22427.5" y1="14875" x2="19385" y2="22850" stroke="black" stroke-width="25"/>
<polygon fill="black" stroke="black" stroke-width="25" points="19385,22850 19485.2,22727.7 19429.6,22733.2 19391.8,22692 "/>
<text x="19728" y="22044" font-family="Times" font-style="Roman" font-size="225" fill="black" text-anchor="middle">(3)</text>
<!-- Call diskFetch sendStatic y (1) -->
<line x1="22602.5" y1="14875" x2="22991.2" y2="17900" stroke="black" stroke-width="25"/>
<polygon fill="black" stroke="black" stroke-width="25" points="22991.2,17900 23021.7,17744.9 22975.3,17776 22922.5,17757.6 "/>
<text x="22933" y="17544" font-family="Times" font-style="Roman" font-size="225" fill="black" text-anchor="middle">(1)</text>
<text x="22778" y="14725" font-family="Times" font-style="Roman" font-size="225" fill="black" text-anchor="middle">[1]</text>
<text x="22778" y="14500" font-family="Times" font-style="Roman" font-size="225" fill="black" text-anchor="middle">diskFetch</text>
<!-- Activity webServerEnd level=3 -->
<polygon  fill="#ffffff" stroke="black" stroke-width="25" points="21652.5,16300 21652.5,15625 22702.5,15625 22702.5,16300 21652.5,16300 "/>
<text x="22178" y="16056" font-family="Times" font-style="Roman" font-size="225" fill="black" text-anchor="middle">webServerEnd</text>
<line x1="22177.5" y1="13450" x2="22177.5" y2="13700" stroke="black" stroke-width="25"/>
<polygon fill="black" stroke="black" stroke-width="25" points="22177.5,13700 22227.5,13550 22177.5,13575 22127.5,13550 "/>
<circle cx="22178" cy="15225" r="150"  fill="#ffffff" stroke="black" stroke-width="25"/>
<text x="22178" y="15300" font-family="Times" font-style="Roman" font-size="225" fill="black" text-anchor="middle">+</text>
<line x1="21577.5" y1="14875" x2="22047.9" y2="15149.4" stroke="black" stroke-width="25"/>
<polygon fill="black" stroke="black" stroke-width="25" points="22047.9,15149.4 21943.6,15030.6 21940,15086.4 21893.2,15117 "/>
<line x1="22777.5" y1="14875" x2="22307.1" y2="15149.4" stroke="black" stroke-width="25"/>
<polygon fill="black" stroke="black" stroke-width="25" points="22307.1,15149.4 22461.8,15117 22415,15086.4 22411.4,15030.6 "/>
<circle cx="22178" cy="13850" r="150"  fill="#ffffff" stroke="black" stroke-width="25"/>
<text x="22178" y="13925" font-family="Times" font-style="Roman" font-size="225" fill="black" text-anchor="middle">+</text>
<line x1="22047.9" y1="13925.6" x2="21577.5" y2="14200" stroke="black" stroke-width="25"/>
<polygon fill="black" stroke="black" stroke-width="25" points="21577.5,14200 21732.3,14167.6 21685.5,14137 21681.9,14081.2 "/>
<line x1="22307.1" y1="13925.6" x2="22777.5" y2="14200" stroke="black" stroke-width="25"/>
<polygon fill="black" stroke="black" stroke-width="25" points="22777.5,14200 22673.1,14081.2 22669.5,14137 22622.7,14167.6 "/>
<line x1="22047.9" y1="13925.6" x2="21577.5" y2="14200" stroke="black" stroke-width="25"/>
<polygon fill="black" stroke="black" stroke-width="25" points="21577.5,14200 21732.3,14167.6 21685.5,14137 21681.9,14081.2 "/>
<line x1="22307.1" y1="13925.6" x2="22777.5" y2="14200" stroke="black" stroke-width="25"/>
<polygon fill="black" stroke="black" stroke-width="25" points="22777.5,14200 22673.1,14081.2 22669.5,14137 22622.7,14167.6 "/>
<text x="21621" y="14127" font-family="Times" font-style="Roman" font-size="225" fill="black" text-anchor="middle">0.7</text>
<text x="22734" y="14127" font-family="Times" font-style="Roman" font-size="225" fill="black" text-anchor="middle">0.3</text>
<line x1="22177.5" y1="15375" x2="22177.5" y2="15625" stroke="black" stroke-width="25"/>
<polygon fill="black" stroke="black" stroke-width="25" points="22177.5,15625 22227.5,15475 22177.5,15500 22127.5,15475 "/>
<!-- Task DBProcessn  dbUpdate dbRead -1 DBP -->
<polygon  fill="#ffffff" stroke="black" stroke-width="25" points="6987.5,17950 9102.5,17950 8990,19075 6875,19075 "/>
<polygon  fill="#ffffff" stroke="black" stroke-width="25" points="6937.5,17900 9052.5,17900 8940,19025 6825,19025 "/>
<text x="7939" y="18894" font-family="Times" font-style="Roman" font-size="225" fill="black" text-anchor="middle">DBProcess {$DBProcessThread}</text>
<!-- Entry dbRead s [20] -->
<polyline  stroke="black" stroke-width="25" fill="none" points="6870,18575 7927.5,18575 7995,17900 "/>
<text x="7433" y="18425" font-family="Times" font-style="Roman" font-size="225" fill="black" text-anchor="middle">[20]</text>
<text x="7433" y="18200" font-family="Times" font-style="Roman" font-size="225" fill="black" text-anchor="middle">dbRead</text>
<!-- Call dbRead read y (4) -->
<line x1="7432.5" y1="18575" x2="4570" y2="20375" stroke="black" stroke-width="25"/>
<polygon fill="black" stroke="black" stroke-width="25" points="4570,20375 4723.6,20337.5 4675.82,20308.5 4670.37,20252.8 "/>
<text x="5286" y="20019" font-family="Times" font-style="Roman" font-size="225" fill="black" text-anchor="middle">(4)</text>
<!-- Entry dbUpdate s [30] -->
<line x1="7927.5" y1="18575" x2="8985" y2="18575" stroke="black" stroke-width="25"/>
<text x="8490" y="18425" font-family="Times" font-style="Roman" font-size="225" fill="black" text-anchor="middle">[30]</text>
<text x="8490" y="18200" font-family="Times" font-style="Roman" font-size="225" fill="black" text-anchor="middle">dbUpdate</text>
<!-- Call dbUpdate read y (2) -->
<line x1="8302.5" y1="18575" x2="4945" y2="20375" stroke="black" stroke-width="25"/>
<polygon fill="black" stroke="black" stroke-width="25" points="4945,20375 5100.82,20348.2 5055.17,20315.9 5053.58,20260.1 "/>
<text x="6624" y="19569" font-family="Times" font-style="Roman" font-size="225" fill="black" text-anchor="middle">(2)</text>
<!-- Call dbUpdate write y (4) -->
<line x1="8677.5" y1="18575" x2="5815" y2="20375" stroke="black" stroke-width="25"/>
<polygon fill="black" stroke="black" stroke-width="25" points="5815,20375 5968.6,20337.5 5920.82,20308.5 5915.37,20252.8 "/>
<text x="6531" y="20019" font-family="Times" font-style="Roman" font-size="225" fill="black" text-anchor="middle">(4)</text>
<!-- Task WebReplyn  sendStatic sendDynamic -1 WSP -->
<polygon  fill="#ffffff" stroke="black" stroke-width="25" points="21207.5,17950 23322.5,17950 23210,19075 21095,19075 "/>
<polygon  fill="#ffffff" stroke="black" stroke-width="25" points="21157.5,17900 23272.5,17900 23160,19025 21045,19025 "/>
<text x="22159" y="18894" font-family="Times" font-style="Roman" font-size="225" fill="black" text-anchor="middle">WebReply {$WReplyThread}</text>
<!-- Entry sendDynamic s [0.8] -->
<polyline  stroke="black" stroke-width="25" fill="none" points="21090,18575 22147.5,18575 22215,17900 "/>
<text x="21653" y="18425" font-family="Times" font-style="Roman" font-size="225" fill="black" text-anchor="middle">[0.8]</text>
<text x="21653" y="18200" font-family="Times" font-style="Roman" font-size="225" fill="black" text-anchor="middle">sendDynamic</text>
<!-- Call sendDynamic packet y (40) -->
<line x1="21465" y1="18575" x2="14510" y2="20375" stroke="black" stroke-width="25"/>
<polygon fill="black" stroke="black" stroke-width="25" points="14510,20375 14667.7,20385.8 14631,20343.7 14642.7,20289 "/>
<text x="16249" y="20019" font-family="Times" font-style="Roman" font-size="225" fill="black" text-anchor="middle">(40)</text>
<!-- Call sendDynamic getObjects y (8) -->
<line x1="21840" y1="18575" x2="22181.2" y2="20375" stroke="black" stroke-width="25"/>
<polygon fill="black" stroke="black" stroke-width="25" points="22181.2,20375 22202.4,20218.3 22158,20252.2 22104.2,20236.9 "/>
<text x="22096" y="20019" font-family="Times" font-style="Roman" font-size="225" fill="black" text-anchor="middle">(8)</text>
<!-- Entry sendStatic s [0.8] -->
<line x1="22147.5" y1="18575" x2="23205" y2="18575" stroke="black" stroke-width="25"/>
<text x="22710" y="18425" font-family="Times" font-style="Roman" font-size="225" fill="black" text-anchor="middle">[0.8]</text>
<text x="22710" y="18200" font-family="Times" font-style="Roman" font-size="225" fill="black" text-anchor="middle">sendStatic</text>
<!-- Call sendStatic packet y (16) -->
<line x1="22710" y1="18575" x2="14885" y2="20375" stroke="black" stroke-width="25"/>
<polygon fill="black" stroke="black" stroke-width="25" points="14885,20375 15042.4,20390.1 15006.8,20347 15020,20292.6 "/>
<text x="18798" y="19569" font-family="Times" font-style="Roman" font-size="225" fill="black" text-anchor="middle">(16)</text>
<!-- Task DBOperationn  write read -1 DBDisk -->
<polygon  fill="#ffffff" stroke="black" stroke-width="25" points="4262.5,20375 6377.5,20375 6265,21500 4150,21500 "/>
<text x="5264" y="21369" font-family="Times" font-style="Roman" font-size="225" fill="black" text-anchor="middle">DBOperation</text>
<!-- Entry read s [0.1] -->
<polyline  stroke="black" stroke-width="25" fill="none" points="4195,21050 5252.5,21050 5320,20375 "/>
<text x="4758" y="20900" font-family="Times" font-style="Roman" font-size="225" fill="black" text-anchor="middle">[0.1]</text>
<text x="4758" y="20675" font-family="Times" font-style="Roman" font-size="225" fill="black" text-anchor="middle">read</text>
<!-- Entry write s [0.1] -->
<line x1="5252.5" y1="21050" x2="6310" y2="21050" stroke="black" stroke-width="25"/>
<text x="5815" y="20900" font-family="Times" font-style="Roman" font-size="225" fill="black" text-anchor="middle">[0.1]</text>
<text x="5815" y="20675" font-family="Times" font-style="Roman" font-size="225" fill="black" text-anchor="middle">write</text>
<!-- Task ProtocolReplyn  packet -1 ProtocolP2 -->
<polygon  fill="#ffffff" stroke="black" stroke-width="25" points="13937.5,20425 15625,20425 15512.5,21550 13825,21550 "/>
<polygon  fill="#ffffff" stroke="black" stroke-width="25" points="13887.5,20375 15575,20375 15462.5,21500 13775,21500 "/>
<text x="14675" y="21369" font-family="Times" font-style="Roman" font-size="225" fill="black" text-anchor="middle">ProtocolReply {$PRThread}</text>
<!-- Entry packet s [0.25] -->
<polyline  stroke="black" stroke-width="25" fill="none" points="14202.5,20375 14135,21050 15192.5,21050 15260,20375 "/>
<text x="14698" y="20900" font-family="Times" font-style="Roman" font-size="225" fill="black" text-anchor="middle">[0.25]</text>
<text x="14698" y="20675" font-family="Times" font-style="Roman" font-size="225" fill="black" text-anchor="middle">packet</text>
<!-- Task GetObjectsn  getObjects -1 WSP -->
<polygon  fill="#ffffff" stroke="black" stroke-width="25" points="21371.2,20375 23058.8,20375 22946.2,21500 21258.8,21500 "/>
<text x="22159" y="21369" font-family="Times" font-style="Roman" font-size="225" fill="black" text-anchor="middle">GetObjects</text>
<!-- Entry getObjects s [1] -->
<polyline  stroke="black" stroke-width="25" fill="none" points="21686.2,20375 21618.8,21050 22676.2,21050 22743.8,20375 "/>
<text x="22181" y="20900" font-family="Times" font-style="Roman" font-size="225" fill="black" text-anchor="middle">[1]</text>
<text x="22181" y="20675" font-family="Times" font-style="Roman" font-size="225" fill="black" text-anchor="middle">getObjects</text>
<!-- Call getObjects webRorW y (0.2) -->
<line x1="22181.2" y1="21050" x2="19010" y2="22850" stroke="black" stroke-width="25"/>
<polygon fill="black" stroke="black" stroke-width="25" points="19010,22850 19165.1,22819.4 19118.7,22788.3 19115.8,22732.5 "/>
<text x="19803" y="22494" font-family="Times" font-style="Roman" font-size="225" fill="black" text-anchor="middle">(0.2)</text>
<!-- Task WebDiskn  webRorW -1 WSDisk -->
<polygon  fill="#ffffff" stroke="black" stroke-width="25" points="18387.5,22850 20075,22850 19962.5,23975 18275,23975 "/>
<text x="19175" y="23844" font-family="Times" font-style="Roman" font-size="225" fill="black" text-anchor="middle">WebDisk</text>
<!-- Entry webRorW s [0.1] -->
<polyline  stroke="black" stroke-width="25" fill="none" points="18702.5,22850 18635,23525 19692.5,23525 19760,22850 "/>
<text x="19198" y="23375" font-family="Times" font-style="Roman" font-size="225" fill="black" text-anchor="middle">[0.1]</text>
<text x="19198" y="23150" font-family="Times" font-style="Roman" font-size="225" fill="black" text-anchor="middle">webRorW</text>
</svg>
