<?xml version="1.0" standalone="no"?>
<!DOCTYPE svg PUBLIC "-//W3C//DTD SVG 20000303 Stylable//EN"
"http://www.w3.org/TR/2000/03/WD-SVG-20000303/DTD/svg-20000303-stylable.dtd">
<!-- Title: webServerEnd-001.lqxo -->
<!-- Creator: lqn2svg Version 5.25 -->
<!-- Mon Apr 11 21:20:00 2022 -->
<!-- For: Haomi -->
<!-- Invoked as: lqn2svg webServerEnd-001.lqxo -->
<svg xmlns="http://www.w3.org/2000/svg" width="2.47361in" height="6.76389in" viewBox="0 0 4453 12175">
<desc>0x17b9b80</desc>
<!-- Task Userr  user -1 UserP -->
<polygon  fill="#ffffff" stroke="black" stroke-width="25" points="1438.75,450 3126.25,450 3013.75,1575 1326.25,1575 "/>
<text x="2226" y="1538" font-family="Times" font-style="Roman" font-size="225" fill="black" text-anchor="middle">&#0955;=0.413,&#0961;=1</text>
<text x="2226" y="1313" font-family="Times" font-style="Roman" font-size="225" fill="black" text-anchor="middle">User</text>
<!-- Entry user s [0] -->
<polyline  stroke="black" stroke-width="25" fill="none" points="1753.75,450 1686.25,1125 2743.75,1125 2811.25,450 "/>
<text x="2249" y="1069" font-family="Times" font-style="Roman" font-size="225" fill="black" text-anchor="middle">2.42</text>
<text x="2249" y="844" font-family="Times" font-style="Roman" font-size="225" fill="black" text-anchor="middle">[0]</text>
<text x="2249" y="619" font-family="Times" font-style="Roman" font-size="225" fill="black" text-anchor="middle">user</text>
<!-- Call user protocol y (1) -->
<line x1="2248.75" y1="1125" x2="2248.75" y2="2925" stroke="Red" stroke-width="25"/>
<polygon fill="Red" stroke="Red" stroke-width="25" points="2248.75,2925 2298.75,2775 2248.75,2800 2198.75,2775 "/>
<text x="2249" y="2663" font-family="Times" font-style="Roman" font-size="225" fill="black" text-anchor="middle">0</text>
<text x="2249" y="2438" font-family="Times" font-style="Roman" font-size="225" fill="black" text-anchor="middle">(1)</text>
<!-- Task Protocoln  protocol -1 WSP -->
<polygon  fill="#ffe5e5" stroke="Red" stroke-width="25" points="1438.75,2925 3126.25,2925 3013.75,4050 1326.25,4050 "/>
<text x="2226" y="4013" font-family="Times" font-style="Roman" font-size="225" fill="black" text-anchor="middle">&#0955;=0.413,&#0961;=1</text>
<text x="2226" y="3788" font-family="Times" font-style="Roman" font-size="225" fill="black" text-anchor="middle">Protocol</text>
<!-- Entry protocol s [0.25] -->
<polyline  stroke="Red" stroke-width="25" fill="none" points="1753.75,2925 1686.25,3600 2743.75,3600 2811.25,2925 "/>
<text x="2249" y="3544" font-family="Times" font-style="Roman" font-size="225" fill="black" text-anchor="middle">2.42</text>
<text x="2249" y="3319" font-family="Times" font-style="Roman" font-size="225" fill="black" text-anchor="middle">[0.25]</text>
<text x="2249" y="3094" font-family="Times" font-style="Roman" font-size="225" fill="black" text-anchor="middle">protocol</text>
<!-- Call protocol webServer y (1) -->
<line x1="2248.75" y1="3600" x2="2508.75" y2="5400" stroke="Orange" stroke-width="25"/>
<polygon fill="Orange" stroke="Orange" stroke-width="25" points="2508.75,5400 2536.79,5244.39 2490.88,5276.28 2437.82,5258.69 "/>
<text x="2444" y="5138" font-family="Times" font-style="Roman" font-size="225" fill="black" text-anchor="middle">0</text>
<text x="2444" y="4913" font-family="Times" font-style="Roman" font-size="225" fill="black" text-anchor="middle">(1)</text>
<!-- Task WebServern  webServer -1 WSP -->
<polygon  fill="#fff2e5" stroke="Orange" stroke-width="25" points="1082.5,5400 4002.5,5400 3370,11725 450,11725 "/>
<text x="2226" y="6513" font-family="Times" font-style="Roman" font-size="225" fill="black" text-anchor="middle">&#0955;=0.413,&#0961;=0.897</text>
<text x="2226" y="6288" font-family="Times" font-style="Roman" font-size="225" fill="black" text-anchor="middle">WebServer</text>
<!-- Entry webServer A analyze -->
<polyline  stroke="Orange" stroke-width="25" fill="none" points="2013.75,5400 1946.25,6075 3003.75,6075 3071.25,5400 "/>
<text x="2509" y="5925" font-family="Times" font-style="Roman" font-size="225" fill="black" text-anchor="middle">2.17</text>
<text x="2509" y="5700" font-family="Times" font-style="Roman" font-size="225" fill="black" text-anchor="middle">webServer</text>
<line x1="2508.75" y1="6075" x2="2245" y2="6525" stroke="Orange" stroke-width="25"/>
<polygon fill="Orange" stroke="Orange" stroke-width="25" points="2245,6525 2363.99,6420.87 2308.21,6417.16 2277.71,6370.31 "/>
<!-- Call webServerEnd webServer -->
<line x1="2507.5" y1="10800" x2="2790" y2="6075" stroke-dasharray="75" stroke="Orange" stroke-width="25"/>
<polygon fill="Orange" stroke="Orange" stroke-width="25" points="2790,6075 2731.14,6221.75 2782.54,6199.78 2830.96,6227.72 "/>
<!-- Activity analyze s [1] level=1 -->
<polygon  fill="#fff2e5" stroke="Orange" stroke-width="25" points="1720,7200 1720,6525 2770,6525 2770,7200 1720,7200 "/>
<text x="2245" y="7144" font-family="Times" font-style="Roman" font-size="225" fill="black" text-anchor="middle">1</text>
<text x="2245" y="6919" font-family="Times" font-style="Roman" font-size="225" fill="black" text-anchor="middle">[1]</text>
<text x="2245" y="6694" font-family="Times" font-style="Roman" font-size="225" fill="black" text-anchor="middle">analyze</text>
<!-- Activity cache s [1] level=2 -->
<polygon  fill="#fff2e5" stroke="Orange" stroke-width="25" points="1120,8625 1120,7950 2170,7950 2170,8625 1120,8625 "/>
<text x="1645" y="8569" font-family="Times" font-style="Roman" font-size="225" fill="black" text-anchor="middle">1</text>
<text x="1645" y="8344" font-family="Times" font-style="Roman" font-size="225" fill="black" text-anchor="middle">[1]</text>
<text x="1645" y="8119" font-family="Times" font-style="Roman" font-size="225" fill="black" text-anchor="middle">cache</text>
<!-- Activity cacheEnd s [0] level=3 -->
<polygon  fill="#fff2e5" stroke="Orange" stroke-width="25" points="1120,10050 1120,9375 2170,9375 2170,10050 1120,10050 "/>
<text x="1645" y="9994" font-family="Times" font-style="Roman" font-size="225" fill="black" text-anchor="middle">0</text>
<text x="1645" y="9769" font-family="Times" font-style="Roman" font-size="225" fill="black" text-anchor="middle">[0]</text>
<text x="1645" y="9544" font-family="Times" font-style="Roman" font-size="225" fill="black" text-anchor="middle">cacheEnd</text>
<!-- Activity cgiDrive s [0] level=2 -->
<polygon  fill="#fff2e5" stroke="Orange" stroke-width="25" points="2320,8625 2320,7950 3370,7950 3370,8625 2320,8625 "/>
<text x="2845" y="8569" font-family="Times" font-style="Roman" font-size="225" fill="black" text-anchor="middle">0</text>
<text x="2845" y="8344" font-family="Times" font-style="Roman" font-size="225" fill="black" text-anchor="middle">[0]</text>
<text x="2845" y="8119" font-family="Times" font-style="Roman" font-size="225" fill="black" text-anchor="middle">cgiDrive</text>
<!-- Activity diskFetch s [1] level=3 -->
<polygon  fill="#fff2e5" stroke="Orange" stroke-width="25" points="2320,10050 2320,9375 3370,9375 3370,10050 2320,10050 "/>
<text x="2845" y="9994" font-family="Times" font-style="Roman" font-size="225" fill="black" text-anchor="middle">1</text>
<text x="2845" y="9769" font-family="Times" font-style="Roman" font-size="225" fill="black" text-anchor="middle">[1]</text>
<text x="2845" y="9544" font-family="Times" font-style="Roman" font-size="225" fill="black" text-anchor="middle">diskFetch</text>
<!-- Activity webServerEnd s [0] level=4 -->
<polygon  fill="#fff2e5" stroke="Orange" stroke-width="25" points="1720,11475 1720,10800 2770,10800 2770,11475 1720,11475 "/>
<text x="2245" y="11419" font-family="Times" font-style="Roman" font-size="225" fill="black" text-anchor="middle">0</text>
<text x="2245" y="11194" font-family="Times" font-style="Roman" font-size="225" fill="black" text-anchor="middle">[0]</text>
<text x="2245" y="10969" font-family="Times" font-style="Roman" font-size="225" fill="black" text-anchor="middle">webServerEnd</text>
<line x1="2245" y1="7200" x2="2245" y2="7450" stroke="Orange" stroke-width="25"/>
<polygon fill="Orange" stroke="Orange" stroke-width="25" points="2245,7450 2295,7300 2245,7325 2195,7300 "/>
<line x1="1645" y1="8625" x2="2245" y2="8875" stroke="Orange" stroke-width="25"/>
<polygon fill="Orange" stroke="Orange" stroke-width="25" points="2245,8875 2125.77,8771.15 2129.62,8826.92 2087.31,8863.46 "/>
<circle cx="2245" cy="7600" r="150"  fill="#fff2e5" stroke="Orange" stroke-width="25"/>
<text x="2245" y="7675" font-family="Times" font-style="Roman" font-size="225" fill="Orange" text-anchor="middle">+</text>
<line x1="2115.43" y1="7675.58" x2="1645" y2="7950" stroke="Orange" stroke-width="25"/>
<polygon fill="Orange" stroke="Orange" stroke-width="25" points="1645,7950 1799.76,7917.61 1752.97,7887.02 1749.37,7831.23 "/>
<line x1="2374.57" y1="7675.58" x2="2845" y2="7950" stroke="Orange" stroke-width="25"/>
<polygon fill="Orange" stroke="Orange" stroke-width="25" points="2845,7950 2740.63,7831.23 2737.03,7887.02 2690.24,7917.61 "/>
<line x1="2115.43" y1="7675.58" x2="1645" y2="7950" stroke="Orange" stroke-width="25"/>
<polygon fill="Orange" stroke="Orange" stroke-width="25" points="1645,7950 1799.76,7917.61 1752.97,7887.02 1749.37,7831.23 "/>
<line x1="2374.57" y1="7675.58" x2="2845" y2="7950" stroke="Orange" stroke-width="25"/>
<polygon fill="Orange" stroke="Orange" stroke-width="25" points="2845,7950 2740.63,7831.23 2737.03,7887.02 2690.24,7917.61 "/>
<text x="1688" y="7877" font-family="Times" font-style="Roman" font-size="225" fill="black" text-anchor="middle">0.9</text>
<text x="2802" y="7877" font-family="Times" font-style="Roman" font-size="225" fill="black" text-anchor="middle">0.1</text>
<circle cx="2245" cy="10400" r="150"  fill="#fff2e5" stroke="Orange" stroke-width="25"/>
<text x="2245" y="10475" font-family="Times" font-style="Roman" font-size="225" fill="Orange" text-anchor="middle">+</text>
<line x1="1645" y1="10050" x2="2115.43" y2="10324.4" stroke="Orange" stroke-width="25"/>
<polygon fill="Orange" stroke="Orange" stroke-width="25" points="2115.43,10324.4 2011.06,10205.6 2007.46,10261.4 1960.67,10292 "/>
<line x1="2845" y1="8625" x2="2293.03" y2="10257.9" stroke="Orange" stroke-width="25"/>
<polygon fill="Orange" stroke="Orange" stroke-width="25" points="2293.03,10257.9 2388.44,10131.8 2333.06,10139.5 2293.7,10099.8 "/>
<line x1="2845" y1="10050" x2="2374.57" y2="10324.4" stroke="Orange" stroke-width="25"/>
<polygon fill="Orange" stroke="Orange" stroke-width="25" points="2374.57,10324.4 2529.33,10292 2482.54,10261.4 2478.94,10205.6 "/>
<circle cx="2245" cy="9025" r="150"  fill="#fff2e5" stroke="Orange" stroke-width="25"/>
<text x="2245" y="9100" font-family="Times" font-style="Roman" font-size="225" fill="Orange" text-anchor="middle">+</text>
<line x1="2115.43" y1="9100.58" x2="1645" y2="9375" stroke="Orange" stroke-width="25"/>
<polygon fill="Orange" stroke="Orange" stroke-width="25" points="1645,9375 1799.76,9342.61 1752.97,9312.02 1749.37,9256.23 "/>
<line x1="2374.57" y1="9100.58" x2="2845" y2="9375" stroke="Orange" stroke-width="25"/>
<polygon fill="Orange" stroke="Orange" stroke-width="25" points="2845,9375 2740.63,9256.23 2737.03,9312.02 2690.24,9342.61 "/>
<line x1="2115.43" y1="9100.58" x2="1645" y2="9375" stroke="Orange" stroke-width="25"/>
<polygon fill="Orange" stroke="Orange" stroke-width="25" points="1645,9375 1799.76,9342.61 1752.97,9312.02 1749.37,9256.23 "/>
<line x1="2374.57" y1="9100.58" x2="2845" y2="9375" stroke="Orange" stroke-width="25"/>
<polygon fill="Orange" stroke="Orange" stroke-width="25" points="2845,9375 2740.63,9256.23 2737.03,9312.02 2690.24,9342.61 "/>
<text x="1688" y="9302" font-family="Times" font-style="Roman" font-size="225" fill="black" text-anchor="middle">0.7</text>
<text x="2802" y="9302" font-family="Times" font-style="Roman" font-size="225" fill="black" text-anchor="middle">0.3</text>
<line x1="2245" y1="10550" x2="2245" y2="10800" stroke="Orange" stroke-width="25"/>
<polygon fill="Orange" stroke="Orange" stroke-width="25" points="2245,10800 2295,10650 2245,10675 2195,10650 "/>
</svg>
